<svg width="152" height="152" viewBox="0 0 152 152" fill="none" xmlns="http://www.w3.org/2000/svg">
<path d="M151.1 76C151.1 34.3 117.3 0.5 75.5999 0.5C33.8999 0.5 0.199951 34.3 0.199951 76C0.199951 117.7 34 151.5 75.7 151.5C78.2 151.5 151 151.1 151 151.1C151 151.1 151.1 77.9 151.1 76Z" fill="#0D4B76"/>
<path d="M106.9 93.9V61.1L78.5999 44.7L50.0999 61.1V93.9L78.5999 110.2L106.9 93.9Z" fill="#AECC53"/>
<path d="M78.6 99.2L59.7 88.3V66.6L78.6 55.7L97.5 66.6V88.4L78.6 99.2ZM62.4 86.8L78.5 96.1L94.6 86.8V68.2L78.5 58.9L62.4 68.2V86.8Z" fill="white"/>
<path d="M56.1 116.8H32.7V38.1H56.1V42.5H36.9V112.4H56.1V116.8Z" fill="white"/>
<path d="M124.6 116.8H100.9V112.4H120.1V42.5H100.9V38.1H124.6V116.8Z" fill="white"/>
</svg>
