<svg width="79" height="67" viewBox="0 0 79 67" fill="none" xmlns="http://www.w3.org/2000/svg">
<path d="M53.7407 14.6521C54.8925 16.1949 54.5749 18.4554 53.046 19.5969C51.517 20.7384 49.2595 20.4005 48.1076 18.8577L37.3774 4.48547C35.9079 5.20316 34.5598 6.08327 33.1917 7.10464C32.1456 7.88569 31.1402 8.88922 30.0345 10.0941L40.7041 24.3851C41.856 25.9279 41.5384 28.1884 40.0094 29.3299C38.4804 30.4715 36.2229 30.1336 35.071 28.5908L25.6139 15.9237C23.8864 18.4781 22.1799 21.3961 20.5141 24.5367L27.6676 34.1182C28.8194 35.661 28.5018 37.9214 26.9728 39.063C25.4439 40.2045 23.1863 39.8666 22.0345 38.3238L16.8209 31.3407C15.2356 34.4212 13.7109 37.5828 12.2667 40.6844L14.5704 43.77C15.7222 45.3128 15.4046 47.5733 13.8757 48.7148C12.3467 49.8564 10.0892 49.5185 8.93731 47.9757L8.87667 47.8944C4.46463 57.7644 1.49899 65.5428 1.49899 65.5428C1.49899 65.5428 9.73884 64.8287 20.5163 63.4847L20.4557 63.4035C19.3038 61.8607 19.6214 59.6003 21.1504 58.4587C22.6794 57.3172 24.9369 57.6551 26.0888 59.1979L28.3924 62.2834C31.7766 61.7802 35.2412 61.2169 38.6452 60.5724L33.4316 53.5892C32.2798 52.0465 32.5974 49.786 34.1263 48.6445C35.6553 47.5029 37.9128 47.8408 39.0647 49.3836L46.2182 58.9651C49.642 58.1793 52.9248 57.3725 55.9253 56.5233L46.4681 43.8562C45.3163 42.3134 45.6339 40.053 47.1629 38.9114C48.6919 37.7699 50.9494 38.1078 52.1012 39.6506L62.7709 53.9417C64.2403 53.224 65.5687 52.4852 66.5343 51.7642C67.9024 50.7428 69.0687 49.6191 70.235 48.4954L59.5047 34.1232C58.3529 32.5804 58.6705 30.3199 60.1995 29.1784C61.7284 28.0369 63.986 28.3747 65.1378 29.9175L74.6556 42.6658C79.5526 33.4455 78.9635 21.7451 72.295 12.8132C65.6265 3.88132 54.576 -0.00857476 44.3442 2.06623L53.7407 14.6521Z" stroke="#A9C753" stroke-width="1.5" stroke-miterlimit="10" stroke-linecap="round" stroke-linejoin="round"/>
</svg>
