<svg width="79" height="67" viewBox="0 0 79 67" fill="none" xmlns="http://www.w3.org/2000/svg">
<path d="M25.165 52.2205C24.0132 50.6777 24.3308 48.4172 25.8597 47.2757C27.3887 46.1341 29.6462 46.472 30.7981 48.0148L41.5283 62.3871C42.9978 61.6694 44.3459 60.7893 45.714 59.7679C46.7601 58.9869 47.7655 57.9833 48.8712 56.7785L38.2016 42.4874C37.0497 40.9446 37.3673 38.6842 38.8963 37.5426C40.4253 36.4011 42.6828 36.739 43.8347 38.2818L53.2918 50.9488C55.0193 48.3945 56.7258 45.4764 58.3916 42.3359L51.2381 32.7544C50.0863 31.2116 50.4039 28.9511 51.9329 27.8096C53.4618 26.6681 55.7194 27.006 56.8712 28.5488L62.0848 35.5319C63.6701 32.4514 65.1948 29.2897 66.639 26.1881L64.3353 23.1025C63.1835 21.5597 63.5011 19.2993 65.03 18.1577C66.559 17.0162 68.8166 17.3541 69.9684 18.8969L70.029 18.9781C74.4411 9.1082 77.4067 1.32977 77.4067 1.32977C77.4067 1.32977 69.1669 2.04386 58.3894 3.38787L58.45 3.46905C59.6019 5.01183 59.2843 7.27231 57.7553 8.41383C56.2263 9.55536 53.9688 9.21746 52.8169 7.67468L50.5133 4.58912C47.1291 5.09235 43.6645 5.65565 40.2605 6.30016L45.4741 13.2833C46.6259 14.8261 46.3083 17.0866 44.7794 18.2281C43.2504 19.3696 40.9929 19.0317 39.841 17.489L32.6875 7.90746C29.2637 8.69325 25.9809 9.5001 22.9804 10.3492L32.4376 23.0163C33.5894 24.5591 33.2718 26.8196 31.7428 27.9611C30.2138 29.1027 27.9563 28.7648 26.8045 27.222L16.1348 12.9309C14.6654 13.6486 13.337 14.3874 12.3714 15.1084C11.0033 16.1297 9.83703 17.2534 8.67071 18.3771L19.401 32.7494C20.5528 34.2922 20.2352 36.5527 18.7062 37.6942C17.1773 38.8357 14.9197 38.4978 13.7679 36.955L4.25009 24.2067C-0.646932 33.4271 -0.0578482 45.1274 6.61067 54.0593C13.2792 62.9912 24.3297 66.8811 34.5615 64.8063L25.165 52.2205Z" stroke="#A9C753" stroke-width="1.5" stroke-miterlimit="10" stroke-linecap="round" stroke-linejoin="round"/>
</svg>
