<svg width="329" height="749" viewBox="0 0 329 749" fill="none" xmlns="http://www.w3.org/2000/svg">
<g opacity="0.6">
<g clip-path="url(#clip0_1709_157)">
<path d="M-81.7024 78.2159C-9.60914 71.1636 65.8807 91.5906 120.748 138.886C174.94 185.592 236.306 301.157 177.308 365.455C164.677 379.281 149.047 390.345 137.539 405.091C120.773 426.535 113.618 454.738 115.525 481.858C117.177 505.375 125.405 528.426 123.898 551.97C120.897 600.544 77.331 643.892 30.5363 653.329C-29.5434 665.445 -91.7937 654.309 -150.606 640.95" stroke="#ACCA53" stroke-width="2" stroke-miterlimit="10" stroke-linecap="round" stroke-linejoin="round"/>
<path d="M-187.931 489.677C-195.084 483.531 -202.017 477.085 -208.469 470.301C-247.818 429.265 -282.294 371.274 -265.887 312.399C-261.379 296.375 -255.471 283.09 -245.528 272.224C-241.329 267.653 -236.384 263.447 -230.581 259.642C-207.698 244.873 -184.66 230.772 -158.941 221.554C-122.846 208.53 -83.7262 201.427 -45.3341 204.776C-10.7741 207.75 32.9641 214.622 55.1874 244.058C75.3422 270.723 72.5626 306.211 51.6686 331.818C27.9416 360.832 7.21587 384.393 8.04693 424.756C8.56562 450.438 17.8573 476.12 13.0192 501.365C6.2232 536.664 -20.097 549.456 -54.0568 547.109C-103.901 543.45 -150.184 521.73 -187.931 489.677Z" stroke="#ACCA53" stroke-width="2" stroke-miterlimit="10" stroke-linecap="round" stroke-linejoin="round"/>
<path d="M-55.5631 122.079C-81.0428 120.254 -106.596 122.853 -133.556 130.371C-178.613 143.027 -220.188 167.251 -256.027 197.038C-286.809 222.656 -301.015 247.833 -309.972 286.943C-318.32 323.222 -319.107 361.332 -311.803 397.922C-299.41 460.007 -260.433 531.193 -203 561.403C-182.723 572.046 -162.005 582.09 -140.489 589.86C-129.526 593.78 -118.456 597.179 -107.097 599.684C-73.3898 607.2 -37.3292 607.447 -5.0568 595.161C23.3255 584.397 59.8924 557.131 64.8917 524.709C69.784 492.809 55.4826 459.514 60.2582 427.02C69.2856 365.94 131.596 332.244 142.535 273.081C151.698 223.412 101.489 177.378 62.6847 156.412C45.5044 147.081 26.7543 141.071 8.19001 135.06C-13.6174 128 -34.585 123.496 -55.5631 122.079Z" stroke="#ACCA53" stroke-width="2" stroke-miterlimit="10" stroke-linecap="round" stroke-linejoin="round"/>
<path d="M-133.714 426.981C-165.989 400.16 -220.159 338.881 -177.424 298.291C-141.916 264.566 -82.6131 252.94 -36.3633 266.556C-22.3134 270.673 -7.63765 278.39 -2.90899 292.215C0.294403 301.592 -1.77214 311.981 -5.11147 321.341C-9.46628 333.646 -17.5782 341.336 -24.1793 351.802C-39.0317 375.349 -45.0711 403.541 -64.4411 424.823C-70.26 431.155 -77.1626 436.828 -85.2799 439.575C-96.511 443.352 -108.982 441.229 -119.695 436.154C-124.959 433.523 -129.595 430.477 -133.714 426.981Z" stroke="#ACCA53" stroke-width="2" stroke-miterlimit="10" stroke-linecap="round" stroke-linejoin="round"/>
</g>
</g>
<defs>
<clipPath id="clip0_1709_157">
<rect width="531.8" height="568.871" fill="white" transform="matrix(-0.890541 0.454904 0.454904 0.890541 69.5895 0)"/>
</clipPath>
</defs>
</svg>
