<svg width="97" height="81" viewBox="0 0 97 81" fill="none" xmlns="http://www.w3.org/2000/svg">
<g clip-path="url(#clip0_1588_2585)">
<path d="M48.1928 80.7365C70.2756 80.7365 88.1773 62.8348 88.1773 40.752C88.1773 18.6692 70.2756 0.767578 48.1928 0.767578C26.11 0.767578 8.20834 18.6692 8.20834 40.752C8.20834 62.8348 26.11 80.7365 48.1928 80.7365Z" fill="#11283C"/>
<path d="M89.4209 62.0812C88.6747 61.7081 88.3638 60.7753 88.768 60.0291C89.1411 59.2829 90.0739 58.972 90.8201 59.3762C91.5663 59.7493 91.8772 60.682 91.473 61.4282C91.1932 61.9568 90.6646 62.2677 90.105 62.2677C89.8873 62.2366 89.6386 62.1744 89.4209 62.0812ZM92.9032 54.0905C92.0949 53.8418 91.6285 53.0023 91.8461 52.1939C92.0638 51.3855 92.9343 50.9191 93.7427 51.1367C94.5511 51.3544 95.0175 52.1939 94.7999 53.0023C94.6133 53.6863 93.9915 54.1216 93.3385 54.1216C93.1831 54.1527 93.0276 54.1527 92.9032 54.0905ZM94.7377 45.6023C93.8982 45.5402 93.2764 44.7939 93.3385 43.9545C93.4007 43.115 94.1469 42.4931 94.9864 42.5553C95.8259 42.6175 96.4478 43.3637 96.3856 44.2032C96.3234 45.0116 95.6394 45.6023 94.8621 45.6023C94.831 45.6023 94.7999 45.6023 94.7377 45.6023ZM93.2453 35.5596C93.152 34.7201 93.7427 33.9739 94.5822 33.8806C95.4217 33.7873 96.1679 34.3781 96.2612 35.2176C96.3545 36.0571 95.7637 36.8033 94.9242 36.8966C94.8621 36.8966 94.7999 36.8966 94.7688 36.8966C93.9915 36.9276 93.3385 36.3369 93.2453 35.5596ZM91.5041 27.3513C91.2554 26.5429 91.6907 25.7034 92.4991 25.4547C93.3074 25.2059 94.1469 25.6412 94.3957 26.4496C94.6444 27.258 94.2091 28.0975 93.4007 28.3462C93.2453 28.3773 93.0898 28.4084 92.9343 28.4084C92.3125 28.4395 91.7217 28.0042 91.5041 27.3513ZM88.2083 19.6404C87.8041 18.8942 88.084 17.9615 88.7991 17.5884C89.5453 17.1842 90.447 17.464 90.8823 18.1791C91.2865 18.9253 91.0066 19.8581 90.2915 20.2312C90.0428 20.3555 89.8251 20.4177 89.5764 20.4177C89.0167 20.4488 88.4882 20.1379 88.2083 19.6404Z" fill="#7A9CB4"/>
<path d="M5.44113 62.4232C5.03693 61.677 5.31676 60.7753 6.06297 60.3711C6.80918 59.9669 7.71086 60.2467 8.14615 60.9618C8.55034 61.7081 8.27051 62.6408 7.5243 63.0139C7.30666 63.1383 7.05792 63.2005 6.80918 63.2005C6.24953 63.2005 5.72096 62.9207 5.44113 62.4232ZM1.92772 54.1527C1.67899 53.3443 2.11428 52.5048 2.92267 52.2561C3.73107 52.0073 4.57055 52.4426 4.81929 53.251C5.06803 54.0594 4.63274 54.8989 3.82434 55.1476C3.66888 55.2098 3.51342 55.2098 3.35796 55.2098C2.73612 55.2098 2.14537 54.8056 1.92772 54.1527ZM0.0932886 45.3536C1.22259e-05 44.5141 0.621854 43.7679 1.46134 43.6746C2.30083 43.5814 3.04704 44.2032 3.14032 45.0116C3.23359 45.8511 2.61175 46.5973 1.80335 46.6906C1.74117 46.6906 1.67899 46.6906 1.64789 46.6906C0.839499 46.7217 0.186565 46.1309 0.0932886 45.3536ZM1.39916 38.0159C0.55967 37.9537 -0.062172 37.2075 1.22231e-05 36.368C0.0621964 35.5285 0.808407 34.9067 1.64789 34.9688C2.48738 35.031 3.10922 35.7772 3.04704 36.6167C2.98485 37.394 2.30083 38.0159 1.52353 38.0159C1.49243 38.0159 1.43025 38.0159 1.39916 38.0159ZM2.67393 29.4034C1.86554 29.1546 1.39916 28.3151 1.6168 27.5067C1.86554 26.6983 2.70503 26.232 3.51342 26.4496C4.32182 26.6983 4.7882 27.5378 4.53946 28.3462C4.35291 28.9992 3.73107 29.4344 3.07813 29.4344C2.95376 29.4655 2.82939 29.4655 2.67393 29.4034ZM5.62768 21.2261C4.88147 20.853 4.60164 19.9203 4.97475 19.174C5.34786 18.4278 6.28062 18.148 7.02683 18.5211C7.77304 18.8942 8.05287 19.827 7.67976 20.5732C7.39993 21.1018 6.87137 21.4127 6.31171 21.4127C6.06297 21.4127 5.84533 21.3505 5.62768 21.2261Z" fill="#7A9CB4"/>
<path d="M60.6296 61.8637C59.6036 59.2519 60.5985 56.0494 62.8994 54.4637C63.9565 57.0755 62.9615 60.2469 60.6296 61.8637Z" fill="#7A9CB4"/>
<path d="M69.0556 53.9351C67.1279 51.883 66.848 48.5562 68.4026 46.2242C70.3304 48.2763 70.5791 51.6032 69.0556 53.9351Z" fill="#7A9CB4"/>
<path d="M73.7194 41.5604C71.8539 40.6588 70.6413 38.5756 70.7967 36.4924C72.6623 37.363 73.8749 39.4773 73.7194 41.5604Z" fill="#7A9CB4"/>
<path d="M48.7835 65.5326C48.3171 65.5326 47.944 65.1595 47.944 64.6931C47.944 64.2267 48.3171 63.8536 48.7835 63.8536C62.5884 63.8536 73.8127 52.6294 73.8127 38.8245C73.8127 27.3515 66.0396 17.3709 54.9087 14.5415C54.4734 14.4172 54.1935 13.9819 54.3179 13.5466C54.4423 13.1113 54.8776 12.8315 55.3129 12.9558C67.19 15.9407 75.4605 26.5742 75.4605 38.8245C75.4605 53.5621 63.4901 65.5326 48.7835 65.5326Z" fill="#9DBB53"/>
<path d="M54.7843 15.6608C53.7894 15.4431 53.1364 14.4482 53.3852 13.4222C53.6028 12.4272 54.5977 11.7743 55.6238 12.023C56.6187 12.2407 57.2717 13.2356 57.0229 14.2616C56.8053 15.2566 55.8103 15.8784 54.7843 15.6608Z" fill="#9DBB53"/>
<path d="M59.2616 63.0763C58.9195 63.0763 58.6397 62.8275 58.6086 62.4544C58.5775 62.1124 58.8574 61.8015 59.1994 61.7704C60.0078 61.7082 60.9094 61.7082 61.9044 61.7082C66.2884 61.6771 72.3202 61.646 76.1757 57.3864C76.4244 57.1066 76.8286 57.1066 77.0773 57.3553C77.3572 57.6041 77.3572 58.0083 77.1084 58.257C72.8799 62.9208 66.5371 62.9519 61.9044 62.983C60.9405 62.983 60.0389 62.983 59.2927 63.0452C59.2927 63.0763 59.2616 63.0763 59.2616 63.0763Z" fill="#9DBB53"/>
<path d="M75.4605 56.9822C75.958 56.3604 76.8908 56.2671 77.5126 56.7646C78.1345 57.262 78.2277 58.1948 77.7303 58.8166C77.2328 59.4385 76.3 59.5317 75.6782 59.0343C75.0563 58.5368 74.9631 57.604 75.4605 56.9822Z" fill="#9DBB53"/>
<path d="M69.9573 54.5882C69.8951 54.5882 69.864 54.5882 69.8018 54.5882C69.4287 54.5882 69.1489 54.2772 69.18 53.9041C69.2111 53.531 69.4909 53.2823 69.864 53.2823C71.5119 53.3445 75.1808 52.0075 77.7614 49.3958C79.0673 48.0588 80.5597 45.8824 80.4042 42.9597C80.3731 42.5866 80.653 42.3068 81.0261 42.2757C81.3992 42.2446 81.679 42.5244 81.7101 42.8975C81.8656 45.5714 80.8084 48.1521 78.6942 50.3285C76.0202 53.0335 72.1959 54.5882 69.9573 54.5882Z" fill="#9DBB53"/>
<path d="M79.5647 43.1773C79.4715 42.3689 80.0311 41.6538 80.8395 41.5294C81.6479 41.4362 82.363 41.9958 82.4874 42.8042C82.5807 43.6126 82.021 44.3277 81.2126 44.4521C80.4042 44.5454 79.6891 43.9857 79.5647 43.1773Z" fill="#9DBB53"/>
<path d="M74.6522 42.8975C74.4034 42.8975 74.1547 42.742 74.0614 42.5244C73.906 42.2135 74.0614 41.8093 74.3723 41.6538C75.7404 41.032 78.1967 38.4824 79.2538 35.311C79.7824 33.6942 80.1555 31.3001 78.8807 28.9682C78.6941 28.6573 78.8185 28.2531 79.1294 28.0977C79.4404 27.9111 79.8445 28.0355 80 28.3464C81.1815 30.5228 81.3681 33.0724 80.4664 35.7463C79.3471 39.1354 76.7353 42.0269 74.9009 42.8664C74.8076 42.8975 74.7454 42.8975 74.6522 42.8975Z" fill="#9DBB53"/>
<path d="M78.2588 29.5279C77.8236 28.8438 78.0101 27.9422 78.6941 27.5069C79.3782 27.0716 80.2798 27.2581 80.7151 27.9422C81.1504 28.6262 80.9639 29.5279 80.2798 29.9631C79.5958 30.3984 78.6941 30.1808 78.2588 29.5279Z" fill="#9DBB53"/>
<path d="M73.3152 31.3001C73.1597 31.3001 73.0043 31.2379 72.8799 31.1446C72.6001 30.8959 72.569 30.4917 72.8177 30.2429C73.8438 29.0303 74.7143 26.1388 74.3723 23.3716C74.1547 21.7237 73.4396 19.454 71.1698 17.8372C70.89 17.6195 70.7967 17.2153 71.0144 16.9355C71.232 16.6557 71.6362 16.5624 71.9161 16.78C74.0303 18.2725 75.3362 20.48 75.6471 23.2161C76.0513 26.4497 74.9942 29.6833 73.7816 31.0824C73.6883 31.2379 73.5018 31.3001 73.3152 31.3001Z" fill="#9DBB53"/>
<path d="M70.8589 18.6145C70.1749 18.2103 69.9573 17.3086 70.3615 16.5935C70.7657 15.9095 71.6673 15.6919 72.3824 16.096C73.0976 16.5002 73.2841 17.4019 72.8799 18.117C72.4446 18.8322 71.543 19.0498 70.8589 18.6145Z" fill="#9DBB53"/>
<path d="M67.0035 20.822C66.6615 20.822 66.3817 20.5733 66.3506 20.2312C66.3506 20.1069 66.3506 19.9825 66.3195 19.796C66.0086 13.4221 63.0237 12.9868 61.9044 12.8313C61.5624 12.7691 61.3137 12.4582 61.3448 12.0851C61.4069 11.7431 61.7179 11.4944 62.091 11.5255C67.2523 12.2717 67.501 17.8682 67.5943 19.7338C67.5943 19.8892 67.5943 20.0136 67.6254 20.1069C67.6565 20.4489 67.3766 20.7909 67.0346 20.7909C67.0346 20.822 67.0346 20.822 67.0035 20.822Z" fill="#9DBB53"/>
<path d="M61.9977 13.6708C61.1893 13.6087 60.5674 12.9246 60.6296 12.1162C60.6918 11.3078 61.3758 10.686 62.1842 10.7482C62.9926 10.8104 63.6145 11.4944 63.5523 12.3028C63.5212 13.1112 62.8061 13.7019 61.9977 13.6708Z" fill="#9DBB53"/>
<path d="M40.7307 70.2274C40.6374 70.2274 40.5441 70.2274 40.4509 70.1652C40.0156 70.0098 39.7979 69.5434 39.9534 69.1081C40.9483 66.3098 45.0836 63.8846 48.7835 63.8846C49.2499 63.8846 49.623 64.2577 49.623 64.7241C49.623 65.1905 49.2499 65.5636 48.7835 65.5636C45.7987 65.5636 42.2542 67.5846 41.508 69.6989C41.3836 70.0098 41.0727 70.2274 40.7307 70.2274Z" fill="#9DBB53"/>
<path d="M35.3207 61.8637C32.9888 60.278 32.0249 57.0755 33.0509 54.4637C35.3518 56.0494 36.3467 59.2208 35.3207 61.8637Z" fill="#7A9CB4"/>
<path d="M26.9258 53.9351C25.3712 51.5721 25.651 48.2763 27.5787 46.2242C29.1333 48.5872 28.8224 51.883 26.9258 53.9351Z" fill="#7A9CB4"/>
<path d="M22.2309 41.5604C22.0754 39.4773 23.288 37.3941 25.1535 36.4924C25.309 38.5445 24.0964 40.6277 22.2309 41.5604Z" fill="#7A9CB4"/>
<path d="M47.1667 65.5325C32.4602 65.5325 20.4897 53.562 20.4897 38.8555C20.4897 26.6052 28.7602 15.9717 40.6374 12.9868C41.0727 12.8625 41.5391 13.1423 41.6323 13.5776C41.7256 14.0129 41.4769 14.4793 41.0416 14.5725C29.9106 17.3708 22.1376 27.3514 22.1376 38.8555C22.1376 52.6604 33.3618 63.8846 47.1667 63.8846C47.6331 63.8846 48.0062 64.2577 48.0062 64.7241C48.0062 65.1905 47.6331 65.5325 47.1667 65.5325Z" fill="#9DBB53"/>
<path d="M40.3265 12.023C41.3214 11.8054 42.3164 12.4272 42.5651 13.4222C42.8138 14.4171 42.1609 15.412 41.166 15.6608C40.171 15.8784 39.1761 15.2566 38.9273 14.2616C38.7097 13.2356 39.3315 12.2407 40.3265 12.023Z" fill="#9DBB53"/>
<path d="M36.6887 63.0762H36.6576C35.8803 63.014 34.9786 63.014 34.0459 63.014C29.4132 62.9829 23.0704 62.9207 18.8418 58.288C18.5931 58.0082 18.6242 57.604 18.8729 57.3863C19.1217 57.1687 19.557 57.1687 19.7746 57.4174C23.63 61.646 29.6308 61.7082 34.0459 61.7392C35.0097 61.7392 35.9425 61.7392 36.7509 61.8014C37.0929 61.8325 37.3727 62.1434 37.3416 62.4855C37.3106 62.8275 37.0307 63.0762 36.6887 63.0762Z" fill="#9DBB53"/>
<path d="M18.22 58.8166C17.7225 58.1948 17.8158 57.262 18.4376 56.7646C19.0595 56.2671 19.9922 56.3604 20.4897 56.9822C20.9872 57.604 20.8939 58.5368 20.2721 59.0343C19.6502 59.5317 18.7486 59.4385 18.22 58.8166Z" fill="#9DBB53"/>
<path d="M25.993 54.5881C23.7544 54.5881 19.9301 53.0024 17.2872 50.2974C15.173 48.1209 14.1158 45.5714 14.2713 42.8663C14.3024 42.4932 14.5822 42.2445 14.9553 42.2445C15.3284 42.2756 15.5772 42.5865 15.5772 42.9285C15.4217 45.8512 16.9141 48.0276 18.22 49.3646C20.8006 52.0074 24.4384 53.3133 26.1174 53.2511C26.4905 53.2511 26.7703 53.5309 26.8014 53.873C26.8014 54.2461 26.5216 54.5259 26.1796 54.557C26.0863 54.5881 26.0552 54.5881 25.993 54.5881Z" fill="#9DBB53"/>
<path d="M13.4629 42.8042C13.5562 41.9958 14.3024 41.4362 15.1108 41.5294C15.9192 41.6227 16.4788 42.3689 16.3856 43.1773C16.2923 43.9857 15.5461 44.5454 14.7377 44.4521C13.9293 44.3277 13.3696 43.6126 13.4629 42.8042Z" fill="#9DBB53"/>
<path d="M21.2981 42.8975C21.2048 42.8975 21.1116 42.8664 21.0183 42.8353C19.1528 41.9958 16.5721 39.1042 15.4528 35.7152C14.5822 33.0413 14.7377 30.4917 15.9192 28.3153C16.1057 28.0043 16.4788 27.88 16.7898 28.0665C17.1007 28.2531 17.2251 28.6262 17.0385 28.9371C15.7637 31.269 16.1368 33.6631 16.6654 35.2799C17.7225 38.4513 20.1788 41.0008 21.5469 41.6227C21.8578 41.7782 22.0132 42.1513 21.8578 42.4933C21.7956 42.7731 21.5469 42.8975 21.2981 42.8975Z" fill="#9DBB53"/>
<path d="M15.2662 27.911C15.7015 27.227 16.6032 27.0404 17.2872 27.4757C17.9713 27.911 18.1578 28.8127 17.7225 29.4967C17.2872 30.1808 16.3856 30.3673 15.7015 29.932C15.0175 29.4967 14.7999 28.5951 15.2662 27.911Z" fill="#9DBB53"/>
<path d="M22.6351 31.3002C22.4485 31.3002 22.262 31.238 22.1376 31.0825C20.925 29.6834 19.8679 26.4498 20.2721 23.2162C20.6141 20.5112 21.92 18.2726 24.0031 16.7802C24.283 16.5625 24.6872 16.6558 24.9048 16.9356C25.1225 17.2155 25.0292 17.6196 24.7494 17.8373C22.4796 19.4541 21.7334 21.7238 21.5469 23.3717C21.2049 26.1078 22.0754 29.0305 23.1015 30.243C23.3502 30.5229 23.3191 30.9271 23.0393 31.1447C22.946 31.2691 22.7906 31.3002 22.6351 31.3002Z" fill="#9DBB53"/>
<path d="M23.5679 16.1272C24.2519 15.723 25.1536 15.9406 25.5888 16.6246C25.993 17.3087 25.7754 18.2103 25.0914 18.6456C24.4073 19.0498 23.5057 18.8322 23.0704 18.1482C22.6662 17.433 22.8838 16.5314 23.5679 16.1272Z" fill="#9DBB53"/>
<path d="M28.9468 20.822C28.9157 20.822 28.9157 20.822 28.8846 20.822C28.5426 20.7909 28.2627 20.48 28.2938 20.1379C28.2938 20.0447 28.2938 19.9203 28.3249 19.7648C28.4182 17.9304 28.6669 12.3338 33.8282 11.5565C34.1702 11.4943 34.5123 11.7431 34.5744 12.1162C34.6366 12.4582 34.3879 12.8002 34.0148 12.8624C29.9106 13.4531 29.693 18.0859 29.5997 19.827C29.5997 19.9825 29.5997 20.1379 29.5686 20.2623C29.5686 20.5732 29.2888 20.822 28.9468 20.822Z" fill="#9DBB53"/>
<path d="M33.766 10.7482C34.5744 10.686 35.2585 11.3078 35.3207 12.1162C35.3828 12.9246 34.761 13.6087 33.9526 13.6708C33.1442 13.733 32.4602 13.1112 32.398 12.3028C32.3358 11.4944 32.9577 10.8104 33.766 10.7482Z" fill="#9DBB53"/>
<path d="M55.2196 70.2274C54.8776 70.2274 54.5667 70.0098 54.4423 69.6677C53.6961 67.5535 50.1516 65.5325 47.1668 65.5325C46.7004 65.5325 46.3273 65.1594 46.3273 64.693C46.3273 64.2266 46.7004 63.8535 47.1668 63.8535C50.8978 63.8535 55.0331 66.3098 55.9969 69.077C56.1524 69.5123 55.9347 69.9787 55.4994 70.1341C55.4062 70.2274 55.3129 70.2274 55.2196 70.2274Z" fill="#9DBB53"/>
<path d="M47.9751 73.1811C49.0913 73.1811 49.9961 72.2763 49.9961 71.1601C49.9961 70.044 49.0913 69.1392 47.9751 69.1392C46.859 69.1392 45.9542 70.044 45.9542 71.1601C45.9542 72.2763 46.859 73.1811 47.9751 73.1811Z" fill="#7A9CB4"/>
<path d="M35.8181 69.2013H16.6343C16.4166 69.2013 16.2301 69.0148 16.2301 68.7971C16.2301 68.5795 16.4166 68.3929 16.6343 68.3929H35.8181C36.0357 68.3929 36.2223 68.5795 36.2223 68.7971C36.2223 69.0148 36.0357 69.2013 35.8181 69.2013Z" fill="#7A9CB4"/>
<path d="M16.6965 70.2896C15.8881 70.2896 15.2351 69.6367 15.2351 68.8283C15.2351 68.0199 15.8881 67.3669 16.6965 67.3669C17.5049 67.3669 18.1578 68.0199 18.1578 68.8283C18.1578 69.6367 17.5049 70.2896 16.6965 70.2896Z" fill="#7A9CB4"/>
<path d="M37.6526 73.6786H20.7074C20.4897 73.6786 20.3032 73.4921 20.3032 73.2744C20.3032 73.0568 20.4897 72.8702 20.7074 72.8702H37.6526C37.8702 72.8702 38.0568 73.0568 38.0568 73.2744C38.0568 73.4921 37.8702 73.6786 37.6526 73.6786Z" fill="#7A9CB4"/>
<path d="M20.8006 74.7358C19.9922 74.7358 19.3393 74.0828 19.3393 73.2744C19.3393 72.466 19.9922 71.8131 20.8006 71.8131C21.609 71.8131 22.262 72.466 22.262 73.2744C22.262 74.0828 21.609 74.7358 20.8006 74.7358Z" fill="#7A9CB4"/>
<path d="M44.4306 78.2802H24.7182C24.5006 78.2802 24.314 78.0936 24.314 77.876C24.314 77.6584 24.5006 77.4718 24.7182 77.4718H44.4306C44.6483 77.4718 44.8348 77.6584 44.8348 77.876C44.8348 78.0936 44.6483 78.2802 44.4306 78.2802Z" fill="#7A9CB4"/>
<path d="M24.7804 79.3685C23.972 79.3685 23.3191 78.7155 23.3191 77.9071C23.3191 77.0987 23.972 76.4458 24.7804 76.4458C25.5888 76.4458 26.2418 77.0987 26.2418 77.9071C26.2418 78.7155 25.5888 79.3685 24.7804 79.3685Z" fill="#7A9CB4"/>
<path d="M79.2538 69.2013H60.1322C59.9145 69.2013 59.728 69.0148 59.728 68.7971C59.728 68.5795 59.9145 68.3929 60.1322 68.3929H79.2538C79.4715 68.3929 79.658 68.5795 79.658 68.7971C79.658 69.0148 79.4715 69.2013 79.2538 69.2013Z" fill="#7A9CB4"/>
<path d="M79.1916 67.3358C80 67.3358 80.6529 67.9887 80.6529 68.7971C80.6529 69.6055 80 70.2585 79.1916 70.2585C78.3832 70.2585 77.7303 69.6055 77.7303 68.7971C77.7303 67.9887 78.3832 67.3358 79.1916 67.3358Z" fill="#7A9CB4"/>
<path d="M75.1808 73.6786H58.0801C57.8625 73.6786 57.6759 73.4921 57.6759 73.2744C57.6759 73.0568 57.8625 72.8702 58.0801 72.8702H75.1808C75.3984 72.8702 75.585 73.0568 75.585 73.2744C75.585 73.4921 75.3984 73.6786 75.1808 73.6786Z" fill="#7A9CB4"/>
<path d="M75.0875 71.8131C75.8959 71.8131 76.5488 72.466 76.5488 73.2744C76.5488 74.0828 75.8959 74.7358 75.0875 74.7358C74.2791 74.7358 73.6262 74.0828 73.6262 73.2744C73.6262 72.466 74.2791 71.8131 75.0875 71.8131Z" fill="#7A9CB4"/>
<path d="M71.201 78.2802H51.5507C51.3331 78.2802 51.1465 78.0936 51.1465 77.876C51.1465 77.6584 51.3331 77.4718 51.5507 77.4718H71.201C71.4186 77.4718 71.6052 77.6584 71.6052 77.876C71.6052 78.0936 71.3875 78.2802 71.201 78.2802Z" fill="#7A9CB4"/>
<path d="M71.1077 76.4147C71.9161 76.4147 72.569 77.0676 72.569 77.876C72.569 78.6844 71.9161 79.3373 71.1077 79.3373C70.2993 79.3373 69.6464 78.6844 69.6464 77.876C69.6464 77.0676 70.2993 76.4147 71.1077 76.4147Z" fill="#7A9CB4"/>
<path d="M47.9751 78.8088C41.9744 78.8088 36.8131 74.7357 35.445 68.9215C35.3828 68.7038 35.5383 68.5173 35.7248 68.4551C35.9425 68.3929 36.129 68.5484 36.1912 68.7349C37.466 74.2071 42.3164 78.0315 47.9751 78.0315C53.6028 78.0315 58.4532 74.2071 59.728 68.7349C59.7901 68.5173 59.9767 68.3929 60.1943 68.4551C60.412 68.5173 60.5364 68.7038 60.4742 68.9215C59.1372 74.7357 53.9759 78.8088 47.9751 78.8088Z" fill="#7A9CB4"/>
<path d="M47.9751 73.1811C49.0913 73.1811 49.9961 72.2763 49.9961 71.1601C49.9961 70.044 49.0913 69.1392 47.9751 69.1392C46.859 69.1392 45.9542 70.044 45.9542 71.1601C45.9542 72.2763 46.859 73.1811 47.9751 73.1811Z" fill="#7A9CB4"/>
<path d="M48.1928 11.0902C46.2651 11.0902 44.6794 9.53557 44.6794 7.57676C44.6794 5.61796 46.234 4.06335 48.1928 4.06335C50.1516 4.06335 51.7062 5.61796 51.7062 7.57676C51.7062 9.53557 50.1205 11.0902 48.1928 11.0902ZM48.1928 4.87175C46.7003 4.87175 45.4877 6.08434 45.4877 7.57676C45.4877 9.06918 46.7003 10.2818 48.1928 10.2818C49.6852 10.2818 50.8978 9.06918 50.8978 7.57676C50.8978 6.08434 49.6852 4.87175 48.1928 4.87175Z" fill="#7A9CB4"/>
<path d="M52.9188 49.7687C52.8255 49.7687 52.7633 49.7376 52.67 49.7066L47.944 46.9705C47.7264 46.8461 47.6331 46.5663 47.7886 46.3486C47.9129 46.131 48.1928 46.0377 48.4104 46.1931L52.8877 48.7738L61.9666 43.5192V33.0101L52.8877 27.7555L48.4104 30.3362C48.1928 30.4605 47.9129 30.3984 47.7886 30.1807C47.6642 29.9631 47.7264 29.6832 47.944 29.5589L52.67 26.8228C52.8255 26.7295 52.9809 26.7295 53.1364 26.8228L62.6817 32.3572C62.8371 32.4504 62.9304 32.6059 62.9304 32.7614V43.7991C62.9304 43.9545 62.8371 44.11 62.6817 44.2033L53.1364 49.7376C53.0742 49.7376 52.9809 49.7687 52.9188 49.7687Z" fill="white"/>
<path d="M43.4668 49.7687C43.3735 49.7687 43.3113 49.7376 43.218 49.7065L33.6727 44.1721C33.5173 44.0789 33.424 43.9234 33.424 43.7679V32.7302C33.424 32.5748 33.5173 32.4193 33.6727 32.326L43.218 26.7916C43.3735 26.6984 43.5289 26.6984 43.6844 26.7916L53.2297 32.326C53.3851 32.4193 53.4784 32.5748 53.4784 32.7302V43.7679C53.4784 43.9234 53.3851 44.0789 53.2297 44.1721L43.6844 49.7065C43.6533 49.7376 43.56 49.7687 43.4668 49.7687ZM34.3879 43.5192L43.4668 48.7738L52.5457 43.5192V33.0101L43.4668 27.7555L34.3879 33.0101V43.5192Z" fill="white"/>
<path d="M43.4668 44.1721C40.8239 44.1721 38.6475 42.0267 38.6164 39.3528C38.5853 36.8033 42.6273 32.9168 43.0937 32.4815C43.2802 32.326 43.56 32.326 43.7155 32.4815C44.1819 32.9168 48.286 36.7411 48.3171 39.2906C48.3171 40.5965 47.8197 41.8091 46.918 42.7419C46.0163 43.6746 44.8037 44.1721 43.4978 44.2032C43.4978 44.1721 43.4979 44.1721 43.4668 44.1721ZM43.4357 33.4764C42.0987 34.7823 39.5492 37.7049 39.5802 39.3839C39.6113 41.5293 41.3525 43.3015 43.5289 43.2704C44.5861 43.2704 45.5499 42.8351 46.2961 42.0889C47.0424 41.3427 47.4155 40.3478 47.4155 39.3217C47.3844 37.6117 44.7726 34.7512 43.4357 33.4764Z" fill="white"/>
<path d="M41.4147 38.8243C41.3525 38.8243 41.2592 38.7932 41.197 38.7621C40.9794 38.6378 40.8861 38.3579 41.0105 38.1403C41.6945 36.9277 42.4096 35.9638 42.4407 35.9327C42.5962 35.7151 42.876 35.684 43.0937 35.8395C43.3113 35.9949 43.3424 36.2748 43.1869 36.4924C43.1869 36.4924 42.4718 37.4563 41.85 38.6067C41.7567 38.731 41.5701 38.8243 41.4147 38.8243Z" fill="white"/>
</g>
<defs>
<clipPath id="clip0_1588_2585">
<rect width="96.3855" height="80" fill="white" transform="translate(0 0.767578)"/>
</clipPath>
</defs>
</svg>
