<svg width="97" height="80" viewBox="0 0 97 80" fill="none" xmlns="http://www.w3.org/2000/svg">
<g clip-path="url(#clip0_1777_3460)">
<path d="M48.1617 79.9689C70.2445 79.9689 88.1462 62.0673 88.1462 39.9845C88.1462 17.9017 70.2445 0 48.1617 0C26.0789 0 8.17725 17.9017 8.17725 39.9845C8.17725 62.0673 26.0789 79.9689 48.1617 79.9689Z" fill="#11283C"/>
<path d="M89.3898 61.3136C88.6436 60.9405 88.3327 60.0077 88.7369 59.2615C89.11 58.5153 90.0427 58.2044 90.789 58.6086C91.5352 58.9817 91.8461 59.9144 91.4419 60.6607C91.1621 61.1892 90.6335 61.5001 90.0738 61.5001C89.8562 61.469 89.6075 61.4069 89.3898 61.3136ZM92.841 53.3229C92.0326 53.1053 91.5663 52.2658 91.7839 51.4574C92.0015 50.649 92.841 50.1826 93.6805 50.4003C94.4889 50.6179 94.9553 51.4574 94.7377 52.2658C94.5511 52.9498 93.9293 53.3851 93.2763 53.3851C93.1209 53.3851 92.9965 53.3851 92.841 53.3229ZM94.7066 44.8348C93.8671 44.7726 93.2452 44.0264 93.3074 43.1869C93.3696 42.3474 94.1158 41.7256 94.9553 41.7877C95.7948 41.8499 96.4166 42.5961 96.3544 43.4356C96.2923 44.244 95.6082 44.8348 94.8309 44.8348C94.7998 44.8348 94.7377 44.8348 94.7066 44.8348ZM93.2141 34.792C93.1209 33.9525 93.7427 33.2063 94.5511 33.113C95.3906 33.0198 96.1368 33.6105 96.2301 34.45C96.3234 35.2895 95.7326 36.0357 94.8931 36.129C94.8309 36.129 94.7687 36.129 94.7377 36.129C93.9604 36.1601 93.3074 35.5693 93.2141 34.792ZM91.5041 26.5837C91.2553 25.7753 91.6906 24.9358 92.499 24.6871C93.3074 24.4383 94.1469 24.8736 94.3956 25.682C94.6444 26.4904 94.2091 27.3299 93.4007 27.5786C93.2452 27.6408 93.0898 27.6408 92.9343 27.6408C92.3125 27.6408 91.6906 27.2366 91.5041 26.5837ZM88.1772 18.8729C87.773 18.1266 88.0528 17.1939 88.768 16.8208C89.5142 16.4166 90.4469 16.6964 90.8511 17.4115C91.2553 18.1577 90.9755 19.0905 90.2604 19.4636C90.0116 19.588 89.7629 19.6502 89.5142 19.6502C88.9856 19.6812 88.457 19.3703 88.1772 18.8729Z" fill="#7A9CB4"/>
<path d="M5.41005 61.6556C5.00586 60.9094 5.28568 60.0077 6.0008 59.6035C6.74701 59.1993 7.67978 59.4792 8.08397 60.1943C8.48817 60.9405 8.20834 61.8732 7.46213 62.2463C7.24449 62.3707 6.99575 62.4329 6.74701 62.4329C6.21845 62.4329 5.68988 62.1531 5.41005 61.6556ZM1.89665 53.3851C1.64791 52.5767 2.0832 51.7372 2.89159 51.4885C3.69999 51.2397 4.53947 51.675 4.78821 52.4834C5.03695 53.2918 4.60166 54.1313 3.79326 54.38C3.6378 54.4422 3.48234 54.4422 3.32688 54.4422C2.70504 54.4422 2.11429 54.038 1.89665 53.3851ZM0.0622105 44.586C-0.0310659 43.7465 0.590776 43.0003 1.43026 42.9071C2.26975 42.8138 3.01596 43.4356 3.10924 44.2751C3.20251 45.1146 2.58067 45.8608 1.74118 45.9541C1.679 45.9541 1.61682 45.9541 1.58572 45.9541C0.808421 45.9541 0.124395 45.3633 0.0622105 44.586ZM1.39917 37.2483C0.559684 37.1861 -0.062158 36.4399 0.0311184 35.6004C0.0933026 34.7609 0.839513 34.1391 1.679 34.2324C2.51849 34.2945 3.14033 35.0407 3.04705 35.8802C2.98487 36.6575 2.30084 37.2794 1.52354 37.2794C1.49245 37.2483 1.43026 37.2483 1.39917 37.2483ZM2.67395 28.6669C1.86555 28.4181 1.39917 27.5786 1.61682 26.7702C1.83446 25.9619 2.67395 25.4955 3.51343 25.7131C4.32183 25.9308 4.78821 26.8013 4.57057 27.5786C4.38401 28.2627 3.76217 28.698 3.10924 28.698C2.95378 28.7291 2.82941 28.698 2.67395 28.6669ZM5.59661 20.4585C4.8504 20.0854 4.53947 19.1527 4.94367 18.4065C5.31678 17.6603 6.24954 17.3804 6.99575 17.7535C7.74196 18.1266 8.05288 19.0594 7.64869 19.8056C7.36886 20.3342 6.84029 20.6451 6.28063 20.6451C6.06299 20.6451 5.81425 20.5829 5.59661 20.4585Z" fill="#7A9CB4"/>
<path d="M60.5987 61.0961C59.5726 58.4844 60.5676 55.2819 62.8684 53.6962C63.9255 56.3079 62.9306 59.4793 60.5987 61.0961Z" fill="#7A9CB4"/>
<path d="M69.0246 53.1675C67.0969 51.1154 66.8171 47.7886 68.3717 45.4567C70.2994 47.5087 70.5792 50.8356 69.0246 53.1675Z" fill="#7A9CB4"/>
<path d="M73.6885 40.7929C71.823 39.8912 70.6104 37.808 70.7658 35.7249C72.6624 36.5954 73.8439 38.7097 73.6885 40.7929Z" fill="#7A9CB4"/>
<path d="M48.7526 64.765C48.2862 64.765 47.9131 64.3919 47.9131 63.9255C47.9131 63.4591 48.2862 63.086 48.7526 63.086C62.5575 63.086 73.7817 51.8618 73.7817 38.0569C73.7817 26.5839 66.0087 16.6033 54.8777 13.7739C54.4424 13.6496 54.1626 13.2143 54.287 12.779C54.4113 12.3437 54.8466 12.0639 55.2819 12.1882C67.1591 15.1731 75.4296 25.8066 75.4296 38.0569C75.4296 52.7945 63.4591 64.765 48.7526 64.765Z" fill="#9DBB53"/>
<path d="M54.7533 14.8932C53.7584 14.6756 53.1054 13.6806 53.3542 12.6546C53.5718 11.6596 54.5668 11.0067 55.5928 11.2554C56.5878 11.4731 57.2407 12.468 56.992 13.4941C56.7743 14.489 55.7794 15.1108 54.7533 14.8932Z" fill="#9DBB53"/>
<path d="M59.2306 62.3087C58.8886 62.3087 58.6088 62.06 58.5777 61.6868C58.5466 61.3448 58.8264 61.0339 59.1684 61.0028C59.9768 60.9406 60.8785 60.9406 61.8734 60.9406C66.2574 60.9095 72.2893 60.8785 76.1447 56.6188C76.3935 56.339 76.7977 56.339 77.0464 56.5877C77.3262 56.8365 77.3262 57.2407 77.0775 57.4894C72.849 62.1532 66.5062 62.1843 61.8734 62.2154C60.9096 62.2154 60.0079 62.2154 59.2617 62.2776C59.2617 62.3087 59.2306 62.3087 59.2306 62.3087Z" fill="#9DBB53"/>
<path d="M75.4296 56.2146C75.9271 55.5928 76.8598 55.4995 77.4817 55.997C78.1035 56.4945 78.1968 57.4272 77.6993 58.0491C77.2018 58.6709 76.2691 58.7642 75.6472 58.2667C75.0254 57.7692 74.9321 56.8365 75.4296 56.2146Z" fill="#9DBB53"/>
<path d="M69.9263 53.8205C69.8641 53.8205 69.833 53.8205 69.7708 53.8205C69.3977 53.8205 69.1179 53.5096 69.149 53.1365C69.1801 52.7634 69.4599 52.4836 69.833 52.5147C71.4809 52.5768 75.1497 51.2399 77.7304 48.6281C79.0363 47.2912 80.5287 45.1147 80.3732 42.1921C80.3421 41.819 80.622 41.5391 80.9951 41.5081C81.3371 41.5081 81.648 41.7568 81.6791 42.1299C81.8346 44.8038 80.7774 47.3845 78.6632 49.5609C75.9892 52.2659 72.1649 53.8205 69.9263 53.8205Z" fill="#9DBB53"/>
<path d="M79.5648 42.4097C79.4716 41.6013 80.0312 40.8862 80.8396 40.7619C81.648 40.6686 82.3631 41.2282 82.4875 42.0366C82.5808 42.845 82.0211 43.5601 81.2127 43.6845C80.4043 43.7778 79.6581 43.2181 79.5648 42.4097Z" fill="#9DBB53"/>
<path d="M74.6212 42.1299C74.3725 42.1299 74.1237 41.9745 74.0305 41.7568C73.875 41.4459 74.0305 41.0417 74.3414 40.8862C75.7094 40.2644 78.1657 37.7148 79.2229 34.5435C79.7514 32.9267 80.1245 30.5326 78.8497 28.2007C78.6632 27.8897 78.7876 27.4855 79.0985 27.3301C79.4094 27.1435 79.8136 27.2679 79.9691 27.5788C81.1506 29.7553 81.3371 32.3048 80.4354 34.9787C79.3161 38.3678 76.7044 41.2593 74.87 42.0988C74.8078 42.1299 74.7145 42.1299 74.6212 42.1299Z" fill="#9DBB53"/>
<path d="M78.2279 28.7603C77.7926 28.0762 77.9792 27.1746 78.6632 26.7393C79.3472 26.304 80.2489 26.4906 80.6842 27.1746C81.1195 27.8586 80.9329 28.7603 80.2489 29.1956C79.5649 29.6309 78.6632 29.4132 78.2279 28.7603Z" fill="#9DBB53"/>
<path d="M73.2843 30.5325C73.1289 30.5325 72.9734 30.4703 72.8491 30.377C72.5692 30.1283 72.5381 29.7241 72.7869 29.4753C73.8129 28.2628 74.6835 25.3712 74.3415 22.604C74.1238 20.9561 73.4087 18.6864 71.139 17.0696C70.8592 16.8519 70.7659 16.4478 70.9835 16.1679C71.2012 15.8881 71.6054 15.7948 71.8852 16.0125C73.9995 17.5049 75.3053 19.7124 75.6163 22.4485C76.0205 25.6821 74.9633 28.9157 73.7507 30.3148C73.6575 30.4703 73.4709 30.5325 73.2843 30.5325Z" fill="#9DBB53"/>
<path d="M70.828 17.8469C70.144 17.4427 69.9263 16.5411 70.3305 15.8259C70.7347 15.1419 71.6364 14.9243 72.3515 15.3285C73.0667 15.7327 73.2532 16.6343 72.849 17.3495C72.4137 18.0646 71.512 18.2822 70.828 17.8469Z" fill="#9DBB53"/>
<path d="M66.9725 20.0544C66.6305 20.0544 66.3507 19.8057 66.3196 19.4637C66.3196 19.3393 66.3196 19.2149 66.2885 19.0284C65.9776 12.6545 62.9928 12.2192 61.8734 12.0637C61.5314 12.0016 61.2827 11.6906 61.3138 11.3175C61.376 10.9755 61.6869 10.7268 62.06 10.7579C67.2213 11.5041 67.47 17.1007 67.5633 18.9662C67.5633 19.1217 67.5633 19.246 67.5944 19.3393C67.6255 19.6813 67.3457 20.0233 67.0036 20.0233C67.0036 20.0544 67.0036 20.0544 66.9725 20.0544Z" fill="#9DBB53"/>
<path d="M61.9978 12.9033C61.1894 12.8411 60.5676 12.1571 60.6298 11.3487C60.692 10.5403 61.376 9.91842 62.1844 9.98061C62.9928 10.0428 63.6146 10.7268 63.5524 11.5352C63.4902 12.3436 62.7751 12.9344 61.9978 12.9033Z" fill="#9DBB53"/>
<path d="M40.6997 69.4599C40.6064 69.4599 40.5132 69.4599 40.4199 69.3977C39.9846 69.2422 39.7669 68.7758 39.9224 68.3405C40.9173 65.5423 45.0526 63.1171 48.7526 63.1171C49.2189 63.1171 49.5921 63.4902 49.5921 63.9566C49.5921 64.4229 49.2189 64.796 48.7526 64.796C45.7677 64.796 42.2232 66.817 41.477 68.9313C41.3526 69.2422 41.0417 69.4599 40.6997 69.4599Z" fill="#9DBB53"/>
<path d="M35.2896 61.0961C32.9577 59.5104 31.9938 56.3079 33.0198 53.6962C35.3207 55.2819 36.3156 58.4533 35.2896 61.0961Z" fill="#7A9CB4"/>
<path d="M26.8947 53.1675C25.3401 50.8045 25.62 47.5087 27.5477 45.4567C29.1023 47.8197 28.8224 51.1154 26.8947 53.1675Z" fill="#7A9CB4"/>
<path d="M22.1998 40.7929C22.0443 38.7097 23.2569 36.6265 25.1224 35.7249C25.2779 37.7769 24.0653 39.8601 22.1998 40.7929Z" fill="#7A9CB4"/>
<path d="M47.1358 64.7649C32.4292 64.7649 20.4587 52.7945 20.4587 38.0879C20.4587 25.8376 28.7292 15.2041 40.6064 12.2193C41.0417 12.0949 41.5081 12.3747 41.6014 12.81C41.6947 13.2453 41.4459 13.7117 41.0106 13.805C29.8796 16.6032 22.1066 26.5838 22.1066 38.0879C22.1066 51.8928 33.3309 63.117 47.1358 63.117C47.6022 63.117 47.9753 63.4901 47.9753 63.9565C47.9753 64.4229 47.6022 64.7649 47.1358 64.7649Z" fill="#9DBB53"/>
<path d="M40.2954 11.2554C41.2904 11.0378 42.2853 11.6596 42.5341 12.6546C42.7828 13.6495 42.1299 14.6445 41.1349 14.8932C40.14 15.1109 39.145 14.489 38.8963 13.4941C38.6787 12.468 39.3005 11.4731 40.2954 11.2554Z" fill="#9DBB53"/>
<path d="M36.6578 62.3087H36.6267C35.8494 62.2465 34.9477 62.2465 34.0149 62.2465C29.3822 62.2155 23.0394 62.1533 18.8109 57.5205C18.5622 57.2407 18.5932 56.8365 18.842 56.6189C19.1218 56.3701 19.526 56.4012 19.7437 56.65C23.5991 60.8785 29.5999 60.9407 34.0149 60.9718C34.9788 60.9718 35.9116 60.9718 36.72 61.034C37.062 61.065 37.3418 61.376 37.3107 61.718C37.3107 62.06 36.9998 62.3087 36.6578 62.3087Z" fill="#9DBB53"/>
<path d="M18.189 58.0491C17.6915 57.4272 17.7848 56.4945 18.4066 55.997C19.0285 55.4995 19.9612 55.5928 20.4587 56.2146C20.9562 56.8365 20.8629 57.7692 20.2411 58.2667C19.6192 58.7642 18.7176 58.6709 18.189 58.0491Z" fill="#9DBB53"/>
<path d="M25.9619 53.8205C23.7233 53.8205 19.899 52.2348 17.2561 49.5298C15.1419 47.3533 14.0847 44.8038 14.2402 42.0988C14.2713 41.7257 14.5511 41.4769 14.9242 41.4769C15.2973 41.508 15.5461 41.8189 15.5461 42.161C15.3906 45.0836 16.883 47.2601 18.1889 48.597C20.7696 51.2399 24.4073 52.5457 26.0863 52.4835C26.4283 52.4835 26.7392 52.7634 26.7703 53.1054C26.8014 53.4474 26.4905 53.7583 26.1485 53.7894C26.0863 53.8205 26.0241 53.8205 25.9619 53.8205Z" fill="#9DBB53"/>
<path d="M13.463 42.0366C13.5562 41.2282 14.3024 40.6686 15.1108 40.7619C15.9192 40.8551 16.4789 41.6013 16.3856 42.4097C16.2923 43.2181 15.5461 43.7778 14.7377 43.6845C13.8982 43.5601 13.3386 42.845 13.463 42.0366Z" fill="#9DBB53"/>
<path d="M21.2981 42.1299C21.2048 42.1299 21.1116 42.0988 21.0183 42.0677C19.1528 41.2282 16.5721 38.3367 15.4528 34.9476C14.5822 32.2737 14.7377 29.7241 15.9192 27.5477C16.1057 27.2368 16.4788 27.1124 16.7898 27.299C17.1007 27.4855 17.2251 27.8586 17.0385 28.1695C15.7637 30.5014 16.1368 32.8955 16.6654 34.5123C17.7225 37.6837 20.1788 40.2333 21.5469 40.8551C21.8578 41.0106 22.0132 41.3837 21.8578 41.7257C21.7645 42.0055 21.5469 42.1299 21.2981 42.1299Z" fill="#9DBB53"/>
<path d="M15.2351 27.1434C15.6704 26.4594 16.5721 26.2729 17.2561 26.7082C17.9402 27.1434 18.1267 28.0451 17.6914 28.7291C17.2561 29.4132 16.3545 29.5997 15.6704 29.1644C14.9864 28.7291 14.7998 27.8275 15.2351 27.1434Z" fill="#9DBB53"/>
<path d="M22.604 30.5326C22.4174 30.5326 22.2309 30.4704 22.1065 30.315C20.8939 28.9158 19.8368 25.6822 20.241 22.4486C20.583 19.7436 21.8889 17.505 23.972 16.0126C24.2519 15.7949 24.6561 15.8882 24.8737 16.168C25.0914 16.4479 24.9981 16.8521 24.7183 17.0697C22.4485 18.6865 21.7023 20.9562 21.5158 22.6041C21.1738 25.3402 22.0443 28.2629 23.0704 29.4755C23.3191 29.7553 23.288 30.1595 23.0082 30.3771C22.9149 30.5015 22.7595 30.5326 22.604 30.5326Z" fill="#9DBB53"/>
<path d="M23.5678 15.3596C24.2518 14.9554 25.1535 15.173 25.5888 15.8571C25.993 16.5411 25.7753 17.4428 25.0913 17.8781C24.4073 18.2823 23.5056 18.0646 23.0703 17.3806C22.635 16.6655 22.8527 15.7638 23.5678 15.3596Z" fill="#9DBB53"/>
<path d="M28.9157 20.0544C28.8846 20.0544 28.8846 20.0544 28.8535 20.0544C28.5115 20.0233 28.2316 19.7124 28.2627 19.3704C28.2627 19.2771 28.2627 19.1527 28.2938 18.9973C28.3871 17.1628 28.6358 11.5662 33.7971 10.7889C34.1391 10.7268 34.4812 10.9755 34.5433 11.3486C34.6055 11.6906 34.3568 12.0326 33.9837 12.0948C29.8795 12.6856 29.6619 17.3183 29.5686 19.0594C29.5686 19.2149 29.5686 19.3704 29.5375 19.4947C29.5375 19.8057 29.2577 20.0544 28.9157 20.0544Z" fill="#9DBB53"/>
<path d="M33.7349 9.98061C34.5433 9.91842 35.2274 10.5403 35.2896 11.3487C35.3517 12.1571 34.7299 12.8411 33.9215 12.9033C33.1131 12.9654 32.4291 12.3436 32.3669 11.5352C32.3358 10.7268 32.9266 10.0428 33.7349 9.98061Z" fill="#9DBB53"/>
<path d="M55.1886 69.4598C54.8466 69.4598 54.5357 69.2422 54.4113 68.9002C53.6651 66.7859 50.1206 64.7649 47.1358 64.7649C46.6694 64.7649 46.2963 64.3918 46.2963 63.9254C46.2963 63.459 46.6694 63.0859 47.1358 63.0859C50.8668 63.0859 55.0021 65.5422 55.9659 68.3094C56.1214 68.7447 55.9037 69.2111 55.4684 69.3665C55.3752 69.4598 55.2819 69.4598 55.1886 69.4598Z" fill="#9DBB53"/>
<path d="M47.9441 72.4136C49.0602 72.4136 49.9651 71.5087 49.9651 70.3926C49.9651 69.2764 49.0602 68.3716 47.9441 68.3716C46.8279 68.3716 45.9231 69.2764 45.9231 70.3926C45.9231 71.5087 46.8279 72.4136 47.9441 72.4136Z" fill="#7A9CB4"/>
<path d="M35.7871 68.4338H16.6033C16.3857 68.4338 16.1991 68.2472 16.1991 68.0296C16.1991 67.8119 16.3857 67.6254 16.6033 67.6254H35.7871C36.0048 67.6254 36.1913 67.8119 36.1913 68.0296C36.1913 68.2472 36.0048 68.4338 35.7871 68.4338Z" fill="#7A9CB4"/>
<path d="M16.6654 69.522C15.857 69.522 15.2041 68.8691 15.2041 68.0607C15.2041 67.2523 15.857 66.5994 16.6654 66.5994C17.4738 66.5994 18.1268 67.2523 18.1268 68.0607C18.1268 68.8691 17.4738 69.522 16.6654 69.522Z" fill="#7A9CB4"/>
<path d="M37.6215 72.9111H20.7074C20.4898 72.9111 20.3032 72.7245 20.3032 72.5069C20.3032 72.2892 20.4898 72.1027 20.7074 72.1027H37.6215C37.8392 72.1027 38.0257 72.2892 38.0257 72.5069C38.0257 72.7245 37.8392 72.9111 37.6215 72.9111Z" fill="#7A9CB4"/>
<path d="M20.7696 73.9682C19.9612 73.9682 19.3082 73.3153 19.3082 72.5069C19.3082 71.6985 19.9612 71.0455 20.7696 71.0455C21.578 71.0455 22.2309 71.6985 22.2309 72.5069C22.2309 73.3153 21.578 73.9682 20.7696 73.9682Z" fill="#7A9CB4"/>
<path d="M44.3997 77.5126H24.6873C24.4696 77.5126 24.2831 77.3261 24.2831 77.1084C24.2831 76.8908 24.4696 76.7042 24.6873 76.7042H44.3997C44.6173 76.7042 44.8039 76.8908 44.8039 77.1084C44.8039 77.3261 44.6173 77.5126 44.3997 77.5126Z" fill="#7A9CB4"/>
<path d="M24.7494 78.6009C23.941 78.6009 23.2881 77.948 23.2881 77.1396C23.2881 76.3312 23.941 75.6782 24.7494 75.6782C25.5578 75.6782 26.2107 76.3312 26.2107 77.1396C26.2107 77.948 25.5578 78.6009 24.7494 78.6009Z" fill="#7A9CB4"/>
<path d="M79.2227 68.4338H60.1011C59.8835 68.4338 59.6969 68.2472 59.6969 68.0296C59.6969 67.8119 59.8835 67.6254 60.1011 67.6254H79.2227C79.4404 67.6254 79.6269 67.8119 79.6269 68.0296C79.6269 68.2472 79.4404 68.4338 79.2227 68.4338Z" fill="#7A9CB4"/>
<path d="M79.1606 66.5682C79.9689 66.5682 80.6219 67.2212 80.6219 68.0296C80.6219 68.838 79.9689 69.4909 79.1606 69.4909C78.3522 69.4909 77.6992 68.838 77.6992 68.0296C77.6992 67.2212 78.3522 66.5682 79.1606 66.5682Z" fill="#7A9CB4"/>
<path d="M75.1496 72.9111H58.049C57.8313 72.9111 57.6448 72.7245 57.6448 72.5069C57.6448 72.2892 57.8313 72.1027 58.049 72.1027H75.1496C75.3673 72.1027 75.5538 72.2892 75.5538 72.5069C75.5538 72.7245 75.3673 72.9111 75.1496 72.9111Z" fill="#7A9CB4"/>
<path d="M75.0563 71.0455C75.8647 71.0455 76.5176 71.6985 76.5176 72.5069C76.5176 73.3153 75.8647 73.9682 75.0563 73.9682C74.2479 73.9682 73.595 73.3153 73.595 72.5069C73.595 71.6985 74.2479 71.0455 75.0563 71.0455Z" fill="#7A9CB4"/>
<path d="M71.1699 77.5126H51.5197C51.302 77.5126 51.1155 77.3261 51.1155 77.1084C51.1155 76.8908 51.302 76.7042 51.5197 76.7042H71.1699C71.3875 76.7042 71.5741 76.8908 71.5741 77.1084C71.5741 77.3261 71.3875 77.5126 71.1699 77.5126Z" fill="#7A9CB4"/>
<path d="M71.0766 75.6471C71.885 75.6471 72.5379 76.3 72.5379 77.1084C72.5379 77.9168 71.885 78.5698 71.0766 78.5698C70.2682 78.5698 69.6152 77.9168 69.6152 77.1084C69.6152 76.3 70.2682 75.6471 71.0766 75.6471Z" fill="#7A9CB4"/>
<path d="M47.9441 78.0412C41.9433 78.0412 36.782 73.9681 35.414 68.1539C35.3518 67.9363 35.5072 67.7497 35.6938 67.6875C35.9114 67.6253 36.098 67.7808 36.1602 67.9673C37.4349 73.4396 42.2853 77.2639 47.9441 77.2639C53.5717 77.2639 58.4221 73.4396 59.6969 67.9673C59.7591 67.7497 59.9456 67.6253 60.1633 67.6875C60.3809 67.7497 60.5053 67.9363 60.4431 68.1539C59.1061 73.9681 53.9448 78.0412 47.9441 78.0412Z" fill="#7A9CB4"/>
<path d="M47.9441 72.4136C49.0602 72.4136 49.9651 71.5087 49.9651 70.3926C49.9651 69.2764 49.0602 68.3716 47.9441 68.3716C46.8279 68.3716 45.9231 69.2764 45.9231 70.3926C45.9231 71.5087 46.8279 72.4136 47.9441 72.4136Z" fill="#7A9CB4"/>
<path d="M48.1617 10.3226C46.234 10.3226 44.6483 8.76799 44.6483 6.80918C44.6483 4.85038 46.2029 3.29578 48.1617 3.29578C50.1205 3.29578 51.6751 4.85038 51.6751 6.80918C51.6751 8.76799 50.0894 10.3226 48.1617 10.3226ZM48.1617 4.10417C46.6693 4.10417 45.4567 5.31676 45.4567 6.80918C45.4567 8.30161 46.6693 9.5142 48.1617 9.5142C49.6541 9.5142 50.8667 8.30161 50.8667 6.80918C50.8667 5.31676 49.6541 4.10417 48.1617 4.10417Z" fill="#7A9CB4"/>
<path d="M61.0649 50.0894H42.1298C39.7357 50.0894 37.7769 48.1306 37.7769 45.7365L37.7458 30.0972C37.5903 28.8535 36.5954 27.8586 35.3517 27.7031C35.2584 27.7031 35.1962 27.6409 35.1341 27.6098C35.0408 27.5166 34.9786 27.33 35.0408 27.2056C35.103 27.0813 35.2273 26.9569 35.3828 26.9569H54.3179C56.712 26.9569 58.6708 28.9157 58.6708 31.3098L58.6397 46.6382C58.6397 48.0063 59.6968 49.1878 61.0649 49.3432C61.1582 49.3432 61.2203 49.4054 61.2825 49.4365C61.3758 49.5298 61.438 49.7163 61.3758 49.8407C61.3447 49.9651 61.2203 50.0894 61.0649 50.0894ZM37.1861 27.7031C37.9013 28.2628 38.3676 29.1023 38.492 30.035V30.0661L38.5231 45.7365C38.5231 47.7264 40.1399 49.3432 42.1298 49.3432H59.1993C58.391 48.7214 57.8935 47.7264 57.8935 46.6382L57.9246 31.3098C57.9246 29.3199 56.3078 27.7031 54.3179 27.7031H37.1861Z" fill="white"/>
<path d="M54.6911 38.8031H41.7568C41.6013 38.8031 41.4769 38.6787 41.4769 38.5232C41.4769 38.3678 41.6013 38.2434 41.7568 38.2434H54.6911C54.8465 38.2434 54.9709 38.3678 54.9709 38.5232C54.9709 38.6787 54.8465 38.8031 54.6911 38.8031Z" fill="white"/>
<path d="M54.6911 33.6728H41.7568C41.6013 33.6728 41.4769 33.5484 41.4769 33.393C41.4769 33.2375 41.6013 33.1132 41.7568 33.1132H54.6911C54.8465 33.1132 54.9709 33.2375 54.9709 33.393C54.9709 33.5484 54.8465 33.6728 54.6911 33.6728Z" fill="white"/>
<path d="M54.6911 43.9021H41.7568C41.6013 43.9021 41.4769 43.7777 41.4769 43.6222C41.4769 43.4668 41.6013 43.3424 41.7568 43.3424H54.6911C54.8465 43.3424 54.9709 43.4668 54.9709 43.6222C54.9709 43.7777 54.8465 43.9021 54.6911 43.9021Z" fill="white"/>
<path d="M61.4069 46.4516C62.2775 47.1045 62.4329 48.7213 61.6556 49.4365C61.3136 49.7474 60.5363 49.7474 60.1321 49.5608C59.7279 49.3743 58.5775 47.602 58.5775 47.0424L58.3599 44.3995C58.3599 44.3995 60.0699 45.4256 61.4069 46.4516Z" fill="white"/>
<path d="M60.8162 50.0894C60.5053 50.0894 60.1944 50.0273 60.0078 49.934C59.4171 49.6853 58.2045 47.7575 58.2045 47.0735L57.9868 44.4618C57.9868 44.3374 58.049 44.1819 58.1734 44.1198C58.2977 44.0576 58.4532 44.0576 58.5465 44.1198C58.6087 44.1509 60.2876 45.1458 61.6246 46.1718C62.1532 46.576 62.4641 47.2601 62.4952 48.0063C62.5263 48.6903 62.3086 49.3121 61.8733 49.7163C61.6246 49.9651 61.2204 50.0894 60.8162 50.0894ZM58.7952 45.1147C58.9507 47.0424 58.9507 47.0424 58.9507 47.0424C58.9507 47.4466 59.9767 49.0634 60.2876 49.2189C60.5986 49.3432 61.1893 49.3432 61.4069 49.1567C61.6557 48.9079 61.8111 48.5037 61.7801 48.0374C61.749 47.5088 61.5313 47.0113 61.1893 46.7315C60.3498 46.1407 59.4171 45.5189 58.7952 45.1147Z" fill="white"/>
<path d="M34.9165 30.5636C34.0459 29.9106 33.8904 28.2938 34.6677 27.5787C35.0098 27.2678 35.7871 27.2678 36.1913 27.4543C36.5955 27.6409 37.7459 29.4131 37.7459 29.9728L37.9635 32.6156C37.9635 32.6156 36.2845 31.5896 34.9165 30.5636Z" fill="white"/>
<path d="M37.9635 32.9576C37.9013 32.9576 37.8391 32.9266 37.7769 32.8955C37.7148 32.8644 36.0358 31.8694 34.6988 30.8434C34.1703 30.4392 33.8593 29.7552 33.8282 29.009C33.7971 28.3249 34.0148 27.7031 34.4501 27.2989C34.9476 26.8325 35.8803 26.8947 36.3778 27.0812C36.9685 27.33 38.1811 29.2577 38.1811 29.9417L38.3988 32.5534C38.3988 32.6778 38.3366 32.8333 38.2122 32.8955C38.119 32.9576 38.0257 32.9576 37.9635 32.9576ZM35.1341 30.2526C35.9425 30.8745 36.9064 31.4963 37.5282 31.8694C37.3727 29.9417 37.3727 29.9417 37.3727 29.9417C37.3727 29.5375 36.3467 27.9207 36.0358 27.7653C35.7249 27.6409 35.1341 27.6409 34.9165 27.8274C34.6677 28.0762 34.5123 28.4804 34.5434 28.9468C34.5744 29.5064 34.7921 30.0039 35.1341 30.2526Z" fill="white"/>
</g>
<defs>
<clipPath id="clip0_1777_3460">
<rect width="96.3545" height="80" fill="white"/>
</clipPath>
</defs>
</svg>
