<svg width="97" height="80" viewBox="0 0 97 80" fill="none" xmlns="http://www.w3.org/2000/svg">
<g clip-path="url(#clip0_1777_4124)">
<path d="M48.1928 79.9689C70.2756 79.9689 88.1773 62.0673 88.1773 39.9845C88.1773 17.9017 70.2756 0 48.1928 0C26.11 0 8.20837 17.9017 8.20837 39.9845C8.20837 62.0673 26.11 79.9689 48.1928 79.9689Z" fill="#11283C"/>
<path d="M89.421 61.3137C88.6748 60.9406 88.3638 60.0078 88.768 59.2616C89.1411 58.5154 90.0739 58.2045 90.8201 58.6087C91.5663 58.9818 91.8773 59.9146 91.4731 60.6608C91.1932 61.1893 90.6647 61.5003 90.105 61.5003C89.8874 61.4692 89.6697 61.407 89.421 61.3137ZM92.9033 53.323C92.0949 53.1054 91.6285 52.2659 91.8462 51.4575C92.0638 50.6491 92.9344 50.1827 93.7428 50.4004C94.5512 50.618 95.0176 51.4886 94.7999 52.297C94.6134 52.981 93.9915 53.4163 93.3386 53.4163C93.1831 53.3852 93.0277 53.3852 92.9033 53.323ZM94.7377 44.8349C93.8982 44.7727 93.2764 44.0265 93.3386 43.187C93.4008 42.3475 94.147 41.7257 94.9865 41.7879C95.826 41.85 96.4478 42.5963 96.3856 43.4357C96.3234 44.213 95.6394 44.8349 94.8621 44.8349C94.831 44.8349 94.7999 44.8349 94.7377 44.8349ZM93.2764 34.7921C93.1831 33.9526 93.7739 33.2064 94.6134 33.1132C95.4528 33.0199 96.1991 33.6106 96.2923 34.4501C96.3856 35.2896 95.7949 36.0358 94.9554 36.1291C94.8932 36.1291 94.831 36.1291 94.7999 36.1291C93.9915 36.1602 93.3386 35.5694 93.2764 34.7921ZM91.5352 26.5838C91.2865 25.7754 91.7218 24.9359 92.5302 24.6872C93.3386 24.4385 94.1781 24.8738 94.4268 25.6821C94.6755 26.4905 94.2403 27.33 93.4319 27.5788C93.2764 27.6409 93.1209 27.641 92.9655 27.641C92.3436 27.672 91.7218 27.2368 91.5352 26.5838ZM88.2395 18.873C87.8353 18.1268 88.1151 17.194 88.8302 16.8209C89.5764 16.4167 90.5092 16.6965 90.8823 17.4116C91.2865 18.1579 91.0067 19.0906 90.2916 19.4637C90.0428 19.5881 89.7941 19.6503 89.5764 19.6503C89.0479 19.6814 88.5193 19.3704 88.2395 18.873Z" fill="#9DBB53"/>
<path d="M5.47222 61.6557C5.06803 60.9095 5.34786 60.0078 6.06297 59.6036C6.80919 59.1994 7.74195 59.4793 8.11505 60.1944C8.51925 60.9406 8.23942 61.8734 7.49321 62.2465C7.27557 62.3708 7.02683 62.433 6.77809 62.433C6.24953 62.433 5.72096 62.1532 5.47222 61.6557ZM1.95882 53.3852C1.71008 52.5768 2.14537 51.7373 2.95376 51.4886C3.76216 51.2399 4.60165 51.6752 4.85038 52.4835C5.09912 53.2919 4.66383 54.1314 3.85543 54.3802C3.69997 54.4113 3.54451 54.4424 3.38905 54.4424C2.76721 54.4424 2.17646 54.0382 1.95882 53.3852ZM0.124381 44.5861C0.0311043 43.7467 0.621854 43.0005 1.46134 42.9072C2.30083 42.8139 3.04704 43.4046 3.14032 44.2441C3.23359 45.0836 2.64284 45.8298 1.80335 45.9231C1.74117 45.9231 1.67899 45.9231 1.64789 45.9231C0.870591 45.9231 0.217657 45.3634 0.124381 44.5861ZM1.39916 37.2484C0.55967 37.1862 -0.062172 36.44 1.22236e-05 35.6005C0.0621965 34.761 0.808407 34.1392 1.64789 34.2014C2.48738 34.2636 3.10922 35.0098 3.04704 35.8493C2.98486 36.6577 2.30083 37.2484 1.52353 37.2484C1.49243 37.2484 1.43025 37.2484 1.39916 37.2484ZM2.67393 28.6359C1.86554 28.3872 1.39916 27.5477 1.64789 26.7393C1.89663 25.9309 2.73612 25.4645 3.54451 25.7132C4.35291 25.962 4.81929 26.8015 4.57055 27.6099C4.384 28.2939 3.76216 28.6981 3.10922 28.6981C2.95376 28.6981 2.82939 28.6981 2.67393 28.6359ZM5.62768 20.4587C4.88147 20.0856 4.60164 19.1528 4.97475 18.4066C5.34786 17.6604 6.28062 17.3805 7.02683 17.7537C7.77304 18.1268 8.08396 19.0595 7.67976 19.8057C7.39994 20.3343 6.87137 20.6452 6.31171 20.6452C6.09407 20.6452 5.84533 20.583 5.62768 20.4587Z" fill="#9DBB53"/>
<path d="M35.8492 68.5582H16.6343C16.4167 68.5582 16.2301 68.3716 16.2301 68.154C16.2301 67.9363 16.4167 67.7498 16.6343 67.7498H35.8181C36.0358 67.7498 36.2223 67.9363 36.2223 68.154C36.2223 68.3716 36.0669 68.5582 35.8492 68.5582Z" fill="#9DBB53"/>
<path d="M16.7276 69.6153C15.9192 69.6153 15.2662 68.9624 15.2662 68.154C15.2662 67.3456 15.9192 66.6926 16.7276 66.6926C17.536 66.6926 18.1889 67.3456 18.1889 68.154C18.1889 68.9624 17.536 69.6153 16.7276 69.6153Z" fill="#9DBB53"/>
<path d="M37.6837 73.0354H20.7385C20.5209 73.0354 20.3344 72.8489 20.3344 72.6312C20.3344 72.4136 20.5209 72.2271 20.7385 72.2271H37.6837C37.9014 72.2271 38.0879 72.4136 38.0879 72.6312C38.0879 72.8489 37.9014 73.0354 37.6837 73.0354Z" fill="#9DBB53"/>
<path d="M20.8007 74.0926C21.6078 74.0926 22.262 73.4383 22.262 72.6313C22.262 71.8242 21.6078 71.1699 20.8007 71.1699C19.9936 71.1699 19.3394 71.8242 19.3394 72.6313C19.3394 73.4383 19.9936 74.0926 20.8007 74.0926Z" fill="#9DBB53"/>
<path d="M44.4307 77.637H24.7183C24.5006 77.637 24.3141 77.4505 24.3141 77.2328C24.3141 77.0152 24.5006 76.8286 24.7183 76.8286H44.4307C44.6483 76.8286 44.8349 77.0152 44.8349 77.2328C44.8349 77.4505 44.6483 77.637 44.4307 77.637Z" fill="#9DBB53"/>
<path d="M24.7804 78.6941C25.5875 78.6941 26.2418 78.0399 26.2418 77.2328C26.2418 76.4257 25.5875 75.7715 24.7804 75.7715C23.9734 75.7715 23.3191 76.4257 23.3191 77.2328C23.3191 78.0399 23.9734 78.6941 24.7804 78.6941Z" fill="#9DBB53"/>
<path d="M79.2849 68.5582H60.1632C59.9456 68.5582 59.759 68.3716 59.759 68.154C59.759 67.9363 59.9456 67.7498 60.1632 67.7498H79.2849C79.5025 67.7498 79.6891 67.9363 79.6891 68.154C79.6891 68.3716 79.5025 68.5582 79.2849 68.5582Z" fill="#9DBB53"/>
<path d="M79.1916 66.6926C79.9999 66.6926 80.6529 67.3456 80.6529 68.154C80.6529 68.9624 79.9999 69.6153 79.1916 69.6153C78.3832 69.6153 77.7302 68.9624 77.7302 68.154C77.7302 67.3456 78.3832 66.6926 79.1916 66.6926Z" fill="#9DBB53"/>
<path d="M75.1806 73.0354H58.08C57.8623 73.0354 57.6758 72.8489 57.6758 72.6312C57.6758 72.4136 57.8623 72.2271 58.08 72.2271H75.1806C75.3983 72.2271 75.5848 72.4136 75.5848 72.6312C75.5848 72.8489 75.3983 73.0354 75.1806 73.0354Z" fill="#9DBB53"/>
<path d="M75.1184 74.0926C75.9255 74.0926 76.5798 73.4383 76.5798 72.6313C76.5798 71.8242 75.9255 71.1699 75.1184 71.1699C74.3114 71.1699 73.6571 71.8242 73.6571 72.6313C73.6571 73.4383 74.3114 74.0926 75.1184 74.0926Z" fill="#9DBB53"/>
<path d="M71.2009 77.637H51.5507C51.333 77.637 51.1465 77.4505 51.1465 77.2328C51.1465 77.0152 51.333 76.8286 51.5507 76.8286H71.2009C71.4185 76.8286 71.6051 77.0152 71.6051 77.2328C71.6051 77.4505 71.4185 77.637 71.2009 77.637Z" fill="#9DBB53"/>
<path d="M71.1387 78.6941C71.9458 78.6941 72.6 78.0399 72.6 77.2328C72.6 76.4257 71.9458 75.7715 71.1387 75.7715C70.3316 75.7715 69.6774 76.4257 69.6774 77.2328C69.6774 78.0399 70.3316 78.6941 71.1387 78.6941Z" fill="#9DBB53"/>
<path d="M48.0062 78.1346C42.0054 78.1346 36.8441 74.0615 35.4761 68.2473C35.4139 68.0296 35.5694 67.8431 35.7559 67.7809C35.9736 67.7187 36.1601 67.8742 36.2223 68.0607C37.4971 73.5329 42.3474 77.3573 48.0062 77.3573C53.6339 77.3573 58.4842 73.5329 59.759 68.0607C59.8212 67.8431 60.0078 67.7187 60.2254 67.7809C60.443 67.8431 60.5674 68.0296 60.5052 68.2473C59.1372 74.0926 53.9759 78.1346 48.0062 78.1346Z" fill="#9DBB53"/>
<path d="M60.6607 62.8372C59.6347 60.2254 60.6296 57.023 62.9304 55.4373C63.9565 58.049 62.9615 61.2204 60.6607 62.8372Z" fill="white"/>
<path d="M69.0556 54.9398C67.1279 52.8878 66.8481 49.5609 68.4027 47.229C70.3304 49.25 70.6102 52.5768 69.0556 54.9398Z" fill="white"/>
<path d="M73.7505 42.5341C71.885 41.6324 70.6724 39.5492 70.8278 37.4661C72.6934 38.3677 73.906 40.4509 73.7505 42.5341Z" fill="white"/>
<path d="M48.8147 66.5373C48.3483 66.5373 47.9752 66.1642 47.9752 65.6979C47.9752 65.2315 48.3483 64.8584 48.8147 64.8584C62.6196 64.8584 73.8439 53.6341 73.8439 39.8292C73.8439 28.3251 66.0708 18.3757 54.9399 15.5463C54.5046 15.4219 54.2247 14.9866 54.3491 14.5513C54.4735 14.116 54.9088 13.8362 55.344 13.9606C67.2212 16.9454 75.4917 27.5789 75.4917 39.8292C75.4917 54.5669 63.5213 66.5373 48.8147 66.5373Z" fill="#7A9CB4"/>
<path d="M54.8155 16.6344C53.8205 16.4168 53.1676 15.4218 53.4163 14.3958C53.634 13.4008 54.6289 12.7479 55.6549 12.9966C56.6499 13.2143 57.3028 14.2092 57.0541 15.2353C56.8054 16.2302 55.8104 16.8521 54.8155 16.6344Z" fill="#7A9CB4"/>
<path d="M59.2616 64.0498C58.9196 64.0498 58.6398 63.801 58.6087 63.4279C58.5776 63.0859 58.8574 62.775 59.1994 62.7439C60.0078 62.6817 60.9095 62.6817 61.9045 62.6817C66.2884 62.6506 72.3203 62.6195 76.1757 58.3599C76.4245 58.0801 76.8287 58.0801 77.0774 58.3288C77.3572 58.5776 77.3572 58.9818 77.1085 59.2305C72.88 63.8943 66.5372 63.9254 61.9045 63.9565C60.9406 63.9565 60.0389 63.9565 59.2927 64.0187C59.2927 64.0498 59.2927 64.0498 59.2616 64.0498Z" fill="#7A9CB4"/>
<path d="M75.4606 57.9558C75.9581 57.334 76.8908 57.2407 77.5127 57.7382C78.1345 58.2357 78.2278 59.1684 77.7303 59.7903C77.2329 60.4121 76.3001 60.5054 75.6782 60.0079C75.0564 59.5104 74.9631 58.5777 75.4606 57.9558Z" fill="#7A9CB4"/>
<path d="M69.9884 55.5927C69.9262 55.5927 69.8951 55.5927 69.8329 55.5927C69.4598 55.5927 69.18 55.2817 69.2111 54.9086C69.2111 54.5355 69.522 54.2557 69.8951 54.2868C71.543 54.349 75.2119 53.012 77.7925 50.4003C79.0984 49.0633 80.5908 46.8869 80.4354 43.9642C80.4043 43.5911 80.6841 43.3113 81.0572 43.2802C81.4303 43.2491 81.7101 43.5289 81.7412 43.902C81.8967 46.576 80.8395 49.1566 78.7253 51.3331C76.0203 54.007 72.227 55.5927 69.9884 55.5927Z" fill="#7A9CB4"/>
<path d="M79.5958 44.182C79.5026 43.3736 80.0622 42.6584 80.8706 42.5341C81.679 42.4408 82.3941 43.0005 82.5185 43.8088C82.6118 44.6172 82.0521 45.3324 81.2437 45.4567C80.4353 45.5189 79.6891 44.9593 79.5958 44.182Z" fill="#7A9CB4"/>
<path d="M74.6522 43.8711C74.4035 43.8711 74.1548 43.7157 74.0615 43.498C73.906 43.1871 74.0615 42.7829 74.3724 42.6275C75.7405 42.0056 78.1967 39.4561 79.2539 36.2847C79.7824 34.6679 80.1555 32.2738 78.8808 29.9419C78.6942 29.631 78.8186 29.2268 79.1295 29.0713C79.4404 28.8847 79.8446 29.0091 80.0001 29.32C81.1816 31.4965 81.3681 34.046 80.4664 36.72C79.3471 40.109 76.7354 43.0006 74.901 43.84C74.8388 43.8711 74.7455 43.8711 74.6522 43.8711Z" fill="#7A9CB4"/>
<path d="M78.2589 30.5015C77.8237 29.8175 78.0102 28.9158 78.6942 28.4805C79.3783 28.0452 80.2799 28.2318 80.7152 28.9158C81.1505 29.5998 80.964 30.5015 80.2799 30.9368C79.627 31.3721 78.6942 31.1855 78.2589 30.5015Z" fill="#7A9CB4"/>
<path d="M73.3154 32.3048C73.1599 32.3048 73.0044 32.2426 72.8801 32.1494C72.6002 31.9006 72.5691 31.4964 72.8179 31.2477C73.8439 30.0351 74.7145 27.1435 74.3725 24.3763C74.1548 22.7284 73.4397 20.4587 71.17 18.8419C70.8902 18.6243 70.7969 18.2201 71.0145 17.9403C71.2322 17.6604 71.6364 17.5672 71.9162 17.7848C74.0305 19.2772 75.3363 21.4848 75.6473 24.2209C76.0515 27.4544 74.9943 30.688 73.7817 32.0872C73.6885 32.2115 73.5019 32.3048 73.3154 32.3048Z" fill="#7A9CB4"/>
<path d="M70.859 19.6191C70.175 19.2149 69.9574 18.3133 70.3616 17.5982C70.7657 16.9141 71.6674 16.6965 72.3825 17.1007C73.0977 17.5049 73.2842 18.4066 72.88 19.1217C72.4758 19.8057 71.5741 20.0233 70.859 19.6191Z" fill="#7A9CB4"/>
<path d="M67.0036 21.7957C66.6615 21.7957 66.3817 21.547 66.3506 21.205C66.3506 21.0806 66.3506 20.9563 66.3195 20.7697C66.0086 14.3958 63.0238 13.9605 61.9044 13.8051C61.5624 13.7429 61.3137 13.432 61.3448 13.0589C61.407 12.7169 61.7179 12.4681 62.091 12.4992C67.2523 13.2454 67.501 18.842 67.5943 20.7075C67.5943 20.863 67.5943 20.9874 67.6254 21.0806C67.6565 21.4226 67.3767 21.7647 67.0346 21.7647C67.0657 21.7957 67.0346 21.7957 67.0036 21.7957Z" fill="#7A9CB4"/>
<path d="M62.0288 14.6445C61.2204 14.5823 60.5986 13.8983 60.6608 13.0899C60.723 12.2815 61.407 11.6596 62.2154 11.7218C63.0238 11.784 63.6456 12.468 63.5834 13.2764C63.5213 14.0848 62.8372 14.7067 62.0288 14.6445Z" fill="#7A9CB4"/>
<path d="M40.7307 71.2009C40.6374 71.2009 40.5442 71.2009 40.4509 71.1388C40.0156 70.9833 39.7979 70.5169 39.9534 70.0816C40.9484 67.2833 45.0836 64.8582 48.7836 64.8582C49.2499 64.8582 49.6231 65.2313 49.6231 65.6976C49.6231 66.164 49.2499 66.5371 48.7836 66.5371C45.7987 66.5371 42.2542 68.5581 41.508 70.6724C41.4147 71.0144 41.0727 71.2009 40.7307 71.2009Z" fill="#7A9CB4"/>
<path d="M35.3206 62.8372C32.9887 61.2515 32.0249 58.049 33.0198 55.4373C35.3828 57.023 36.3467 60.1944 35.3206 62.8372Z" fill="white"/>
<path d="M26.9257 54.9398C25.3711 52.5768 25.651 49.2811 27.5787 47.229C29.1333 49.5609 28.8535 52.8878 26.9257 54.9398Z" fill="white"/>
<path d="M22.2309 42.5341C22.0755 40.4509 23.288 38.3677 25.1536 37.4661C25.3401 39.5492 24.1275 41.6324 22.2309 42.5341Z" fill="white"/>
<path d="M47.1668 66.537C32.4602 66.537 20.4897 54.5666 20.4897 39.86C20.4897 27.6097 28.7602 16.9762 40.6374 13.9913C41.0727 13.867 41.5391 14.1468 41.6324 14.5821C41.7257 15.0174 41.4769 15.4838 41.0416 15.577C29.9107 18.3753 22.1376 28.3559 22.1376 39.86C22.1376 53.6649 33.3619 64.8891 47.1668 64.8891C47.6332 64.8891 48.0063 65.2622 48.0063 65.7286C48.0063 66.195 47.6332 66.537 47.1668 66.537Z" fill="#7A9CB4"/>
<path d="M40.3576 12.9965C41.3525 12.7789 42.3475 13.4007 42.5962 14.3957C42.8139 15.3906 42.192 16.3856 41.1971 16.6343C40.2021 16.8519 39.2072 16.2301 38.9584 15.2352C38.7097 14.2402 39.3315 13.2142 40.3576 12.9965Z" fill="#7A9CB4"/>
<path d="M36.7199 64.0498H36.6888C35.9115 63.9876 35.0098 63.9876 34.0771 63.9876C29.4443 63.9565 23.1016 63.8944 18.873 59.2616C18.6243 58.9818 18.6554 58.5776 18.9041 58.36C19.1839 58.1112 19.5881 58.1423 19.8058 58.3911C23.6612 62.6196 29.662 62.6818 34.0771 62.7129C35.0409 62.7129 35.9737 62.7129 36.7821 62.775C37.1241 62.8061 37.4039 63.1171 37.3728 63.4591C37.3417 63.8011 37.0619 64.0498 36.7199 64.0498Z" fill="#7A9CB4"/>
<path d="M18.2511 59.7903C17.7537 59.1684 17.8469 58.2357 18.4688 57.7382C19.0906 57.2407 20.0234 57.334 20.5209 57.9558C21.0183 58.5777 20.925 59.5104 20.3032 60.0079C19.6814 60.5054 18.7486 60.4432 18.2511 59.7903Z" fill="#7A9CB4"/>
<path d="M26.0241 55.5928C23.7854 55.5928 19.9611 54.0071 17.3183 51.3021C15.204 49.1257 14.1469 46.5761 14.3023 43.8711C14.3334 43.5291 14.6133 43.2493 14.9864 43.2493C15.3284 43.2804 15.6082 43.5913 15.6082 43.9333C15.4528 46.856 16.9452 49.0324 18.251 50.3694C20.8317 53.0122 24.4695 54.3181 26.1484 54.2559C26.4905 54.2559 26.8014 54.5357 26.8325 54.8777C26.8325 55.2508 26.5526 55.5306 26.2106 55.5617C26.1173 55.5928 26.0552 55.5928 26.0241 55.5928Z" fill="#7A9CB4"/>
<path d="M13.494 43.7778C13.5873 42.9694 14.3335 42.4098 15.1419 42.5031C15.9503 42.5963 16.5099 43.3426 16.4166 44.1509C16.3234 44.9593 15.5772 45.519 14.7688 45.4257C13.9604 45.3325 13.3696 44.5862 13.494 43.7778Z" fill="#7A9CB4"/>
<path d="M21.3293 43.8712C21.236 43.8712 21.1427 43.8401 21.0494 43.809C19.1839 42.9696 16.6033 40.078 15.4839 36.6889C14.6134 34.015 14.7688 31.4655 15.9503 29.289C16.1369 28.9781 16.51 28.8537 16.8209 29.0403C17.1318 29.2268 17.2562 29.5999 17.0696 29.9109C15.7949 32.2428 16.168 34.6369 16.6965 36.2537C17.7537 39.4251 20.2099 41.9746 21.578 42.5964C21.8889 42.7519 22.0444 43.125 21.8889 43.467C21.7956 43.7469 21.578 43.8712 21.3293 43.8712Z" fill="#7A9CB4"/>
<path d="M15.2663 28.8848C15.7016 28.2008 16.6032 28.0142 17.2873 28.4495C17.9713 28.8848 18.1578 29.7865 17.7225 30.4705C17.2873 31.1545 16.3856 31.3411 15.7016 30.9058C15.0175 30.4705 14.831 29.5688 15.2663 28.8848Z" fill="#7A9CB4"/>
<path d="M22.6661 32.3048C22.4796 32.3048 22.293 32.2426 22.1687 32.0872C20.9561 30.688 19.8989 27.4544 20.3031 24.2209C20.6451 21.5159 21.951 19.2772 24.0342 17.7848C24.314 17.5672 24.7182 17.6604 24.9358 17.9403C25.1535 18.2201 25.0602 18.6243 24.7804 18.8419C22.5107 20.4587 21.7645 22.7284 21.5779 24.3763C21.2359 27.1124 22.1065 30.0351 23.1325 31.2477C23.3812 31.5275 23.3191 31.9317 23.0703 32.1494C22.946 32.2426 22.8216 32.3048 22.6661 32.3048Z" fill="#7A9CB4"/>
<path d="M23.5989 17.1007C24.2829 16.6965 25.1846 16.9141 25.6199 17.5982C26.0241 18.2822 25.8064 19.1839 25.1224 19.6191C24.4384 20.0544 23.5367 19.8057 23.1014 19.1217C22.6972 18.4376 22.9149 17.536 23.5989 17.1007Z" fill="#7A9CB4"/>
<path d="M28.9778 21.7957C28.9467 21.7957 28.9467 21.7957 28.9156 21.7957C28.5736 21.7646 28.2938 21.4537 28.3249 21.1117C28.3249 21.0184 28.3249 20.8941 28.356 20.7386C28.4492 18.9042 28.698 13.3076 33.8593 12.5303C34.2013 12.4681 34.5433 12.7168 34.6055 13.0899C34.6677 13.4319 34.4189 13.774 34.0458 13.8361C29.9417 14.4269 29.724 19.0596 29.6307 20.8008C29.6307 20.9562 29.6307 21.1117 29.5996 21.2361C29.5996 21.547 29.2887 21.7957 28.9778 21.7957Z" fill="#7A9CB4"/>
<path d="M33.7971 11.7218C34.6055 11.6596 35.2896 12.2815 35.3517 13.0899C35.4139 13.8983 34.7921 14.5823 33.9837 14.6445C33.1753 14.7067 32.4913 14.0848 32.4291 13.2764C32.3669 12.468 32.9887 11.784 33.7971 11.7218Z" fill="#7A9CB4"/>
<path d="M55.2507 71.201C54.9087 71.201 54.5978 70.9834 54.4734 70.6414C53.7272 68.5271 50.1827 66.5061 47.1979 66.5061C46.7315 66.5061 46.3584 66.133 46.3584 65.6666C46.3584 65.2003 46.7315 64.8271 47.1979 64.8271C50.9289 64.8271 55.0642 67.2834 56.028 70.0506C56.1835 70.4859 55.9659 70.9523 55.5306 71.1078C55.4373 71.201 55.344 71.201 55.2507 71.201Z" fill="#7A9CB4"/>
<path d="M48.0062 72.4136C49.1224 72.4136 50.0272 71.5087 50.0272 70.3926C50.0272 69.2764 49.1224 68.3716 48.0062 68.3716C46.8901 68.3716 45.9852 69.2764 45.9852 70.3926C45.9852 71.5087 46.8901 72.4136 48.0062 72.4136Z" fill="white"/>
<path d="M48.1927 10.3225C46.265 10.3225 44.6793 8.76787 44.6793 6.80906C44.6793 4.85026 46.2339 3.29565 48.1927 3.29565C50.1515 3.29565 51.7061 4.85026 51.7061 6.80906C51.7061 8.76787 50.1515 10.3225 48.1927 10.3225ZM48.1927 4.10405C46.7003 4.10405 45.4877 5.31664 45.4877 6.80906C45.4877 8.30148 46.7003 9.51408 48.1927 9.51408C49.6852 9.51408 50.8977 8.30148 50.8977 6.80906C50.8977 5.31664 49.7162 4.10405 48.1927 4.10405Z" fill="#9DBB53"/>
<path d="M63.3036 49.8407C63.117 49.8407 62.9616 49.7474 62.8683 49.5608C62.2154 48.1306 59.9767 46.4205 55.9037 46.4205C52.2659 46.4205 49.4054 47.5399 48.6281 49.2499C48.5348 49.4365 48.3172 49.5608 48.0995 49.4987C47.8819 49.4365 47.7264 49.2499 47.7264 49.0323V30.3459C47.7264 30.2837 47.7264 30.2526 47.7575 30.1905C48.0995 28.1384 52.1104 26.9258 55.9037 26.9258C60.1011 26.9258 63.428 28.3249 63.7389 30.1905C63.7389 30.2215 63.77 30.2837 63.77 30.3459V49.3743C63.77 49.5919 63.6145 49.7785 63.3969 49.8407C63.3658 49.8407 63.3347 49.8407 63.3036 49.8407ZM55.9037 45.5189C59.3238 45.5189 61.5935 46.6071 62.8372 47.913V30.4392V30.4081C62.7128 29.1955 59.9145 27.8585 55.9348 27.8585C51.955 27.8585 48.8147 29.1955 48.7214 30.4081V30.4392V47.6642C50.1205 46.3273 52.7012 45.5189 55.9037 45.5189Z" fill="white"/>
<path d="M61.6557 38.5853C61.5624 38.5853 61.5002 38.5542 61.4069 38.5231C60.1011 37.7147 58.2045 37.2794 55.9036 37.2794C53.8205 37.2794 52.297 37.6215 50.9289 38.3988C50.7113 38.5231 50.4314 38.4609 50.3071 38.2122C50.1827 37.9946 50.2449 37.7147 50.4936 37.5904C52.0171 36.7198 53.6961 36.3467 55.9347 36.3467C58.391 36.3467 60.4742 36.8442 61.9355 37.7458C62.1532 37.8702 62.2153 38.1811 62.091 38.3988C61.9666 38.5231 61.8111 38.5853 61.6557 38.5853Z" fill="white"/>
<path d="M61.6557 34.8231C61.5624 34.8231 61.5002 34.792 61.4069 34.7609C60.1011 33.9525 58.2045 33.5172 55.9036 33.5172C53.8205 33.5172 52.297 33.8592 50.9289 34.6366C50.7113 34.7609 50.4314 34.6987 50.3071 34.45C50.1827 34.2324 50.2449 33.9525 50.4936 33.8282C52.0171 32.9576 53.6961 32.5845 55.9347 32.5845C58.391 32.5845 60.4742 33.0819 61.9355 33.9836C62.1532 34.108 62.2153 34.4189 62.091 34.6366C61.9666 34.7298 61.8111 34.8231 61.6557 34.8231Z" fill="white"/>
<path d="M46.2029 38.5853C46.1096 38.5853 46.0475 38.5542 45.9542 38.5231C44.5861 37.6525 42.9693 37.2794 40.7618 37.2794C38.6164 37.2794 36.782 37.6836 35.4761 38.3988C35.2585 38.5231 34.9787 38.4609 34.8543 38.2122C34.7299 37.9946 34.7921 37.7147 35.0409 37.5904C36.4711 36.782 38.461 36.3467 40.7929 36.3467C43.187 36.3467 44.9281 36.782 46.4827 37.7458C46.7004 37.8702 46.7626 38.1811 46.6382 38.3988C46.5138 38.5231 46.3584 38.5853 46.2029 38.5853Z" fill="white"/>
<path d="M46.2029 34.8231C46.1096 34.8231 46.0475 34.792 45.9542 34.7609C44.5861 33.8903 42.9693 33.5172 40.7618 33.5172C38.6164 33.5172 36.782 33.9214 35.4761 34.6366C35.2585 34.7609 34.9787 34.6987 34.8543 34.45C34.7299 34.2324 34.7921 33.9525 35.0409 33.8282C36.4711 33.0198 38.461 32.5845 40.7929 32.5845C43.187 32.5845 44.9281 33.0198 46.4827 33.9836C46.7004 34.108 46.7626 34.4189 46.6382 34.6366C46.5138 34.7298 46.3584 34.8231 46.2029 34.8231Z" fill="white"/>
<path d="M33.1131 49.8407C33.082 49.8407 33.0509 49.8407 33.0198 49.8407C32.8022 49.7785 32.6467 49.5919 32.6467 49.3743V30.3459C32.6467 30.2837 32.6467 30.2526 32.6778 30.1905C32.9887 28.3249 36.3156 26.9258 40.513 26.9258C44.3063 26.9258 48.3172 28.1384 48.6592 30.1905C48.6592 30.2215 48.6903 30.2837 48.6903 30.3459V49.0634C48.6903 49.281 48.5348 49.4676 48.3172 49.5297C48.0995 49.5919 47.8819 49.4676 47.7886 49.281C47.0113 47.5709 44.1508 46.4516 40.513 46.4516C36.44 46.4516 34.2013 48.1306 33.5484 49.5919C33.4551 49.7474 33.2997 49.8407 33.1131 49.8407ZM33.5795 30.4392V47.913C34.8232 46.6071 37.0929 45.5189 40.513 45.5189C43.7155 45.5189 46.3273 46.3273 47.7575 47.6642V30.4392V30.4081C47.6331 29.1955 44.5239 27.8585 40.5441 27.8585C36.5643 27.8585 33.766 29.1644 33.6417 30.4081C33.5795 30.4081 33.5795 30.4081 33.5795 30.4392Z" fill="white"/>
<path d="M35.3829 50.7422C35.2274 50.7422 35.0719 50.6801 34.9787 50.5246C34.8543 50.307 34.9165 50.0271 35.1341 49.8717C41.6946 45.7675 48.1306 48.5347 48.4105 48.6591C48.6592 48.7524 48.7525 49.0322 48.6592 49.2809C48.5659 49.5297 48.2861 49.6229 48.0374 49.5297C47.9752 49.4986 41.7567 46.8557 35.6316 50.6801C35.5383 50.7112 35.4451 50.7422 35.3829 50.7422Z" fill="white"/>
<path d="M61.0339 50.7422C60.9406 50.7422 60.8784 50.7112 60.7851 50.6801C54.66 46.8557 48.4416 49.4986 48.3794 49.5297C48.1306 49.6229 47.8819 49.5297 47.7575 49.2809C47.6643 49.0322 47.7575 48.7834 48.0063 48.6591C48.2861 48.5347 54.7222 45.7675 61.2826 49.8717C61.5002 49.996 61.5624 50.307 61.4381 50.5246C61.3448 50.649 61.1893 50.7422 61.0339 50.7422Z" fill="white"/>
</g>
<defs>
<clipPath id="clip0_1777_4124">
<rect width="96.3855" height="80" fill="white"/>
</clipPath>
</defs>
</svg>
