<svg width="97" height="80" viewBox="0 0 97 80" fill="none" xmlns="http://www.w3.org/2000/svg">
<g clip-path="url(#clip0_1777_2805)">
<path d="M48.1928 79.9689C70.2756 79.9689 88.1773 62.0673 88.1773 39.9845C88.1773 17.9017 70.2756 0 48.1928 0C26.11 0 8.20837 17.9017 8.20837 39.9845C8.20837 62.0673 26.11 79.9689 48.1928 79.9689Z" fill="#11283C"/>
<path d="M89.4209 61.3136C88.6747 60.9405 88.3638 60.0077 88.768 59.2615C89.1411 58.5153 90.0739 58.2044 90.8201 58.6086C91.5663 58.9817 91.8772 59.9144 91.473 60.6607C91.1932 61.1892 90.6646 61.5001 90.105 61.5001C89.8873 61.469 89.6386 61.4069 89.4209 61.3136ZM92.9032 53.3229C92.0949 53.0742 91.6285 52.2347 91.8461 51.4263C92.0638 50.6179 92.9343 50.1515 93.7427 50.3692C94.5511 50.5868 95.0175 51.4263 94.7999 52.2347C94.6133 52.9187 93.9915 53.354 93.3385 53.354C93.1831 53.3851 93.0276 53.3851 92.9032 53.3229ZM94.7377 44.8348C93.8982 44.7726 93.2764 44.0264 93.3385 43.1869C93.4007 42.3474 94.1469 41.7256 94.9864 41.7877C95.8259 41.8499 96.4478 42.5961 96.3856 43.4356C96.3234 44.244 95.6394 44.8348 94.8621 44.8348C94.831 44.8348 94.7999 44.8348 94.7377 44.8348ZM93.2453 34.792C93.152 33.9525 93.7427 33.2063 94.5822 33.113C95.4217 33.0198 96.1679 33.6105 96.2612 34.45C96.3545 35.2895 95.7637 36.0357 94.9242 36.129C94.8621 36.129 94.7999 36.129 94.7688 36.129C93.9915 36.1601 93.3385 35.5693 93.2453 34.792ZM91.5041 26.5837C91.2554 25.7753 91.6907 24.9358 92.4991 24.6871C93.3074 24.4383 94.1469 24.8736 94.3957 25.682C94.6444 26.4904 94.2091 27.3299 93.4007 27.5786C93.2453 27.6097 93.0898 27.6408 92.9343 27.6408C92.3125 27.6719 91.7217 27.2366 91.5041 26.5837ZM88.2083 18.8729C87.8041 18.1266 88.084 17.1939 88.7991 16.8208C89.5453 16.4166 90.447 16.6964 90.8823 17.4115C91.2865 18.1577 91.0066 19.0905 90.2915 19.4636C90.0428 19.588 89.8251 19.6502 89.5764 19.6502C89.0167 19.6812 88.4882 19.3703 88.2083 18.8729Z" fill="#7A9CB4"/>
<path d="M5.44113 61.6556C5.03693 60.9094 5.31676 60.0077 6.06297 59.6035C6.80918 59.1993 7.71086 59.4792 8.14615 60.1943C8.55034 60.9405 8.27051 61.8732 7.5243 62.2463C7.30666 62.3707 7.05792 62.4329 6.80918 62.4329C6.24953 62.4329 5.72096 62.1531 5.44113 61.6556ZM1.92772 53.3851C1.67899 52.5767 2.11428 51.7372 2.92267 51.4885C3.73107 51.2397 4.57055 51.675 4.81929 52.4834C5.06803 53.2918 4.63274 54.1313 3.82434 54.38C3.66888 54.4422 3.51342 54.4422 3.35796 54.4422C2.73612 54.4422 2.14537 54.038 1.92772 53.3851ZM0.0932886 44.586C1.22258e-05 43.7465 0.621854 43.0003 1.46134 42.9071C2.30083 42.8138 3.04704 43.4356 3.14032 44.244C3.23359 45.0835 2.61175 45.8297 1.80335 45.923C1.74117 45.923 1.67899 45.923 1.64789 45.923C0.839499 45.9541 0.186565 45.3633 0.0932886 44.586ZM1.39916 37.2483C0.55967 37.1861 -0.062172 36.4399 1.22232e-05 35.6004C0.0621964 34.7609 0.808407 34.1391 1.64789 34.2013C2.48738 34.2634 3.10922 35.0097 3.04704 35.8491C2.98485 36.6264 2.30083 37.2483 1.52353 37.2483C1.49243 37.2483 1.43025 37.2483 1.39916 37.2483ZM2.67393 28.6358C1.86554 28.387 1.39916 27.5475 1.6168 26.7392C1.86554 25.9308 2.70503 25.4644 3.51342 25.682C4.32182 25.9308 4.7882 26.7702 4.53946 27.5786C4.35291 28.2316 3.73107 28.6669 3.07813 28.6669C2.95376 28.698 2.82939 28.698 2.67393 28.6358ZM5.62768 20.4585C4.88147 20.0854 4.60164 19.1527 4.97475 18.4065C5.34786 17.6603 6.28062 17.3804 7.02683 17.7535C7.77304 18.1266 8.05287 19.0594 7.67976 19.8056C7.39993 20.3342 6.87137 20.6451 6.31171 20.6451C6.06297 20.6451 5.84533 20.5829 5.62768 20.4585Z" fill="#7A9CB4"/>
<path d="M60.6297 61.0961C59.6036 58.4844 60.5986 55.2819 62.8994 53.6962C63.9565 56.3079 62.9616 59.4793 60.6297 61.0961Z" fill="#7A9CB4"/>
<path d="M69.0556 53.1675C67.1279 51.1154 66.8481 47.7886 68.4027 45.4567C70.3304 47.5087 70.5791 50.8356 69.0556 53.1675Z" fill="#7A9CB4"/>
<path d="M73.7195 40.7929C71.854 39.8912 70.6414 37.808 70.7968 35.7249C72.6624 36.5954 73.875 38.7097 73.7195 40.7929Z" fill="#7A9CB4"/>
<path d="M48.7836 64.765C48.3172 64.765 47.9441 64.3919 47.9441 63.9255C47.9441 63.4591 48.3172 63.086 48.7836 63.086C62.5885 63.086 73.8127 51.8618 73.8127 38.0569C73.8127 26.5839 66.0397 16.6033 54.9087 13.7739C54.4734 13.6496 54.1936 13.2143 54.318 12.779C54.4423 12.3437 54.8776 12.0639 55.3129 12.1882C67.1901 15.1731 75.4606 25.8066 75.4606 38.0569C75.4606 52.7945 63.4901 64.765 48.7836 64.765Z" fill="#9DBB53"/>
<path d="M54.7843 14.8932C53.7894 14.6756 53.1365 13.6806 53.3852 12.6546C53.6028 11.6596 54.5978 11.0067 55.6238 11.2554C56.6188 11.4731 57.2717 12.468 57.023 13.4941C56.8053 14.489 55.8104 15.1108 54.7843 14.8932Z" fill="#9DBB53"/>
<path d="M59.2616 62.3087C58.9196 62.3087 58.6398 62.06 58.6087 61.6868C58.5776 61.3448 58.8574 61.0339 59.1994 61.0028C60.0078 60.9406 60.9095 60.9406 61.9045 60.9406C66.2884 60.9095 72.3203 60.8785 76.1757 56.6188C76.4245 56.339 76.8287 56.339 77.0774 56.5877C77.3572 56.8365 77.3572 57.2407 77.1085 57.4894C72.88 62.1532 66.5372 62.1843 61.9045 62.2154C60.9406 62.2154 60.0389 62.2154 59.2927 62.2776C59.2927 62.3087 59.2616 62.3087 59.2616 62.3087Z" fill="#9DBB53"/>
<path d="M75.4606 56.2146C75.9581 55.5928 76.8908 55.4995 77.5127 55.997C78.1345 56.4945 78.2278 57.4272 77.7303 58.0491C77.2329 58.6709 76.3001 58.7642 75.6782 58.2667C75.0564 57.7692 74.9631 56.8365 75.4606 56.2146Z" fill="#9DBB53"/>
<path d="M69.9573 53.8206C69.8951 53.8206 69.864 53.8206 69.8018 53.8206C69.4287 53.8206 69.1489 53.5097 69.18 53.1365C69.2111 52.7634 69.4909 52.5147 69.864 52.5147C71.5119 52.5769 75.1808 51.2399 77.7614 48.6282C79.0673 47.2912 80.5597 45.1148 80.4042 42.1921C80.3731 41.819 80.653 41.5392 81.0261 41.5081C81.3992 41.477 81.679 41.7568 81.7101 42.1299C81.8655 44.8039 80.8084 47.3845 78.6942 49.561C76.0202 52.266 72.1959 53.8206 69.9573 53.8206Z" fill="#9DBB53"/>
<path d="M79.5647 42.4097C79.4714 41.6013 80.0311 40.8862 80.8395 40.7619C81.6479 40.6686 82.363 41.2282 82.4874 42.0366C82.5806 42.845 82.021 43.5601 81.2126 43.6845C80.4042 43.7778 79.6891 43.2181 79.5647 42.4097Z" fill="#9DBB53"/>
<path d="M74.6522 42.1299C74.4035 42.1299 74.1548 41.9745 74.0615 41.7568C73.906 41.4459 74.0615 41.0417 74.3724 40.8862C75.7405 40.2644 78.1967 37.7148 79.2539 34.5435C79.7824 32.9267 80.1555 30.5326 78.8808 28.2007C78.6942 27.8897 78.8186 27.4855 79.1295 27.3301C79.4404 27.1435 79.8446 27.2679 80.0001 27.5788C81.1816 29.7553 81.3681 32.3048 80.4664 34.9787C79.3471 38.3678 76.7354 41.2593 74.901 42.0988C74.8077 42.1299 74.7455 42.1299 74.6522 42.1299Z" fill="#9DBB53"/>
<path d="M78.2589 28.7603C77.8237 28.0762 78.0102 27.1746 78.6942 26.7393C79.3783 26.304 80.2799 26.4906 80.7152 27.1746C81.1505 27.8586 80.964 28.7603 80.2799 29.1956C79.5959 29.6309 78.6942 29.4132 78.2589 28.7603Z" fill="#9DBB53"/>
<path d="M73.3152 30.5325C73.1598 30.5325 73.0043 30.4703 72.8799 30.377C72.6001 30.1283 72.569 29.7241 72.8178 29.4753C73.8438 28.2628 74.7144 25.3712 74.3724 22.604C74.1547 20.9561 73.4396 18.6864 71.1699 17.0696C70.89 16.8519 70.7968 16.4478 71.0144 16.1679C71.2321 15.8881 71.6363 15.7948 71.9161 16.0125C74.0304 17.5049 75.3362 19.7124 75.6471 22.4485C76.0513 25.6821 74.9942 28.9157 73.7816 30.3148C73.6883 30.4703 73.5018 30.5325 73.3152 30.5325Z" fill="#9DBB53"/>
<path d="M70.8589 17.8469C70.1749 17.4427 69.9572 16.5411 70.3614 15.8259C70.7656 15.1419 71.6673 14.9243 72.3824 15.3285C73.0975 15.7327 73.2841 16.6343 72.8799 17.3495C72.4446 18.0646 71.5429 18.2822 70.8589 17.8469Z" fill="#9DBB53"/>
<path d="M67.0036 20.0544C66.6615 20.0544 66.3817 19.8057 66.3506 19.4637C66.3506 19.3393 66.3506 19.2149 66.3195 19.0284C66.0086 12.6545 63.0238 12.2192 61.9044 12.0637C61.5624 12.0016 61.3137 11.6906 61.3448 11.3175C61.407 10.9755 61.7179 10.7268 62.091 10.7579C67.2523 11.5041 67.501 17.1007 67.5943 18.9662C67.5943 19.1217 67.5943 19.246 67.6254 19.3393C67.6565 19.6813 67.3767 20.0233 67.0346 20.0233C67.0346 20.0544 67.0346 20.0544 67.0036 20.0544Z" fill="#9DBB53"/>
<path d="M61.9977 12.9033C61.1893 12.8411 60.5675 12.1571 60.6297 11.3487C60.6918 10.5403 61.3759 9.91842 62.1843 9.98061C62.9927 10.0428 63.6145 10.7268 63.5523 11.5352C63.5212 12.3436 62.8061 12.9344 61.9977 12.9033Z" fill="#9DBB53"/>
<path d="M40.7307 69.4599C40.6374 69.4599 40.5442 69.4599 40.4509 69.3977C40.0156 69.2422 39.7979 68.7758 39.9534 68.3405C40.9484 65.5423 45.0836 63.1171 48.7836 63.1171C49.2499 63.1171 49.6231 63.4902 49.6231 63.9566C49.6231 64.4229 49.2499 64.796 48.7836 64.796C45.7987 64.796 42.2542 66.817 41.508 68.9313C41.3836 69.2422 41.0727 69.4599 40.7307 69.4599Z" fill="#9DBB53"/>
<path d="M35.3207 61.0961C32.9888 59.5104 32.0249 56.3079 33.051 53.6962C35.3518 55.2819 36.3467 58.4533 35.3207 61.0961Z" fill="#7A9CB4"/>
<path d="M26.9257 53.1675C25.3711 50.8045 25.651 47.5087 27.5787 45.4567C29.1333 47.8197 28.8224 51.1154 26.9257 53.1675Z" fill="#7A9CB4"/>
<path d="M22.2309 40.7929C22.0755 38.7097 23.288 36.6265 25.1536 35.7249C25.309 37.7769 24.0964 39.8601 22.2309 40.7929Z" fill="#7A9CB4"/>
<path d="M47.1668 64.7649C32.4602 64.7649 20.4897 52.7945 20.4897 38.0879C20.4897 25.8376 28.7602 15.2041 40.6374 12.2193C41.0727 12.0949 41.5391 12.3747 41.6324 12.81C41.7257 13.2453 41.4769 13.7117 41.0416 13.805C29.9107 16.6032 22.1376 26.5838 22.1376 38.0879C22.1376 51.8928 33.3619 63.117 47.1668 63.117C47.6332 63.117 48.0063 63.4901 48.0063 63.9565C48.0063 64.4229 47.6332 64.7649 47.1668 64.7649Z" fill="#9DBB53"/>
<path d="M40.3265 11.2554C41.3214 11.0378 42.3163 11.6596 42.5651 12.6546C42.8138 13.6495 42.1609 14.6445 41.1659 14.8932C40.171 15.1109 39.176 14.489 38.9273 13.4941C38.7097 12.468 39.3315 11.4731 40.3265 11.2554Z" fill="#9DBB53"/>
<path d="M36.6888 62.3086H36.6577C35.8804 62.2464 34.9787 62.2464 34.0459 62.2464C29.4132 62.2153 23.0704 62.1532 18.8419 57.5204C18.5932 57.2406 18.6243 56.8364 18.873 56.6188C19.1217 56.4011 19.557 56.4011 19.7747 56.6499C23.6301 60.8784 29.6309 60.9406 34.0459 60.9717C35.0098 60.9717 35.9426 60.9717 36.751 61.0339C37.093 61.0649 37.3728 61.3759 37.3417 61.7179C37.3106 62.0599 37.0308 62.3086 36.6888 62.3086Z" fill="#9DBB53"/>
<path d="M18.22 58.0491C17.7225 57.4272 17.8158 56.4945 18.4376 55.997C19.0595 55.4995 19.9922 55.5928 20.4897 56.2146C20.9872 56.8365 20.8939 57.7692 20.2721 58.2667C19.6502 58.7642 18.7486 58.6709 18.22 58.0491Z" fill="#9DBB53"/>
<path d="M25.9931 53.8205C23.7544 53.8205 19.9301 52.2348 17.2873 49.5298C15.173 47.3533 14.1159 44.8038 14.2713 42.0988C14.3024 41.7257 14.5823 41.4769 14.9554 41.4769C15.3285 41.508 15.5772 41.8189 15.5772 42.161C15.4217 45.0836 16.9142 47.2601 18.22 48.597C20.8007 51.2399 24.4385 52.5457 26.1174 52.4835C26.4905 52.4835 26.7704 52.7634 26.8015 53.1054C26.8015 53.4785 26.5216 53.7583 26.1796 53.7894C26.0863 53.8205 26.0552 53.8205 25.9931 53.8205Z" fill="#9DBB53"/>
<path d="M13.4629 42.0366C13.5562 41.2282 14.3024 40.6686 15.1108 40.7619C15.9192 40.8551 16.4788 41.6013 16.3856 42.4097C16.2923 43.2181 15.5461 43.7778 14.7377 43.6845C13.9293 43.5601 13.3696 42.845 13.4629 42.0366Z" fill="#9DBB53"/>
<path d="M21.2981 42.1299C21.2048 42.1299 21.1116 42.0988 21.0183 42.0677C19.1528 41.2282 16.5721 38.3367 15.4528 34.9476C14.5822 32.2737 14.7377 29.7241 15.9192 27.5477C16.1057 27.2368 16.4788 27.1124 16.7898 27.299C17.1007 27.4855 17.2251 27.8586 17.0385 28.1695C15.7637 30.5014 16.1368 32.8955 16.6654 34.5123C17.7225 37.6837 20.1788 40.2333 21.5469 40.8551C21.8578 41.0106 22.0132 41.3837 21.8578 41.7257C21.7956 42.0055 21.5469 42.1299 21.2981 42.1299Z" fill="#9DBB53"/>
<path d="M15.2662 27.1434C15.7015 26.4594 16.6032 26.2729 17.2872 26.7082C17.9712 27.1434 18.1578 28.0451 17.7225 28.7291C17.2872 29.4132 16.3855 29.5997 15.7015 29.1644C15.0175 28.7291 14.7998 27.8275 15.2662 27.1434Z" fill="#9DBB53"/>
<path d="M22.6351 30.5326C22.4486 30.5326 22.262 30.4704 22.1376 30.315C20.9251 28.9158 19.8679 25.6822 20.2721 22.4486C20.6141 19.7436 21.92 17.505 24.0032 16.0126C24.283 15.7949 24.6872 15.8882 24.9048 16.168C25.1225 16.4479 25.0292 16.8521 24.7494 17.0697C22.4797 18.6865 21.7334 20.9562 21.5469 22.6041C21.2049 25.3402 22.0755 28.2629 23.1015 29.4755C23.3502 29.7553 23.3191 30.1595 23.0393 30.3771C22.946 30.5015 22.7906 30.5326 22.6351 30.5326Z" fill="#9DBB53"/>
<path d="M23.5679 15.3596C24.2519 14.9554 25.1536 15.173 25.5889 15.8571C25.9931 16.5411 25.7754 17.4428 25.0914 17.8781C24.4074 18.2823 23.5057 18.0646 23.0704 17.3806C22.6662 16.6655 22.8839 15.7638 23.5679 15.3596Z" fill="#9DBB53"/>
<path d="M28.9468 20.0544C28.9157 20.0544 28.9157 20.0544 28.8846 20.0544C28.5426 20.0233 28.2628 19.7124 28.2939 19.3704C28.2939 19.2771 28.2939 19.1527 28.325 18.9973C28.4182 17.1628 28.667 11.5662 33.8283 10.7889C34.1703 10.7268 34.5123 10.9755 34.5745 11.3486C34.6367 11.6906 34.3879 12.0326 34.0148 12.0948C29.9107 12.6856 29.693 17.3183 29.5997 19.0594C29.5997 19.2149 29.5997 19.3704 29.5686 19.4947C29.5686 19.8057 29.2888 20.0544 28.9468 20.0544Z" fill="#9DBB53"/>
<path d="M33.7661 9.98061C34.5745 9.91842 35.2586 10.5403 35.3207 11.3487C35.3829 12.1571 34.7611 12.8411 33.9527 12.9033C33.1443 12.9654 32.4603 12.3436 32.3981 11.5352C32.3359 10.7268 32.9577 10.0428 33.7661 9.98061Z" fill="#9DBB53"/>
<path d="M55.2196 69.4598C54.8776 69.4598 54.5667 69.2422 54.4423 68.9002C53.6961 66.7859 50.1516 64.7649 47.1668 64.7649C46.7004 64.7649 46.3273 64.3918 46.3273 63.9254C46.3273 63.459 46.7004 63.0859 47.1668 63.0859C50.8978 63.0859 55.0331 65.5422 55.9969 68.3094C56.1524 68.7447 55.9347 69.2111 55.4994 69.3665C55.4062 69.4598 55.3129 69.4598 55.2196 69.4598Z" fill="#9DBB53"/>
<path d="M47.9751 72.4136C49.0912 72.4136 49.9961 71.5087 49.9961 70.3926C49.9961 69.2764 49.0912 68.3716 47.9751 68.3716C46.8589 68.3716 45.9541 69.2764 45.9541 70.3926C45.9541 71.5087 46.8589 72.4136 47.9751 72.4136Z" fill="#7A9CB4"/>
<path d="M35.8181 68.4338H16.6343C16.4167 68.4338 16.2301 68.2472 16.2301 68.0296C16.2301 67.8119 16.4167 67.6254 16.6343 67.6254H35.8181C36.0358 67.6254 36.2223 67.8119 36.2223 68.0296C36.2223 68.2472 36.0358 68.4338 35.8181 68.4338Z" fill="#7A9CB4"/>
<path d="M16.6964 69.522C15.888 69.522 15.2351 68.8691 15.2351 68.0607C15.2351 67.2523 15.888 66.5994 16.6964 66.5994C17.5048 66.5994 18.1578 67.2523 18.1578 68.0607C18.1578 68.8691 17.5048 69.522 16.6964 69.522Z" fill="#7A9CB4"/>
<path d="M37.6525 72.9111H20.7073C20.4897 72.9111 20.3031 72.7245 20.3031 72.5069C20.3031 72.2892 20.4897 72.1027 20.7073 72.1027H37.6525C37.8701 72.1027 38.0567 72.2892 38.0567 72.5069C38.0567 72.7245 37.8701 72.9111 37.6525 72.9111Z" fill="#7A9CB4"/>
<path d="M20.8006 73.9682C19.9922 73.9682 19.3392 73.3153 19.3392 72.5069C19.3392 71.6985 19.9922 71.0455 20.8006 71.0455C21.609 71.0455 22.2619 71.6985 22.2619 72.5069C22.2619 73.3153 21.609 73.9682 20.8006 73.9682Z" fill="#7A9CB4"/>
<path d="M44.4307 77.5126H24.7183C24.5006 77.5126 24.3141 77.3261 24.3141 77.1084C24.3141 76.8908 24.5006 76.7042 24.7183 76.7042H44.4307C44.6483 76.7042 44.8349 76.8908 44.8349 77.1084C44.8349 77.3261 44.6483 77.5126 44.4307 77.5126Z" fill="#7A9CB4"/>
<path d="M24.7804 78.6009C23.972 78.6009 23.3191 77.948 23.3191 77.1396C23.3191 76.3312 23.972 75.6782 24.7804 75.6782C25.5888 75.6782 26.2418 76.3312 26.2418 77.1396C26.2418 77.948 25.5888 78.6009 24.7804 78.6009Z" fill="#7A9CB4"/>
<path d="M79.2537 68.4338H60.1321C59.9145 68.4338 59.7279 68.2472 59.7279 68.0296C59.7279 67.8119 59.9145 67.6254 60.1321 67.6254H79.2537C79.4714 67.6254 79.6579 67.8119 79.6579 68.0296C79.6579 68.2472 79.4714 68.4338 79.2537 68.4338Z" fill="#7A9CB4"/>
<path d="M79.1916 66.5682C79.9999 66.5682 80.6529 67.2212 80.6529 68.0296C80.6529 68.838 79.9999 69.4909 79.1916 69.4909C78.3832 69.4909 77.7302 68.838 77.7302 68.0296C77.7302 67.2212 78.3832 66.5682 79.1916 66.5682Z" fill="#7A9CB4"/>
<path d="M75.1806 72.9111H58.08C57.8623 72.9111 57.6758 72.7245 57.6758 72.5069C57.6758 72.2892 57.8623 72.1027 58.08 72.1027H75.1806C75.3983 72.1027 75.5848 72.2892 75.5848 72.5069C75.5848 72.7245 75.3983 72.9111 75.1806 72.9111Z" fill="#7A9CB4"/>
<path d="M75.0873 71.0455C75.8957 71.0455 76.5486 71.6985 76.5486 72.5069C76.5486 73.3153 75.8957 73.9682 75.0873 73.9682C74.2789 73.9682 73.626 73.3153 73.626 72.5069C73.626 71.6985 74.2789 71.0455 75.0873 71.0455Z" fill="#7A9CB4"/>
<path d="M71.2009 77.5126H51.5507C51.333 77.5126 51.1465 77.3261 51.1465 77.1084C51.1465 76.8908 51.333 76.7042 51.5507 76.7042H71.2009C71.4185 76.7042 71.6051 76.8908 71.6051 77.1084C71.6051 77.3261 71.3875 77.5126 71.2009 77.5126Z" fill="#7A9CB4"/>
<path d="M71.1076 75.6471C71.916 75.6471 72.5689 76.3 72.5689 77.1084C72.5689 77.9168 71.916 78.5698 71.1076 78.5698C70.2992 78.5698 69.6462 77.9168 69.6462 77.1084C69.6462 76.3 70.2992 75.6471 71.1076 75.6471Z" fill="#7A9CB4"/>
<path d="M47.9752 78.0412C41.9744 78.0412 36.8131 73.9681 35.4451 68.1539C35.3829 67.9363 35.5384 67.7497 35.7249 67.6875C35.9426 67.6253 36.1291 67.7808 36.1913 67.9673C37.4661 73.4396 42.3164 77.2639 47.9752 77.2639C53.6029 77.2639 58.4532 73.4396 59.728 67.9673C59.7902 67.7497 59.9768 67.6253 60.1944 67.6875C60.412 67.7497 60.5364 67.9363 60.4742 68.1539C59.1373 73.9681 53.976 78.0412 47.9752 78.0412Z" fill="#7A9CB4"/>
<path d="M47.9751 72.4136C49.0912 72.4136 49.9961 71.5087 49.9961 70.3926C49.9961 69.2764 49.0912 68.3716 47.9751 68.3716C46.8589 68.3716 45.9541 69.2764 45.9541 70.3926C45.9541 71.5087 46.8589 72.4136 47.9751 72.4136Z" fill="#7A9CB4"/>
<path d="M48.1927 10.3226C46.265 10.3226 44.6793 8.76799 44.6793 6.80918C44.6793 4.85038 46.2339 3.29578 48.1927 3.29578C50.1515 3.29578 51.7061 4.85038 51.7061 6.80918C51.7061 8.76799 50.1204 10.3226 48.1927 10.3226ZM48.1927 4.10417C46.7003 4.10417 45.4877 5.31676 45.4877 6.80918C45.4877 8.30161 46.7003 9.5142 48.1927 9.5142C49.6852 9.5142 50.8977 8.30161 50.8977 6.80918C50.8977 5.31676 49.6852 4.10417 48.1927 4.10417Z" fill="#7A9CB4"/>
<path d="M52.9188 49.0012C52.8255 49.0012 52.7634 48.9701 52.6701 48.939L47.9441 46.2029C47.7264 46.0785 47.6332 45.7987 47.7886 45.581C47.913 45.3634 48.1928 45.2701 48.4105 45.4256L52.8877 48.0062L61.9666 42.7516V32.2425L52.8877 26.988L48.4105 29.5686C48.1928 29.693 47.913 29.6308 47.7886 29.4131C47.6643 29.1955 47.7264 28.9157 47.9441 28.7913L52.6701 26.0552C52.8255 25.9619 52.981 25.9619 53.1365 26.0552L62.6817 31.5896C62.8372 31.6829 62.9305 31.8383 62.9305 31.9938V43.0315C62.9305 43.1869 62.8372 43.3424 62.6817 43.4357L53.1365 48.9701C53.0743 48.9701 52.981 49.0012 52.9188 49.0012Z" fill="white"/>
<path d="M43.4668 49.0011C43.3735 49.0011 43.3114 48.97 43.2181 48.9389L33.6728 43.4046C33.5173 43.3113 33.4241 43.1558 33.4241 43.0004V31.9627C33.4241 31.8072 33.5173 31.6517 33.6728 31.5585L43.2181 26.0241C43.3735 25.9308 43.529 25.9308 43.6845 26.0241L53.2297 31.5585C53.3852 31.6517 53.4785 31.8072 53.4785 31.9627V43.0004C53.4785 43.1558 53.3852 43.3113 53.2297 43.4046L43.6845 48.9389C43.6534 48.97 43.5601 49.0011 43.4668 49.0011ZM34.3879 42.7516L43.4668 48.0062L52.5457 42.7516V32.2425L43.4668 26.9879L34.3879 32.2425V42.7516Z" fill="white"/>
<path d="M43.4669 43.4045C40.8241 43.4045 38.6476 41.2592 38.6165 38.5852C38.5854 36.0357 42.6274 32.1492 43.0938 31.7139C43.2803 31.5584 43.5602 31.5584 43.7156 31.7139C44.182 32.1492 48.2862 35.9735 48.3172 38.5231C48.3172 39.8289 47.8198 41.0415 46.9181 41.9743C46.0164 42.907 44.8038 43.4045 43.498 43.4356C43.498 43.4045 43.498 43.4045 43.4669 43.4045ZM43.4358 32.7088C42.0988 34.0147 39.5493 36.9374 39.5804 38.6163C39.6115 40.7617 41.3526 42.5339 43.5291 42.5028C44.5862 42.5028 45.5501 42.0676 46.2963 41.3213C47.0425 40.5751 47.4156 39.5802 47.4156 38.5542C47.3845 36.8441 44.7727 33.9836 43.4358 32.7088Z" fill="white"/>
<path d="M41.4147 38.0567C41.3526 38.0567 41.2593 38.0256 41.1971 37.9946C40.9794 37.8702 40.8862 37.5904 41.0105 37.3727C41.6946 36.1601 42.4097 35.1963 42.4408 35.1652C42.5962 34.9475 42.8761 34.9164 43.0937 35.0719C43.3114 35.2274 43.3424 35.5072 43.187 35.7248C43.187 35.7248 42.4719 36.6887 41.85 37.8391C41.7568 37.9635 41.5702 38.0567 41.4147 38.0567Z" fill="white"/>
</g>
<defs>
<clipPath id="clip0_1777_2805">
<rect width="96.3855" height="80" fill="white"/>
</clipPath>
</defs>
</svg>
