<svg width="157" height="54" viewBox="0 0 157 54" fill="none" xmlns="http://www.w3.org/2000/svg">
<path d="M13.7744 45.6792H5.74456C4.72315 45.6792 3.74355 45.2735 3.02131 44.5513C2.29906 43.829 1.89333 42.8494 1.89333 41.828V26.9366L0.134611 23.984C0.0464871 23.8354 0 23.6658 0 23.493C0 23.3202 0.0464871 23.1506 0.134611 23.0019L1.89333 20.0493V5.13868C1.88909 4.63024 1.98556 4.12598 2.17721 3.65502C2.36885 3.18406 2.6519 2.75571 3.00994 2.39469C3.36799 2.03366 3.79393 1.74711 4.26329 1.55157C4.73264 1.35602 5.23609 1.25535 5.74456 1.25537H13.7872V3.18098H5.74456C5.48896 3.18095 5.23594 3.23179 5.0002 3.33056C4.76446 3.42933 4.55073 3.57405 4.37149 3.75627C4.19226 3.9385 4.05108 4.15457 3.95622 4.39192C3.86136 4.62926 3.81468 4.88312 3.81894 5.13868V20.2932C3.81767 20.4657 3.76882 20.6346 3.67775 20.7811L2.0795 23.4705L3.67775 26.1535C3.76882 26.3 3.81767 26.4689 3.81894 26.6414V41.8023C3.81894 42.313 4.02181 42.8028 4.38293 43.164C4.74405 43.5251 5.23385 43.728 5.74456 43.728H13.7872L13.7744 45.6792Z" fill="#F4F6F8"/>
<path d="M45.8229 45.6792H37.7803V43.7536H45.8229C46.3336 43.7536 46.8234 43.5508 47.1845 43.1896C47.5456 42.8285 47.7485 42.3387 47.7485 41.828V26.6606C47.7506 26.4891 47.7971 26.3211 47.8833 26.1728L49.488 23.4898L47.8833 20.8003C47.7971 20.6521 47.7506 20.484 47.7485 20.3125V5.13868C47.7527 4.88312 47.7061 4.62926 47.6113 4.39192C47.5164 4.15457 47.3752 3.9385 47.196 3.75627C47.0168 3.57405 46.803 3.42933 46.5673 3.33056C46.3315 3.23179 46.0785 3.18095 45.8229 3.18098H37.7803V1.25537H45.8229C46.3313 1.25535 46.8348 1.35602 47.3041 1.55157C47.7735 1.74711 48.1995 2.03366 48.5575 2.39469C48.9156 2.75571 49.1986 3.18406 49.3902 3.65502C49.5819 4.12598 49.6783 4.63024 49.6741 5.13868V20.0237L51.4329 22.9763C51.521 23.1249 51.5675 23.2945 51.5675 23.4673C51.5675 23.6401 51.521 23.8097 51.4329 23.9583L49.6741 26.9109V41.8023C49.6741 42.8237 49.2684 43.8033 48.5461 44.5256C47.8239 45.2478 46.8443 45.6536 45.8229 45.6536" fill="#F4F6F8"/>
<path d="M40.0905 25.152C39.4892 25.0859 38.8823 25.2108 38.3559 25.5088C37.8295 25.8068 37.4101 26.2629 37.1573 26.8125C36.9046 27.3621 36.8312 27.9773 36.9475 28.5709C37.0638 29.1645 37.3639 29.7065 37.8054 30.1201C36.9016 32.2961 35.4267 34.1875 33.5364 35.5941C31.6461 37.0008 29.4108 37.8706 27.0669 38.1114V25.8196C28.6866 25.6148 30.2406 25.0532 31.617 24.1752C32.9933 23.2972 34.1577 22.1248 35.0261 20.7424C35.5777 20.7313 36.1146 20.5629 36.5737 20.2569C37.0328 19.951 37.3949 19.5202 37.6173 19.0154C37.8398 18.5105 37.9133 17.9526 37.8293 17.4073C37.7453 16.8621 37.5072 16.3522 37.1432 15.9377C36.7791 15.5232 36.3042 15.2214 35.7743 15.0678C35.2444 14.9141 34.6817 14.9151 34.1523 15.0706C33.623 15.2261 33.1492 15.5296 32.7865 15.9454C32.4239 16.3612 32.1876 16.8719 32.1056 17.4175C32.0449 17.8069 32.0655 18.2047 32.166 18.5858C32.2665 18.9669 32.4448 19.3231 32.6897 19.6319C32.0469 20.5832 31.2167 21.3933 30.2499 22.0125C29.283 22.6317 28.1999 23.0469 27.0669 23.2328V11.217C27.6523 10.9273 28.1226 10.4482 28.4013 9.85751C28.68 9.26678 28.7507 8.59918 28.602 7.96318C28.4533 7.32718 28.0938 6.76016 27.5821 6.35429C27.0703 5.94841 26.4363 5.72754 25.7832 5.72754C25.13 5.72754 24.4961 5.94841 23.9843 6.35429C23.4726 6.76016 23.1131 7.32718 22.9644 7.96318C22.8157 8.59918 22.8864 9.26678 23.1651 9.85751C23.4438 10.4482 23.914 10.9273 24.4994 11.217V23.2328C23.3639 23.0493 22.2781 22.6351 21.3089 22.0158C20.3396 21.3965 19.5074 20.5852 18.8638 19.6319C19.1087 19.3231 19.287 18.9669 19.3875 18.5858C19.488 18.2047 19.5086 17.8069 19.4479 17.4175C19.3659 16.8722 19.1298 16.3617 18.7675 15.9461C18.4052 15.5304 17.9316 15.2269 17.4026 15.0712C16.8737 14.9155 16.3112 14.9141 15.7815 15.0672C15.2518 15.2203 14.7768 15.5216 14.4124 15.9355C14.0481 16.3493 13.8095 16.8587 13.7248 17.4035C13.6401 17.9484 13.7128 18.5061 13.9343 19.0111C14.1558 19.5161 14.5169 19.9473 14.9752 20.254C15.4334 20.5607 15.9697 20.7301 16.521 20.7424C17.3914 22.1271 18.5588 23.301 19.9387 24.1791C21.3186 25.0572 22.8764 25.6175 24.4994 25.8196V38.1114C22.1521 37.8739 19.9128 37.0057 18.0189 35.5988C16.125 34.1919 14.647 32.2988 13.7417 30.1201C14.2161 29.6719 14.5253 29.0764 14.6188 28.4304C14.7122 27.7844 14.5847 27.1258 14.2568 26.5614C13.9288 25.9971 13.4198 25.5601 12.8122 25.3214C12.2047 25.0827 11.5344 25.0564 10.91 25.2466C10.2856 25.4369 9.7439 25.8325 9.37268 26.3694C9.00146 26.9063 8.82254 27.5529 8.86503 28.2042C8.90752 28.8556 9.1689 29.4734 9.60672 29.9575C10.0445 30.4416 10.6331 30.7636 11.2769 30.8711C12.3494 33.5758 14.1551 35.9278 16.4909 37.6626C18.8268 39.3975 21.6002 40.4465 24.4994 40.6917V53.1889H27.0669V40.6917C29.9639 40.4442 32.7346 39.3941 35.068 37.6594C37.4013 35.9247 39.2051 33.574 40.2767 30.8711C40.9639 30.7529 41.5852 30.3901 42.0258 29.8496C42.4665 29.3091 42.6966 28.6275 42.674 27.9305C42.6513 27.2335 42.3773 26.5683 41.9024 26.0576C41.4276 25.5469 40.784 25.2253 40.0905 25.152Z" fill="#F4F6F8"/>
<path d="M75.6505 4.29787H73.083C72.8261 3.8341 72.4433 3.45242 71.9788 3.19689C71.5143 2.94135 70.9869 2.82236 70.4577 2.85366C68.4486 2.85366 67.0558 4.28502 67.0558 6.51231C67.0558 8.7396 68.4679 10.2031 70.554 10.2031C71.3073 10.2469 72.0499 10.008 72.6364 9.53311C73.2229 9.05823 73.611 8.38157 73.7249 7.63558H69.8737V5.91538H75.9329V7.84099C75.6751 9.09294 74.9869 10.2151 73.9879 11.0124C72.9889 11.8098 71.7421 12.232 70.4641 12.2057C68.9473 12.2057 67.4927 11.6032 66.4202 10.5306C65.3476 9.45811 64.7451 8.00344 64.7451 6.48665C64.7451 4.96986 65.3476 3.51519 66.4202 2.44266C67.4927 1.37012 68.9473 0.767578 70.4641 0.767578C72.961 0.767578 74.9572 2.05132 75.6761 4.27861" fill="#F4F6F8"/>
<path d="M79.8413 12.1285H77.5947V3.23859H79.8413V4.61861C80.1202 4.14829 80.5194 3.76067 80.9977 3.49559C81.476 3.2305 82.0162 3.0975 82.5629 3.11021V5.47871H81.9723C80.6437 5.47871 79.8413 5.99221 79.8413 7.70601V12.1285Z" fill="#F4F6F8"/>
<path d="M87.9545 12.2763C85.3871 12.2763 83.5 10.479 83.5 7.68688C83.5 4.89474 85.3293 3.09751 87.9545 3.09751C88.5394 3.06688 89.1243 3.15974 89.6709 3.37004C90.2175 3.58034 90.7137 3.90337 91.1272 4.31811C91.5408 4.73286 91.8624 5.23002 92.0711 5.77725C92.2798 6.32449 92.3709 6.90954 92.3386 7.49433C92.3396 7.78439 92.3181 8.07408 92.2744 8.36084H85.7786C85.781 8.6364 85.8384 8.90872 85.9474 9.16186C86.0563 9.415 86.2146 9.64389 86.413 9.83513C86.6114 10.0264 86.8459 10.1761 87.1029 10.2757C87.3599 10.3752 87.6342 10.4225 87.9096 10.4148C88.2806 10.4378 88.6497 10.3468 88.9675 10.154C89.2853 9.9613 89.5365 9.67605 89.6876 9.33649H92.1139C91.8484 10.2206 91.2946 10.9903 90.5408 11.5231C89.787 12.0559 88.8765 12.321 87.9545 12.2763ZM85.7914 6.85245H90.0086C90.0023 6.58486 89.9418 6.32131 89.8306 6.07781C89.7195 5.83431 89.5601 5.61592 89.362 5.43586C89.164 5.25581 88.9314 5.11787 88.6785 5.03037C88.4255 4.94287 88.1574 4.90765 87.8904 4.92684C87.3603 4.91738 86.8469 5.11195 86.4563 5.47034C86.0656 5.82873 85.8276 6.32354 85.7914 6.85245Z" fill="#F4F6F8"/>
<path d="M97.8588 12.2764C95.2913 12.2764 93.3657 10.4792 93.3657 7.68704C93.3657 4.8949 95.1951 3.09766 97.8588 3.09766C98.4432 3.06797 99.0273 3.16152 99.5731 3.37223C100.119 3.58295 100.614 3.90612 101.027 4.32076C101.44 4.7354 101.761 5.23224 101.969 5.77901C102.178 6.32578 102.269 6.91026 102.236 7.49448C102.241 7.78465 102.219 8.07461 102.172 8.36099H95.6764C95.6806 8.63605 95.7391 8.90757 95.8487 9.15992C95.9582 9.41227 96.1166 9.64047 96.3146 9.83137C96.5127 10.0223 96.7465 10.1721 97.0027 10.2723C97.2589 10.3724 97.5325 10.4209 97.8075 10.415C98.1792 10.4374 98.5489 10.3463 98.8676 10.1537C99.1863 9.96112 99.4389 9.67616 99.5918 9.33665H102.025C101.759 10.2196 101.207 10.9885 100.454 11.5212C99.7016 12.0539 98.7926 12.3197 97.8717 12.2764H97.8588ZM95.7086 6.85261H99.9256C99.9194 6.58502 99.8588 6.32147 99.7477 6.07797C99.6365 5.83447 99.4771 5.61607 99.2791 5.43602C99.081 5.25597 98.8485 5.11802 98.5955 5.03052C98.3425 4.94302 98.0745 4.90781 97.8075 4.927C97.2774 4.91753 96.764 5.1121 96.3733 5.4705C95.9827 5.82889 95.7447 6.3237 95.7086 6.85261Z" fill="#F4F6F8"/>
<path d="M110.1 7.21831C110.1 5.79336 109.317 5.02313 108.129 5.02313C106.942 5.02313 106.126 5.79336 106.126 7.21831V12.1286H103.88V3.23873H106.126V4.34915C106.447 3.95072 106.855 3.63206 107.32 3.41821C107.784 3.20437 108.292 3.10119 108.803 3.11677C110.87 3.11677 112.346 4.45827 112.346 6.91663V12.1286H110.1V7.21831Z" fill="#F4F6F8"/>
<path d="M69.135 32.7839C66.8114 32.7839 65.0142 31.5644 64.9821 29.4462H67.3634C67.3684 29.6587 67.4174 29.8678 67.5075 30.0604C67.5976 30.2529 67.7266 30.4246 67.8866 30.5646C68.0465 30.7047 68.2338 30.8099 68.4365 30.8737C68.6393 30.9375 68.8531 30.9585 69.0644 30.9353C70.1235 30.9353 70.7461 30.3769 70.7461 29.5746C70.7461 27.1483 64.9692 28.6118 64.9692 24.5487C64.9692 22.5268 66.606 21.3394 68.9168 21.3394C71.2275 21.3394 72.768 22.514 72.922 24.5487H70.4572C70.4197 24.1596 70.2302 23.801 69.9296 23.5509C69.6291 23.3009 69.242 23.1797 68.8525 23.2136C67.9667 23.1815 67.3121 23.618 67.3121 24.5295C67.3121 26.776 73.0504 25.5244 73.0504 29.4719C73.0504 31.237 71.6382 32.8288 69.09 32.8288" fill="#F4F6F8"/>
<path d="M78.9884 32.8162C78.0826 32.8074 77.1998 32.5307 76.451 32.021C75.7023 31.5114 75.1209 30.7916 74.7805 29.9522C74.44 29.1129 74.3555 28.1916 74.5377 27.3043C74.7198 26.417 75.1604 25.6035 75.804 24.9661C76.4476 24.3288 77.2654 23.8961 78.1544 23.7227C79.0434 23.5492 79.9638 23.6426 80.7998 23.9913C81.6358 24.3399 82.3499 24.9281 82.8522 25.6819C83.3545 26.4356 83.6226 27.3211 83.6226 28.2269C83.6436 28.839 83.5377 29.4489 83.3117 30.0182C83.0856 30.5874 82.7442 31.1038 82.309 31.5348C81.8737 31.9658 81.3541 32.3022 80.7826 32.5227C80.2112 32.7432 79.6003 32.8431 78.9884 32.8162ZM78.9884 30.8906C80.1758 30.8906 81.3119 30.0241 81.3119 28.2589C81.3119 26.4938 80.2079 25.6273 79.0205 25.6273C77.833 25.6273 76.7611 26.4745 76.7611 28.2589C76.7611 30.0433 77.7881 30.8906 78.9884 30.8906Z" fill="#F4F6F8"/>
<path d="M85.5225 25.6272H84.5083V23.7787H85.5225V23.3293C85.5225 21.147 86.7549 20.12 89.2582 20.2034V22.097C88.167 22.0649 87.8011 22.4179 87.8011 23.4128V23.7787H89.3545V25.6272H87.8011V32.6878H85.5225V25.6272Z" fill="#F4F6F8"/>
<path d="M91.1705 25.6273H90.1114V23.7787H91.1705V21.5835H93.4299V23.7787H95.4197V25.6273H93.4299V29.9278C93.4299 30.5183 93.6674 30.7751 94.3734 30.7751H95.4197V32.6686H94.0076C92.3066 32.6686 91.1705 31.9497 91.1705 29.9086V25.6273Z" fill="#F4F6F8"/>
<path d="M96.0493 23.7788H98.3278L99.8936 30.5505L101.595 23.7788H103.97L105.639 30.5377L107.211 23.7788H109.361L106.762 32.6687H104.342L102.718 26.4618L101.1 32.6687H98.6613L96.0493 23.7788Z" fill="#F4F6F8"/>
<path d="M114.066 23.6372C114.633 23.6183 115.195 23.7368 115.706 23.9827C116.217 24.2286 116.661 24.5946 116.999 25.0493V23.7656H119.265V32.6555H116.999V31.3717C116.663 31.8355 116.218 32.2097 115.703 32.4615C115.188 32.7133 114.619 32.835 114.047 32.816C111.8 32.816 110.009 30.9674 110.009 28.1945C110.009 25.4216 111.8 23.6372 114.066 23.6372ZM114.644 25.6077C114.317 25.6101 113.995 25.6799 113.697 25.8128C113.399 25.9456 113.131 26.1386 112.911 26.3797C112.691 26.6208 112.524 26.9047 112.418 27.2137C112.313 27.5227 112.273 27.85 112.301 28.1752C112.301 29.8569 113.437 30.8198 114.644 30.8198C114.974 30.8158 115.3 30.7435 115.601 30.6075C115.902 30.4714 116.172 30.2744 116.393 30.029C116.614 29.7837 116.783 29.4951 116.887 29.1816C116.991 28.8681 117.029 28.5364 116.999 28.2073C116.999 26.5192 115.876 25.5885 114.644 25.5885" fill="#F4F6F8"/>
<path d="M123.707 32.6684H121.467V23.7785H123.707V25.1585C123.988 24.6886 124.389 24.3015 124.868 24.0366C125.347 23.7716 125.888 23.6383 126.435 23.6501V26.0186H125.845C124.51 26.0186 123.707 26.5321 123.707 28.2459V32.6684Z" fill="#F4F6F8"/>
<path d="M131.827 32.8163C129.26 32.8163 127.372 31.0191 127.372 28.2269C127.372 25.4348 129.195 23.6375 131.827 23.6375C132.412 23.6069 132.997 23.6998 133.543 23.9101C134.09 24.1204 134.586 24.4434 135 24.8582C135.413 25.2729 135.735 25.7701 135.944 26.3173C136.152 26.8645 136.243 27.4496 136.211 28.0344C136.212 28.3244 136.191 28.6141 136.147 28.9009H129.625C129.63 29.1765 129.688 29.4485 129.798 29.7013C129.908 29.9541 130.067 30.1826 130.266 30.3736C130.465 30.5646 130.699 30.7143 130.956 30.814C131.213 30.9138 131.487 30.9617 131.763 30.9549C132.134 30.9778 132.503 30.8868 132.821 30.6941C133.139 30.5013 133.39 30.2161 133.541 29.8765H135.967C135.702 30.7606 135.148 31.5303 134.394 32.0631C133.64 32.5959 132.73 32.861 131.808 32.8163H131.827ZM129.645 27.3925H133.862C133.856 27.1249 133.795 26.8614 133.684 26.6179C133.573 26.3744 133.413 26.156 133.215 25.9759C133.017 25.7959 132.785 25.6579 132.532 25.5704C132.279 25.4829 132.011 25.4477 131.744 25.4669C131.214 25.4574 130.7 25.652 130.309 26.0104C129.919 26.3688 129.681 26.8636 129.645 27.3925Z" fill="#F4F6F8"/>
<path d="M65.2715 42.0142H72.1841V43.8242H67.518V46.6934H71.0928V48.4778H67.518V53.2084H65.2715V42.0142Z" fill="#F4F6F8"/>
<path d="M77.7241 53.3563C76.8184 53.3474 75.9355 53.0707 75.1867 52.5611C74.438 52.0514 73.8567 51.3316 73.5162 50.4923C73.1758 49.6529 73.0913 48.7316 73.2734 47.8443C73.4556 46.9571 73.8961 46.1435 74.5397 45.5062C75.1833 44.8688 76.0011 44.4362 76.8901 44.2627C77.7791 44.0892 78.6996 44.1827 79.5356 44.5313C80.3716 44.88 81.0856 45.4682 81.588 46.2219C82.0903 46.9756 82.3584 47.8611 82.3584 48.7669C82.3794 49.3791 82.2735 49.9889 82.0474 50.5582C81.8214 51.1275 81.48 51.6439 81.0448 52.0749C80.6095 52.5059 80.0899 52.8422 79.5184 53.0627C78.947 53.2832 78.3361 53.3832 77.7241 53.3563ZM77.7241 51.4307C78.9116 51.4307 80.0477 50.5641 80.0477 48.799C80.0477 47.0338 78.9372 46.1673 77.7562 46.1673C76.5751 46.1673 75.4904 47.0146 75.4904 48.799C75.4904 50.5834 76.5174 51.4307 77.7241 51.4307Z" fill="#F4F6F8"/>
<path d="M92.3965 53.2083H90.1307V52.085C89.8168 52.4832 89.4144 52.8026 88.9552 53.0177C88.4961 53.2328 87.993 53.3376 87.4862 53.3238C85.4193 53.3238 83.9238 51.9759 83.9238 49.5368V44.3184H86.1704V49.2158C86.1704 50.6408 86.9598 51.411 88.1409 51.411C89.3219 51.411 90.1307 50.6408 90.1307 49.2158V44.3184H92.3965V53.2083Z" fill="#F4F6F8"/>
<path d="M100.844 48.298C100.844 46.873 100.054 46.1028 98.8732 46.1028C97.6922 46.1028 96.8642 46.873 96.8642 48.298V53.2083H94.6176V44.3184H96.8642V45.4288C97.1856 45.0299 97.5952 44.711 98.0608 44.4971C98.5263 44.2833 99.0352 44.1804 99.5472 44.1965C101.614 44.1965 103.09 45.538 103.09 47.9963V53.2083H100.844V48.298Z" fill="#F4F6F8"/>
<path d="M108.726 44.1774C109.283 44.1706 109.834 44.2914 110.337 44.5306C110.84 44.7698 111.281 45.1211 111.627 45.5574V41.3403H113.906V53.2085H111.653V51.8927C111.332 52.366 110.895 52.7491 110.384 53.0053C109.872 53.2615 109.304 53.3823 108.732 53.3562C106.473 53.3562 104.676 51.5076 104.676 48.7347C104.676 45.9618 106.473 44.1774 108.752 44.1774H108.726ZM109.31 46.1479C108.984 46.1513 108.662 46.2217 108.365 46.3549C108.067 46.488 107.8 46.6811 107.58 46.9219C107.36 47.1628 107.192 47.4463 107.087 47.7549C106.982 48.0635 106.941 48.3904 106.967 48.7154C106.938 49.0448 106.977 49.3766 107.08 49.6906C107.184 50.0047 107.35 50.2943 107.57 50.5418C107.789 50.7893 108.056 50.9894 108.356 51.1301C108.655 51.2708 108.98 51.349 109.31 51.3599C110.549 51.3599 111.666 50.4292 111.666 48.7475C111.666 47.0658 110.549 46.1287 109.31 46.1287" fill="#F4F6F8"/>
<path d="M119.586 44.1773C120.153 44.1583 120.716 44.2769 121.227 44.5228C121.738 44.7687 122.181 45.1346 122.52 45.5894V44.3056H124.786V53.1955H122.52V51.9118C122.183 52.3756 121.738 52.7497 121.223 53.0015C120.709 53.2533 120.14 53.375 119.567 53.356C117.327 53.356 115.53 51.5074 115.53 48.7345C115.53 45.9617 117.327 44.1773 119.586 44.1773ZM120.164 46.1478C119.838 46.1502 119.515 46.22 119.217 46.3528C118.919 46.4857 118.652 46.6787 118.432 46.9197C118.212 47.1608 118.044 47.4448 117.939 47.7537C117.834 48.0627 117.794 48.3901 117.821 48.7153C117.821 50.397 118.957 51.3598 120.164 51.3598C120.495 51.3559 120.821 51.2836 121.122 51.1475C121.423 51.0114 121.692 50.8145 121.914 50.5691C122.135 50.3237 122.303 50.0352 122.407 49.7216C122.512 49.4081 122.55 49.0764 122.52 48.7474C122.52 47.0593 121.397 46.1285 120.164 46.1285" fill="#F4F6F8"/>
<path d="M127.34 46.1673H126.281V44.3187H127.34V42.1235H129.625V44.3187H131.615V46.1673H129.625V50.4679C129.625 51.0584 129.863 51.3151 130.569 51.3151H131.615V53.2086H130.203C128.502 53.2086 127.366 52.4897 127.366 50.4486L127.34 46.1673Z" fill="#F4F6F8"/>
<path d="M132.97 41.9499C132.95 41.6737 133.015 41.398 133.154 41.1588C133.293 40.9196 133.502 40.7278 133.751 40.6084C134.001 40.4891 134.281 40.4476 134.555 40.4895C134.829 40.5314 135.084 40.6546 135.286 40.8432C135.489 41.0318 135.63 41.2771 135.692 41.547C135.753 41.817 135.732 42.0993 135.631 42.3571C135.53 42.6149 135.354 42.8364 135.125 42.9927C134.897 43.149 134.627 43.233 134.35 43.2337C134.174 43.2423 133.999 43.2157 133.834 43.1554C133.669 43.0952 133.518 43.0025 133.389 42.8828C133.26 42.7632 133.157 42.619 133.085 42.4588C133.013 42.2986 132.974 42.1255 132.97 41.9499ZM133.214 44.3184H135.46V53.2083H133.214V44.3184Z" fill="#F4F6F8"/>
<path d="M141.616 53.3562C140.71 53.3461 139.828 53.0683 139.08 52.5579C138.332 52.0475 137.752 51.3273 137.412 50.4878C137.073 49.6484 136.989 48.7273 137.172 47.8404C137.355 46.9536 137.796 46.1407 138.44 45.5039C139.084 44.8672 139.902 44.4352 140.79 44.2622C141.679 44.0893 142.599 44.1831 143.435 44.5319C144.271 44.8807 144.984 45.469 145.486 46.2225C145.988 46.9761 146.256 47.8613 146.256 48.7668C146.276 49.3793 146.17 49.9893 145.943 50.5586C145.716 51.1279 145.374 51.6442 144.938 52.0751C144.503 52.506 143.983 52.8422 143.411 53.0627C142.839 53.2831 142.228 53.3831 141.616 53.3562ZM141.616 51.4306C142.803 51.4306 143.946 50.5641 143.946 48.7989C143.946 47.0338 142.835 46.1673 141.648 46.1673C140.46 46.1673 139.388 47.0145 139.388 48.7989C139.388 50.5833 140.415 51.4306 141.616 51.4306Z" fill="#F4F6F8"/>
<path d="M154.132 48.298C154.132 46.873 153.349 46.1028 152.161 46.1028C150.974 46.1028 150.152 46.873 150.152 48.298V53.2083H147.912V44.3184H150.165V45.4288C150.487 45.0299 150.896 44.711 151.362 44.4971C151.827 44.2833 152.336 44.1804 152.848 44.1965C154.915 44.1965 156.391 45.538 156.391 47.9963V53.2083H154.145L154.132 48.298Z" fill="#F4F6F8"/>
</svg>
