<svg width="780" height="709" viewBox="0 0 780 709" fill="none" xmlns="http://www.w3.org/2000/svg">
<path d="M287.72 254.61L257.15 232.5" stroke="white" stroke-width="4.43" stroke-miterlimit="10" stroke-linecap="round"/>
<path d="M306.18 240.17L281.34 214.12" stroke="white" stroke-width="4.43" stroke-miterlimit="10" stroke-linecap="round"/>
<path d="M279.79 276.66L247.27 261.23" stroke="white" stroke-width="4.43" stroke-miterlimit="10" stroke-linecap="round"/>
<path d="M581 194C634.019 194 677 151.019 677 98C677 44.9807 634.019 2 581 2C527.981 2 485 44.9807 485 98C485 151.019 527.981 194 581 194Z" stroke="white" stroke-width="3.22" stroke-linecap="round" stroke-linejoin="round"/>
<path d="M595.5 136V121.93C611.55 116.03 623 100.6 623 82.5C623 59.3 604.2 40.5 581 40.5C557.8 40.5 539 59.3 539 82.5C539 100.6 550.45 116.02 566.5 121.93V136" stroke="white" stroke-width="4" stroke-linecap="round" stroke-linejoin="round"/>
<path d="M595.5 137.5H566.5C564.015 137.5 562 139.515 562 142C562 144.485 564.015 146.5 566.5 146.5H595.5C597.985 146.5 600 144.485 600 142C600 139.515 597.985 137.5 595.5 137.5Z" stroke="#A9C753" stroke-width="4" stroke-linecap="round" stroke-linejoin="round"/>
<path d="M591 146.5H571C568.515 146.5 566.5 148.515 566.5 151C566.5 153.485 568.515 155.5 571 155.5H591C593.485 155.5 595.5 153.485 595.5 151C595.5 148.515 593.485 146.5 591 146.5Z" stroke="#A9C753" stroke-width="3.49" stroke-linecap="round" stroke-linejoin="round"/>
<path d="M581 86.64V136.5" stroke="#A9C753" stroke-width="4" stroke-linecap="round" stroke-linejoin="round"/>
<path d="M581 94.54C585.153 94.54 588.52 91.1732 588.52 87.02C588.52 82.8668 585.153 79.5 581 79.5C576.847 79.5 573.48 82.8668 573.48 87.02C573.48 91.1732 576.847 94.54 581 94.54Z" fill="#A9C753"/>
<path d="M669.68 202.79C689.01 202.79 704.68 187.12 704.68 167.79C704.68 148.46 689.01 132.79 669.68 132.79C650.35 132.79 634.68 148.46 634.68 167.79C634.68 187.12 650.35 202.79 669.68 202.79Z" fill="white"/>
<path d="M668.692 175.383V173.361C668.692 171.776 668.979 170.31 669.552 168.962C670.159 167.614 671.17 166.147 672.585 164.563C673.664 163.383 674.406 162.372 674.81 161.529C675.248 160.687 675.467 159.794 675.467 158.85C675.467 157.737 675.063 156.861 674.254 156.221C673.445 155.58 672.299 155.26 670.816 155.26C667.513 155.26 664.462 156.473 661.665 158.9L659.541 154.047C660.957 152.766 662.709 151.738 664.799 150.962C666.923 150.187 669.063 149.8 671.22 149.8C673.344 149.8 675.198 150.153 676.782 150.861C678.4 151.569 679.647 152.547 680.523 153.794C681.433 155.041 681.889 156.507 681.889 158.193C681.889 159.743 681.535 161.192 680.827 162.541C680.153 163.889 678.939 165.355 677.186 166.939C675.602 168.389 674.507 169.653 673.9 170.731C673.293 171.81 672.906 172.889 672.737 173.967L672.535 175.383H668.692ZM667.074 185.95V178.922H674.153V185.95H667.074Z" fill="#3C3C3C"/>
<path d="M98.0001 278C151.019 278 194 235.019 194 182C194 128.981 151.019 86 98.0001 86C44.9807 86 2 128.981 2 182C2 235.019 44.9807 278 98.0001 278Z" stroke="white" stroke-width="3.22" stroke-linecap="round" stroke-linejoin="round"/>
<path d="M98.1101 157.24V186.09" stroke="white" stroke-width="4" stroke-linecap="round" stroke-linejoin="round"/>
<path d="M98.1101 165.13C102.263 165.13 105.63 161.763 105.63 157.61C105.63 153.457 102.263 150.09 98.1101 150.09C93.9569 150.09 90.5901 153.457 90.5901 157.61C90.5901 161.763 93.9569 165.13 98.1101 165.13Z" fill="white"/>
<path d="M75.7898 194.56L98.1099 186.09" stroke="white" stroke-width="4" stroke-linecap="round" stroke-linejoin="round"/>
<path d="M78.8099 201.46C74.9299 202.93 70.5899 200.98 69.1099 197.1C67.6399 193.22 69.5899 188.87 73.4699 187.4C77.3499 185.93 81.6899 187.88 83.1699 191.76C84.6399 195.64 82.6899 199.98 78.8099 201.46Z" fill="white"/>
<path d="M120.43 194.56L98.1101 186.09" stroke="white" stroke-width="4" stroke-linecap="round" stroke-linejoin="round"/>
<path d="M122.75 187.4C126.63 188.87 128.59 193.22 127.11 197.1C125.64 200.98 121.29 202.94 117.41 201.46C113.53 199.98 111.57 195.65 113.05 191.76C114.52 187.88 118.87 185.92 122.75 187.4Z" fill="white"/>
<path d="M98 235.01L50.4399 211.83V152.16L98 175.34V235.01Z" stroke="#A9C753" stroke-width="4" stroke-linecap="round" stroke-linejoin="round"/>
<path d="M98 235.01L145.57 211.83V152.16L98 175.34V235.01Z" stroke="#A9C753" stroke-width="4" stroke-linecap="round" stroke-linejoin="round"/>
<path d="M50.4399 152.16L98 128.98L145.57 152.16L98 175.34L50.4399 152.16Z" stroke="#A9C753" stroke-width="4" stroke-linecap="round" stroke-linejoin="round"/>
<path d="M188.04 286.79C207.37 286.79 223.04 271.12 223.04 251.79C223.04 232.46 207.37 216.79 188.04 216.79C168.71 216.79 153.04 232.46 153.04 251.79C153.04 271.12 168.71 286.79 188.04 286.79Z" fill="white"/>
<path d="M174.04 249.74L186.6 264.84L202.04 238.74" stroke="#002438" stroke-width="8" stroke-linejoin="round"/>
<path d="M100 700C153.019 700 196 657.019 196 604C196 550.981 153.019 508 100 508C46.9807 508 4 550.981 4 604C4 657.019 46.9807 700 100 700Z" stroke="white" stroke-width="3.22" stroke-linecap="round" stroke-linejoin="round"/>
<path d="M49 572.5H151" stroke="#A9C753" stroke-width="4" stroke-linecap="round" stroke-linejoin="round"/>
<path d="M49 593.5H151" stroke="#A9C753" stroke-width="4" stroke-linecap="round" stroke-linejoin="round"/>
<path d="M49 614.5H151" stroke="#A9C753" stroke-width="4" stroke-linecap="round" stroke-linejoin="round"/>
<path d="M49 635.5H151" stroke="#A9C753" stroke-width="4" stroke-linecap="round" stroke-linejoin="round"/>
<path d="M187.81 708.76C207.14 708.76 222.81 693.09 222.81 673.76C222.81 654.43 207.14 638.76 187.81 638.76C168.48 638.76 152.81 654.43 152.81 673.76C152.81 693.09 168.48 708.76 187.81 708.76Z" fill="white"/>
<path d="M197.39 658.628L172.641 683.377L178.298 689.034L203.047 664.285L197.39 658.628Z" fill="#3C3C3C"/>
<path d="M178.258 658.548L172.601 664.205L197.35 688.954L203.007 683.297L178.258 658.548Z" fill="#3C3C3C"/>
<path d="M654 621C707.019 621 750 578.019 750 525C750 471.981 707.019 429 654 429C600.981 429 558 471.981 558 525C558 578.019 600.981 621 654 621Z" stroke="white" stroke-width="3.22" stroke-linecap="round" stroke-linejoin="round"/>
<path d="M643.41 548.14C661.486 548.14 676.14 533.486 676.14 515.41C676.14 497.334 661.486 482.68 643.41 482.68C625.334 482.68 610.68 497.334 610.68 515.41C610.68 533.486 625.334 548.14 643.41 548.14Z" stroke="white" stroke-width="4" stroke-linecap="round" stroke-linejoin="round"/>
<path d="M643.41 563.39C669.909 563.39 691.39 541.909 691.39 515.41C691.39 488.911 669.909 467.43 643.41 467.43C616.911 467.43 595.43 488.911 595.43 515.41C595.43 541.909 616.911 563.39 643.41 563.39Z" stroke="#A9C753" stroke-width="4" stroke-linecap="round" stroke-linejoin="round"/>
<path d="M684.31 541.73L705.55 562.97C709.58 567 709.58 573.53 705.55 577.55C701.52 581.58 694.99 581.58 690.97 577.55L669.73 556.31" stroke="#A9C753" stroke-width="4" stroke-linecap="round" stroke-linejoin="round"/>
<path d="M744.18 629.76C763.51 629.76 779.18 614.09 779.18 594.76C779.18 575.43 763.51 559.76 744.18 559.76C724.85 559.76 709.18 575.43 709.18 594.76C709.18 614.09 724.85 629.76 744.18 629.76Z" fill="white"/>
<path d="M730.18 592.71L742.74 607.81L758.18 581.71" stroke="#002438" stroke-width="8" stroke-linejoin="round"/>
<path d="M337.88 367.86C324.59 359.11 312.72 347.54 306.09 333.07C297.59 314.53 298.96 289.13 315.28 275.04C318.84 271.97 323.03 269.68 327.43 268.02C331.41 266.52 335.67 265.5 339.9 265.92C345.93 266.51 358.06 272.5 359.27 279.23C360.22 284.54 355.14 292.65 349.51 287.82C340.35 279.97 343.29 264.88 349.51 256.1C356.04 246.87 367 240.09 377.85 237.2C394.61 232.73 417.69 236.51 428.14 251.66C433.93 260.05 437.69 268.8 437.08 279.26C436.6 287.54 426.86 292.58 422.29 283.47C417.92 274.75 432.07 268.86 438.22 267.98C467.63 263.76 484.34 298.6 482.45 323.05C481.03 341.4 469.02 358.36 455 369.69" stroke="white" stroke-width="4.43" stroke-miterlimit="10" stroke-linecap="round"/>
<path d="M280.76 590.03H512.67V544.98C512.67 480.94 460.76 429.03 396.72 429.03C365.31 429.03 336.82 441.52 315.94 461.79C294.24 482.86 280.76 512.35 280.76 544.98V590.03Z" fill="#A9C753"/>
<path d="M396.71 415.59C362.844 415.59 335.39 388.136 335.39 354.27C335.39 320.404 362.844 292.95 396.71 292.95C430.576 292.95 458.03 320.404 458.03 354.27C458.03 388.136 430.576 415.59 396.71 415.59Z" fill="#828282"/>
<path d="M322.748 360.721C320.527 351.031 324.181 341.925 330.911 340.383C337.64 338.841 344.895 345.445 347.116 355.135C349.337 364.825 345.683 373.931 338.954 375.473C332.225 377.015 324.969 370.411 322.748 360.721Z" fill="#828282"/>
</svg>
