<svg width="420" height="560" viewBox="0 0 420 560" fill="none" xmlns="http://www.w3.org/2000/svg">
<path d="M219.9 503.6C219.9 513.5 211.8 521.6 201.9 521.6C192 521.6 183.9 513.6 183.9 503.6C183.9 493.7 201.9 471.7 201.9 471.7C201.9 471.7 219.9 493.6 219.9 503.6Z" fill="white"/>
<path d="M236.5 503.6C236.5 513.5 228.4 521.6 218.5 521.6C208.6 521.6 200.5 513.6 200.5 503.6C200.5 493.7 218.5 471.7 218.5 471.7C218.5 471.7 236.5 493.6 236.5 503.6Z" stroke="#A5C352" stroke-width="2.2192" stroke-miterlimit="10" stroke-linecap="round" stroke-linejoin="round"/>
<path d="M188.5 498.7C191.7 491.6 196.1 485.2 200.4 478.8C198.5 482.1 196.6 485.5 194.9 488.9C193.2 492.3 191.5 495.8 190.3 499.3C189.9 500.6 188.1 499.9 188.5 498.7Z" fill="#006D68"/>
<path d="M193.8 515.2C193.6 515.2 193.5 515.2 193.3 515.1C189.4 512.6 187.1 508.2 187.5 503.5C187.5 503 188 502.6 188.5 502.6C189 502.6 189.4 503.1 189.4 503.6C189.1 507.6 191 511.3 194.4 513.5C194.8 513.8 195 514.4 194.7 514.8C194.4 515 194.1 515.2 193.8 515.2Z" fill="#006D68"/>
<path d="M210.1 547C237.935 547 260.5 524.435 260.5 496.6C260.5 468.765 237.935 446.2 210.1 446.2C182.265 446.2 159.7 468.765 159.7 496.6C159.7 524.435 182.265 547 210.1 547Z" stroke="white" stroke-width="1.6916" stroke-miterlimit="10" stroke-linecap="round" stroke-linejoin="round"/>
<path d="M210.1 434.1V352.8" stroke="#A9C753" stroke-width="2.1217" stroke-linecap="round" stroke-linejoin="round"/>
<path d="M217.5 431.9L210.1 444.8L202.7 431.9H217.5Z" fill="#A9C753"/>
<path d="M66.0001 113.8C93.8353 113.8 116.4 91.2352 116.4 63.4C116.4 35.5648 93.8353 13 66.0001 13C38.1649 13 15.6001 35.5648 15.6001 63.4C15.6001 91.2352 38.1649 113.8 66.0001 113.8Z" stroke="white" stroke-width="1.6916" stroke-miterlimit="10" stroke-linecap="round" stroke-linejoin="round"/>
<path d="M94.9001 70.6997H37.1001V88.2997H94.9001V70.6997Z" stroke="#A5C352" stroke-width="2.2158" stroke-miterlimit="10" stroke-linecap="round" stroke-linejoin="round"/>
<path d="M76.8 79.3999H88.9" stroke="#A5C352" stroke-width="2.2158" stroke-miterlimit="10" stroke-linecap="round" stroke-linejoin="round"/>
<path d="M73.1001 46.9998V32.2998H58.9001V46.9998H51.9001L66.0001 64.2998L80.1001 46.9998H73.1001Z" fill="white"/>
<path d="M354 113.8C381.835 113.8 404.4 91.2352 404.4 63.4C404.4 35.5648 381.835 13 354 13C326.165 13 303.6 35.5648 303.6 63.4C303.6 91.2352 326.165 113.8 354 113.8Z" stroke="white" stroke-width="1.6916" stroke-miterlimit="10" stroke-linecap="round" stroke-linejoin="round"/>
<path d="M332.2 76.1002V50.7002C332.2 45.7002 336.3 41.7002 341.2 41.7002H366.6C369.1 41.7002 371.3 42.7002 373 44.3002C374.7 45.9002 375.7 48.2002 375.7 50.7002V76.1002C375.7 81.1002 371.6 85.1002 366.7 85.1002H348.2H341.3C336.3 85.2002 332.2 81.1002 332.2 76.1002Z" stroke="#A5C352" stroke-width="2.2158" stroke-miterlimit="10" stroke-linecap="round" stroke-linejoin="round"/>
<path d="M340.9 71.1002V55.7002C340.9 52.7002 343.3 50.2002 346.4 50.2002H361.7C363.2 50.2002 364.6 50.8002 365.5 51.8002C366.5 52.8002 367.1 54.2002 367.1 55.7002V71.0002C367.1 74.0002 364.7 76.5002 361.6 76.5002H350.4H346.2C343.3 76.5002 340.9 74.1002 340.9 71.1002Z" fill="white"/>
<path d="M343.2 40.2002V30.2002" stroke="#A5C352" stroke-width="2.2158" stroke-miterlimit="10" stroke-linecap="round" stroke-linejoin="round"/>
<path d="M364.8 40.2002V30.2002" stroke="#A5C352" stroke-width="2.2158" stroke-miterlimit="10" stroke-linecap="round" stroke-linejoin="round"/>
<path d="M353.9 40.2002V30.2002" stroke="#A5C352" stroke-width="2.2158" stroke-miterlimit="10" stroke-linecap="round" stroke-linejoin="round"/>
<path d="M343.2 96.6001V86.6001" stroke="#A5C352" stroke-width="2.2158" stroke-miterlimit="10" stroke-linecap="round" stroke-linejoin="round"/>
<path d="M364.8 96.6001V86.6001" stroke="#A5C352" stroke-width="2.2158" stroke-miterlimit="10" stroke-linecap="round" stroke-linejoin="round"/>
<path d="M353.9 96.6001V86.6001" stroke="#A5C352" stroke-width="2.2158" stroke-miterlimit="10" stroke-linecap="round" stroke-linejoin="round"/>
<path d="M330.8 74.2002H320.7" stroke="#A5C352" stroke-width="2.2158" stroke-miterlimit="10" stroke-linecap="round" stroke-linejoin="round"/>
<path d="M330.8 52.6001H320.7" stroke="#A5C352" stroke-width="2.2158" stroke-miterlimit="10" stroke-linecap="round" stroke-linejoin="round"/>
<path d="M330.8 63.5H320.7" stroke="#A5C352" stroke-width="2.2158" stroke-miterlimit="10" stroke-linecap="round" stroke-linejoin="round"/>
<path d="M387.2 74.2002H377.2" stroke="#A5C352" stroke-width="2.2158" stroke-miterlimit="10" stroke-linecap="round" stroke-linejoin="round"/>
<path d="M387.2 52.6001H377.2" stroke="#A5C352" stroke-width="2.2158" stroke-miterlimit="10" stroke-linecap="round" stroke-linejoin="round"/>
<path d="M387.2 63.5H377.2" stroke="#A5C352" stroke-width="2.2158" stroke-miterlimit="10" stroke-linecap="round" stroke-linejoin="round"/>
<path d="M353.3 125.4V144C353.3 159 341.1 171.2 326.1 171.2H295.3C280.2 171.2 268 183.4 268.1 198.5L268.2 206.3" stroke="#A9C753" stroke-width="2.1217" stroke-linecap="round" stroke-linejoin="round"/>
<path d="M345.9 127.5L353.3 114.7L360.7 127.5H345.9Z" fill="#A9C753"/>
<path d="M208.5 125.4V206.6" stroke="#A9C753" stroke-width="2.1217" stroke-linecap="round" stroke-linejoin="round"/>
<path d="M201.1 127.5L208.5 114.7L215.9 127.5H201.1Z" fill="#A9C753"/>
<path d="M354.1 434.1V415.5C354.1 400.5 341.9 388.3 326.9 388.3H296C281 388.3 268.8 376.1 268.8 361.1V352.7" stroke="#A9C753" stroke-width="2.1217" stroke-linecap="round" stroke-linejoin="round"/>
<path d="M361.5 431.9L354.1 444.8L346.7 431.9H361.5Z" fill="#A9C753"/>
<path d="M354 480.7L344.8 475.4L326.4 486V507.2L344.8 517.8L354 512.5" stroke="#A5C352" stroke-width="2.2158" stroke-miterlimit="10" stroke-linecap="round" stroke-linejoin="round"/>
<path d="M381.5 507.2V486L363.2 475.4L344.8 486V507.2L363.2 517.8L381.5 507.2Z" stroke="white" stroke-width="1.6012" stroke-miterlimit="10" stroke-linecap="round" stroke-linejoin="round"/>
<path d="M374.5 503.1V490.1L363.2 483.5L351.9 490.1V503.1L363.2 509.6L374.5 503.1Z" fill="white" stroke="white" stroke-width="0.4879" stroke-miterlimit="10" stroke-linecap="round" stroke-linejoin="round"/>
<path d="M354 547C381.835 547 404.4 524.435 404.4 496.6C404.4 468.765 381.835 446.2 354 446.2C326.165 446.2 303.6 468.765 303.6 496.6C303.6 524.435 326.165 547 354 547Z" stroke="white" stroke-width="1.6916" stroke-miterlimit="10" stroke-linecap="round" stroke-linejoin="round"/>
<path d="M66.6001 125.4V144C66.6001 159 78.8001 171.2 93.8001 171.2H124.6C139.6 171.2 151.8 183.4 151.8 198.4V206.8" stroke="#A9C753" stroke-width="2.1217" stroke-linecap="round" stroke-linejoin="round"/>
<path d="M59.2002 127.5L66.6002 114.7L74.0002 127.5H59.2002Z" fill="#A9C753"/>
<path d="M66.6001 434.1V415.5C66.6001 400.5 78.8001 388.3 93.8001 388.3H124.6C139.7 388.3 151.9 376.1 151.8 361L151.7 353.2" stroke="#A9C753" stroke-width="2.1217" stroke-linecap="round" stroke-linejoin="round"/>
<path d="M74.0002 431.9L66.6002 444.8L59.2002 431.9H74.0002Z" fill="#A9C753"/>
<path d="M65.1001 492C62.7001 492.6 49.1001 493.7 49.1001 493.7L57.7001 470.3H46.7001C46.7001 470.3 38.4001 499.8 37.9001 503.1L53.6001 501.1C49.9001 510.9 45.0001 527.9 45.0001 527.9C46.2001 525.5 64.6001 493 65.1001 492Z" fill="#ACCA53"/>
<path d="M94.1001 492.3C91.7001 492.9 78.1001 494 78.1001 494L86.7001 470.6H75.7001C75.7001 470.6 67.4001 500.1 66.9001 503.4L82.6001 501.4C78.9001 511.2 74.0001 528.2 74.0001 528.2C75.3001 525.7 93.6001 493.2 94.1001 492.3Z" fill="white"/>
<path d="M66.0001 547C93.8353 547 116.4 524.435 116.4 496.6C116.4 468.765 93.8353 446.2 66.0001 446.2C38.1649 446.2 15.6001 468.765 15.6001 496.6C15.6001 524.435 38.1649 547 66.0001 547Z" stroke="white" stroke-width="1.6916" stroke-miterlimit="10" stroke-linecap="round" stroke-linejoin="round"/>
<path d="M285.3 352.4H134.9V224.4L285.3 224.1V352.4Z" fill="#11283C"/>
<path d="M230.8 288.2C230.8 288.2 221.5 303 210 303C198.5 303 189.2 288.2 189.2 288.2C189.2 288.2 198.5 273.4 210 273.4C221.5 273.4 230.8 288.2 230.8 288.2Z" fill="white"/>
<path d="M210.1 293.3C213.413 293.3 216.1 290.614 216.1 287.3C216.1 283.986 213.413 281.3 210.1 281.3C206.786 281.3 204.1 283.986 204.1 287.3C204.1 290.614 206.786 293.3 210.1 293.3Z" fill="#ACCA53"/>
<path d="M285.3 207.1H134.9V224.5H285.3V207.1Z" fill="#A8C653"/>
<path d="M277.576 211.008L269.798 218.786L271.637 220.624L279.415 212.846L277.576 211.008Z" fill="#003834"/>
<path d="M271.613 211.036L269.775 212.874L277.553 220.652L279.391 218.814L271.613 211.036Z" fill="#003834"/>
<path d="M258.7 212.5V219.5H250.9V212.5H258.7ZM259.9 211.3H249.7V220.7H259.9V211.3Z" fill="#003834"/>
<path d="M239.8 218.6H229.6V220.7H239.8V218.6Z" fill="#003834"/>
<path d="M208.3 113.8C236.135 113.8 258.7 91.2352 258.7 63.4C258.7 35.5648 236.135 13 208.3 13C180.465 13 157.9 35.5648 157.9 63.4C157.9 91.2352 180.465 113.8 208.3 113.8Z" stroke="white" stroke-width="1.6916" stroke-miterlimit="10" stroke-linecap="round" stroke-linejoin="round"/>
<path d="M237.9 86.8002L229 77.8002L234.6 72.2002L201.8 58.2002L215.7 91.1002L221.4 85.4002L230.3 94.4002L237.9 86.8002Z" stroke="#A5C352" stroke-width="2.2158" stroke-miterlimit="10" stroke-linecap="round" stroke-linejoin="round"/>
<path d="M200 32.5V45.6" stroke="white" stroke-width="2.6256" stroke-miterlimit="10" stroke-linecap="round" stroke-linejoin="round"/>
<path d="M221.5 53.7998H208.4" stroke="white" stroke-width="2.6256" stroke-miterlimit="10" stroke-linecap="round" stroke-linejoin="round"/>
<path d="M191.8 54H178.7" stroke="white" stroke-width="2.6256" stroke-miterlimit="10" stroke-linecap="round" stroke-linejoin="round"/>
<path d="M215.199 38.7002L205.899 47.9002" stroke="white" stroke-width="2.6256" stroke-miterlimit="10" stroke-linecap="round" stroke-linejoin="round"/>
<path d="M194.3 59.8003L185 69.1003" stroke="white" stroke-width="2.6256" stroke-miterlimit="10" stroke-linecap="round" stroke-linejoin="round"/>
<path d="M194.1 48.0998L184.9 38.7998" stroke="white" stroke-width="2.6256" stroke-miterlimit="10" stroke-linecap="round" stroke-linejoin="round"/>
</svg>
