<svg width="316" height="583" viewBox="0 0 316 583" fill="none" xmlns="http://www.w3.org/2000/svg">
<path opacity="0.6" d="M199.538 -160.849C113.994 -118.296 58.7992 -39.894 46.1058 53.154C36.0889 126.549 58.227 199.697 97.3335 262.642C127.175 310.739 154.261 331.601 185.099 340.349C206.195 346.361 229.45 351.88 246.634 365.89C269.16 384.259 269.206 417.238 276.102 443.007C280.735 460.438 286.758 477.844 297.274 492.632C314.158 516.54 342.223 531.891 371.743 535.588C401.264 539.285 489.509 531.959 541.211 482.836M171.798 -182.016C78.0632 -135.417 17.7004 -49.5407 3.77493 52.45C-7.19491 132.745 17.0097 212.947 59.8393 281.82C92.5722 334.478 122.243 357.28 155.932 366.868C179.057 373.52 204.51 379.574 223.365 394.792C248.097 414.862 248.093 451.032 255.638 479.215C260.728 498.358 267.377 517.372 278.863 533.561C297.32 559.672 328.07 576.55 360.354 580.556C392.638 584.562 489.35 576.533 545.963 522.784M276.497 -63.5768C168.733 -0.0170517 143.525 54.1759 138.518 105.211C133.268 158.734 152.181 211.957 189.375 250.782C208.845 271.244 232.85 287.426 259.174 298.568C293.924 313.364 311.446 315.23 314.604 358.138C315.803 374.732 315.014 391.716 319.484 407.724C327.145 435.135 349.689 456.419 373.851 470.164C396.929 483.281 457.389 503.976 528.908 453.567" stroke="#ACCA53" stroke-width="2" stroke-miterlimit="10" stroke-linecap="round" stroke-linejoin="round"/>
</svg>
