<svg width="914" height="514" viewBox="0 0 914 514" fill="none" xmlns="http://www.w3.org/2000/svg">
<path d="M370.056 157.604C369.549 156.7 368.941 155.796 368.333 154.993C367.117 153.386 366.813 151.277 367.624 149.369C368.435 147.461 368.941 145.251 368.941 143.042C368.941 139.226 367.624 135.711 365.395 132.899C363.976 131.192 363.773 128.781 364.787 126.773C365.8 124.865 366.307 122.756 366.307 120.446C366.307 112.814 357.085 97.4483 352.323 97.4483C349.587 97.4483 347.155 100.461 345.635 102.47C343.203 105.683 341.277 109.299 339.96 113.014C339.453 114.521 338.947 115.927 338.643 117.534C338.541 118.237 338.44 118.839 338.339 119.542C338.237 120.346 338.339 121.049 338.44 121.852" stroke="#0D4B76" stroke-width="1.2012" stroke-miterlimit="10" stroke-linecap="round" stroke-linejoin="round"/>
<path d="M370.056 157.604C371.576 160.416 372.488 163.529 372.488 166.944C372.589 177.99 358.909 190.343 352.525 190.343C350.6 190.343 348.472 189.74 346.344 188.636" stroke="#0D4B76" stroke-width="1.2012" stroke-miterlimit="10" stroke-linecap="round" stroke-linejoin="round"/>
<path d="M352.221 115.224V251.001" stroke="#0D4B76" stroke-width="1.2012" stroke-miterlimit="10" stroke-linecap="round" stroke-linejoin="round"/>
<path d="M345.837 171.362C347.357 174.174 348.269 177.288 348.269 180.702C348.371 191.749 334.691 204.101 328.307 204.101C319.693 204.101 307.736 192.151 307.736 180.903C307.736 176.283 309.256 172.065 311.891 168.651C313.107 167.044 313.411 164.935 312.701 163.027C311.891 161.119 311.384 158.909 311.384 156.7C311.384 152.884 312.701 149.369 314.931 146.557C316.349 144.85 316.552 142.439 315.539 140.431C314.525 138.523 314.019 136.414 314.019 134.104C314.019 126.472 322.531 111.106 328.003 111.106C332.867 111.106 341.987 126.472 341.987 134.104C341.987 136.414 341.48 138.523 340.467 140.431C339.453 142.439 339.656 144.749 341.075 146.557C343.304 149.369 344.621 152.884 344.621 156.7C344.621 158.909 344.216 161.119 343.304 163.027C342.493 164.935 342.797 167.044 344.013 168.651C344.723 169.555 345.331 170.459 345.837 171.362Z" stroke="#EFEFEF" stroke-width="1.2777" stroke-miterlimit="10" stroke-linecap="round" stroke-linejoin="round"/>
<path d="M328.003 129.083V263.654" stroke="#EFEFEF" stroke-width="1.2777" stroke-miterlimit="10" stroke-linecap="round" stroke-linejoin="round"/>
<path d="M457.811 230.212V57.6794C457.811 57.1773 457.405 56.7756 456.899 56.7756C456.392 56.7756 455.987 57.1773 455.987 57.6794V229.409C456.088 229.61 456.189 229.811 456.291 230.112H457.811V230.212Z" fill="#0C4B76"/>
<path d="M456.899 121.249H461.155C471.592 121.249 480.104 112.814 480.104 102.47V94.6364" stroke="#0D4B76" stroke-width="2" stroke-miterlimit="10" stroke-linecap="round" stroke-linejoin="round"/>
<path d="M476.456 114.42H481.725C488.819 114.42 498.749 114.822 500.371 101.968" stroke="#0D4B76" stroke-width="2" stroke-miterlimit="10" stroke-linecap="round" stroke-linejoin="round"/>
<path d="M437.544 94.9377H433.288C427.512 94.9377 419.811 94.7368 416.264 87.8074" stroke="#0D4B76" stroke-width="2" stroke-miterlimit="10" stroke-linecap="round" stroke-linejoin="round"/>
<path d="M506.451 84.895V96.3436C506.451 98.8543 504.728 101.064 502.195 101.465C499.053 101.968 496.317 99.5573 496.317 96.5445V95.9419C496.317 94.536 495.203 93.4313 493.784 93.4313C492.365 93.4313 491.251 94.536 491.251 95.9419V104.378C491.251 107.089 489.021 109.399 486.184 109.399C483.448 109.399 481.117 107.19 481.117 104.378V95.9419C481.117 94.536 480.003 93.4313 478.584 93.4313H472.707C467.437 93.4313 463.08 89.1129 463.08 83.8908C463.08 78.6686 467.437 74.3502 472.707 74.3502H474.936" stroke="#EFEFEF" stroke-miterlimit="10" stroke-linecap="round" stroke-linejoin="round"/>
<path d="M445.245 58.1815V65.7135C445.245 73.4464 450.008 80.175 456.797 82.9869" stroke="#0D4B76" stroke-width="2" stroke-miterlimit="10" stroke-linecap="round" stroke-linejoin="round"/>
<path d="M434.099 87.2048C435.72 95.8415 443.421 102.068 452.643 102.068H456.899" stroke="#0D4B76" stroke-width="2" stroke-miterlimit="10" stroke-linecap="round" stroke-linejoin="round"/>
<path d="M478.989 67.5212C478.077 66.6174 477.469 65.4122 477.469 64.1067V63.4037C477.469 60.7926 479.597 58.6837 482.232 58.6837H493.987C496.621 58.6837 498.749 60.7926 498.749 63.4037V64.1067C498.749 64.7093 498.648 65.2114 498.445 65.7135H504.931H508.477C513.544 65.7135 517.699 69.6302 518.104 74.5511C518.104 74.7519 518.104 74.8523 518.104 75.0532V75.2541V90.7198C518.104 92.6279 516.787 94.2347 514.861 94.536C512.632 94.8372 510.605 93.0296 510.605 90.9206V86.9035C510.605 85.6984 509.592 84.7946 508.376 84.7946H484.461C479.192 84.7946 474.835 80.4762 474.835 75.2541C474.936 72.1408 476.557 69.2284 478.989 67.5212Z" stroke="#A8C653" stroke-width="1.4826" stroke-miterlimit="10" stroke-linecap="round" stroke-linejoin="round"/>
<path d="M500.472 38.3975C501.703 38.3975 502.701 37.4083 502.701 36.1881C502.701 34.9679 501.703 33.9787 500.472 33.9787C499.241 33.9787 498.243 34.9679 498.243 36.1881C498.243 37.4083 499.241 38.3975 500.472 38.3975Z" stroke="#A6C453" stroke-width="1.8283" stroke-miterlimit="10"/>
<path d="M423.763 46.7329V50.75C423.763 54.3653 426.701 57.2777 430.349 57.2777H457.405C460.445 57.2777 463.08 55.1687 463.789 52.2564" stroke="#EFEFEF" stroke-miterlimit="10" stroke-linecap="round" stroke-linejoin="round"/>
<path d="M429.539 69.5297H432.072C436.936 69.5297 440.888 73.4464 440.888 78.2669C440.888 83.0873 436.936 87.004 432.072 87.004H425.789H415.352H415.251C414.339 87.004 413.528 87.5061 413.123 88.3095C412.413 89.5146 410.995 90.3181 409.475 90.1172C408.765 90.0168 408.157 89.7155 407.651 89.2134" stroke="#A8C653" stroke-width="1.4826" stroke-miterlimit="10"/>
<path d="M432.579 30.1625H437.139V29.1582C437.139 26.8484 439.064 24.9403 441.395 24.9403H464.195C466.525 24.9403 468.451 26.8484 468.451 29.1582V30.1625H471.592C476.76 30.1625 481.016 34.3804 481.016 39.5022V43.0171C481.016 48.1389 476.76 52.3568 471.592 52.3568H453.656H432.579C427.411 52.3568 423.155 48.1389 423.155 43.0171V39.5022C423.155 34.3804 427.411 30.1625 432.579 30.1625Z" stroke="#A8C653" stroke-width="1.4826" stroke-miterlimit="10" stroke-linecap="round" stroke-linejoin="round"/>
<path d="M420.419 63.705H408.461C403.192 63.705 398.835 68.0233 398.835 73.2455C398.835 73.346 398.835 73.4464 398.835 73.4464C398.835 73.5468 398.835 73.6472 398.835 73.6472V85.6984C398.835 88.2091 400.557 90.4185 403.091 90.8202C406.232 91.3223 408.968 88.9121 408.968 85.8993V85.3972C408.968 83.9912 410.083 82.8865 411.501 82.8865C412.92 82.8865 420.52 82.8865 420.52 82.8865C425.789 82.8865 430.147 78.5681 430.147 73.346C430.045 68.0233 425.688 63.705 420.419 63.705Z" stroke="#EFEFEF" stroke-miterlimit="10" stroke-linecap="round" stroke-linejoin="round"/>
<path d="M407.245 45.6282C409.764 45.6282 411.805 43.6049 411.805 41.109C411.805 38.6131 409.764 36.5898 407.245 36.5898C404.727 36.5898 402.685 38.6131 402.685 41.109C402.685 43.6049 404.727 45.6282 407.245 45.6282Z" stroke="#A6C453" stroke-width="3.6565" stroke-miterlimit="10"/>
<path d="M672.232 298.804C671.016 298.804 669.901 298.804 668.685 298.703C649.736 298 631.395 291.573 616.093 280.426C522.867 212.638 395.085 212.638 301.859 280.426C285.544 292.276 265.987 298.804 245.72 298.804H1" stroke="#8E8E8E" stroke-miterlimit="10" stroke-linecap="round" stroke-linejoin="round"/>
<path d="M136.685 88.1087C132.429 88.3095 128.984 90.1172 127.059 92.7283C125.133 95.3394 124.728 98.7539 125.741 102.068" stroke="#A8C653" stroke-width="7.6201" stroke-miterlimit="10" stroke-linecap="round" stroke-linejoin="round"/>
<path d="M133.949 109.399C133.949 109.299 133.848 108.596 133.747 108.495C136.888 108.194 134.557 103.976 133.645 102.369C130.605 97.85 124.323 98.7539 121.485 102.871C120.573 104.98 120.472 107.591 120.675 109.901C120.776 110.906 120.776 112.512 122.093 112.613C123.208 112.613 124.525 112.512 125.336 111.809C125.64 109.7 125.843 112.211 126.957 112.311C127.667 112.412 128.376 112.211 129.085 111.91C129.288 111.809 129.896 111.809 129.997 111.609C130.2 111.408 130.099 110.805 129.997 110.504C129.997 110.303 129.997 110.102 130.301 110.203C130.403 110.303 130.504 110.805 130.504 111.006C130.605 111.207 130.605 111.408 130.808 111.609C131.011 111.809 131.213 111.91 131.416 111.91C132.125 111.91 132.835 111.508 133.443 111.106C133.848 110.705 134.152 110.102 133.949 109.399Z" fill="#A9A9A9"/>
<path d="M133.949 109.399C133.949 109.299 133.848 108.596 133.747 108.495C136.888 108.194 134.557 103.976 133.645 102.369C130.605 97.85 124.323 98.7539 121.485 102.871C120.573 104.98 120.472 107.591 120.675 109.901C120.776 110.906 120.776 112.512 122.093 112.613C123.208 112.613 124.525 112.512 125.336 111.809C125.64 109.7 125.843 112.211 126.957 112.311C127.667 112.412 128.376 112.211 129.085 111.91C129.288 111.809 129.896 111.809 129.997 111.609C130.2 111.408 130.099 110.805 129.997 110.504C129.997 110.303 129.997 110.102 130.301 110.203C130.403 110.303 130.504 110.805 130.504 111.006C130.605 111.207 130.605 111.408 130.808 111.609C131.011 111.809 131.213 111.91 131.416 111.91C132.125 111.91 132.835 111.508 133.443 111.106C133.848 110.705 134.152 110.102 133.949 109.399Z" stroke="#11283C" stroke-width="0.4" stroke-miterlimit="10" stroke-linecap="round"/>
<path d="M126.248 134.606H118.445C115.608 134.606 113.277 132.296 113.277 129.484C113.277 126.672 115.608 124.363 118.445 124.363H126.248C129.187 124.363 131.619 121.952 131.619 119.04V109.6C131.619 106.788 133.949 104.478 136.787 104.478C139.624 104.478 141.955 106.788 141.955 109.6V119.04C141.853 127.576 134.861 134.606 126.248 134.606Z" fill="#0D4B76"/>
<path d="M118.344 124.463V138.222C118.344 139.226 117.533 140.029 116.52 140.029H114.595H110.845V124.564H118.344V124.463Z" fill="#11283C" stroke="white" stroke-width="0.5" stroke-miterlimit="10"/>
<path d="M148.541 117.132H133.443C132.227 117.132 131.315 116.128 131.315 115.023V108.294H150.669V115.023C150.669 116.128 149.656 117.132 148.541 117.132Z" fill="#0D4B76"/>
<path d="M161.715 136.715C158.877 136.715 156.547 134.405 156.547 131.593V123.861C156.547 120.948 154.115 118.538 151.176 118.538H141.651C138.813 118.538 136.483 116.228 136.483 113.416C136.483 110.604 138.813 108.294 141.651 108.294H151.176C159.789 108.294 166.883 115.224 166.883 123.861V131.593C166.883 134.405 164.552 136.715 161.715 136.715Z" fill="#0D4B76"/>
<path d="M156.243 131.593H170.125C171.139 131.593 171.949 132.397 171.949 133.401V135.309V139.025H156.344V131.593H156.243Z" fill="#11283C" stroke="white" stroke-width="0.5" stroke-miterlimit="10"/>
<path d="M156.243 138.925H171.949" stroke="#A8C653" stroke-width="1.8062" stroke-miterlimit="10" stroke-linecap="round" stroke-linejoin="round"/>
<path d="M110.947 124.463V139.929" stroke="#A8C653" stroke-width="1.8062" stroke-miterlimit="10" stroke-linecap="round" stroke-linejoin="round"/>
<path d="M150.973 108.194H131.315V88.1087C131.315 84.9954 133.848 82.4848 136.989 82.4848H145.299C147.629 82.4848 149.555 83.7903 150.467 85.7989C150.771 86.5018 150.973 87.3052 150.973 88.1087V108.194Z" fill="#11283C" stroke="#A9A9A9" stroke-width="0.4154" stroke-miterlimit="10"/>
<path d="M140.739 84.5937C144.589 84.7946 144.589 81.9826 144.488 79.0703L137.8 77.0617C137.901 79.5724 136.787 84.4933 140.739 84.5937Z" fill="#A9A9A9"/>
<path d="M131.72 69.9315C130.707 82.8865 155.128 87.004 154.925 69.9315C154.723 54.8675 132.835 56.7756 131.72 69.9315Z" fill="#A9A9A9"/>
<path d="M131.72 69.9315C130.707 82.8865 155.128 87.004 154.925 69.9315C154.723 54.8675 132.835 56.7756 131.72 69.9315Z" stroke="#11283C" stroke-width="0.4154" stroke-miterlimit="10" stroke-linecap="round"/>
<path d="M153.811 61.596C150.669 59.8888 149.96 57.9807 145.603 57.7798C141.144 57.7798 135.469 59.1858 133.341 63.6046C132.531 66.517 131.213 63.705 129.896 65.814C133.341 65.4123 128.477 71.0361 131.923 75.5553C134.861 78.8694 132.632 79.2711 134.152 79.7733C135.469 80.175 137.091 79.9741 138.408 79.3716C141.549 77.9656 143.677 73.6472 142.563 70.3332C141.955 69.0276 144.995 70.6344 145.4 70.8353C145.096 69.7306 146.717 67.5212 147.731 67.1195C150.771 66.6174 154.115 65.0105 155.027 61.7969C154.621 61.7969 154.216 61.6965 153.811 61.596Z" fill="#0D4B76"/>
<path d="M144.083 70.534C146.109 73.6472 142.664 75.9571 140.536 72.8438C138.509 69.7306 141.955 67.4208 144.083 70.534Z" fill="#A9A9A9"/>
<path d="M139.421 91.1215C141.043 94.9377 143.981 97.6492 147.123 98.553C150.264 99.4569 153.608 98.6535 156.445 96.5445" stroke="#A8C653" stroke-width="7.6201" stroke-miterlimit="10" stroke-linecap="round" stroke-linejoin="round"/>
<path d="M160.499 86.301C160.397 86.301 159.688 86.7027 159.789 86.8031C158.371 83.9912 155.229 87.6065 154.115 89.0125C150.872 93.4313 154.115 99.256 159.08 100.461C161.411 100.562 163.741 99.4569 165.768 98.5531C166.68 98.1513 168.2 97.5488 167.795 96.3437C167.389 95.3394 166.883 94.1343 165.869 93.6321C163.741 94.1343 166.072 93.0296 165.768 92.0253C165.565 91.3223 165.16 90.7198 164.653 90.1172C164.451 89.9164 164.248 89.4142 164.045 89.4142C163.741 89.3138 163.235 89.6151 163.032 89.7155C162.931 89.8159 162.627 89.8159 162.627 89.6151C162.627 89.5146 163.133 89.2134 163.235 89.1129C163.437 89.0125 163.539 88.8117 163.64 88.7112C163.741 88.5104 163.741 88.2091 163.64 88.0082C163.437 87.3053 162.728 86.8031 162.221 86.4014C161.715 85.8993 161.107 85.8993 160.499 86.301Z" fill="#A9A9A9"/>
<path d="M159.789 86.8033C158.269 84.2926 155.128 87.5063 154.013 88.8118C150.365 93.6323 155.331 99.8588 158.675 100.361C161.208 100.763 163.336 99.6579 165.565 98.7541C167.288 98.1515 168.605 96.9464 167.187 95.0383C166.68 94.4357 166.477 93.5319 165.667 93.4315C165.464 93.4315 165.261 93.6323 164.957 93.5319C164.755 93.331 165.261 93.1302 165.363 92.9293C165.869 92.3268 165.768 91.5233 165.261 90.9208C164.856 90.4187 164.653 89.7157 164.248 89.314C163.741 88.8118 163.235 89.4144 162.627 89.4144" stroke="#11283C" stroke-width="0.4154" stroke-miterlimit="10"/>
<path d="M162.627 89.6153C162.829 89.4144 163.64 88.8118 163.741 88.611C164.045 88.2093 163.64 87.6067 163.336 87.3054C163.133 87.0042 162.829 86.7029 162.627 86.4016C162.424 86.1003 162.12 85.799 161.715 85.8995C160.701 85.9999 159.587 86.9037 158.776 87.5063C157.763 88.2093 156.851 89.0127 156.141 89.9165" stroke="#11283C" stroke-width="0.4154" stroke-miterlimit="10" stroke-linecap="round"/>
<path d="M161.917 298.503L161.411 171.161H110.035L110.541 298.904L161.917 298.503Z" stroke="#8E8E8E" stroke-width="0.8309" stroke-miterlimit="10" stroke-linecap="round" stroke-linejoin="round"/>
<path d="M136.989 171.161C138.003 174.777 138.712 178.493 137.597 182.008C136.483 185.523 133.037 188.837 128.68 189.238C117.635 190.243 115 179.196 111.251 171.563" stroke="#8E8E8E" stroke-width="0.8309" stroke-miterlimit="10" stroke-linecap="round" stroke-linejoin="round"/>
<path d="M148.947 171.262C149.352 179.196 149.251 191.749 139.32 196.168C136.483 197.373 133.341 197.273 130.504 198.377C128.781 199.08 129.693 198.478 128.376 199.783C127.261 200.787 127.059 201.993 125.539 202.796C124.12 203.499 122.499 203.7 120.877 203.8C119.56 203.901 118.243 204.001 117.027 203.7C114.493 203.097 112.568 201.089 110.845 199.181" stroke="#8E8E8E" stroke-width="0.8309" stroke-miterlimit="10" stroke-linecap="round" stroke-linejoin="round"/>
<path d="M161.309 209.725C159.485 215.148 156.04 220.069 150.163 220.772C148.845 220.973 147.427 220.772 146.616 219.768C146.312 219.266 146.109 218.764 145.907 218.161C144.083 213.441 138.915 213.039 135.368 215.952C131.923 218.764 129.085 222.078 127.16 225.693C125.235 229.309 124.019 233.225 121.688 236.64C119.357 240.155 115.608 243.268 110.947 243.77" stroke="#8E8E8E" stroke-width="0.8309" stroke-miterlimit="10" stroke-linecap="round" stroke-linejoin="round"/>
<path d="M161.208 240.155C159.384 242.766 157.155 246.381 153.304 245.377C152.291 245.176 151.176 244.774 150.467 244.071C149.048 242.665 149.352 240.355 148.744 238.347C147.731 234.932 143.779 232.924 140.232 233.426C136.685 233.928 133.645 236.338 131.72 239.251C125.336 248.691 125.741 267.571 110.44 267.671" stroke="#8E8E8E" stroke-width="0.8309" stroke-miterlimit="10" stroke-linecap="round" stroke-linejoin="round"/>
<path d="M161.005 266.567C155.533 271.387 152.392 262.65 148.237 261.144C139.827 258.131 132.024 268.073 129.795 273.396C128.376 276.911 128.781 281.028 125.235 283.639C121.485 286.351 114.189 286.652 110.44 284.141" stroke="#8E8E8E" stroke-width="0.8309" stroke-miterlimit="10" stroke-linecap="round" stroke-linejoin="round"/>
<path d="M110.339 209.926C112.061 209.725 115.405 209.524 117.128 209.826C120.067 210.227 123.208 211.633 124.424 214.345C125.437 216.856 124.525 219.768 123.005 221.977C119.256 227.501 116.621 231.618 110.643 235.133" stroke="#8E8E8E" stroke-width="0.8309" stroke-miterlimit="10" stroke-linecap="round" stroke-linejoin="round"/>
<path d="M129.592 298.503C131.011 297.097 132.024 295.188 132.733 293.28C134.557 287.757 134.051 281.53 137.091 276.609C138.408 274.501 140.333 272.693 142.664 271.889C144.995 270.986 147.731 271.186 149.859 272.492C153.709 274.902 154.52 280.024 154.824 284.543C155.128 288.46 154.317 295.188 156.749 298.503" stroke="#8E8E8E" stroke-width="0.8309" stroke-miterlimit="10" stroke-linecap="round" stroke-linejoin="round"/>
<path d="M161.208 182.108C160.701 185.221 157.661 187.933 155.432 190.243C153.203 192.452 150.669 194.661 149.251 197.473C148.541 198.879 148.136 200.386 148.035 201.892C147.933 203.298 148.136 204.905 149.251 205.909C150.163 206.713 151.48 206.813 152.696 206.612C153.912 206.311 154.925 205.708 155.939 205.106C157.763 204.001 159.485 202.997 161.309 201.892" stroke="#8E8E8E" stroke-width="0.8309" stroke-miterlimit="10" stroke-linecap="round" stroke-linejoin="round"/>
<path d="M236.093 298.402L235.587 142.439H184.211L184.717 298.904L236.093 298.402Z" stroke="#8E8E8E" stroke-width="0.8309" stroke-miterlimit="10" stroke-linecap="round" stroke-linejoin="round"/>
<path d="M211.165 142.54C212.179 146.155 212.888 149.871 211.773 153.386C210.659 156.901 207.213 160.215 202.856 160.617C200.525 160.818 197.688 159.512 195.661 160.617C193.939 161.621 193.128 163.429 192.723 165.136C192.317 166.843 192.216 168.651 191.304 170.258C190.088 172.367 186.947 173.773 184.413 172.166" stroke="#8E8E8E" stroke-width="0.8309" stroke-miterlimit="10" stroke-linecap="round" stroke-linejoin="round"/>
<path d="M223.224 142.54C223.629 150.474 223.528 163.027 213.597 167.446C210.76 168.751 207.213 168.651 204.275 169.856C199.411 171.865 197.485 176.585 195.256 180.702C193.128 184.619 190.595 188.736 184.717 187.632" stroke="#8E8E8E" stroke-width="0.8309" stroke-miterlimit="10" stroke-linecap="round" stroke-linejoin="round"/>
<path d="M235.587 164.835C234.472 173.471 233.459 178.995 224.845 183.916C218.664 187.431 213.496 183.514 207.315 185.924C200.627 188.535 195.56 194.963 196.067 201.992C196.472 208.621 191.912 214.445 185.123 215.148" stroke="#8E8E8E" stroke-width="0.8309" stroke-miterlimit="10" stroke-linecap="round" stroke-linejoin="round"/>
<path d="M235.587 208.922C233.864 211.834 228.696 213.441 224.947 212.638C217.752 211.131 215.725 200.888 205.693 206.913C201.235 209.524 199.512 214.445 199.816 218.965C199.917 220.873 200.323 222.68 200.221 224.588C199.917 230.614 192.52 238.949 184.819 238.949" stroke="#8E8E8E" stroke-width="0.8309" stroke-miterlimit="10" stroke-linecap="round" stroke-linejoin="round"/>
<path d="M235.181 237.845C229.709 242.665 226.568 233.928 222.413 232.422C214.003 229.409 206.2 239.351 203.971 244.674C202.552 248.189 202.957 252.306 199.411 254.917C195.661 257.629 188.365 257.93 184.616 255.419" stroke="#8E8E8E" stroke-width="0.8309" stroke-miterlimit="10" stroke-linecap="round" stroke-linejoin="round"/>
<path d="M235.587 255.219C233.864 255.219 232.04 254.516 230.723 253.411C229.608 252.407 228.696 251.101 227.277 250.398C226.061 249.796 224.744 249.896 223.427 250.197C218.056 251.503 215.117 257.127 213.8 262.449C212.888 266.466 212.483 270.584 212.787 274.802C212.989 277.413 213.395 280.024 214.813 282.233C216.84 285.246 220.589 286.853 224.237 287.154C227.885 287.456 231.533 286.552 235.181 285.648" stroke="#8E8E8E" stroke-width="0.8309" stroke-miterlimit="10" stroke-linecap="round" stroke-linejoin="round"/>
<path d="M184.92 269.178C188.365 269.278 191.405 269.379 194.547 270.885C202.552 274.701 201.032 286.552 205.795 292.778C207.923 295.49 210.963 298.703 212.179 298.502" stroke="#8E8E8E" stroke-width="0.8309" stroke-miterlimit="10" stroke-linecap="round" stroke-linejoin="round"/>
<path d="M184.92 281.932C188.669 281.932 192.013 284.543 194.344 287.255C196.776 290.267 198.6 294.084 198.701 298" stroke="#8E8E8E" stroke-width="0.8309" stroke-miterlimit="10" stroke-linecap="round" stroke-linejoin="round"/>
<path d="M87.7413 200.386H36.4667V298.904H87.7413V200.386Z" fill="#0D4B76"/>
<path d="M46.6 253.009C45.384 252.306 44.472 251.402 43.864 250.197C43.256 248.992 42.952 247.586 42.952 246.08C42.952 244.473 43.256 243.167 43.864 241.962C44.472 240.757 45.384 239.853 46.6 239.15C47.816 238.447 49.2347 238.146 50.856 238.146C51.8693 238.146 52.8827 238.347 53.7947 238.648C54.7067 238.949 55.5173 239.351 56.1253 239.853L54.9093 242.665C53.592 241.761 52.2747 241.36 50.9573 241.36C49.7413 241.36 48.728 241.761 48.0187 242.565C47.3093 243.368 47.0053 244.573 47.0053 246.08C47.0053 247.687 47.3093 248.791 48.0187 249.595C48.728 250.398 49.64 250.8 50.9573 250.8C52.2747 250.8 53.592 250.398 54.9093 249.494L56.1253 252.306C55.5173 252.808 54.7067 253.21 53.7947 253.511C52.8827 253.813 51.8693 254.013 50.856 254.013C49.2347 254.013 47.816 253.712 46.6 253.009Z" fill="#11283C"/>
<path d="M61.192 253.009C59.976 252.407 59.1653 251.402 58.456 250.298C57.848 249.093 57.544 247.687 57.544 246.08C57.544 244.473 57.848 243.067 58.456 241.862C59.064 240.657 59.976 239.753 61.192 239.15C62.408 238.548 63.7253 238.146 65.3467 238.146C66.968 238.146 68.2853 238.447 69.5013 239.15C70.7173 239.753 71.528 240.757 72.2373 241.862C72.8453 243.067 73.1493 244.473 73.1493 246.08C73.1493 247.687 72.8453 249.093 72.2373 250.298C71.6293 251.503 70.7173 252.407 69.5013 253.009C68.2853 253.612 66.968 254.013 65.3467 254.013C63.7253 254.013 62.3067 253.712 61.192 253.009ZM68.0827 249.695C68.792 248.892 69.096 247.687 69.096 246.08C69.096 244.473 68.792 243.268 68.0827 242.464C67.3733 241.661 66.4613 241.259 65.3467 241.259C64.1307 241.259 63.2187 241.661 62.6107 242.464C62.0027 243.268 61.5973 244.473 61.5973 246.08C61.5973 247.687 61.9013 248.892 62.6107 249.695C63.32 250.499 64.232 250.9 65.3467 250.9C66.4613 250.9 67.3733 250.499 68.0827 249.695Z" fill="#11283C"/>
<path d="M81.256 259.236V261.144H74.872V259.436L77.8107 256.424C78.4187 255.821 78.6213 255.319 78.6213 254.817C78.6213 254.214 78.216 253.913 77.5067 253.913C77.2027 253.913 76.7973 254.013 76.392 254.114C75.9867 254.214 75.5813 254.415 75.176 254.716L74.4667 253.009C74.872 252.708 75.2773 252.507 75.8853 252.306C76.4933 252.105 77.1013 252.005 77.608 252.005C78.216 252.005 78.824 252.105 79.3307 252.306C79.8373 252.507 80.2427 252.808 80.4453 253.21C80.7493 253.612 80.8507 254.013 80.8507 254.516C80.8507 255.018 80.7493 255.52 80.5467 255.922C80.344 256.323 79.9387 256.825 79.432 257.328L77.608 259.135H81.256V259.236Z" fill="#11283C"/>
<path d="M87.7413 200.386H36.4667L44.5733 192.452H81.56L87.7413 200.386Z" stroke="white" stroke-width="0.8309" stroke-miterlimit="10" stroke-linecap="round" stroke-linejoin="round"/>
<path d="M161.411 171.362H110.035L115.709 163.429H155.736L161.411 171.362Z" stroke="white" stroke-width="0.8309" stroke-miterlimit="10" stroke-linecap="round" stroke-linejoin="round"/>
<path d="M235.181 142.54H183.907L189.581 134.606H229.203L235.181 142.54Z" stroke="white" stroke-width="0.8309" stroke-miterlimit="10" stroke-linecap="round" stroke-linejoin="round"/>
<path d="M135.672 169.555C140.205 169.555 143.88 168.61 143.88 167.446C143.88 166.281 140.205 165.337 135.672 165.337C131.139 165.337 127.464 166.281 127.464 167.446C127.464 168.61 131.139 169.555 135.672 169.555Z" stroke="white" stroke-width="0.3138" stroke-miterlimit="10"/>
<path d="M135.672 168.751C138.918 168.751 141.549 168.167 141.549 167.446C141.549 166.725 138.918 166.14 135.672 166.14C132.426 166.14 129.795 166.725 129.795 167.446C129.795 168.167 132.426 168.751 135.672 168.751Z" fill="white"/>
<path d="M62.104 198.578C66.6371 198.578 70.312 197.634 70.312 196.469C70.312 195.304 66.6371 194.36 62.104 194.36C57.5708 194.36 53.896 195.304 53.896 196.469C53.896 197.634 57.5708 198.578 62.104 198.578Z" stroke="white" stroke-width="0.3138" stroke-miterlimit="10"/>
<path d="M62.104 197.775C65.3499 197.775 67.9813 197.19 67.9813 196.469C67.9813 195.748 65.3499 195.163 62.104 195.163C58.858 195.163 56.2267 195.748 56.2267 196.469C56.2267 197.19 58.858 197.775 62.104 197.775Z" fill="white"/>
<path d="M62.104 196.469C62.104 189.54 66.1573 156.298 94.8347 150.875C116.216 146.858 128.477 155.796 135.267 166.642" stroke="white" stroke-width="0.5" stroke-miterlimit="10" stroke-linecap="round" stroke-linejoin="round" stroke-dasharray="2.15 2.15"/>
<path d="M170.733 141.335C149.048 143.243 139.725 155.194 136.179 167.446" stroke="white" stroke-width="0.5" stroke-miterlimit="10" stroke-linecap="round" stroke-linejoin="round" stroke-dasharray="2.15 2.15"/>
<path d="M755.731 314.269H672.232C652.067 314.269 632.408 307.742 616.093 295.891C522.867 228.103 395.085 228.103 301.859 295.891C285.544 307.742 265.987 314.269 245.72 314.269H10.3227" stroke="#0D4B76" stroke-width="1.2012" stroke-miterlimit="10" stroke-linecap="round" stroke-linejoin="round"/>
<path d="M913 314.269H840.344" stroke="#0D4B76" stroke-width="1.2012" stroke-miterlimit="10" stroke-linecap="round" stroke-linejoin="round"/>
<path d="M755.731 332.848H672.232C652.067 332.848 632.408 326.321 616.093 314.47C522.867 246.682 395.085 241.159 301.859 308.947C285.544 320.797 265.987 327.325 245.72 327.325H18.632" stroke="#0D4B76" stroke-width="1.2012" stroke-miterlimit="10" stroke-linecap="round" stroke-linejoin="round"/>
<path d="M902.461 330.84H840.344" stroke="#0D4B76" stroke-width="1.2012" stroke-miterlimit="10" stroke-linecap="round" stroke-linejoin="round"/>
<path d="M755.731 353.637H672.232C652.067 353.637 632.408 347.109 616.093 335.259C522.867 267.471 395.085 253.913 301.859 321.701C285.544 333.551 265.987 340.079 245.72 340.079H27.8533" stroke="#0D4B76" stroke-width="1.2012" stroke-miterlimit="10" stroke-linecap="round" stroke-linejoin="round"/>
<path d="M893.848 350.624H840.243" stroke="#0D4B76" stroke-width="1.2012" stroke-miterlimit="10" stroke-linecap="round" stroke-linejoin="round"/>
<path d="M895.672 300.712H913" stroke="#8E8E8E" stroke-miterlimit="10" stroke-linecap="round" stroke-linejoin="round"/>
<path d="M793.933 290.87C793.933 290.77 793.933 290.77 793.933 290.87ZM793.933 290.87C793.933 290.669 793.933 290.569 793.832 290.468L764.344 94.1343H763.837C763.128 91.1215 747.725 88.7112 728.776 88.7112C709.928 88.7112 694.525 91.1215 693.715 94.1343H693.512L664.024 290.468C664.024 290.569 663.923 290.77 663.923 290.87V290.971C664.328 295.791 693.208 300.511 728.877 300.511C764.648 300.411 793.528 295.691 793.933 290.87Z" stroke="#8E8E8E" stroke-width="0.8309" stroke-miterlimit="10" stroke-linecap="round" stroke-linejoin="round"/>
<path d="M787.752 253.411C781.875 249.093 770.323 247.887 763.939 252.005C755.731 257.227 757.251 270.182 757.757 278.518C758.163 284.945 759.581 291.774 763.229 297.297" stroke="#8E8E8E" stroke-width="0.8309" stroke-miterlimit="10" stroke-linecap="round" stroke-linejoin="round"/>
<path d="M734.147 298.302C736.68 289.765 732.829 280.827 732.221 271.889C731.512 262.449 734.957 250.097 740.936 242.665C747.523 234.43 755.325 230.112 761.709 227.702C769.107 224.99 779.139 226.195 785.117 231.217" stroke="#8E8E8E" stroke-width="0.8309" stroke-miterlimit="10" stroke-linecap="round" stroke-linejoin="round"/>
<path d="M668.685 261.947C671.016 255.319 676.184 250.197 682.568 246.682C684.595 245.578 686.723 244.674 689.053 244.573C693.917 244.272 699.085 247.687 701.112 251.804C703.341 256.323 701.112 260.039 698.477 264.056C695.843 268.174 693.208 272.492 691.891 277.112" stroke="#8E8E8E" stroke-width="0.8309" stroke-miterlimit="10" stroke-linecap="round" stroke-linejoin="round"/>
<path d="M672.739 234.129C675.069 230.112 675.779 227.601 680.541 225.794C684.797 224.187 689.661 223.685 694.221 224.488C702.125 225.794 709.219 230.313 714.792 235.836C716.616 237.544 718.339 239.452 719.251 241.761C720.467 244.473 720.365 247.586 719.859 250.499C718.541 257.428 714.488 263.654 711.347 270.082C708.307 276.509 706.28 284.141 709.421 290.569C710.941 293.782 712.36 297.498 714.792 300.109" stroke="#8E8E8E" stroke-width="0.8309" stroke-miterlimit="10" stroke-linecap="round" stroke-linejoin="round"/>
<path d="M717.123 89.6151C723 95.239 727.357 102.771 726.547 110.906C726.344 113.416 725.432 115.927 725.229 118.438C724.824 123.358 726.952 128.38 730.904 131.493C734.957 134.606 740.733 135.51 745.496 133.803C755.325 130.187 757.251 118.036 767.08 113.818" stroke="#8E8E8E" stroke-width="0.8309" stroke-miterlimit="10" stroke-linecap="round" stroke-linejoin="round"/>
<path d="M693.816 97.1471C699.693 101.164 704.253 106.989 706.483 113.517C709.016 120.948 708.611 129.183 711.651 136.514C714.792 143.946 721.48 149.871 729.587 152.281C737.693 154.692 746.712 153.486 753.805 149.168C758.973 145.954 765.256 140.531 771.336 139.226" stroke="#8E8E8E" stroke-width="0.8309" stroke-miterlimit="10" stroke-linecap="round" stroke-linejoin="round"/>
<path d="M694.221 294.787C694.221 294.586 694.221 294.485 694.12 294.385L664.733 93.2304H664.227C663.517 90.2176 648.115 87.8074 629.165 87.8074C610.317 87.8074 594.915 90.2176 594.104 93.2304H593.901L564.413 294.285C564.413 294.385 564.312 294.586 564.312 294.686V294.787C564.717 299.607 593.597 304.327 629.267 304.327C664.936 304.428 693.816 299.607 694.221 294.787Z" fill="#0C4B76" stroke="#11283C" stroke-width="1.0612" stroke-miterlimit="10" stroke-linecap="round" stroke-linejoin="round"/>
<path d="M688.04 257.328C682.163 253.009 670.611 251.804 664.227 255.922C656.019 261.144 657.539 274.099 658.045 282.434C658.451 288.862 660.275 295.389 663.517 302.52" stroke="#11283C" stroke-width="1.0612" stroke-miterlimit="10" stroke-linecap="round" stroke-linejoin="round"/>
<path d="M652.675 302.72C644.669 287.656 640.413 264.458 647.507 248.289C650.547 241.36 656.221 235.234 663.517 232.522C670.915 229.811 679.933 230.715 685.811 235.736" stroke="#11283C" stroke-width="1.0612" stroke-miterlimit="10" stroke-linecap="round" stroke-linejoin="round"/>
<path d="M630.685 304.126C625.011 298.302 623.795 288.46 624.808 280.627C625.821 273.396 628.456 266.567 630.483 259.537C632.003 254.013 630.179 247.586 629.571 241.862C628.456 229.61 628.861 216.956 637.069 206.813C645.885 195.866 663.112 186.125 678.109 189.64" stroke="#11283C" stroke-width="1.0612" stroke-miterlimit="10" stroke-linecap="round" stroke-linejoin="round"/>
<path d="M572.925 238.046C575.256 234.029 580.221 230.112 585.085 228.606C608.088 221.576 621.363 237.041 620.045 254.415C619.539 261.445 614.675 267.571 611.533 273.998C608.493 280.426 606.467 288.058 609.608 294.485C611.128 297.699 612.547 301.415 614.979 304.026" stroke="#11283C" stroke-width="1.0612" stroke-miterlimit="10" stroke-linecap="round" stroke-linejoin="round"/>
<path d="M617.411 88.8116C623.288 94.4355 627.645 101.968 626.835 110.102C626.632 112.613 625.72 115.123 625.517 117.634C625.112 122.555 627.24 127.576 631.192 130.69C635.245 133.803 641.021 134.707 645.784 132.999C655.613 129.384 657.539 117.232 667.368 113.014" stroke="#11283C" stroke-width="1.0612" stroke-miterlimit="10" stroke-linecap="round" stroke-linejoin="round"/>
<path d="M594.003 96.3436C599.88 100.361 604.44 106.185 606.669 112.713C609.203 120.145 608.797 128.38 611.837 135.711C614.979 143.142 621.667 149.068 629.773 151.478C637.779 153.888 646.899 152.683 653.992 148.365C659.16 145.151 663.416 140.23 669.496 139.025" stroke="#11283C" stroke-width="1.0612" stroke-miterlimit="10" stroke-linecap="round" stroke-linejoin="round"/>
<path d="M588.531 135.51C594.509 136.715 598.36 142.239 600.285 147.762C602.211 153.286 602.515 159.211 604.643 164.533C607.784 172.367 614.776 178.693 623.085 181.405C631.496 184.016 641.021 183.012 648.52 178.493C652.776 175.882 656.323 172.367 660.376 169.555C664.429 166.743 669.496 164.533 674.461 165.437" stroke="#11283C" stroke-width="1.0612" stroke-miterlimit="10" stroke-linecap="round" stroke-linejoin="round"/>
<path d="M576.067 214.244C581.843 213.039 588.024 211.935 593.597 213.943C595.421 214.646 597.043 215.65 598.968 216.253C605.859 218.462 613.965 213.843 616.093 207.215C618.221 200.586 614.877 193.054 609.101 188.837C604.845 185.723 599.677 184.317 595.016 181.706C589.848 178.794 583.565 171.764 583.667 165.738" stroke="#11283C" stroke-width="1.0612" stroke-miterlimit="10" stroke-linecap="round" stroke-linejoin="round"/>
<path d="M688.243 129.685C694.12 130.89 697.363 136.113 699.795 141.536C702.227 146.959 703.747 152.884 707.496 157.604C710.333 161.119 714.285 163.73 717.224 167.144C719.859 170.157 727.56 179.899 727.459 190.644C727.256 201.792 715.907 207.616 706.584 207.616C701.213 207.616 695.843 205.708 691.992 201.992C687.837 197.975 685.405 192.05 680.237 189.339" stroke="#8E8E8E" stroke-width="0.8309" stroke-miterlimit="10" stroke-linecap="round" stroke-linejoin="round"/>
<path d="M773.059 154.491C772.045 157.001 769.715 158.709 767.384 160.115C760.189 164.533 751.677 167.345 745.597 173.27C737.389 181.204 735.261 194.561 740.328 204.704C741.949 207.918 744.28 210.73 747.117 212.839C749.347 214.445 751.981 215.45 754.616 216.353C759.176 217.86 763.939 218.764 768.701 218.262C773.464 217.759 778.125 215.55 781.064 211.734" stroke="#8E8E8E" stroke-width="0.8309" stroke-miterlimit="10" stroke-linecap="round" stroke-linejoin="round"/>
<path d="M775.491 169.856C773.059 173.672 767.283 175.179 763.533 177.79C760.189 180.099 758.264 183.916 757.859 187.933C757.453 192.954 759.48 199.381 764.547 201.591C769.917 203.901 776.909 199.181 779.24 194.46" stroke="#8E8E8E" stroke-width="0.8309" stroke-miterlimit="10" stroke-linecap="round" stroke-linejoin="round"/>
<path d="M894.051 248.088H729.08V299.205H894.051V248.088Z" fill="#11283C" stroke="#A9C753" stroke-width="1.6763" stroke-miterlimit="10" stroke-linecap="round" stroke-linejoin="round"/>
<path d="M834.872 214.345H793.933V265.462H834.872V214.345Z" fill="#11283C" stroke="#A9C753" stroke-width="1.1175" stroke-miterlimit="10" stroke-linecap="round" stroke-linejoin="round"/>
<path d="M873.885 214.345H847.336V265.462H873.885V214.345Z" fill="#11283C" stroke="#A9C753" stroke-width="1.1175" stroke-miterlimit="10" stroke-linecap="round" stroke-linejoin="round"/>
<path d="M895.773 293.079H727.56V300.411H895.773V293.079Z" fill="#0D4B76" stroke="#0D4B76" stroke-miterlimit="10"/>
<path d="M874.797 264.357H793.123V278.919H874.797V264.357Z" fill="#0D4B76" stroke="#0D4B76" stroke-miterlimit="10"/>
<path d="M767.283 5.25669C763.331 4.95541 759.48 5.35712 755.933 6.46181C751.981 2.84645 746.509 0.938345 740.531 1.74176C732.424 2.84645 725.939 9.17333 724.824 17.2075C723.912 23.0322 725.837 28.3548 729.384 32.2715C719.555 33.1753 711.853 41.7116 712.664 51.9551C713.373 60.6922 720.365 67.8225 729.181 68.6259C736.376 69.3289 742.861 65.9144 746.408 60.4913C751.576 64.3076 757.96 66.5169 764.851 66.5169C782.584 66.5169 796.771 51.8547 795.757 34.0791C794.947 18.9147 782.685 6.46181 767.283 5.25669Z" stroke="#0D4B76" stroke-width="2" stroke-miterlimit="10"/>
<path d="M666.76 35.3847C666.557 33.4766 666.152 31.468 665.341 29.5599C661.288 20.3207 650.445 16.0023 641.123 20.0194C636.563 21.9275 633.32 25.4424 631.496 29.5599C628.456 28.2544 624.909 28.0535 621.667 29.4595C615.485 32.0706 612.547 39.3013 615.283 45.4273C617.005 49.344 620.451 51.8546 624.403 52.5576C623.389 56.6751 623.693 61.0939 625.517 65.3118C629.976 75.6558 642.136 80.4762 652.573 75.957C659.261 73.1451 663.619 67.1195 664.733 60.4913C667.267 61.0939 670.003 60.893 672.637 59.7883C679.123 56.9764 682.163 49.5448 679.325 43.0171C677.096 37.9958 672.029 35.0834 666.76 35.3847Z" stroke="#8E8E8E" stroke-width="1.2777" stroke-miterlimit="10" stroke-linecap="round" stroke-linejoin="round"/>
<path d="M833.552 20.3724C834.58 13.7391 829.988 7.53534 823.295 6.51591C816.602 5.49649 810.342 10.0475 809.313 16.6808C808.285 23.3141 812.877 29.5178 819.57 30.5373C826.263 31.5567 832.523 27.0058 833.552 20.3724Z" stroke="#0D4B76" stroke-width="2" stroke-miterlimit="10"/>
<path d="M413.427 444.523H401.267C388.499 444.523 377.453 436.489 373.096 425.341C371.171 420.42 370.968 414.897 372.488 409.775L391.64 341.485C396.099 325.718 418.595 325.718 423.053 341.485C430.755 368.902 439.064 398.327 442.307 409.775C443.725 414.897 443.624 420.42 441.699 425.341C437.24 436.489 426.195 444.523 413.427 444.523Z" stroke="#A8C653" stroke-width="1.5198" stroke-miterlimit="10" stroke-linecap="round" stroke-linejoin="round"/>
<path d="M419.608 382.359C418.595 388.184 413.427 392.602 407.347 392.602C401.267 392.602 396.099 388.184 395.085 382.359" stroke="white" stroke-width="2.0264" stroke-linecap="round" stroke-linejoin="round"/>
<path d="M417.277 382.258C417.379 380.953 418.493 380.049 419.811 380.149C421.128 380.25 422.04 381.354 421.939 382.66C421.837 383.966 420.723 384.869 419.405 384.769C418.088 384.669 417.176 383.564 417.277 382.258Z" fill="white"/>
<path d="M397.416 382.258C397.315 380.953 396.2 380.049 394.883 380.149C393.565 380.25 392.653 381.354 392.755 382.66C392.856 383.966 393.971 384.869 395.288 384.769C396.605 384.669 397.517 383.564 397.416 382.258Z" fill="white"/>
<path d="M425.789 400.436C424.675 409.574 416.872 416.604 407.347 416.604C397.923 416.604 390.019 409.474 388.904 400.436" stroke="white" stroke-width="2.0264" stroke-linecap="round" stroke-linejoin="round"/>
<path d="M423.459 400.335C423.56 399.03 424.675 398.126 425.891 398.226C427.107 398.327 428.12 399.431 428.019 400.636C427.917 401.841 426.803 402.846 425.587 402.745C424.371 402.645 423.357 401.641 423.459 400.335Z" fill="white"/>
<path d="M391.235 400.335C391.133 399.03 390.019 398.126 388.803 398.226C387.485 398.327 386.573 399.431 386.675 400.636C386.776 401.942 387.891 402.846 389.107 402.745C390.323 402.645 391.336 401.641 391.235 400.335Z" fill="white"/>
<path d="M407.347 366.391V498.954" stroke="white" stroke-width="2.0264" stroke-linecap="round" stroke-linejoin="round"/>
<path d="M407.347 368.801C408.634 368.801 409.677 367.767 409.677 366.491C409.677 365.216 408.634 364.182 407.347 364.182C406.059 364.182 405.016 365.216 405.016 366.491C405.016 367.767 406.059 368.801 407.347 368.801Z" fill="white"/>
<path d="M462.573 339.376C461.661 340.28 460.344 340.883 458.723 341.184V343.996H455.683V341.284C454.568 341.184 453.555 340.983 452.541 340.682C451.528 340.38 450.717 339.878 450.008 339.376L451.325 336.564C453.048 337.769 454.872 338.271 456.797 338.271C457.811 338.271 458.621 338.071 459.229 337.669C459.736 337.267 460.04 336.765 460.04 336.062C460.04 335.66 459.837 335.259 459.533 335.058C459.229 334.756 458.824 334.556 458.419 334.455C457.912 334.254 457.304 334.154 456.392 333.853C455.176 333.551 454.061 333.25 453.251 332.848C452.44 332.547 451.731 331.945 451.123 331.242C450.515 330.539 450.211 329.635 450.211 328.43C450.211 327.124 450.717 325.919 451.731 324.915C452.744 323.91 453.96 323.308 455.581 323.007V320.195H458.621V323.007C459.635 323.107 460.547 323.408 461.459 323.71C462.371 324.011 463.08 324.413 463.587 324.915L462.269 327.727C460.547 326.521 458.925 326.019 457.304 326.019C456.392 326.019 455.683 326.22 455.075 326.622C454.568 327.024 454.264 327.526 454.264 328.229C454.264 328.731 454.467 329.133 454.771 329.434C455.075 329.735 455.48 329.936 455.987 330.137C456.493 330.338 457.203 330.539 458.013 330.739C459.229 331.041 460.243 331.342 461.053 331.643C461.864 331.945 462.573 332.447 463.08 333.15C463.688 333.853 463.891 334.756 463.891 335.861C463.992 337.267 463.485 338.372 462.573 339.376Z" fill="#A8C653"/>
<path d="M480.104 339.376C479.192 340.28 477.875 340.883 476.253 341.184V343.996H473.213V341.284C472.099 341.184 471.085 340.983 470.072 340.682C469.059 340.38 468.248 339.878 467.539 339.376L468.856 336.564C470.579 337.769 472.403 338.271 474.328 338.271C475.341 338.271 476.152 338.071 476.76 337.669C477.267 337.267 477.571 336.765 477.571 336.062C477.571 335.66 477.368 335.259 477.064 335.058C476.76 334.756 476.355 334.556 475.949 334.455C475.443 334.254 474.835 334.154 473.923 333.853C472.707 333.551 471.592 333.25 470.781 332.848C469.971 332.547 469.261 331.945 468.653 331.242C468.045 330.539 467.741 329.635 467.741 328.43C467.741 327.124 468.248 325.919 469.261 324.915C470.275 323.91 471.491 323.308 473.112 323.007V320.195H476.152V323.007C477.165 323.107 478.077 323.408 478.989 323.71C479.901 324.011 480.611 324.413 481.117 324.915L479.8 327.727C478.077 326.521 476.456 326.019 474.835 326.019C473.923 326.019 473.213 326.22 472.605 326.622C472.099 327.024 471.795 327.526 471.795 328.229C471.795 328.731 471.997 329.133 472.301 329.434C472.605 329.735 473.011 329.936 473.517 330.137C474.024 330.338 474.733 330.539 475.544 330.739C476.76 331.041 477.773 331.342 478.584 331.643C479.395 331.945 480.104 332.447 480.611 333.15C481.219 333.853 481.421 334.756 481.421 335.861C481.624 337.267 481.117 338.372 480.104 339.376Z" fill="#A8C653"/>
<path d="M445.043 306.737H486.691C490.643 306.737 493.885 309.951 493.885 313.868V349.419C493.885 353.335 490.643 356.549 486.691 356.549H480.813C479.8 356.549 479.091 357.352 479.091 358.357C479.192 360.164 479.8 361.872 480.813 363.278C480.408 363.378 479.901 363.479 479.395 363.479C475.443 363.78 471.997 361.57 470.275 358.357C469.667 357.252 468.552 356.549 467.235 356.549H444.941C440.989 356.549 437.747 353.335 437.747 349.419V313.868C437.848 309.951 441.091 306.737 445.043 306.737Z" stroke="#A8C653" stroke-width="1.115" stroke-miterlimit="10"/>
<path d="M513.037 435.685L510.707 406.662C510.403 402.946 512.936 399.632 516.584 398.929L529.555 396.418L510.808 397.925C507.16 398.628 504.525 401.942 504.829 405.557L506.957 436.388L513.037 435.685Z" fill="white"/>
<path d="M505.843 436.69L508.275 465.612L493.379 478.869L526.616 478.367C528.136 465.211 530.365 447.435 530.973 434.882C526.717 435.183 509.085 435.284 505.843 436.69Z" stroke="white" stroke-width="1.3585" stroke-miterlimit="10" stroke-linecap="round" stroke-linejoin="round"/>
<path d="M608.899 397.624V403.247C608.899 416.805 597.752 427.852 584.072 427.852L536.141 422.027C536.141 422.027 534.419 451.352 532.291 471.236L515.875 472.04L510.707 406.562C510.403 402.846 512.936 399.532 516.584 398.829L550.429 391.899" stroke="white" stroke-width="1.1915" stroke-miterlimit="10" stroke-linecap="round" stroke-linejoin="round"/>
<path d="M511.923 436.589L514.659 465.512L499.864 478.969L533.101 478.166C534.52 465.01 536.547 447.234 537.053 434.681C532.797 434.882 515.165 435.183 511.923 436.589Z" fill="#A8C653" stroke="#A8C653" stroke-width="1.0916" stroke-miterlimit="10"/>
<path d="M551.443 393.305C548.808 391.598 552.152 385.874 553.064 383.765C554.787 379.547 556.104 375.028 557.32 370.609C558.131 367.797 558.536 364.784 559.347 361.972C560.765 356.75 562.184 352.03 560.157 346.808C558.232 341.786 555.091 337.87 555.8 332.346C556.611 326.522 558.739 320.998 560.664 315.475C562.792 309.549 566.035 303.223 572.115 300.511C580.627 296.594 590.253 298.402 596.941 304.729C602.717 310.152 605.96 317.684 608.189 325.316C611.331 336.564 612.547 378.442 610.925 396.619C610.925 397.423 577.384 410.177 551.443 393.305Z" fill="white"/>
<path d="M565.224 304.026C576.697 304.026 585.997 294.809 585.997 283.438C585.997 272.068 576.697 262.851 565.224 262.851C553.751 262.851 544.451 272.068 544.451 283.438C544.451 294.809 553.751 304.026 565.224 304.026Z" fill="white" stroke="#11283C" stroke-width="0.8187" stroke-miterlimit="10" stroke-linecap="round" stroke-linejoin="round"/>
<path d="M557.725 383.966C556.611 384.468 555.699 385.171 554.483 385.372C551.645 385.874 548.808 385.271 545.971 385.472C545.464 385.472 544.653 385.472 544.248 385.773C543.843 385.974 543.64 386.476 543.336 386.878C542.525 387.782 541.715 388.686 540.701 389.389C539.384 390.292 537.864 390.895 536.243 390.895C535.939 390.895 535.635 390.795 535.635 390.493C535.635 390.393 535.736 390.292 535.736 390.292C536.851 388.987 537.661 387.38 537.965 385.673C537.256 386.777 536.04 387.48 534.925 388.183C533.203 389.389 530.669 389.389 528.744 388.786C528.136 388.585 527.427 388.284 527.528 387.581C527.528 387.179 527.832 386.878 528.136 386.577C530.061 384.669 532.291 383.062 534.216 381.154C535.635 379.748 536.851 377.94 538.067 376.333C538.776 375.429 539.485 374.525 540.499 374.023C541.411 373.521 542.525 373.521 543.64 373.421C545.667 373.32 547.693 373.722 549.72 373.622C551.747 373.521 553.368 373.822 555.293 373.119" fill="white"/>
<path d="M557.725 383.966C556.611 384.468 555.699 385.171 554.483 385.372C551.645 385.874 548.808 385.271 545.971 385.472C545.464 385.472 544.653 385.472 544.248 385.773C543.843 385.974 543.64 386.476 543.336 386.878C542.525 387.782 541.715 388.686 540.701 389.389C539.384 390.292 537.864 390.895 536.243 390.895C535.939 390.895 535.635 390.795 535.635 390.493C535.635 390.393 535.736 390.292 535.736 390.292C536.851 388.987 537.661 387.38 537.965 385.673C537.256 386.777 536.04 387.48 534.925 388.183C533.203 389.389 530.669 389.389 528.744 388.786C528.136 388.585 527.427 388.284 527.528 387.581C527.528 387.179 527.832 386.878 528.136 386.577C530.061 384.669 532.291 383.062 534.216 381.154C535.635 379.748 536.851 377.94 538.067 376.333C538.776 375.429 539.485 374.525 540.499 374.023C541.411 373.521 542.525 373.521 543.64 373.421C545.667 373.32 547.693 373.722 549.72 373.622C551.747 373.521 553.368 373.822 555.293 373.119" stroke="#11283C" stroke-width="0.8936" stroke-miterlimit="10" stroke-linecap="round" stroke-linejoin="round"/>
<path d="M569.075 269.78C571.608 271.287 574.04 273.195 575.864 275.203C582.248 281.731 574.344 292.778 580.627 298.101C585.795 302.52 592.685 299.205 597.043 304.93C601.4 310.654 609.304 309.449 612.851 303.222C618.323 293.883 612.141 282.233 600.893 286.652C601.197 282.032 599.88 277.513 598.765 273.095C596.435 263.855 589.341 256.625 580.12 254.013C573.027 252.005 564.616 252.105 557.624 254.415C553.368 255.821 549.517 257.93 546.781 261.545C544.147 264.96 543.843 269.077 542.12 272.793C541.613 273.898 540.904 275.003 539.688 275.304C541.715 276.107 544.045 276.007 546.173 275.304C550.429 273.998 551.848 270.885 555.496 268.877C559.955 266.366 564.92 267.37 569.075 269.78Z" fill="#11283C"/>
<path d="M594.712 302.821C595.523 303.323 596.333 304.026 597.043 305.03C601.4 310.755 609.304 309.549 612.851 303.323C618.323 293.983 612.141 282.334 600.893 286.753C601.197 282.133 599.88 277.614 598.765 273.195C596.435 263.956 589.341 256.725 580.12 254.114C573.027 252.105 564.616 252.206 557.624 254.516C553.368 255.922 549.517 258.031 546.781 261.646C544.147 265.06 543.843 269.178 542.12 272.894C541.613 273.998 540.904 275.103 539.688 275.404C541.715 276.208 548.403 276.308 553.267 270.484" stroke="#8E8E8E" stroke-width="0.8309" stroke-miterlimit="10" stroke-linecap="round" stroke-linejoin="round"/>
<path d="M582.311 283.479C584.773 280.317 585.044 276.436 582.917 274.809C580.791 273.183 577.071 274.427 574.61 277.589C572.148 280.751 571.876 284.632 574.003 286.258C576.13 287.885 579.85 286.64 582.311 283.479Z" fill="white"/>
<path d="M602.008 285.447C596.333 290.77 594.509 294.988 593.901 302.52" stroke="white" stroke-width="3.3686" stroke-miterlimit="10" stroke-linecap="round" stroke-linejoin="round"/>
<path d="M608.392 353.838C609.912 345.301 607.885 336.865 603.123 329.534C600.995 326.321 600.691 323.107 598.968 319.692C596.536 315.073 591.368 307.34 585.491 306.838C580.12 306.436 575.155 310.353 574.243 315.475C573.533 319.291 573.939 324.011 575.053 327.727C576.269 331.945 578.397 335.761 580.728 339.376C582.856 342.69 585.187 345.1 584.477 349.419C583.971 352.432 582.045 354.942 579.309 356.348L562.285 364.884C556.307 367.897 553.875 375.128 556.915 381.154C559.955 387.079 567.149 389.489 573.128 386.577C573.128 386.577 573.229 386.577 573.229 386.476L590.253 377.94C599.88 373.22 606.467 364.382 608.392 353.838Z" fill="#0D4B76"/>
<path d="M544.755 381.254C544.248 381.354 543.64 381.254 543.133 381.354C540.397 381.656 539.08 384.669 537.763 386.677" stroke="#11283C" stroke-width="0.8936" stroke-miterlimit="10" stroke-linecap="round" stroke-linejoin="round"/>
<path d="M545.971 390.594L511.923 397.523L484.664 376.333" stroke="#C1C1C1" stroke-width="2.8824" stroke-miterlimit="10" stroke-linecap="round" stroke-linejoin="round"/>
<path d="M593.395 348.214C590.963 346.808 586.808 346.607 584.376 348.214C584.376 348.214 587.821 349.118 588.125 349.218C589.341 349.72 590.456 350.624 591.064 351.829" stroke="white" stroke-width="0.5957" stroke-miterlimit="10" stroke-linecap="round" stroke-linejoin="round"/>
<path d="M536.952 416.002C535.736 418.111 535.533 420.621 536.344 422.931C534.013 420.822 532.392 418.914 532.291 415.6" stroke="white" stroke-width="1.1915" stroke-miterlimit="10" stroke-linecap="round" stroke-linejoin="round"/>
<path d="M577.891 281.631C578.397 281.43 578.904 281.129 579.005 280.627C579.005 280.225 578.803 279.924 578.499 279.723C578.195 279.522 577.789 279.421 577.485 279.421C577.688 278.417 578.803 277.513 579.816 277.112C580.829 276.71 582.147 276.81 582.856 277.614" stroke="#C3C3C3" stroke-width="0.5957" stroke-miterlimit="10" stroke-linecap="round" stroke-linejoin="round"/>
<path d="M619.032 396.318V429.158H539.485V500.36H619.032H619.437H698.984V396.318H619.032Z" stroke="#A8C653" stroke-width="1.5" stroke-miterlimit="10" stroke-linecap="round" stroke-linejoin="round"/>
<path d="M539.283 489.313C542.627 491.623 545.971 495.138 550.024 495.64C555.597 496.243 558.333 494.837 562.589 500.26" stroke="#A8C653" stroke-width="1.5" stroke-miterlimit="10" stroke-linecap="round" stroke-linejoin="round"/>
<path d="M540.499 478.969C542.931 482.183 549.315 487.505 553.469 486.3C561.272 483.99 558.232 471.738 555.293 467.018C551.443 460.692 546.68 454.565 541.411 449.544C540.6 448.741 541.309 449.444 540.397 448.64" stroke="#A8C653" stroke-width="1.5" stroke-miterlimit="10" stroke-linecap="round" stroke-linejoin="round"/>
<path d="M581.64 500.159C579.309 498.151 575.965 494.334 573.837 492.125C565.224 483.288 567.149 468.525 562.387 457.377C557.523 446.23 549.619 436.991 540.499 429.66" stroke="#A8C653" stroke-width="1.5" stroke-miterlimit="10" stroke-linecap="round" stroke-linejoin="round"/>
<path d="M568.568 430.061C570.696 435.886 572.824 441.912 573.533 448.138C574.141 453.36 573.635 458.683 573.939 463.905C574.243 469.127 575.56 474.651 579.005 478.367C580.424 479.873 582.248 481.078 584.173 480.978C588.024 480.777 592.179 475.153 594.307 472.14C597.651 467.42 599.475 461.294 600.285 455.469C601.501 447.134 601.096 438.598 601.096 430.162" stroke="#A8C653" stroke-width="1.5" stroke-miterlimit="10" stroke-linecap="round" stroke-linejoin="round"/>
<path d="M598.664 500.159C597.245 497.046 595.928 494.334 595.725 490.92C595.32 484.593 600.083 479.371 603.325 474.048C611.027 461.294 611.027 444.724 609.709 430.162" stroke="#A8C653" stroke-width="1.5" stroke-miterlimit="10" stroke-linecap="round" stroke-linejoin="round"/>
<path d="M613.661 500.159C612.648 497.749 611.533 495.238 611.128 492.627C610.621 489.514 610.824 484.794 612.04 481.882C613.459 478.467 618.627 478.065 621.768 478.869C625.011 479.672 628.253 480.978 631.293 482.183C635.347 483.79 636.968 487.104 637.981 491.121C638.792 494.234 638.589 497.649 636.968 500.36" stroke="#A8C653" stroke-width="1.5" stroke-miterlimit="10" stroke-linecap="round" stroke-linejoin="round"/>
<path d="M580.829 430.463C581.032 435.484 581.437 440.606 582.045 445.527C582.349 447.737 583.059 450.448 585.085 450.95C586.2 451.251 587.315 450.749 588.227 450.046C593.091 446.13 592.483 436.087 592.28 430.463" stroke="#A8C653" stroke-width="1.5" stroke-miterlimit="10" stroke-linecap="round" stroke-linejoin="round"/>
<path d="M607.379 499.757C606.061 496.443 604.845 492.928 604.744 489.414C604.541 485.396 606.061 482.886 607.987 479.572C609.811 476.258 611.331 473.144 614.067 470.332C621.363 462.7 631.496 461.696 641.123 465.512C655.613 471.236 659.363 483.79 659.363 499.657" stroke="#A8C653" stroke-width="1.5" stroke-miterlimit="10" stroke-linecap="round" stroke-linejoin="round"/>
<path d="M614.573 429.76C615.08 434.781 616.499 439.803 618.829 444.322C620.957 448.439 627.848 454.967 633.016 453.461C640.819 451.151 637.779 438.899 634.84 434.179C630.989 427.852 626.227 421.726 620.957 416.705C620.147 415.901 620.856 416.604 619.944 415.801" stroke="#A8C653" stroke-width="1.5" stroke-miterlimit="10" stroke-linecap="round" stroke-linejoin="round"/>
<path d="M672.333 499.055C675.576 485.196 670.813 474.35 660.477 465.311C658.147 463.303 655.512 461.495 653.384 459.286C644.771 450.448 646.696 435.685 641.933 424.538C637.069 413.391 629.165 404.151 620.045 396.82" stroke="#A8C653" stroke-width="1.5" stroke-miterlimit="10" stroke-linecap="round" stroke-linejoin="round"/>
<path d="M648.115 397.222C650.243 403.047 652.371 409.072 653.08 415.299C653.688 420.521 653.181 425.843 653.485 431.066C653.789 436.288 655.107 441.811 658.552 445.527C659.971 447.034 661.795 448.239 663.72 448.138C667.571 447.937 671.725 442.313 673.853 439.301C677.197 434.581 679.021 428.455 679.832 422.63C681.048 414.294 680.643 405.758 680.643 397.322" stroke="#A8C653" stroke-width="1.5" stroke-miterlimit="10" stroke-linecap="round" stroke-linejoin="round"/>
<path d="M683.784 499.858C685.912 487.104 684.088 479.471 678.717 467.922C677.299 464.809 675.475 461.696 675.272 458.181C674.867 451.854 679.629 446.632 682.872 441.309C690.573 428.555 690.573 411.985 689.256 397.423" stroke="#A8C653" stroke-width="1.5" stroke-miterlimit="10" stroke-linecap="round" stroke-linejoin="round"/>
<path d="M698.376 479.371C696.653 475.354 694.931 471.337 693.208 467.32C692.195 464.909 691.08 462.399 690.675 459.788C689.459 452.356 693.715 442.012 698.579 436.69" stroke="#A8C653" stroke-width="1.5" stroke-miterlimit="10" stroke-linecap="round" stroke-linejoin="round"/>
<path d="M660.376 397.624C660.579 402.645 660.984 407.767 661.592 412.688C661.896 414.897 662.605 417.608 664.632 418.111C665.747 418.412 666.861 417.91 667.773 417.207C672.637 413.29 672.029 403.247 671.827 397.624" stroke="#A8C653" stroke-width="1.5" stroke-miterlimit="10" stroke-linecap="round" stroke-linejoin="round"/>
<path d="M689.965 292.176H630.787V394.41H689.965V292.176Z" fill="white" stroke="#11283C" stroke-width="0.9253" stroke-miterlimit="10" stroke-linecap="round" stroke-linejoin="round"/>
<path d="M685.101 323.207H635.651V341.887H685.101V323.207Z" fill="#A8C653"/>
<path d="M685.101 299.908H635.651V318.588H685.101V299.908Z" fill="#A8C653"/>
<path d="M685.101 346.506H635.651V365.186H685.101V346.506Z" fill="#A8C653"/>
<path d="M685.101 369.906H635.651V388.585H685.101V369.906Z" fill="#A8C653"/>
<path d="M672.232 281.731H647.912V292.176H672.232V281.731Z" fill="white" stroke="#11283C" stroke-width="0.9253" stroke-miterlimit="10" stroke-linecap="round" stroke-linejoin="round"/>
<path d="M338.845 498.753C338.035 486.802 330.029 471.538 320.301 471.538C310.472 471.538 302.467 486.802 301.757 498.753" stroke="white" stroke-width="1.4111" stroke-miterlimit="10" stroke-linecap="round" stroke-linejoin="round"/>
<path d="M304.696 486.3C302.669 483.488 300.136 481.58 297.299 481.58C291.117 481.58 285.949 491.221 285.544 498.854C285.544 499.255 285.544 500.059 285.544 500.059" stroke="white" stroke-width="1.4111" stroke-miterlimit="10" stroke-linecap="round" stroke-linejoin="round"/>
<path d="M152.189 500.963H443.928" stroke="#A7C553" stroke-width="1.5" stroke-miterlimit="10" stroke-linecap="round" stroke-linejoin="round"/>
<path d="M265.277 512.713H406.84" stroke="#A7C553" stroke-width="1.4111" stroke-miterlimit="10" stroke-linecap="round" stroke-linejoin="round"/>
<path d="M422.952 512.713H477.672" stroke="#A7C553" stroke-width="1.4111" stroke-miterlimit="10" stroke-linecap="round" stroke-linejoin="round"/>
<path d="M358.403 331.643H317.363C314.221 331.643 311.587 334.154 311.587 337.368V365.688C311.587 368.801 314.12 371.412 317.363 371.412H322.024C322.835 371.412 323.443 372.015 323.341 372.818C323.24 374.325 322.733 375.63 321.923 376.735C322.328 376.835 322.632 376.835 323.037 376.936C326.179 377.137 328.915 375.429 330.333 372.818C330.84 371.914 331.752 371.412 332.765 371.412H358.301C361.443 371.412 364.077 368.902 364.077 365.688V337.368C364.179 334.254 361.544 331.643 358.403 331.643Z" stroke="#A8C653" stroke-width="1.1747" stroke-miterlimit="10"/>
<path d="M323.848 355.143C323.848 359.763 327.597 363.479 332.259 363.479C336.92 363.479 340.669 359.763 340.669 355.143C340.669 350.523 332.259 338.171 332.259 338.171C332.259 338.171 323.848 350.523 323.848 355.143Z" stroke="#A8C653" stroke-width="1.1747" stroke-miterlimit="10"/>
<path d="M332.36 347.511V366.19" stroke="#A8C653" stroke-width="1.1747" stroke-miterlimit="10"/>
<path d="M337.933 361.47C339.453 362.776 341.379 363.579 343.507 363.579C348.168 363.579 351.917 359.863 351.917 355.244C351.917 350.624 343.507 338.272 343.507 338.272C343.507 338.272 340.365 342.891 337.933 347.511" stroke="#A8C653" stroke-width="1.1747" stroke-miterlimit="10"/>
<path d="M343.507 363.479V366.19" stroke="#A8C653" stroke-width="1.1747" stroke-miterlimit="10"/>
<path d="M166.477 339.778H142.664C139.32 339.778 136.584 337.066 136.584 333.752C136.584 330.438 139.32 327.727 142.664 327.727H170.227C168.403 322.705 166.173 317.182 163.539 311.558H142.563C139.219 311.558 136.483 308.846 136.483 305.532C136.483 302.218 139.219 299.507 142.563 299.507H157.763C155.027 294.084 152.189 288.56 149.352 283.338H142.563C139.219 283.338 136.483 280.627 136.483 277.312C136.483 273.998 139.219 271.287 142.563 271.287H142.664C133.341 254.817 125.741 242.464 125.741 242.464C125.741 242.464 118.04 254.716 108.819 271.287H108.92C112.264 271.287 115 273.998 115 277.312C115 280.627 112.264 283.338 108.92 283.338H102.131C99.2933 288.56 96.456 294.084 93.72 299.507H108.92C112.264 299.507 115 302.218 115 305.532C115 308.846 112.264 311.558 108.92 311.558H88.0453C85.512 317.182 83.1813 322.705 81.3573 327.727H108.92C112.264 327.727 115 330.438 115 333.752C115 337.066 112.264 339.778 108.92 339.778H77.8107C77.2027 342.59 76.8987 345.201 76.8987 347.31C76.8987 350.222 77.2026 353.135 77.7093 355.947H109.021C112.365 355.947 115.101 358.658 115.101 361.972C115.101 365.286 112.365 367.998 109.021 367.998H81.56C89.3626 384.468 106.285 395.816 125.843 395.816C145.4 395.816 161.512 384.468 169.416 367.998H142.664C139.32 367.998 136.584 365.286 136.584 361.972C136.584 358.658 139.32 355.947 142.664 355.947H163.843" fill="#11283C"/>
<path d="M166.477 339.778H142.664C139.32 339.778 136.584 337.066 136.584 333.752C136.584 330.438 139.32 327.727 142.664 327.727H170.227C168.403 322.705 166.173 317.182 163.539 311.558H142.563C139.219 311.558 136.483 308.846 136.483 305.532C136.483 302.218 139.219 299.507 142.563 299.507H157.763C155.027 294.084 152.189 288.56 149.352 283.338H142.563C139.219 283.338 136.483 280.627 136.483 277.312C136.483 273.998 139.219 271.287 142.563 271.287H142.664C133.341 254.817 125.741 242.464 125.741 242.464C125.741 242.464 118.04 254.716 108.819 271.287H108.92C112.264 271.287 115 273.998 115 277.312C115 280.627 112.264 283.338 108.92 283.338H102.131C99.2933 288.56 96.456 294.084 93.72 299.507H108.92C112.264 299.507 115 302.218 115 305.532C115 308.846 112.264 311.558 108.92 311.558H88.0453C85.512 317.182 83.1813 322.705 81.3573 327.727H108.92C112.264 327.727 115 330.438 115 333.752C115 337.066 112.264 339.778 108.92 339.778H77.8107C77.2027 342.59 76.8987 345.201 76.8987 347.31C76.8987 350.222 77.2026 353.135 77.7093 355.947H109.021C112.365 355.947 115.101 358.658 115.101 361.972C115.101 365.286 112.365 367.998 109.021 367.998H81.56C89.3626 384.468 106.285 395.816 125.843 395.816C145.4 395.816 161.512 384.468 169.416 367.998H142.664C139.32 367.998 136.584 365.286 136.584 361.972C136.584 358.658 139.32 355.947 142.664 355.947H163.843" stroke="#A8C653" stroke-width="1.5207" stroke-miterlimit="10" stroke-linecap="round" stroke-linejoin="round"/>
<path d="M125.336 337.468V498.653" stroke="white" stroke-width="2.0276" stroke-miterlimit="10" stroke-linecap="round" stroke-linejoin="round"/>
<path d="M284.733 409.675H181.677V500.26H284.733V409.675Z" stroke="#A7C553" stroke-width="1.4701" stroke-miterlimit="10" stroke-linecap="round" stroke-linejoin="round"/>
<path d="M181.677 428.957C185.933 433.576 195.459 432.17 199.107 428.053C201.843 424.94 200.728 421.123 201.843 417.508C202.755 414.495 204.984 411.081 208.024 410.277" stroke="#A7C553" stroke-width="1.4701" stroke-miterlimit="10" stroke-linecap="round" stroke-linejoin="round"/>
<path d="M225.149 409.574C222.819 413.391 220.589 417.608 218.867 421.726C217.245 425.843 217.549 430.463 216.029 434.781C210.355 451.251 198.701 458.181 181.576 453.963" stroke="#A7C553" stroke-width="1.4701" stroke-miterlimit="10" stroke-linecap="round" stroke-linejoin="round"/>
<path d="M235.384 410.88C232.141 413.591 226.872 420.822 228.088 425.643C230.317 434.48 242.477 430.965 247.139 427.752C253.32 423.433 259.501 418.01 264.365 411.985C265.176 410.98 264.467 411.784 265.277 410.88" stroke="#A7C553" stroke-width="1.4701" stroke-miterlimit="10" stroke-linecap="round" stroke-linejoin="round"/>
<path d="M182.995 470.232C196.776 473.948 207.416 468.525 216.435 456.775C218.461 454.063 220.184 451.151 222.413 448.64C231.128 438.899 245.821 441.108 256.765 435.585C267.811 430.061 276.931 421.123 284.227 410.779" stroke="#A7C553" stroke-width="1.4701" stroke-miterlimit="10" stroke-linecap="round" stroke-linejoin="round"/>
<path d="M284.125 442.816C278.349 445.226 272.067 447.636 265.885 448.439C260.717 449.042 255.448 448.54 250.28 448.841C245.112 449.142 241.261 450.046 238.525 454.666C234.573 461.294 239.235 469.629 242.173 472.04C246.835 475.856 252.915 477.864 258.691 478.869C267 480.275 275.411 479.773 283.72 479.773" stroke="#A7C553" stroke-width="1.4701" stroke-miterlimit="10" stroke-linecap="round" stroke-linejoin="round"/>
<path d="M182.285 483.187C194.851 485.597 202.451 483.488 213.901 477.362C217.043 475.655 220.083 473.747 223.528 473.446C229.811 473.044 234.979 478.467 240.248 482.082C252.915 490.719 269.331 490.719 283.72 489.313" stroke="#A7C553" stroke-width="1.4701" stroke-miterlimit="10" stroke-linecap="round" stroke-linejoin="round"/>
<path d="M204.275 500.36C207.923 497.046 213.699 491.623 221.805 490.92C229.304 490.317 239.336 494.334 244.605 499.858" stroke="#A7C553" stroke-width="1.4701" stroke-miterlimit="10" stroke-linecap="round" stroke-linejoin="round"/>
<path d="M284.125 456.674C279.16 456.875 273.384 457.377 268.419 458.08C266.189 458.382 263.555 459.185 263.048 461.595C262.744 462.8 263.251 464.106 263.96 465.11C267.811 470.634 278.552 470.132 284.125 469.83" stroke="#A7C553" stroke-width="1.4701" stroke-miterlimit="10" stroke-linecap="round" stroke-linejoin="round"/>
<path d="M266.088 337.769C264.467 335.66 263.352 333.15 262.643 330.539C262.541 330.338 262.44 330.137 262.44 329.936C260.92 327.225 260.109 324.111 259.907 320.898C259.805 318.789 260.109 316.78 260.819 314.872C260.92 312.763 261.427 310.654 262.237 308.846C261.224 307.842 260.109 306.838 258.893 306.034C255.651 303.926 251.8 302.62 247.747 302.62H218.36C215.117 302.62 212.077 303.423 209.443 304.729C207.315 305.733 205.491 307.139 203.869 308.846C204.477 310.152 204.984 311.558 205.288 313.064C205.896 314.872 206.301 316.881 206.403 318.889C206.504 321.299 206.099 323.609 205.187 325.819C205.187 327.727 204.781 329.635 204.173 331.342C203.16 334.756 201.133 337.769 198.397 340.18V403.95C198.397 408.871 202.451 412.888 207.416 412.888H258.792C263.757 412.888 267.811 408.871 267.811 403.95V340.28C267.101 339.376 266.493 338.573 266.088 337.769Z" fill="#0A385A" stroke="#C3C3C3" stroke-width="1.0138" stroke-miterlimit="10"/>
<path d="M232.749 319.391C242.151 319.391 249.773 314.31 249.773 308.043C249.773 301.776 242.151 296.695 232.749 296.695C223.347 296.695 215.725 301.776 215.725 308.043C215.725 314.31 223.347 319.391 232.749 319.391Z" fill="white"/>
<path d="M191.811 346.205C194.141 344.297 197.181 342.891 198.701 340.38C200.525 337.368 201.944 333.953 203.565 330.739C204.376 329.133 207.923 319.291 205.085 311.458C204.477 309.75 204.883 308.646 203.16 308.947C202.248 309.148 201.133 310.152 200.424 310.755L172.76 333.351C166.072 338.774 162.829 347.109 163.944 355.545C163.944 355.947 164.045 356.248 164.147 356.65C165.059 361.671 167.491 366.19 171.037 369.705C173.165 371.814 175.597 373.521 178.333 374.726L207.315 387.782C212.888 390.292 219.373 387.882 221.907 382.359C224.44 376.835 222.008 370.408 216.435 367.897L187.453 354.842C186.339 354.34 185.933 353.436 185.832 352.733C185.731 352.03 185.832 351.126 186.845 350.323C188.568 348.917 190.189 347.611 191.811 346.205Z" fill="#0A385A" stroke="white" stroke-width="1.0138" stroke-miterlimit="10" stroke-linecap="round" stroke-linejoin="round"/>
<path d="M204.072 308.043C206.301 313.466 206.403 319.391 205.187 325.116C203.971 330.539 201.741 335.962 198.904 340.682" stroke="white" stroke-width="2.2223" stroke-miterlimit="10" stroke-linecap="round" stroke-linejoin="round"/>
<path d="M179.245 352.733C181.171 351.929 183.907 351.729 185.933 352.231C184.008 353.335 182.995 354.942 181.677 356.649" stroke="white" stroke-width="1.0138" stroke-miterlimit="10" stroke-linecap="round" stroke-linejoin="round"/>
<path d="M265.277 310.755L292.941 333.351C299.629 338.774 302.872 347.109 301.757 355.545C301.048 360.968 298.515 365.989 294.765 369.705C292.637 371.814 290.205 373.521 287.469 374.726L258.488 387.782C252.915 390.292 246.429 387.882 243.896 382.359C241.363 376.835 243.795 370.408 249.368 367.897L278.349 354.842C279.464 354.34 279.869 353.436 279.971 352.733C280.072 352.03 279.971 351.126 278.957 350.323C277.336 349.017 275.715 347.611 274.093 346.306C271.661 344.297 268.52 342.891 266.899 340.079C264.973 336.765 263.656 332.748 262.237 329.133C261.123 326.22 260.211 323.207 259.907 320.094C259.603 317.282 259.907 314.37 260.819 311.658C261.731 308.445 262.947 308.846 265.277 310.755Z" fill="#0A385A" stroke="white" stroke-width="1.0138" stroke-miterlimit="10" stroke-linecap="round" stroke-linejoin="round"/>
<path d="M261.731 308.043C259.501 313.466 259.4 319.391 260.616 325.116C261.832 330.539 264.061 335.962 266.899 340.682" stroke="white" stroke-width="2.2223" stroke-miterlimit="10" stroke-linecap="round" stroke-linejoin="round"/>
<path d="M250.483 412.788H215.421C205.896 412.788 198.195 405.156 198.195 395.715H267.608C267.608 405.156 259.907 412.788 250.483 412.788Z" fill="#95AA4B"/>
<path d="M232.851 315.073C245.946 315.073 256.563 304.552 256.563 291.573C256.563 278.594 245.946 268.073 232.851 268.073C219.755 268.073 209.139 278.594 209.139 291.573C209.139 304.552 219.755 315.073 232.851 315.073Z" fill="#828282"/>
<path d="M275.816 399.833H190.797L187.555 387.38V384.669H279.16V387.38L275.816 399.833Z" fill="#C5C5C5"/>
<path d="M275.816 397.222H190.797L187.555 384.669H279.16L275.816 397.222Z" fill="#C5C5C5"/>
<path d="M273.891 343.996H191.811V397.222H273.891V343.996Z" fill="white" stroke="#11283C" stroke-width="1.0138" stroke-miterlimit="10" stroke-linecap="round" stroke-linejoin="round"/>
<path d="M240.755 371.412C241.464 371.312 241.971 370.709 242.072 370.006C242.173 369.203 241.565 368.399 240.653 368.299C239.843 368.199 239.032 368.801 238.931 369.705C238.829 370.207 239.032 370.709 239.437 371.011C238.424 373.32 236.195 375.028 233.661 375.329V368.801C235.485 368.6 237.005 367.596 237.917 366.09C238.627 366.09 239.336 365.487 239.437 364.784C239.539 363.981 239.032 363.177 238.12 362.976C237.309 362.876 236.499 363.378 236.296 364.282C236.195 364.684 236.397 365.186 236.6 365.487C235.891 366.491 234.776 367.194 233.56 367.395V360.968C234.067 360.667 234.472 360.164 234.472 359.562C234.472 358.658 233.763 358.055 232.952 358.055C232.04 358.055 231.432 358.758 231.432 359.562C231.432 360.164 231.837 360.667 232.344 360.968V367.395C231.128 367.194 230.013 366.491 229.304 365.487C229.608 365.186 229.709 364.784 229.608 364.282C229.507 363.479 228.696 362.876 227.784 362.976C226.973 363.077 226.365 363.88 226.467 364.784C226.568 365.587 227.277 366.09 227.987 366.09C228.899 367.596 230.52 368.6 232.243 368.801V375.329C229.608 375.028 227.379 373.421 226.467 371.011C226.771 370.709 226.973 370.207 226.973 369.705C226.872 368.902 226.163 368.199 225.251 368.299C224.44 368.399 223.731 369.102 223.832 370.006C223.933 370.709 224.44 371.211 225.149 371.412C226.365 374.325 229.101 376.434 232.243 376.634V383.363H233.661V376.634C236.803 376.333 239.539 374.325 240.755 371.412Z" fill="#0D4B76"/>
<path d="M210.861 295.992C211.165 295.088 211.165 293.682 211.267 293.18C211.469 291.573 211.773 289.966 212.28 288.359C213.395 285.347 215.725 283.037 219.069 282.535C223.933 281.731 226.365 284.443 230.723 285.949C232.851 286.652 236.195 287.456 238.424 286.853C239.944 286.451 241.261 285.547 242.579 284.744C246.936 282.033 250.787 281.43 254.435 285.547C255.853 287.154 256.36 289.263 256.259 291.372C256.157 292.477 255.955 293.582 255.752 294.586C255.549 295.49 254.941 297.097 256.157 297.498C257.272 297.9 258.995 295.992 259.704 295.389C262.237 293.28 264.365 290.669 266.088 287.857C268.621 283.74 270.243 278.317 268.013 273.697C266.189 269.78 260.616 267.671 256.765 269.68C256.056 270.082 255.549 270.684 255.549 271.488C255.549 272.592 256.867 273.496 257.981 273.195C261.528 272.392 262.947 263.554 262.339 260.742C261.629 257.629 259.4 254.013 256.461 252.507C253.928 251.302 249.672 250.599 246.936 251.503C245.517 251.905 242.275 254.114 242.68 255.922C243.288 259.135 245.821 255.62 245.923 253.913C246.429 249.293 240.653 244.674 236.6 243.67C232.445 242.665 226.669 245.176 223.629 247.988C221.704 249.796 221.704 252.306 220.893 254.616C220.488 255.62 220.285 256.625 220.691 257.629C221.096 258.633 222.515 259.035 223.224 258.231C223.731 257.629 223.528 256.725 223.123 256.022C220.488 251.302 214.915 250.197 210.253 252.507C207.315 253.913 204.984 257.528 204.376 260.642C203.768 263.353 202.957 266.768 203.869 269.479C204.275 270.684 206.2 273.095 207.72 272.994C210.76 272.793 209.24 269.78 207.112 269.278C206.2 269.077 205.288 268.776 204.376 268.977C202.451 269.278 199.411 272.09 198.701 273.697C196.675 278.116 197.384 282.735 199.816 286.753C201.032 288.761 202.653 290.569 204.275 292.176C205.085 292.979 205.997 293.782 206.909 294.586C207.517 295.088 208.733 296.594 209.544 296.795C210.253 297.096 210.659 296.695 210.861 295.992Z" fill="white"/>
<path d="M267.912 273.798C266.088 269.881 260.515 267.772 256.664 269.781C255.955 270.182 255.448 270.785 255.448 271.588C255.448 272.693 256.765 273.597 257.88 273.295C261.427 272.492 262.845 263.655 262.237 260.843C261.528 257.729 259.299 254.114 256.36 252.608C253.827 251.402 249.571 250.699 246.835 251.603C245.517 252.005 244.099 253.009 243.288 254.014C241.16 256.926 245.416 257.83 245.821 254.014C246.328 249.394 240.552 244.774 236.499 243.77C232.344 242.766 226.568 245.276 223.528 248.088C221.603 249.896 221.603 252.407 220.792 254.717C220.387 255.721 220.184 256.725 220.589 257.729C220.995 258.734 222.413 259.135 223.123 258.332C223.629 257.729 223.427 256.826 223.021 256.123C220.387 251.402 214.813 250.298 210.152 252.608C206.2 254.516 203.971 258.633 203.464 262.751C203.059 265.462 203.261 273.396 207.72 273.095C210.76 272.894 209.24 269.881 207.112 269.379C206.2 269.178 205.288 268.877 204.376 269.078C201.539 269.479 198.195 272.894 197.688 275.706" stroke="#6D6D6D" stroke-width="0.8889" stroke-miterlimit="10" stroke-linecap="round" stroke-linejoin="round"/>
<path d="M230.52 498.854H215.624L198.296 407.566C196.979 401.44 201.741 395.615 208.024 395.615H220.488C225.96 395.615 230.419 400.034 230.419 405.457L230.52 498.854Z" fill="#A9C753"/>
<path d="M235.283 499.657H250.179L267.507 408.369C268.824 402.243 264.061 396.418 257.779 396.418H245.213C239.741 396.418 235.283 400.837 235.283 406.26V499.657Z" fill="#A9C753"/>
<path d="M230.52 499.557H202.349C202.349 499.557 202.349 499.054 202.349 498.854C202.755 491.522 208.936 485.597 216.435 485.597C224.035 485.597 230.115 491.522 230.52 498.854C230.52 499.054 230.52 499.557 230.52 499.557Z" fill="#11283C"/>
<path d="M263.453 499.557H235.283C235.283 499.557 235.283 499.155 235.283 499.054C235.587 491.623 241.768 485.597 249.368 485.597C256.968 485.597 263.149 491.522 263.453 498.954C263.453 499.155 263.453 499.557 263.453 499.557Z" fill="#11283C"/>
<path d="M210.77 298.274C212.642 297.701 213.475 295.045 212.631 292.343C211.787 289.64 209.586 287.915 207.715 288.489C205.844 289.063 205.011 291.718 205.855 294.421C206.698 297.123 208.899 298.848 210.77 298.274Z" fill="#828282"/>
<path d="M260.812 294.433C261.656 291.731 260.823 289.075 258.951 288.501C257.08 287.927 254.879 289.653 254.036 292.355C253.192 295.057 254.025 297.713 255.896 298.287C257.767 298.86 259.968 297.135 260.812 294.433Z" fill="#828282"/>
<path d="M254.941 257.227C256.157 258.031 257.069 259.236 257.475 260.642C257.779 262.048 257.576 263.554 256.867 264.86" stroke="#6D6D6D" stroke-width="0.8889" stroke-miterlimit="10" stroke-linecap="round" stroke-linejoin="round"/>
<path d="M286.861 352.733C284.936 351.929 282.301 351.729 280.275 352.13C282.2 353.235 283.112 354.842 284.531 356.649" stroke="white" stroke-width="1.0138" stroke-miterlimit="10" stroke-linecap="round" stroke-linejoin="round"/>
<path d="M255.549 295.891C256.157 295.59 256.664 294.887 256.664 294.184C256.765 293.481 256.36 292.778 255.853 292.276C255.752 292.376 255.651 292.678 255.448 292.678C255.651 292.075 256.157 291.573 256.765 291.171C257.475 290.669 258.488 290.268 259.197 290.77" stroke="#6D6D6D" stroke-width="0.3333" stroke-miterlimit="10" stroke-linecap="round" stroke-linejoin="round"/>
<path d="M210.253 295.891C209.645 295.59 209.139 294.887 209.139 294.184C209.037 293.481 209.443 292.778 209.949 292.276C210.051 292.376 210.152 292.678 210.355 292.678C210.152 292.075 209.645 291.573 209.037 291.171C208.328 290.669 207.315 290.268 206.605 290.77" stroke="#6D6D6D" stroke-width="0.3333" stroke-miterlimit="10" stroke-linecap="round" stroke-linejoin="round"/>
<path d="M57.7467 500.36V462.298" stroke="white" stroke-width="1.5013" stroke-linecap="round" stroke-linejoin="round"/>
<path d="M60.0773 462.399C60.0773 461.194 59.064 460.089 57.7467 460.089C56.4293 460.089 55.416 461.093 55.416 462.399C55.416 463.604 56.4293 464.709 57.7467 464.709C59.064 464.709 60.0773 463.604 60.0773 462.399Z" fill="white"/>
<path d="M66.1573 500.36V474.751" stroke="white" stroke-width="1.5013" stroke-linecap="round" stroke-linejoin="round"/>
<path d="M68.4627 474.932C68.5055 473.657 67.4974 472.589 66.211 472.546C64.9245 472.504 63.847 473.503 63.8042 474.778C63.7613 476.053 64.7694 477.121 66.0558 477.163C67.3423 477.206 68.4198 476.206 68.4627 474.932Z" fill="white"/>
<path d="M49.336 500.36V474.751" stroke="white" stroke-width="1.5013" stroke-linecap="round" stroke-linejoin="round"/>
<path d="M49.336 477.161C50.6232 477.161 51.6667 476.127 51.6667 474.852C51.6667 473.576 50.6232 472.542 49.336 472.542C48.0488 472.542 47.0053 473.576 47.0053 474.852C47.0053 476.127 48.0488 477.161 49.336 477.161Z" fill="white"/>
<path d="M80.5467 487.204L86.8293 474.048C89.768 467.822 98.6853 467.822 101.624 474.048L113.885 499.456" stroke="#A9C753" stroke-width="1.5013" stroke-miterlimit="10" stroke-linecap="round" stroke-linejoin="round"/>
<path d="M85.6133 496.945C87.5386 492.728 89.464 488.51 91.4906 484.392C92.3013 482.785 93.0106 481.078 94.2266 479.672C96.0506 477.764 98.584 477.161 101.016 478.065C101.725 478.367 102.435 478.668 103.043 479.07C103.549 479.371 104.056 479.672 104.563 479.873" stroke="#A9C753" stroke-width="1.5013" stroke-miterlimit="10" stroke-linecap="round" stroke-linejoin="round"/>
<path d="M68.488 500.36L74.264 488.208C75.6827 485.296 79.736 485.296 81.1547 488.208L87.032 500.46" stroke="#A9C753" stroke-width="1.5013" stroke-miterlimit="10" stroke-linecap="round" stroke-linejoin="round"/>
<path d="M111.555 494.535C110.237 492.025 108.312 488.911 105.069 489.012C103.245 489.012 101.624 489.916 100.307 491.121C97.672 493.631 96.6587 496.745 95.24 499.858" stroke="#A9C753" stroke-width="1.5013" stroke-miterlimit="10" stroke-linecap="round" stroke-linejoin="round"/>
<path d="M36.7707 500.36H139.928" stroke="white" stroke-width="1.5013" stroke-miterlimit="10" stroke-linecap="round" stroke-linejoin="round"/>
<path d="M819.469 481.179L828.589 462.298C832.845 453.36 845.613 453.36 849.869 462.298L867.501 498.854" stroke="#A9C753" stroke-width="1.5" stroke-miterlimit="10" stroke-linecap="round" stroke-linejoin="round"/>
<path d="M823.016 487.706C825.245 482.685 827.677 477.664 830.109 472.743C832.035 468.927 833.96 464.508 837.608 461.897C839.432 460.692 841.56 459.989 843.789 460.29C845.512 460.491 848.451 461.395 849.667 462.7" stroke="#A9C753" stroke-width="1.5" stroke-miterlimit="10" stroke-linecap="round" stroke-linejoin="round"/>
<path d="M826.765 495.138C829.603 489.112 832.339 483.087 835.176 477.061C836.291 474.651 837.405 472.241 839.128 470.332C841.661 467.52 845.411 466.818 848.957 468.023C849.971 468.424 850.984 468.926 851.896 469.429C852.605 469.83 853.315 470.232 854.024 470.634" stroke="#A9C753" stroke-width="1.5" stroke-miterlimit="10" stroke-linecap="round" stroke-linejoin="round"/>
<path d="M802.243 500.059L810.552 482.685C812.579 478.567 818.456 478.567 820.483 482.685L828.995 500.36" stroke="white" stroke-width="1.5" stroke-miterlimit="10" stroke-linecap="round" stroke-linejoin="round"/>
<path d="M806.904 491.02C808.931 490.117 809.944 491.422 810.755 493.129C811.768 495.339 812.376 497.749 812.781 500.26" stroke="white" stroke-width="1.5" stroke-miterlimit="10" stroke-linecap="round" stroke-linejoin="round"/>
<path d="M808.829 486.099C810.653 486.2 812.579 486.702 813.997 487.807C815.416 489.012 816.227 490.619 817.037 492.326C818.456 495.339 819.571 497.448 819.875 500.059" stroke="white" stroke-width="1.5" stroke-miterlimit="10" stroke-linecap="round" stroke-linejoin="round"/>
<path d="M864.157 491.723C862.232 488.208 859.395 483.689 854.835 483.79C852.301 483.79 849.869 485.095 848.045 486.802C844.296 490.317 842.776 494.837 840.749 499.456" stroke="#A9C753" stroke-width="1.5" stroke-miterlimit="10" stroke-linecap="round" stroke-linejoin="round"/>
<path d="M756.339 387.882C755.933 385.773 755.731 383.564 755.731 381.354V320.797C755.731 297.8 774.781 278.919 797.987 278.919C821.192 278.919 840.243 297.8 840.243 320.797V381.354C840.243 399.733 825.144 414.696 806.6 414.696H789.373" fill="#11283C"/>
<path d="M756.339 387.882C755.933 385.773 755.731 383.564 755.731 381.354V320.797C755.731 297.8 774.781 278.919 797.987 278.919C821.192 278.919 840.243 297.8 840.243 320.797V381.354C840.243 399.733 825.144 414.696 806.6 414.696H789.373" stroke="#C7C7C7" stroke-width="1.7621" stroke-miterlimit="10"/>
<path d="M818.355 332.648C817.341 342.891 808.627 351.026 797.987 351.026C787.347 351.026 778.531 342.891 777.619 332.648" stroke="white" stroke-width="1.7621" stroke-linecap="round" stroke-linejoin="round"/>
<path d="M816.328 332.648C816.429 331.543 817.341 330.739 818.456 330.739C819.571 330.84 820.381 331.744 820.381 332.848C820.28 333.953 819.368 334.756 818.253 334.756C817.139 334.656 816.227 333.752 816.328 332.648Z" fill="white"/>
<path d="M779.544 332.648C779.443 331.543 778.531 330.739 777.416 330.739C776.301 330.84 775.491 331.744 775.491 332.848C775.592 333.953 776.504 334.756 777.619 334.756C778.835 334.656 779.645 333.752 779.544 332.648Z" fill="white"/>
<path d="M828.285 357.754C827.272 373.521 813.997 386.075 797.885 386.075C781.773 386.075 768.499 373.521 767.485 357.754" stroke="white" stroke-width="1.7621" stroke-linecap="round" stroke-linejoin="round"/>
<path d="M826.259 357.754C826.36 356.65 827.272 355.846 828.387 355.846C829.501 355.946 830.312 356.85 830.312 357.955C830.211 359.06 829.299 359.863 828.184 359.863C827.069 359.763 826.259 358.859 826.259 357.754Z" fill="white"/>
<path d="M769.613 357.754C769.512 356.65 768.6 355.846 767.485 355.846C766.371 355.946 765.56 356.85 765.56 357.955C765.661 359.06 766.573 359.863 767.688 359.863C768.803 359.763 769.715 358.859 769.613 357.754Z" fill="white"/>
<path d="M797.987 313.868V498.954" stroke="white" stroke-width="1.7621" stroke-linecap="round" stroke-linejoin="round"/>
<path d="M797.987 315.977C799.106 315.977 800.013 315.077 800.013 313.968C800.013 312.859 799.106 311.96 797.987 311.96C796.867 311.96 795.96 312.859 795.96 313.968C795.96 315.077 796.867 315.977 797.987 315.977Z" fill="white"/>
<path d="M775.693 443.418C773.768 443.418 772.147 441.811 772.147 439.903C772.147 437.995 773.768 436.388 775.693 436.388H793.629C793.933 434.781 794.035 433.175 794.035 431.467C794.035 430.162 793.832 428.756 793.528 427.149H775.693C773.768 427.149 772.147 425.542 772.147 423.634C772.147 421.726 773.768 420.119 775.693 420.119H791.501C790.488 417.207 789.171 414.094 787.651 410.88H775.693C773.768 410.88 772.147 409.273 772.147 407.365C772.147 405.457 773.768 403.85 775.693 403.85H784.408C782.888 400.737 781.267 397.624 779.645 394.611H775.795C773.869 394.611 772.248 393.004 772.248 391.096C772.248 389.188 773.869 387.581 775.795 387.581H775.896C770.627 378.141 766.168 371.111 766.168 371.111C766.168 371.111 761.811 378.141 756.44 387.581H756.541C758.467 387.581 760.088 389.188 760.088 391.096C760.088 393.004 758.467 394.611 756.541 394.611H752.691C751.069 397.624 749.448 400.737 747.928 403.85H756.643C758.568 403.85 760.189 405.457 760.189 407.365C760.189 409.273 758.568 410.88 756.643 410.88H744.685C743.267 414.094 741.949 417.207 740.835 420.119H756.643C758.568 420.119 760.189 421.726 760.189 423.634C760.189 425.542 758.568 427.149 756.643 427.149H738.808C738.504 428.756 738.301 430.262 738.301 431.467C738.301 433.175 738.504 434.781 738.707 436.388H756.643C758.568 436.388 760.189 437.995 760.189 439.903C760.189 441.811 758.568 443.418 756.643 443.418H740.733C745.192 452.858 754.92 459.386 766.067 459.386C777.213 459.386 786.941 452.858 791.4 443.418H775.693Z" stroke="#A9C753" stroke-width="1.5" stroke-miterlimit="10" stroke-linecap="round" stroke-linejoin="round"/>
<path d="M765.763 398.628V500.059" stroke="white" stroke-width="1.7621" stroke-miterlimit="10" stroke-linecap="round" stroke-linejoin="round"/>
<path d="M724.317 500.36H878.141" stroke="white" stroke-width="1.5" stroke-miterlimit="10" stroke-linecap="round" stroke-linejoin="round"/>
<path d="M385.56 157.001C385.56 171.764 397.619 183.715 412.515 183.715C427.411 183.715 439.469 171.764 439.469 157.001C439.469 147.059 427.208 125.066 419.203 111.809C416.163 106.788 408.867 106.788 405.827 111.809C397.821 125.066 385.56 146.959 385.56 157.001Z" stroke="#8E8E8E" stroke-width="1.2777" stroke-miterlimit="10" stroke-linecap="round" stroke-linejoin="round"/>
<path d="M401.976 141.234C402.888 146.155 407.245 149.871 412.413 149.871C417.581 149.871 422.04 146.055 422.851 141.134" stroke="#A8C653" stroke-width="1.306" stroke-linecap="round" stroke-linejoin="round"/>
<path d="M400.051 141.536C399.949 140.431 400.76 139.527 401.875 139.427C402.989 139.326 403.901 140.13 404.003 141.234C404.104 142.339 403.293 143.243 402.179 143.343C401.165 143.444 400.152 142.64 400.051 141.536Z" fill="#A8C653"/>
<path d="M424.877 141.536C424.979 140.431 424.168 139.527 423.053 139.427C421.939 139.326 421.027 140.13 420.925 141.234C420.824 142.339 421.635 143.243 422.749 143.343C423.864 143.444 424.776 142.64 424.877 141.536Z" fill="#A8C653"/>
<path d="M396.808 155.696C397.72 163.429 404.408 169.555 412.515 169.555C420.621 169.555 427.309 163.529 428.221 155.696" stroke="#A8C653" stroke-width="1.306" stroke-linecap="round" stroke-linejoin="round"/>
<path d="M394.781 155.897C394.68 154.792 395.491 153.888 396.605 153.788C397.72 153.687 398.632 154.491 398.733 155.595C398.835 156.7 398.024 157.604 396.909 157.704C395.795 157.805 394.883 157.001 394.781 155.897Z" fill="#A8C653"/>
<path d="M430.147 155.897C430.248 154.792 429.437 153.888 428.323 153.788C427.208 153.687 426.296 154.491 426.195 155.595C426.093 156.7 426.904 157.604 428.019 157.704C429.133 157.805 430.045 157.001 430.147 155.897Z" fill="#A8C653"/>
<path d="M412.515 129.585V232.321" stroke="#A8C653" stroke-width="1.306" stroke-linecap="round" stroke-linejoin="round"/>
<path d="M410.488 129.685C410.488 128.581 411.4 127.677 412.515 127.677C413.629 127.677 414.541 128.581 414.541 129.685C414.541 130.79 413.629 131.694 412.515 131.694C411.4 131.593 410.488 130.69 410.488 129.685Z" fill="#A8C653"/>
</svg>
