<svg width="318" height="583" viewBox="0 0 318 583" fill="none" xmlns="http://www.w3.org/2000/svg">
<path opacity="0.6" d="M118.372 -160.849C203.916 -118.296 259.111 -39.894 271.804 53.154C281.821 126.549 259.683 199.697 220.576 262.642C190.735 310.739 163.649 331.601 132.811 340.349C111.714 346.361 88.4595 351.88 71.2759 365.89C48.7494 384.259 48.7039 417.238 41.8078 443.007C37.1745 460.438 31.1522 477.844 20.6353 492.632C3.75191 516.54 -24.313 531.891 -53.8337 535.588C-83.3544 539.285 -171.599 531.959 -223.301 482.836M146.112 -182.016C239.847 -135.417 300.209 -49.5407 314.135 52.45C325.105 132.745 300.9 212.947 258.07 281.82C225.338 334.478 195.667 357.28 161.977 366.868C138.853 373.52 113.4 379.574 94.5451 394.792C69.813 414.862 69.8168 451.032 62.2715 479.215C57.182 498.358 50.5326 517.372 39.0468 533.561C20.5894 559.672 -10.1603 576.55 -42.444 580.556C-74.7277 584.562 -171.44 576.533 -228.053 522.784M41.4126 -63.5768C149.177 -0.0170517 174.385 54.1759 179.392 105.211C184.642 158.734 165.728 211.957 128.535 250.782C109.065 271.244 85.0599 287.426 58.7354 298.568C23.9853 313.364 6.46367 315.23 3.30533 358.138C2.10718 374.732 2.89608 391.716 -1.5742 407.724C-9.2349 435.135 -31.7791 456.419 -55.9412 470.164C-79.0191 483.281 -139.479 503.976 -210.998 453.567" stroke="#ACCA53" stroke-width="2" stroke-miterlimit="10" stroke-linecap="round" stroke-linejoin="round"/>
</svg>
