<svg width="191" height="52" viewBox="0 0 191 52" fill="none" xmlns="http://www.w3.org/2000/svg">
<path d="M55.8544 16.982H60.4768V35.702H55.8544V16.982ZM62.32 28.6604C62.32 24.0236 65.2 21.2444 69.52 21.2444C73.84 21.2444 76.72 24.0236 76.72 28.6604C76.72 33.2972 73.9408 36.1052 69.52 36.1052C65.0992 36.1052 62.32 33.398 62.32 28.6604ZM72.1408 28.6604C72.1408 26.1116 71.1472 24.614 69.5632 24.614C67.9792 24.614 67 26.054 67 28.6604C67 31.2668 67.9792 32.6924 69.5632 32.6924C71.1472 32.6924 72.1696 31.2668 72.1696 28.6748L72.1408 28.6604ZM78.5632 36.6668H83.0272C83.2304 37.1474 83.5853 37.5484 84.0378 37.8083C84.4902 38.0684 85.0153 38.1732 85.5328 38.1068C87.304 38.1068 88.2256 37.1564 88.2256 35.7452V33.1532H88.24C87.8585 33.9603 87.2417 34.633 86.4707 35.0828C85.6996 35.5327 84.8104 35.7385 83.92 35.6732C80.536 35.6732 78.2896 33.0956 78.2896 28.6604C78.2896 24.2252 80.4352 21.4604 84.0496 21.4604C84.9627 21.4116 85.8686 21.647 86.6422 22.1345C87.4159 22.6219 88.0194 23.3373 88.3696 24.182H88.24V21.5756H92.8192V35.6012C92.8192 38.9852 89.824 41.102 85.4176 41.102C81.4144 41.0876 78.8512 39.2588 78.592 36.6812L78.5632 36.6668ZM88.24 28.6604C88.24 26.3996 87.2032 24.974 85.5616 24.974C83.92 24.974 82.912 26.414 82.912 28.6604C82.912 30.9068 83.9056 32.2316 85.5616 32.2316C87.2176 32.2316 88.24 31.0076 88.24 28.6604ZM94.648 28.6604C94.648 24.0236 97.528 21.2444 101.848 21.2444C106.168 21.2444 109.048 24.0236 109.048 28.6604C109.048 33.2972 106.254 36.1052 101.848 36.1052C97.4416 36.1052 94.6768 33.398 94.6768 28.6604H94.648ZM104.469 28.6604C104.469 26.1116 103.461 24.614 101.891 24.614C100.322 24.614 99.328 26.054 99.328 28.6604C99.328 31.2668 100.307 32.6924 101.891 32.6924C103.475 32.6924 104.498 31.2668 104.498 28.6748L104.469 28.6604ZM110.92 18.1628C110.9 17.6919 111.021 17.2258 111.268 16.8245C111.515 16.423 111.876 16.1048 112.306 15.9105C112.735 15.7161 113.213 15.6548 113.677 15.7343C114.142 15.8136 114.572 16.0302 114.913 16.3561C115.253 16.6821 115.488 17.1023 115.588 17.5629C115.687 18.0236 115.647 18.5035 115.471 18.9409C115.296 19.3783 114.994 19.7533 114.604 20.0175C114.213 20.2818 113.753 20.4232 113.282 20.4236C112.98 20.4313 112.681 20.379 112.4 20.27C112.119 20.1608 111.863 19.997 111.646 19.788C111.429 19.5791 111.255 19.3291 111.136 19.0525C111.016 18.776 110.953 18.4785 110.949 18.1772L110.92 18.1628ZM110.92 21.5612H115.6V35.7596H110.992L110.92 21.5612ZM132.434 28.6604C132.434 33.2828 130.36 35.9612 126.832 35.9612C125.929 36.017 125.03 35.794 124.258 35.3229C123.485 34.8516 122.876 34.1546 122.512 33.326H122.426V40.3244H117.803V21.6044H122.397V24.1388H122.483C122.835 23.294 123.438 22.5779 124.211 22.0883C124.984 21.5987 125.889 21.3593 126.803 21.4028C130.432 21.374 132.52 24.038 132.52 28.6748L132.434 28.6604ZM127.725 28.6604C127.725 26.414 126.674 24.9596 125.046 24.9596C123.419 24.9596 122.397 26.3996 122.382 28.6604C122.368 30.9212 123.419 32.3468 125.046 32.3468C126.674 32.3468 127.811 31.0076 127.811 28.6748L127.725 28.6604ZM140.325 21.23C144.198 21.23 146.603 23.0588 146.632 25.9964H142.413C142.413 24.974 141.563 24.3404 140.296 24.3404C139.029 24.3404 138.424 24.83 138.424 25.5644C138.424 26.2988 138.957 26.5292 140.022 26.7452L142.989 27.35C145.869 27.9548 147.021 29.1068 147.021 31.2524C147.021 34.1324 144.357 36.0908 140.397 36.0908C136.437 36.0908 133.859 34.19 133.672 31.2956H138.15C138.28 32.3468 139.115 32.966 140.469 32.966C141.822 32.966 142.456 32.534 142.456 31.7708C142.456 31.0076 142.024 30.878 140.915 30.6476L138.237 30.086C135.458 29.4956 134.003 28.0412 134.003 25.8668C134.09 23.0444 136.509 21.2444 140.411 21.2444L140.325 21.23ZM162.501 35.7452H158.022V33.0812H157.936C157.685 33.9698 157.14 34.7464 156.388 35.283C155.636 35.8197 154.725 36.0842 153.803 36.0332C153.108 36.0558 152.414 35.9311 151.77 35.667C151.126 35.4031 150.544 35.0058 150.065 34.5014C149.584 33.9968 149.217 33.3964 148.985 32.7398C148.753 32.0832 148.662 31.3848 148.72 30.6908V21.5756H153.342V29.6972C153.342 31.3676 154.221 32.2748 155.661 32.2748C155.999 32.2722 156.332 32.1972 156.639 32.0549C156.945 31.9125 157.217 31.706 157.436 31.4494C157.657 31.1928 157.819 30.892 157.913 30.5674C158.005 30.2427 158.028 29.9018 157.979 29.5676V21.5756H162.587L162.501 35.7452ZM164.733 21.5612H169.226V24.2972H169.326C169.574 23.4207 170.107 22.6513 170.838 22.1093C171.571 21.5674 172.463 21.2834 173.373 21.302C174.287 21.2225 175.199 21.4869 175.927 22.0435C176.657 22.6 177.153 23.4089 177.318 24.3116H177.52C177.808 23.404 178.387 22.6169 179.169 22.0727C179.949 21.5284 180.89 21.2575 181.84 21.302C182.472 21.278 183.103 21.3877 183.689 21.624C184.276 21.8602 184.806 22.2177 185.246 22.6732C185.685 23.1285 186.022 23.6715 186.236 24.2666C186.452 24.8616 186.539 25.4952 186.491 26.126V35.7596H181.84V27.3068C181.84 25.8668 181.163 25.0604 179.853 25.0604C179.562 25.0557 179.274 25.1138 179.008 25.2308C178.741 25.3478 178.505 25.5211 178.312 25.7385C178.119 25.9561 177.975 26.2126 177.89 26.4908C177.807 26.769 177.784 27.062 177.822 27.35V35.7596H173.416V27.2636C173.416 25.8236 172.71 25.0604 171.443 25.0604C171.149 25.0581 170.859 25.1186 170.591 25.2378C170.321 25.3572 170.082 25.5325 169.887 25.7521C169.692 25.9717 169.547 26.2304 169.46 26.5109C169.372 26.7916 169.347 27.0875 169.384 27.3788V35.7596H164.762L164.733 21.5612Z" fill="#91A7BC"/>
<path d="M46.7104 18.2058C46.7106 15.3398 45.8451 12.5405 44.2274 10.1747C42.6097 7.80882 40.3151 5.98672 37.6443 4.94704C34.9735 3.90734 32.0509 3.69854 29.2595 4.34797C26.4679 4.99739 23.9377 6.47478 22 8.58659H4.02884V46.5162H41.9728V28.7898C43.4621 27.4578 44.6538 25.8267 45.4701 24.0029C46.2865 22.1792 46.7091 20.2039 46.7104 18.2058ZM39.4096 18.2058C39.4125 19.5791 39.0079 20.9225 38.247 22.0659C37.4859 23.2091 36.403 24.101 35.135 24.6285C33.8669 25.1561 32.471 25.2956 31.1236 25.0294C29.7763 24.7633 28.5382 24.1033 27.566 23.1332C26.5939 22.1631 25.9315 20.9264 25.6625 19.5796C25.3935 18.2329 25.5302 16.8365 26.0551 15.5674C26.5799 14.2983 27.4696 13.2134 28.6112 12.4501C29.753 11.6868 31.0955 11.2794 32.4688 11.2794C34.3071 11.2794 36.0704 12.0087 37.3716 13.3072C38.6729 14.6058 39.4059 16.3675 39.4096 18.2058ZM34.672 39.2154H11.3296V15.8874H18.4432C18.3058 16.6528 18.2335 17.4283 18.2272 18.2058C18.2311 21.9818 19.7327 25.6019 22.4028 28.272C25.0727 30.9419 28.6928 32.4436 32.4688 32.4474C33.2071 32.4435 33.9438 32.3809 34.672 32.2602V39.2154Z" fill="#91A7BC"/>
</svg>
