<svg width="194" height="50" viewBox="0 0 194 50" fill="none" xmlns="http://www.w3.org/2000/svg">
<path d="M22.728 10.0635V3.94348H3.43199V45.9915H22.728V39.8715C18.7752 39.8715 14.9842 38.3012 12.1893 35.5061C9.39423 32.7111 7.82399 28.9203 7.82399 24.9675C7.82399 21.0147 9.39423 17.2238 12.1893 14.4288C14.9842 11.6337 18.7752 10.0635 22.728 10.0635Z" fill="#91A7BC"/>
<path d="M22.728 10.0636V39.8716C26.6808 39.8716 30.4717 38.3013 33.2668 35.5063C36.0618 32.7112 37.632 28.9204 37.632 24.9676C37.632 21.0148 36.0618 17.2239 33.2668 14.4289C30.4717 11.6338 26.6808 10.0636 22.728 10.0636Z" fill="#91A7BC"/>
<path d="M48.4608 13.8077H52.7808V34.6157H48.4608V13.8077Z" fill="#91A7BC"/>
<path d="M55.2 27.4877C55.2 25.9907 55.6445 24.5273 56.4771 23.2832C57.3097 22.039 58.493 21.07 59.877 20.4991C61.2609 19.9283 62.7832 19.7811 64.2508 20.0763C65.7185 20.3715 67.0654 21.0958 68.121 22.1574C69.1765 23.2191 69.8932 24.5701 70.18 26.0395C70.4667 27.5089 70.3109 29.0302 69.732 30.4109C69.1532 31.7914 68.1776 32.9692 66.9286 33.7946C65.6797 34.6202 64.2138 35.0562 62.7168 35.0477C61.7239 35.0555 60.7394 34.865 59.8211 34.4871C58.9028 34.1094 58.069 33.5521 57.3689 32.8481C56.6688 32.1439 56.1164 31.307 55.7439 30.3866C55.3715 29.4661 55.1866 28.4806 55.2 27.4877ZM66.0288 27.4877C66.0118 26.8423 65.8049 26.2162 65.4339 25.6878C65.063 25.1594 64.5446 24.752 63.9432 24.5167C63.342 24.2814 62.6848 24.2285 62.0538 24.3649C61.4227 24.5011 60.8458 24.8204 60.3952 25.2829C59.9446 25.7453 59.6404 26.3302 59.5206 26.9647C59.4008 27.5992 59.4706 28.2548 59.7214 28.8496C59.9723 29.4445 60.3929 29.9524 60.9309 30.3094C61.4687 30.6665 62.0999 30.857 62.7456 30.8573C63.1852 30.8659 63.6218 30.7837 64.0282 30.6158C64.4346 30.448 64.8019 30.1982 65.1073 29.882C65.4128 29.5658 65.6496 29.1898 65.8033 28.7779C65.9569 28.366 66.0239 27.9268 66 27.4877H66.0288Z" fill="#91A7BC"/>
<path d="M87.3264 20.3599V33.9103C87.3264 38.6911 83.5824 40.7215 79.7952 40.7215C78.4593 40.8311 77.1194 40.5657 75.9263 39.9552C74.7332 39.3446 73.7341 38.4131 73.0416 37.2655L76.6848 35.1631C76.98 35.7584 77.4496 36.2495 78.0311 36.571C78.6125 36.8926 79.2781 37.0294 79.9392 36.9631C80.3604 37.015 80.7878 36.9732 81.1908 36.8407C81.594 36.7081 81.9628 36.4882 82.271 36.1965C82.5793 35.9047 82.8192 35.5486 82.9737 35.1534C83.1282 34.7582 83.1934 34.3337 83.1648 33.9103V32.5999C82.6621 33.2095 82.0242 33.6933 81.3019 34.0133C80.5794 34.3333 79.7925 34.4804 79.0032 34.4431C77.0936 34.4431 75.2624 33.6846 73.9121 32.3343C72.5618 30.9841 71.8032 29.1527 71.8032 27.2431C71.8032 25.3336 72.5618 23.5023 73.9121 22.152C75.2624 20.8017 77.0936 20.0431 79.0032 20.0431C79.7925 20.0058 80.5794 20.153 81.3019 20.473C82.0242 20.793 82.6621 21.2768 83.1648 21.8863V20.4463L87.3264 20.3599ZM83.1648 27.1999C83.1934 26.511 83.0155 25.8292 82.6536 25.2423C82.2917 24.6553 81.7627 24.1901 81.1341 23.9062C80.5057 23.6224 79.8069 23.5331 79.1272 23.6498C78.4476 23.7664 77.8184 24.0836 77.3206 24.5607C76.8227 25.0378 76.479 25.653 76.3336 26.327C76.1881 27.0011 76.2476 27.7031 76.5044 28.343C76.7613 28.983 77.2036 29.5314 77.7746 29.9179C78.3457 30.3044 79.0193 30.5114 79.7088 30.5119C80.1588 30.5443 80.6105 30.482 81.0347 30.3291C81.4591 30.176 81.8468 29.9357 82.1723 29.6235C82.4981 29.3114 82.7547 28.9344 82.9256 28.517C83.0965 28.0995 83.178 27.6508 83.1648 27.1999Z" fill="#91A7BC"/>
<path d="M89.76 27.4879C89.76 25.992 90.2038 24.5298 91.0351 23.2863C91.8664 22.0427 93.0479 21.0737 94.4302 20.502C95.8124 19.9302 97.3332 19.7813 98.8002 20.0742C100.267 20.3671 101.614 21.0885 102.671 22.1472C103.728 23.206 104.446 24.5545 104.736 26.0218C105.027 27.4893 104.875 29.0098 104.3 30.3909C103.726 31.7722 102.755 32.9518 101.51 33.7808C100.264 34.6098 98.8014 35.0508 97.3056 35.0479C96.3108 35.0575 95.324 34.8685 94.4033 34.4918C93.4825 34.1151 92.6462 33.5583 91.9434 32.8542C91.2406 32.15 90.6855 31.3127 90.3105 30.3912C89.9357 29.4698 89.7485 28.4826 89.76 27.4879ZM100.589 27.4879C100.572 26.8419 100.364 26.2152 99.9929 25.6864C99.6214 25.1578 99.102 24.7504 98.4999 24.5156C97.8978 24.2807 97.2399 24.2287 96.6085 24.3663C95.977 24.5036 95.4002 24.8245 94.9502 25.2883C94.5002 25.7521 94.197 26.3385 94.079 26.9738C93.9607 27.6091 94.0326 28.2652 94.2856 28.8598C94.5386 29.4545 94.9615 29.9612 95.5014 30.3166C96.0411 30.6719 96.6737 30.8601 97.32 30.8575C97.7596 30.8661 98.1962 30.7839 98.6026 30.616C99.009 30.4482 99.3763 30.1984 99.6817 29.8822C99.9871 29.5659 100.224 29.19 100.378 28.7781C100.531 28.3661 100.598 27.9269 100.574 27.4879H100.589Z" fill="#91A7BC"/>
<path d="M106.853 16.5438C106.853 16.0369 107.003 15.5413 107.285 15.1198C107.566 14.6982 107.967 14.3697 108.435 14.1757C108.903 13.9817 109.419 13.9309 109.916 14.0298C110.413 14.1287 110.87 14.3729 111.229 14.7313C111.587 15.0898 111.831 15.5466 111.93 16.0437C112.029 16.5409 111.978 17.0563 111.784 17.5247C111.59 17.993 111.261 18.3933 110.84 18.675C110.419 18.9567 109.923 19.107 109.416 19.107C108.738 19.0995 108.091 18.8271 107.612 18.348C107.133 17.8689 106.86 17.2213 106.853 16.5438ZM107.27 20.3598H111.59V34.6158H107.27V20.3598Z" fill="#91A7BC"/>
<path d="M130.08 27.4879C130.128 28.436 129.989 29.3844 129.669 30.2784C129.35 31.1723 128.857 31.9943 128.218 32.6968C127.58 33.3996 126.809 33.9689 125.949 34.3724C125.09 34.7759 124.16 35.0055 123.211 35.0479C122.406 35.1015 121.6 34.9726 120.852 34.6709C120.104 34.3691 119.434 33.9024 118.891 33.3055V40.3471H114.571V20.3599H118.891V21.6991C119.434 21.104 120.105 20.6394 120.853 20.3402C121.601 20.0408 122.407 19.9147 123.211 19.9711C124.156 20.0136 125.083 20.2419 125.939 20.6426C126.795 21.0434 127.565 21.609 128.202 22.307C128.84 23.0049 129.334 23.8217 129.656 24.7107C129.979 25.5997 130.123 26.5433 130.08 27.4879ZM125.76 27.4879C125.743 26.8191 125.529 26.1702 125.145 25.6226C124.76 25.0749 124.223 24.6527 123.6 24.4092C122.977 24.1656 122.296 24.1114 121.642 24.2533C120.988 24.3951 120.391 24.7269 119.925 25.2068C119.459 25.6868 119.144 26.2936 119.022 26.9514C118.899 27.609 118.973 28.2883 119.235 28.904C119.497 29.5196 119.935 30.0444 120.493 30.4124C121.052 30.7805 121.707 30.9753 122.376 30.9727C122.834 30.9922 123.291 30.9146 123.717 30.7449C124.144 30.5753 124.529 30.3175 124.849 29.9885C125.168 29.6595 125.415 29.2665 125.572 28.8356C125.729 28.4046 125.793 27.9454 125.76 27.4879Z" fill="#91A7BC"/>
<path d="M143.227 30.3391C143.227 33.6223 140.347 35.0191 137.294 35.0191C136.049 35.1311 134.799 34.8672 133.706 34.2614C132.612 33.6556 131.725 32.7357 131.16 31.6207L134.875 29.5183C135.022 30.0321 135.341 30.4798 135.779 30.7865C136.217 31.0932 136.747 31.2403 137.28 31.2031C138.302 31.2031 138.821 30.8863 138.821 30.3103C138.821 28.7407 131.808 29.5759 131.808 24.6367C131.808 21.5263 134.429 19.9711 137.395 19.9711C138.523 19.9206 139.643 20.1765 140.637 20.7114C141.631 21.2464 142.461 22.0405 143.04 23.0095L139.325 24.9679C139.161 24.5964 138.892 24.2805 138.553 24.0581C138.213 23.8358 137.816 23.7167 137.41 23.7151C136.661 23.7151 136.214 24.0031 136.214 24.5071C136.214 26.1487 143.227 25.0687 143.227 30.3391Z" fill="#91A7BC"/>
<path d="M158.88 20.3597V34.6157H154.56V33.2765C154.069 33.8694 153.445 34.3384 152.741 34.6461C152.036 34.9539 151.268 35.0914 150.499 35.0477C147.619 35.0477 145.157 32.9885 145.157 29.1437V20.3597H149.477V28.4957C149.442 28.8359 149.483 29.1793 149.595 29.5024C149.707 29.8254 149.887 30.1203 150.123 30.3669C150.361 30.6133 150.649 30.8054 150.967 30.9299C151.285 31.0543 151.627 31.1082 151.968 31.0877C153.523 31.0877 154.618 30.1661 154.618 28.2077V20.3597H158.88Z" fill="#91A7BC"/>
<path d="M183.36 25.8606V34.6158H179.04V26.235C179.04 24.795 178.363 23.9022 176.995 23.9022C175.627 23.9022 174.763 24.8958 174.763 26.5806V34.6158H170.443V26.235C170.443 24.795 169.766 23.9022 168.398 23.9022C167.03 23.9022 166.166 24.8958 166.166 26.5806V34.6158H161.846V20.3598H166.166V21.6702C166.614 21.0913 167.197 20.6328 167.867 20.3361C168.535 20.0395 169.268 19.9139 169.997 19.971C170.727 19.9328 171.455 20.0854 172.109 20.4136C172.763 20.7418 173.32 21.2344 173.726 21.843C174.202 21.2071 174.829 20.7019 175.552 20.3746C176.274 20.0471 177.069 19.9083 177.859 19.971C181.229 19.971 183.36 22.3038 183.36 25.8606Z" fill="#91A7BC"/>
<path d="M186.989 20.2735C188.738 20.2735 190.157 18.8551 190.157 17.1055C190.157 15.3559 188.738 13.9375 186.989 13.9375C185.239 13.9375 183.821 15.3559 183.821 17.1055C183.821 18.8551 185.239 20.2735 186.989 20.2735Z" fill="#91A7BC"/>
</svg>
