<svg width="212" height="92" viewBox="0 0 212 92" fill="none" xmlns="http://www.w3.org/2000/svg">
<path d="M120.334 37.7121C118.785 36.8067 117.652 35.5391 116.818 33.9094C115.983 32.2796 115.566 30.3481 115.566 28.1751C115.566 26.0021 115.983 24.0705 116.818 22.5012C117.652 20.9318 118.785 19.6038 120.334 18.7588C121.884 17.8534 123.672 17.4308 125.699 17.4308C127.07 17.4308 128.44 17.6723 129.632 18.0948C130.884 18.5173 131.897 19.1813 132.732 19.966L131.48 22.803C130.526 22.0786 129.573 21.475 128.679 21.1129C127.725 20.7507 126.772 20.5696 125.699 20.5696C123.672 20.5696 122.123 21.2336 121.05 22.5615C119.977 23.8895 119.381 25.7606 119.381 28.2354C119.381 30.7102 119.917 32.6418 121.05 33.9697C122.123 35.2977 123.672 35.9616 125.699 35.9616C126.772 35.9616 127.725 35.7805 128.679 35.4184C129.573 35.0562 130.526 34.513 131.48 33.7283L132.732 36.5652C131.897 37.3499 130.825 37.9535 129.632 38.4364C128.381 38.8589 127.07 39.1004 125.699 39.1004C123.672 39.04 121.884 38.6175 120.334 37.7121Z" fill="white"/>
<path d="M146.381 25.2777C147.334 26.3039 147.871 27.8129 147.871 29.8652V38.7382H144.354V36.5049C143.997 37.2895 143.46 37.8932 142.805 38.3157C142.089 38.7382 141.255 38.9796 140.301 38.9796C139.348 38.9796 138.454 38.7986 137.679 38.376C136.904 37.9535 136.248 37.4103 135.831 36.7463C135.414 36.0823 135.175 35.2976 135.175 34.3922C135.175 33.3057 135.473 32.4607 136.01 31.8571C136.546 31.2535 137.44 30.7706 138.632 30.5291C139.824 30.2273 141.553 30.1066 143.699 30.1066H144.414V29.4426C144.414 28.4165 144.175 27.7525 143.758 27.2696C143.341 26.8471 142.626 26.6057 141.672 26.6057C140.897 26.6057 140.122 26.7264 139.288 27.0282C138.454 27.33 137.619 27.6922 136.844 28.1751L135.831 25.5795C136.665 25.0363 137.619 24.6138 138.752 24.312C139.884 24.0102 140.957 23.8291 142.03 23.8291C143.877 23.7687 145.427 24.312 146.381 25.2777ZM143.401 35.2976C143.997 34.6337 144.354 33.7886 144.354 32.7021V32.0985H143.818C142.507 32.0985 141.493 32.1589 140.778 32.2796C140.063 32.4003 139.526 32.6418 139.228 32.8832C138.93 33.1246 138.752 33.6075 138.752 34.0904C138.752 34.7544 138.99 35.2373 139.407 35.6598C139.824 36.0823 140.361 36.2634 141.076 36.2634C142.03 36.3238 142.805 35.9616 143.401 35.2976Z" fill="white"/>
<path d="M161.162 26.9075L159.017 27.0886C156.573 27.3301 155.381 28.5976 155.381 30.831V38.7383H151.685V24.1309H155.202V26.7264C155.917 24.976 157.526 24.0102 159.851 23.8291L160.983 23.7084L161.162 26.9075Z" fill="white"/>
<path d="M174.573 24.7347C175.526 25.3383 176.301 26.2437 176.838 27.3906C177.374 28.5374 177.672 29.8654 177.672 31.3744C177.672 32.8834 177.374 34.2114 176.838 35.4186C176.301 36.5654 175.526 37.4708 174.573 38.1348C173.619 38.7988 172.487 39.1006 171.235 39.1006C170.162 39.1006 169.268 38.8591 168.434 38.4366C167.599 38.0141 167.003 37.3501 166.586 36.5051V38.8592H162.95V17.6725H166.646V26.2437C167.063 25.459 167.718 24.8554 168.493 24.3725C169.328 23.95 170.222 23.7086 171.235 23.7086C172.487 23.7689 173.619 24.0707 174.573 24.7347ZM172.964 34.8753C173.619 34.0303 173.917 32.8834 173.917 31.3744C173.917 29.8654 173.619 28.7185 172.964 27.9338C172.308 27.1491 171.414 26.7266 170.222 26.7266C169.03 26.7266 168.136 27.1491 167.48 27.9338C166.824 28.7185 166.526 29.9257 166.526 31.4348C166.526 32.9438 166.824 34.0906 167.48 34.9357C168.136 35.7807 169.03 36.1429 170.222 36.1429C171.414 36.1429 172.308 35.7204 172.964 34.8753Z" fill="white"/>
<path d="M183.394 38.0742C182.262 37.4706 181.427 36.5652 180.831 35.4183C180.235 34.2715 179.937 32.8832 179.937 31.3741C179.937 29.8651 180.235 28.4768 180.831 27.33C181.427 26.1831 182.321 25.2777 183.394 24.6741C184.526 24.0705 185.778 23.7687 187.268 23.7687C188.758 23.7687 190.01 24.0705 191.142 24.6741C192.275 25.2777 193.109 26.1831 193.705 27.33C194.301 28.4768 194.599 29.8048 194.599 31.3741C194.599 32.9435 194.301 34.2715 193.705 35.4183C193.109 36.5652 192.275 37.4706 191.142 38.0742C190.01 38.6778 188.758 38.9796 187.268 38.9796C185.778 38.9796 184.526 38.7382 183.394 38.0742ZM190.01 34.9354C190.666 34.1507 190.964 32.9435 190.964 31.4345C190.964 29.9255 190.666 28.7183 190.01 27.9336C189.354 27.1489 188.46 26.7264 187.268 26.7264C186.076 26.7264 185.182 27.1489 184.526 27.9336C183.871 28.7183 183.573 29.9255 183.573 31.4345C183.573 32.9435 183.871 34.1507 184.526 34.9354C185.182 35.7201 186.076 36.1427 187.268 36.1427C188.46 36.1427 189.354 35.7201 190.01 34.9354Z" fill="white"/>
<path d="M209.917 25.2777C210.752 26.3038 211.169 27.8129 211.169 29.8048V38.7985H207.473V29.9858C207.473 28.839 207.235 28.0543 206.818 27.511C206.401 26.9678 205.745 26.7264 204.791 26.7264C203.719 26.7264 202.884 27.0885 202.228 27.7525C201.573 28.4165 201.275 29.3219 201.275 30.4687V38.7382H197.579V24.1308H201.156V26.3038C201.632 25.5191 202.288 24.8552 203.122 24.4326C203.957 24.0101 204.911 23.7687 205.924 23.7687C207.831 23.7687 209.083 24.3119 209.917 25.2777Z" fill="white"/>
<path d="M134.401 53.587V74.6529H130.705V65.4781H120.036V74.6529H116.281V53.587H120.036V62.3997H130.705V53.587H134.401Z" fill="white"/>
<path d="M149.301 61.1925C150.255 62.1582 150.791 63.7276 150.791 65.7799V74.6529H147.275V72.4196C146.917 73.2043 146.381 73.8079 145.725 74.2304C145.01 74.6529 144.175 74.8944 143.222 74.8944C142.268 74.8944 141.374 74.7133 140.599 74.2908C139.824 73.8682 139.169 73.325 138.752 72.661C138.275 71.9367 138.096 71.2124 138.096 70.307C138.096 69.2205 138.394 68.3754 138.93 67.7718C139.467 67.1682 140.361 66.6853 141.553 66.4439C142.745 66.1421 144.473 66.0213 146.619 66.0213H147.334V65.3574C147.334 64.3916 147.096 63.6673 146.679 63.1844C146.262 62.7618 145.546 62.5204 144.593 62.5204C143.818 62.5204 143.043 62.6411 142.209 62.9429C141.374 63.2447 140.54 63.6069 139.765 64.0898L138.752 61.4943C139.586 60.951 140.54 60.5285 141.672 60.2267C142.805 59.8645 143.877 59.7438 144.95 59.7438C146.798 59.6834 148.288 60.1663 149.301 61.1925ZM146.321 71.2124C146.917 70.5484 147.275 69.7033 147.275 68.6168V68.0132H146.738C145.427 68.0132 144.414 68.0736 143.699 68.1943C142.983 68.315 142.447 68.5565 142.149 68.7979C141.851 69.0394 141.672 69.5223 141.672 70.0051C141.672 70.6691 141.911 71.152 142.328 71.5745C142.745 71.9971 143.281 72.1781 143.997 72.1781C144.891 72.2385 145.725 71.8763 146.321 71.2124Z" fill="white"/>
<path d="M157.169 73.9889C156.036 73.3853 155.202 72.4799 154.606 71.333C154.01 70.1862 153.712 68.8583 153.712 67.3492C153.712 65.8402 154.01 64.5123 154.666 63.3051C155.262 62.1582 156.156 61.2528 157.288 60.5888C158.42 59.9248 159.732 59.623 161.222 59.623C162.235 59.623 163.248 59.8041 164.202 60.1059C165.156 60.4077 165.99 60.8906 166.526 61.4339L165.454 64.0897C164.858 63.6069 164.202 63.1843 163.546 62.9429C162.891 62.7015 162.175 62.5807 161.52 62.5807C160.268 62.5807 159.255 63.0033 158.54 63.7879C157.824 64.5726 157.467 65.7799 157.467 67.2889C157.467 68.7979 157.824 69.9448 158.54 70.7294C159.255 71.5141 160.268 71.9367 161.52 71.9367C162.175 71.9367 162.831 71.8159 163.546 71.5745C164.202 71.3331 164.858 70.9105 165.454 70.4276L166.526 73.0232C165.871 73.6268 165.096 74.0493 164.083 74.3511C163.129 74.7133 162.056 74.834 161.043 74.834C159.613 74.8943 158.242 74.5925 157.169 73.9889Z" fill="white"/>
<path d="M178.805 74.6529L172.606 68.0133V74.7133H168.911V53.6474H172.606V66.5042L178.447 60.106H182.917L176.42 67.1078L183.394 74.7133H178.805V74.6529Z" fill="white"/>
<path d="M90.5331 46.1626C90.5331 20.9921 70.3874 0.590118 45.5331 0.590118C20.6788 0.590118 0.473511 20.9921 0.473511 46.1626C0.473511 71.3331 20.6192 91.735 45.4735 91.735C46.9636 91.735 90.3543 91.4936 90.3543 91.4936C90.3543 91.4936 90.5331 47.3094 90.5331 46.1626Z" fill="white"/>
<path d="M64.1887 56.9672V37.1688L47.2616 27.2697L30.3344 37.1688V56.9672L47.2616 66.806L64.1887 56.9672Z" fill="#AECC53"/>
<path d="M47.2615 60.1663L35.9966 53.587V40.4887L47.2615 33.9094L58.5264 40.4887V53.6474L47.2615 60.1663ZM37.6655 52.6816L47.2615 58.2952L56.8575 52.6816V41.4545L47.2615 35.8409L37.6655 41.4545V52.6816Z" fill="white"/>
<path d="M33.9106 70.7898H19.8444V23.2858H33.9106V25.9417H22.4669V68.1339H33.9106V70.7898Z" fill="#0D4B76"/>
<path d="M74.6193 70.7898H60.6126V68.1339H72.0563V25.9417H60.6126V23.2858H74.6193V70.7898Z" fill="#0D4B76"/>
</svg>
