<svg width="179" height="47" viewBox="0 0 179 47" fill="none" xmlns="http://www.w3.org/2000/svg">
<path d="M53.5328 15.4282H57.8528V32.8954H53.5328V15.4282ZM59.5664 26.3002C59.5664 21.9802 62.216 19.4026 66.3056 19.4026C70.3952 19.4026 73.0448 21.9802 73.0448 26.3002C73.0448 30.6202 70.4528 33.2122 66.3056 33.2122C62.1584 33.2122 59.5664 30.6922 59.5664 26.3002ZM68.7104 26.3002C68.7104 23.9242 67.7744 22.5274 66.3056 22.5274C64.8368 22.5274 63.9152 23.9674 63.9152 26.3002C63.9152 28.633 64.8224 30.0442 66.3056 30.0442C67.7888 30.0442 68.7104 28.7194 68.7104 26.3146V26.3002ZM74.672 33.745H78.8192C79.0166 34.1834 79.3503 34.5465 79.7706 34.78C80.191 35.0135 80.6755 35.105 81.152 35.041C82.7936 35.041 83.6576 34.1482 83.6576 32.8522V30.433H83.5712C83.2271 31.1744 82.6685 31.7956 81.9678 32.2167C81.2671 32.6376 80.4562 32.8389 79.64 32.7946C76.4864 32.7946 74.3984 30.3898 74.3984 26.257C74.3984 22.1242 76.3856 19.5178 79.6976 19.5178C80.5394 19.4848 81.3712 19.7099 82.0815 20.1627C82.7919 20.6158 83.3469 21.275 83.672 22.0522V19.6474H87.992V32.7514C87.992 35.905 85.2128 37.8634 81.1088 37.8634C77.2928 37.8634 74.9168 36.1498 74.672 33.7594V33.745ZM83.672 26.2858C83.672 24.1834 82.7072 22.8586 81.1808 22.8586C79.6544 22.8586 78.7184 24.169 78.7184 26.2858C78.7184 28.4026 79.64 29.5978 81.1808 29.5978C82.7216 29.5978 83.672 28.4314 83.672 26.3002V26.2858ZM89.6192 26.2858C89.6192 21.9658 92.2688 19.3882 96.3584 19.3882C100.448 19.3882 103.112 21.9658 103.112 26.2858C103.112 30.6058 100.52 33.1978 96.3584 33.1978C92.1968 33.1978 89.6192 30.6922 89.6192 26.3002V26.2858ZM98.7632 26.2858C98.7632 23.9098 97.8272 22.513 96.3584 22.513C94.8896 22.513 94.04 23.9674 94.04 26.3146C94.04 28.6618 94.9472 30.0586 96.416 30.0586C97.8848 30.0586 98.7632 28.7194 98.7632 26.3146V26.2858ZM104.754 16.5082C104.742 16.072 104.861 15.6423 105.094 15.2735C105.327 14.9047 105.665 14.6135 106.063 14.4367C106.462 14.26 106.905 14.2056 107.335 14.2806C107.764 14.3555 108.162 14.5564 108.478 14.8578C108.793 15.1591 109.012 15.5474 109.107 15.9733C109.201 16.3993 109.168 16.8437 109.009 17.2503C108.851 17.6569 108.575 18.0073 108.218 18.2572C107.86 18.507 107.436 18.6451 107 18.6538C106.711 18.6736 106.421 18.6335 106.148 18.5358C105.875 18.4382 105.625 18.2853 105.414 18.0864C105.203 17.8877 105.036 17.6473 104.922 17.3807C104.808 17.1141 104.751 16.8268 104.754 16.537V16.5082ZM104.754 19.6762H109.074V32.8954H104.754V19.6762ZM124.755 26.2858C124.755 30.6058 122.84 33.0682 119.557 33.0682C118.715 33.1222 117.877 32.9164 117.156 32.4786C116.434 32.0407 115.865 31.392 115.525 30.6202H115.438V37.129H111.118V19.6474H115.438V22.009H115.525C115.849 21.2243 116.408 20.5587 117.124 20.1027C117.84 19.6466 118.68 19.4223 119.528 19.4602C122.84 19.5178 124.813 21.9946 124.813 26.3146L124.755 26.2858ZM120.435 26.2858C120.435 24.1834 119.47 22.8442 117.958 22.8442C116.446 22.8442 115.482 24.1978 115.467 26.2858C115.453 28.3738 116.446 29.713 117.958 29.713C119.47 29.713 120.435 28.4026 120.435 26.3146V26.2858ZM132.171 19.3738C135.757 19.3738 137.931 21.073 138.032 23.7946H134.101C134.101 22.8586 133.323 22.2682 132.128 22.2682C130.933 22.2682 130.4 22.729 130.4 23.4058C130.4 24.0826 130.875 24.2986 131.84 24.5002L134.605 25.0618C137.24 25.6234 138.363 26.689 138.363 28.6906C138.363 31.4266 135.872 33.1834 132.2 33.1834C128.528 33.1834 126.123 31.4266 125.936 28.7338H130.098C130.227 29.713 131.005 30.289 132.272 30.289C133.539 30.289 134.115 29.8714 134.115 29.1802C134.115 28.489 133.712 28.345 132.675 28.129L130.184 27.5962C127.606 27.0634 126.253 25.6954 126.253 23.6794C126.282 21.0874 128.6 19.4026 132.171 19.4026V19.3738ZM152.778 32.8666H148.616V30.4042H148.53C148.301 31.2309 147.797 31.9545 147.1 32.4549C146.403 32.9551 145.556 33.2021 144.699 33.1546C144.043 33.1919 143.386 33.0879 142.774 32.8496C142.161 32.6113 141.606 32.2443 141.148 31.7733C140.689 31.3024 140.337 30.7384 140.115 30.1196C139.893 29.5009 139.806 28.8416 139.861 28.1866V19.6474H144.181V27.193C144.181 28.7626 144.987 29.5978 146.326 29.5978C146.64 29.5983 146.951 29.532 147.238 29.4028C147.523 29.2736 147.779 29.0847 147.987 28.8488C148.193 28.6128 148.348 28.3353 148.439 28.0349C148.53 27.7344 148.557 27.4179 148.515 27.1066V19.6474H152.835L152.778 32.8666ZM154.866 19.6474H159.042V22.1962H159.128C159.357 21.3804 159.851 20.6636 160.531 20.1581C161.21 19.6527 162.04 19.3869 162.886 19.4026C163.749 19.3336 164.604 19.5915 165.285 20.1252C165.965 20.6588 166.42 21.4289 166.558 22.2826H166.645C166.905 21.4199 167.447 20.6688 168.183 20.1473C168.917 19.6259 169.806 19.3638 170.706 19.4026C171.293 19.3828 171.878 19.4869 172.422 19.7081C172.968 19.9292 173.459 20.2625 173.866 20.6862C174.274 21.11 174.588 21.6147 174.788 22.1675C174.987 22.7203 175.069 23.3091 175.026 23.8954V32.8954H170.706V25.0474C170.706 23.6074 170.058 22.945 168.848 22.945C168.579 22.9427 168.311 22.9982 168.065 23.108C167.818 23.2177 167.598 23.379 167.42 23.581C167.241 23.783 167.107 24.0209 167.028 24.2788C166.949 24.5369 166.927 24.8088 166.962 25.0762V32.8954H162.858V24.9898C162.858 23.665 162.21 22.945 161.029 22.945C160.757 22.9451 160.486 23.003 160.238 23.1149C159.989 23.2269 159.766 23.3904 159.586 23.5944C159.404 23.7985 159.269 24.0386 159.187 24.2991C159.106 24.5595 159.081 24.8341 159.114 25.105V32.8954H154.794L154.866 19.6474Z" fill="#91A7BC"/>
<path d="M41.4512 16.2202C40.7184 14.5446 39.7486 12.983 38.5712 11.5834C36.831 9.45272 34.6592 7.71471 32.1988 6.48381C29.7384 5.25293 27.0452 4.55705 24.2965 4.44198C21.5478 4.32691 18.8059 4.79525 16.2512 5.81621C13.6966 6.83716 11.3871 8.38756 9.47487 10.3654C7.56258 12.3432 6.09083 14.7035 5.15648 17.2912C4.22214 19.8787 3.84637 22.6349 4.05393 25.3781C4.26151 28.1214 5.04768 30.7896 6.36073 33.207C7.67378 35.6247 9.48393 37.7367 11.672 39.4042C13.076 40.4956 14.6274 41.3828 16.28 42.0394C18.597 42.989 21.0768 43.478 23.5808 43.4794C28.7496 43.4681 33.7029 41.4077 37.3551 37.7501C41.0073 34.0925 43.0603 29.1362 43.064 23.9674C43.0678 21.3013 42.5187 18.6633 41.4512 16.2202ZM23.5664 8.40101C25.8151 8.40078 28.0366 8.89226 30.0752 9.84101C29.5781 10.0558 29.0554 10.2059 28.52 10.2874C26.7583 10.5424 25.1264 11.3603 23.8677 12.619C22.609 13.8777 21.791 15.5097 21.536 17.2714C21.4241 18.2594 20.9747 19.1786 20.2638 19.8738C19.5529 20.569 18.6239 20.9976 17.6336 21.0874C15.8719 21.3425 14.2399 22.1604 12.9812 23.4191C11.7226 24.6778 10.9046 26.3097 10.6496 28.0714C10.5633 29.0109 10.1625 29.8937 9.51204 30.577C8.38977 28.2058 7.88563 25.589 8.04651 22.9705C8.20738 20.352 9.02805 17.8168 10.4322 15.6006C11.8362 13.3846 13.7781 11.5597 16.0771 10.2958C18.3761 9.03199 20.9574 8.37027 23.5808 8.37221L23.5664 8.40101ZM11.6576 34.0474C11.8304 33.889 12.0032 33.745 12.176 33.5722C13.4571 32.3302 14.2795 30.6906 14.5088 28.921C14.6018 27.9263 15.0459 26.9972 15.7616 26.3002C16.4504 25.5834 17.3773 25.1429 18.368 25.0618C20.1297 24.8068 21.7617 23.9889 23.0204 22.7302C24.2791 21.4715 25.097 19.8395 25.352 18.0778C25.4144 17.0374 25.8608 16.0572 26.6048 15.3274C27.3106 14.6245 28.2463 14.2001 29.24 14.1322C30.8584 13.9095 32.3678 13.19 33.56 12.073C34.9175 13.1992 36.0675 14.554 36.9584 16.0762C36.9037 16.1501 36.8409 16.2178 36.7712 16.2778C36.0839 17.001 35.1581 17.4511 34.1648 17.545C32.4013 17.7956 30.7669 18.6121 29.5073 19.8715C28.2479 21.1311 27.4314 22.7655 27.1808 24.529C27.0793 25.5203 26.6382 26.4461 25.9323 27.1494C25.2263 27.8528 24.299 28.2905 23.3072 28.3882C21.5403 28.6412 19.9023 29.4576 18.6363 30.7157C17.3704 31.974 16.544 33.6069 16.28 35.3722C16.2026 36.076 15.9608 36.7518 15.5744 37.345C14.097 36.4678 12.7738 35.3538 11.6576 34.0474ZM23.5664 39.6058C22.1053 39.6074 20.651 39.4038 19.2464 39.001C19.727 38.1053 20.0393 37.1292 20.168 36.121C20.269 35.1319 20.708 34.2078 21.411 33.5048C22.114 32.8018 23.0381 32.3628 24.0272 32.2618C25.7915 32.0097 27.4268 31.1931 28.6884 29.9341C29.9498 28.6752 30.7699 27.0415 31.0256 25.2778C31.1266 24.2887 31.5656 23.3646 32.2686 22.6616C32.9716 21.9586 33.8957 21.5196 34.8848 21.4186C36.2125 21.246 37.478 20.7516 38.5712 19.9786C39.1783 22.2796 39.2502 24.689 38.7815 27.0221C38.3127 29.3552 37.3157 31.55 35.867 33.438C34.4184 35.3259 32.5566 36.857 30.4243 37.9137C28.2921 38.9704 25.9462 39.5246 23.5664 39.5338V39.6058Z" fill="#91A7BC"/>
</svg>
