<svg width="202" height="44" viewBox="0 0 202 44" fill="none" xmlns="http://www.w3.org/2000/svg">
<path d="M32.2833 19.6217C31.7376 20.1708 31.3197 20.8335 31.0593 21.5624C30.799 22.2915 30.7026 23.0689 30.7771 23.8395L30.7512 23.8135C30.8278 24.7206 30.7054 25.6333 30.3928 26.4882C30.0801 27.343 29.5848 28.1193 28.9412 28.763C28.2976 29.4065 27.5213 29.902 26.6663 30.2145C25.8115 30.5271 24.8987 30.6495 23.9918 30.5729L24.0177 30.5988C22.9328 30.4979 21.8432 30.7339 20.8973 31.2749C19.9515 31.8159 19.1955 32.6354 18.7325 33.6218C18.2695 34.6082 18.1219 35.7133 18.31 36.7866C18.4982 37.8599 19.0127 38.849 19.7836 39.6191C20.5544 40.3892 21.544 40.9029 22.6173 41.0899C23.6909 41.2771 24.7958 41.1285 25.7817 40.6647C26.7677 40.2007 27.5865 39.4442 28.1266 38.4978C28.6668 37.5514 28.9019 36.4616 28.8 35.3767L28.8273 35.4027C28.7507 34.4958 28.873 33.5829 29.1856 32.728C29.4982 31.8732 29.9937 31.0969 30.6373 30.4532C31.281 29.8097 32.0573 29.3142 32.912 29.0017C33.767 28.6891 34.6796 28.5667 35.5867 28.6433L35.5593 28.6174C36.4455 28.697 37.3376 28.5517 38.1528 28.1949C38.9678 27.8381 39.6798 27.2812 40.2223 26.576C40.7649 25.8709 41.1209 25.04 41.2568 24.1607C41.3929 23.2813 41.3048 22.3819 41.0007 21.5455C40.6965 20.7093 40.1862 19.9634 39.517 19.3769C38.8479 18.7904 38.0415 18.3823 37.1726 18.1905C36.3037 17.9987 35.4004 18.0292 34.5464 18.2793C33.6925 18.5296 32.9156 18.9913 32.2877 19.6217H32.2833Z" fill="#91A7BC"/>
<path d="M21.6605 27.2034L21.6331 27.1775C22.4039 27.2551 23.1824 27.1605 23.9123 26.9004C24.6421 26.6403 25.3051 26.2214 25.8532 25.6738C26.4011 25.1262 26.8207 24.4635 27.0812 23.7338C27.3418 23.0042 27.437 22.2259 27.36 21.4549L27.3873 21.4808C27.3107 20.5738 27.4331 19.6611 27.7456 18.8062C28.0582 17.9514 28.5537 17.1751 29.1973 16.5314C29.841 15.8879 30.6173 15.3924 31.472 15.0799C32.327 14.7672 33.2396 14.6449 34.1467 14.7215L34.1193 14.6955C35.2044 14.7975 36.2943 14.5621 37.2407 14.0218C38.1872 13.4814 38.9438 12.6622 39.4075 11.676C39.8711 10.6898 40.0193 9.58456 39.8318 8.51103C39.6443 7.43749 39.1303 6.44795 38.3596 5.67735C37.589 4.90676 36.5995 4.39263 35.5259 4.20511C34.4524 4.01758 33.3472 4.16577 32.361 4.62948C31.3747 5.09317 30.5556 5.84982 30.0152 6.7962C29.4748 7.74257 29.2395 8.83261 29.3414 9.91762L29.3155 9.89026C29.3923 10.7973 29.2701 11.7102 28.9577 12.5651C28.6452 13.4201 28.1497 14.1965 27.5061 14.8403C26.8625 15.4838 26.086 15.9793 25.2311 16.2918C24.376 16.6043 23.4632 16.7264 22.5561 16.6496L22.5821 16.677C21.8112 16.5994 21.0326 16.694 20.3028 16.954C19.573 17.214 18.9101 17.633 18.362 18.1806C17.8139 18.7283 17.3945 19.3909 17.1338 20.1206C16.8733 20.8502 16.7781 21.6286 16.8552 22.3995L16.8293 22.3736C16.9056 23.2805 16.783 24.1932 16.4704 25.048C16.1576 25.9026 15.6623 26.6789 15.0187 27.3225C14.3752 27.966 13.5989 28.4614 12.7442 28.7741C11.8895 29.0868 10.9768 29.2093 10.0699 29.133L10.0958 29.1589C9.01081 29.0569 7.92077 29.2922 6.97439 29.8327C6.02802 30.3731 5.27138 31.1922 4.80768 32.1784C4.34397 33.1647 4.19577 34.2699 4.3833 35.3434C4.57083 36.4169 5.08497 37.4065 5.85555 38.177C6.62616 38.9477 7.6157 39.4618 8.68923 39.6493C9.76276 39.8368 10.868 39.6886 11.8542 39.2249C12.8404 38.7612 13.6596 38.0047 14.2 37.0583C14.7404 36.1118 14.9757 35.0219 14.8737 33.9368L14.9011 33.9627C14.8245 33.0557 14.9469 32.143 15.2595 31.2881C15.572 30.4333 16.0675 29.657 16.711 29.0133C17.3547 28.3698 18.131 27.8743 18.9858 27.5618C19.8407 27.2492 20.7534 27.1268 21.6605 27.2034Z" fill="#91A7BC"/>
<path d="M12.0096 24.3132C12.5554 23.7643 12.9732 23.1016 13.2333 22.3725C13.4935 21.6434 13.5894 20.8658 13.5144 20.0954L13.5417 20.1214C13.4651 19.2142 13.5874 18.3011 13.9002 17.446C14.213 16.5909 14.7087 15.8145 15.3527 15.1708C15.9966 14.5271 16.7732 14.0318 17.6284 13.7194C18.4837 13.407 19.3968 13.285 20.304 13.362L20.2766 13.3361C21.3612 13.4377 22.4509 13.2023 23.3968 12.6619C24.3427 12.1216 25.0989 11.3026 25.5624 10.3167C26.0258 9.33083 26.1738 8.22599 25.9863 7.15286C25.7989 6.07973 25.2848 5.09056 24.5145 4.32025C23.7443 3.54993 22.755 3.03597 21.6819 2.84845C20.6088 2.66092 19.5039 2.80898 18.5181 3.2724C17.5321 3.73582 16.7132 4.49207 16.1729 5.438C15.6325 6.38394 15.397 7.47353 15.4987 8.55817L15.4728 8.53225C15.5494 9.43923 15.427 10.352 15.1144 11.2068C14.8017 12.0617 14.3064 12.838 13.6628 13.4816C13.0192 14.1253 12.2428 14.6207 11.388 14.9332C10.5331 15.2458 9.62039 15.3682 8.71341 15.2916L8.73933 15.3175C7.85311 15.238 6.96116 15.3836 6.14614 15.7406C5.33113 16.0976 4.61941 16.6546 4.07695 17.3599C3.53449 18.065 3.17884 18.8959 3.04293 19.7752C2.90704 20.6546 2.9953 21.554 3.29952 22.3901C3.60375 23.2263 4.11413 23.9721 4.78334 24.5584C5.45255 25.145 6.25895 25.5529 7.12782 25.7447C7.99667 25.9364 8.89989 25.9057 9.75376 25.6556C10.6076 25.4053 11.3845 24.9436 12.0124 24.3132H12.0096Z" fill="#91A7BC"/>
<path d="M56.6165 9.95093H60.8933V30.7632H56.6165V9.95093Z" fill="#91A7BC"/>
<path d="M63.3153 23.6368C63.3094 22.1412 63.7475 20.6773 64.574 19.4309C65.4006 18.1844 66.5785 17.2112 67.9586 16.6348C69.3387 16.0582 70.8588 15.9043 72.3264 16.1924C73.7941 16.4806 75.1432 17.1977 76.2029 18.2532C77.2626 19.3086 77.9852 20.6549 78.2792 22.1214C78.5733 23.5878 78.4254 25.1086 77.8544 26.491C77.2835 27.8733 76.3151 29.0552 75.0719 29.8867C73.8286 30.7183 72.3667 31.1622 70.871 31.1622C69.8783 31.1736 68.8932 30.9869 67.9733 30.613C67.0534 30.2392 66.2174 29.6858 65.5139 28.9853C64.8103 28.2846 64.2536 27.4506 63.8762 26.5324C63.4986 25.6141 63.308 24.6297 63.3153 23.6368ZM74.1499 23.6368C74.132 22.9921 73.9245 22.367 73.5534 21.8395C73.1822 21.3122 72.6638 20.9058 72.063 20.6716C71.4621 20.4371 70.8056 20.385 70.1753 20.5218C69.5451 20.6586 68.9691 20.978 68.5193 21.4404C68.0698 21.9026 67.7662 22.4873 67.6471 23.1211C67.5279 23.7549 67.598 24.4098 67.849 25.0039C68.1 25.5981 68.5205 26.105 69.0579 26.4614C69.5955 26.8178 70.2262 27.0078 70.871 27.0078C71.3127 27.0197 71.752 26.9397 72.1614 26.7733C72.5706 26.6068 72.941 26.3574 73.249 26.0407C73.557 25.7239 73.7962 25.3468 73.9512 24.9331C74.1063 24.5194 74.1739 24.078 74.1499 23.6368Z" fill="#91A7BC"/>
<path d="M95.472 16.5085V30.0445C95.472 34.834 91.7366 36.8586 87.9451 36.8586C86.6102 36.9585 85.2735 36.6888 84.0816 36.0793C82.8898 35.4696 81.8889 34.5435 81.1886 33.4026L84.8376 31.293C85.1319 31.8877 85.6009 32.3783 86.1817 32.6993C86.7626 33.0201 87.4276 33.1561 88.0877 33.0887C88.5096 33.1471 88.9393 33.11 89.3449 32.98C89.7504 32.8499 90.1217 32.6303 90.431 32.3376C90.7403 32.0447 90.9797 31.6861 91.1318 31.2881C91.2837 30.8902 91.3442 30.4633 91.3089 30.0388V28.7356C90.8081 29.3483 90.1708 29.8351 89.4477 30.157C88.7247 30.4788 87.9365 30.6267 87.1459 30.5888C85.265 30.5295 83.481 29.7407 82.1714 28.3891C80.8619 27.0377 80.1296 25.2296 80.1296 23.3478C80.1296 21.466 80.8619 19.6579 82.1714 18.3065C83.481 16.9549 85.265 16.1661 87.1459 16.1068C87.9365 16.0689 88.7247 16.2168 89.4477 16.5386C90.1708 16.8605 90.8081 17.3473 91.3089 17.96V16.5056L95.472 16.5085ZM91.3104 23.35C91.3392 22.6608 91.1609 21.9786 90.7987 21.3916C90.4366 20.8043 89.9069 20.3391 89.2781 20.0555C88.6493 19.7718 87.95 19.683 87.2702 19.8002C86.5903 19.9174 85.9612 20.2354 85.4635 20.7133C84.966 21.1911 84.6229 21.8069 84.4782 22.4813C84.3336 23.1558 84.3941 23.8583 84.6521 24.4981C84.91 25.1379 85.3535 25.6859 85.9255 26.0716C86.4975 26.4572 87.1718 26.6628 87.8616 26.662C88.311 26.6933 88.7619 26.6303 89.1854 26.4768C89.6089 26.3233 89.9955 26.0826 90.3204 25.7707C90.6452 25.4587 90.9013 25.0821 91.0718 24.6651C91.2423 24.2482 91.3236 23.8002 91.3104 23.35Z" fill="#91A7BC"/>
<path d="M97.8941 23.6368C97.8882 22.1412 98.3261 20.6773 99.1528 19.4309C99.9794 18.1844 101.157 17.2112 102.537 16.6348C103.917 16.0582 105.438 15.9043 106.905 16.1924C108.373 16.4806 109.722 17.1977 110.782 18.2532C111.841 19.3086 112.564 20.6549 112.858 22.1214C113.152 23.5878 113.004 25.1086 112.433 26.491C111.862 27.8733 110.894 29.0552 109.651 29.8867C108.407 30.7183 106.945 31.1622 105.45 31.1622C104.457 31.1736 103.472 30.9869 102.552 30.613C101.632 30.2392 100.796 29.6858 100.093 28.9853C99.3891 28.2846 98.8324 27.4506 98.455 26.5324C98.0774 25.6141 97.8868 24.6297 97.8941 23.6368ZM108.729 23.6368C108.711 22.9921 108.503 22.367 108.132 21.8395C107.761 21.3122 107.243 20.9058 106.642 20.6716C106.041 20.4371 105.384 20.385 104.754 20.5218C104.124 20.6586 103.548 20.978 103.098 21.4404C102.649 21.9026 102.345 22.4873 102.226 23.1211C102.107 23.7549 102.177 24.4098 102.428 25.0039C102.679 25.5981 103.099 26.105 103.637 26.4614C104.174 26.8178 104.805 27.0078 105.45 27.0078C105.891 27.0197 106.331 26.9397 106.74 26.7733C107.149 26.6068 107.52 26.3574 107.828 26.0407C108.136 25.7239 108.375 25.3468 108.53 24.9331C108.685 24.5194 108.753 24.078 108.729 23.6368Z" fill="#91A7BC"/>
<path d="M115 12.6882C115 12.1806 115.15 11.6845 115.432 11.2625C115.714 10.8405 116.115 10.5116 116.584 10.3174C117.053 10.1232 117.569 10.0724 118.067 10.1714C118.564 10.2704 119.022 10.5148 119.38 10.8737C119.739 11.2325 119.984 11.6898 120.083 12.1875C120.182 12.6853 120.131 13.2013 119.937 13.6701C119.742 14.139 119.414 14.5398 118.992 14.8218C118.57 15.1038 118.073 15.2542 117.566 15.2542C116.888 15.2475 116.239 14.975 115.759 14.4952C115.279 14.0154 115.007 13.3666 115 12.6882ZM115.432 16.5085H119.71V30.7645H115.426L115.432 16.5085Z" fill="#91A7BC"/>
<path d="M138.177 23.6366C138.226 24.5788 138.089 25.5214 137.773 26.4104C137.456 27.2993 136.968 28.1169 136.334 28.8163C135.701 29.5156 134.936 30.0829 134.083 30.4856C133.229 30.888 132.305 31.118 131.362 31.1621C130.57 31.2053 129.778 31.0716 129.043 30.7708C128.309 30.4699 127.65 30.0093 127.116 29.4225V36.4656H122.839V16.5086H127.116V17.8478C127.651 17.2615 128.309 16.8012 129.044 16.5007C129.778 16.2 130.57 16.0665 131.362 16.1097C132.305 16.1537 133.23 16.3835 134.083 16.7861C134.937 17.1887 135.702 17.7561 136.335 18.4556C136.969 19.1552 137.457 19.9731 137.773 20.8623C138.089 21.7514 138.226 22.6943 138.177 23.6366ZM133.9 23.6366C133.883 22.9695 133.67 22.322 133.287 21.7753C132.904 21.2287 132.369 20.807 131.747 20.5634C131.126 20.3196 130.447 20.2644 129.794 20.405C129.142 20.5454 128.545 20.8751 128.079 21.3529C127.613 21.8309 127.299 22.4354 127.175 23.0913C127.051 23.7471 127.123 24.4247 127.382 25.0398C127.641 25.6548 128.076 26.1795 128.633 26.5486C129.189 26.9175 129.841 27.1144 130.509 27.1142C130.967 27.1347 131.424 27.0579 131.851 26.8892C132.277 26.7205 132.663 26.4635 132.983 26.1352C133.303 25.8067 133.551 25.4144 133.709 24.9839C133.867 24.5533 133.932 24.0941 133.9 23.6366Z" fill="#91A7BC"/>
<path d="M151.374 26.4866C151.374 29.7655 148.524 31.1623 145.446 31.1623C144.202 31.2749 142.953 31.0119 141.86 30.407C140.767 29.8022 139.881 28.8835 139.316 27.7696L143.021 25.66C143.171 26.1748 143.493 26.6228 143.933 26.9288C144.373 27.2349 144.906 27.3808 145.44 27.3419C146.465 27.3419 146.979 27.028 146.979 26.4592C146.979 24.8896 139.965 25.7176 139.965 20.7856C139.965 17.6767 142.589 16.1099 145.554 16.1099C146.668 16.0747 147.771 16.339 148.749 16.8754C149.727 17.412 150.543 18.2008 151.112 19.1599L147.463 21.1269C147.303 20.7535 147.037 20.4354 146.697 20.2123C146.357 19.9893 145.96 19.8712 145.554 19.8727C144.812 19.8727 144.356 20.1607 144.356 20.6704C144.361 22.2962 151.374 21.2119 151.374 26.4866Z" fill="#91A7BC"/>
<path d="M166.997 16.5084V30.7644H162.72V29.4238C162.226 30.0153 161.6 30.4815 160.891 30.7839C160.183 31.0863 159.414 31.2163 158.645 31.1633C155.765 31.1633 153.317 29.1113 153.317 25.2593V16.5084H157.594V24.6329C157.558 24.9725 157.596 25.3158 157.707 25.6387C157.817 25.9619 157.997 26.2571 158.233 26.5038C158.469 26.7504 158.756 26.9427 159.074 27.0672C159.391 27.1918 159.732 27.2456 160.073 27.2249C161.641 27.2249 162.724 26.3134 162.724 24.2887V16.5127L166.997 16.5084Z" fill="#91A7BC"/>
<path d="M191.52 22.0106V30.7629H187.243V22.3807C187.243 20.9551 186.559 20.0436 185.191 20.0436C183.766 20.0436 182.966 21.0415 182.966 22.7234V30.7629H178.691V22.3807C178.691 20.9551 178.007 20.0436 176.638 20.0436C175.212 20.0436 174.414 21.0415 174.414 22.7234V30.7629H170.137V16.5069H174.414V17.8173C174.858 17.236 175.439 16.7749 176.106 16.4764C176.774 16.1777 177.506 16.0512 178.235 16.108C178.966 16.0722 179.695 16.2267 180.35 16.5563C181.004 16.8858 181.561 17.3794 181.968 17.9887C182.442 17.3512 183.07 16.8443 183.793 16.5154C184.516 16.1865 185.311 16.0464 186.103 16.108C189.376 16.1095 191.52 18.4466 191.52 22.0106Z" fill="#91A7BC"/>
<path d="M195.137 16.4206C196.89 16.4206 198.311 14.9996 198.311 13.2469C198.311 11.4941 196.89 10.0731 195.137 10.0731C193.385 10.0731 191.963 11.4941 191.963 13.2469C191.963 14.9996 193.385 16.4206 195.137 16.4206Z" fill="#91A7BC"/>
</svg>
