<svg width="211" height="472" viewBox="0 0 211 472" fill="none" xmlns="http://www.w3.org/2000/svg">
<g clip-path="url(#clip0_1711_301)">
<path d="M175.254 95.7563H201.425C201.833 93.405 202.072 90.9855 202.072 88.5319C202.072 86.6918 201.799 84.5109 201.288 82.1596H175.254C172.426 82.1596 170.143 79.8764 170.143 77.048C170.143 74.2196 172.426 71.9365 175.254 71.9365H198.29C196.756 67.6768 194.882 63.0765 192.735 58.3057H175.254C172.426 58.3057 170.143 56.0225 170.143 53.1941C170.143 50.3658 172.426 48.0826 175.254 48.0826H187.93C185.681 43.4822 183.296 38.8818 180.945 34.4518H175.254C172.426 34.4518 170.143 32.1687 170.143 29.3403C170.143 26.5119 172.426 24.2287 175.254 24.2287H175.356C167.621 10.3594 161.181 0 161.181 0C161.181 0 154.774 10.3594 147.039 24.2628H147.141C149.969 24.2628 152.253 26.546 152.253 29.3743C152.253 32.2027 149.969 34.4859 147.141 34.4859H141.45C140.428 36.3942 139.406 38.3707 138.384 40.313C139.372 40.3812 140.36 40.7901 141.144 41.4717C141.246 41.5739 141.314 41.642 141.416 41.7443C141.45 41.7784 141.484 41.7784 141.484 41.8124C142.166 42.494 142.848 43.1755 143.529 43.857C144.619 44.9475 165.474 124.449 166.939 128.947C180.774 127.005 192.36 118.111 198.119 105.945H175.254C172.426 105.945 170.143 103.662 170.143 100.834C170.143 98.0394 172.426 95.7563 175.254 95.7563Z" fill="#AECC53"/>
<path d="M159.443 403.846C159.034 403.846 158.693 403.505 158.693 403.096V216.968C158.693 216.559 159.034 216.218 159.443 216.218C159.852 216.218 160.192 216.559 160.192 216.968V403.096C160.192 403.505 159.852 403.846 159.443 403.846Z" fill="#A6C453"/>
<path d="M130.58 227.259H110.168C99.6048 227.259 89.4501 224.056 80.7607 217.956C72.2757 212.027 65.8353 203.814 62.155 194.205C58.9519 185.89 58.543 176.314 61.0646 167.284L93.0281 52.3764C96.5379 39.7679 107.238 31.6235 120.323 31.6235C133.408 31.6235 144.108 39.7679 147.618 52.3764C156.478 84.1361 165.781 117.532 172.494 141.522C175.527 152.392 178.014 161.32 179.684 167.284C182.206 176.348 181.831 185.924 178.593 194.239C174.879 203.814 168.439 212.027 159.988 217.956C151.298 224.056 141.144 227.259 130.58 227.259ZM120.323 33.9067C108.294 33.9067 98.4462 41.4036 95.209 52.9898L63.2796 167.931C60.8942 176.485 61.2691 185.549 64.3018 193.421C67.8458 202.588 73.9795 210.425 82.0896 216.116C90.3701 221.909 100.082 225.01 110.168 225.01H130.58C140.667 225.01 150.378 221.943 158.659 216.15C166.769 210.494 172.903 202.622 176.447 193.489C179.514 185.617 179.854 176.553 177.469 167.965C175.799 162.002 173.312 153.04 170.279 142.203C163.6 118.213 154.263 84.7836 145.403 53.0579C142.234 41.4036 132.352 33.9067 120.323 33.9067Z" fill="white"/>
<path d="M120.391 139.886C111.225 139.886 102.944 134.093 99.7752 125.472C99.5707 124.892 99.8433 124.211 100.457 124.006C101.036 123.802 101.718 124.074 101.922 124.688C104.784 132.423 112.179 137.603 120.391 137.603C128.604 137.603 135.998 132.423 138.861 124.688C139.065 124.109 139.747 123.802 140.326 124.006C140.905 124.211 141.212 124.892 141.007 125.472C137.838 134.093 129.558 139.886 120.391 139.886Z" fill="white"/>
<path d="M135.726 124.177C136.339 121.894 138.69 120.53 140.973 121.144C143.256 121.757 144.62 124.109 144.006 126.392C143.393 128.675 141.042 130.038 138.758 129.425C136.441 128.811 135.078 126.46 135.726 124.177Z" fill="white"/>
<path d="M105.091 124.177C104.478 121.894 102.126 120.53 99.8433 121.144C97.5602 121.757 96.1972 124.109 96.8106 126.392C97.4239 128.675 99.7752 130.038 102.058 129.425C104.341 128.811 105.704 126.46 105.091 124.177Z" fill="white"/>
<path d="M120.391 180.37C113.167 180.37 106.079 177.882 100.423 173.35C94.8342 168.886 90.8472 162.65 89.2116 155.766C89.0753 155.153 89.4501 154.539 90.0635 154.403C90.6768 154.267 91.2902 154.641 91.4265 155.255C92.96 161.627 96.6743 167.454 101.854 171.578C107.102 175.769 113.712 178.086 120.425 178.086C127.138 178.086 133.715 175.769 138.997 171.578C144.177 167.42 147.891 161.627 149.424 155.255C149.561 154.641 150.174 154.267 150.787 154.403C151.401 154.539 151.776 155.153 151.639 155.766C149.969 162.65 145.983 168.886 140.428 173.35C134.703 177.882 127.615 180.37 120.391 180.37Z" fill="white"/>
<path d="M146.221 154.982C146.63 152.665 148.845 151.097 151.162 151.506C153.479 151.915 155.047 154.13 154.638 156.447C154.229 158.765 152.014 160.332 149.697 159.923C147.38 159.514 145.812 157.299 146.221 154.982Z" fill="white"/>
<path d="M94.5615 154.982C94.1526 152.665 91.9377 151.097 89.6205 151.506C87.3033 151.915 85.7358 154.13 86.1447 156.447C86.5536 158.765 88.7686 160.332 91.0858 159.923C93.437 159.514 94.9705 157.299 94.5615 154.982Z" fill="white"/>
<path d="M121.516 408.515V94.1548C121.516 93.5414 121.005 93.0303 120.391 93.0303C119.778 93.0303 119.267 93.5414 119.267 94.1548V408.651C119.267 408.924 119.369 409.128 119.505 409.333C120.153 409.026 120.834 408.753 121.516 408.515Z" fill="white"/>
<path d="M116.984 94.3252C116.984 92.4509 118.517 90.9175 120.391 90.9175C122.265 90.9175 123.799 92.4509 123.799 94.3252C123.799 96.1994 122.265 97.7329 120.391 97.7329C118.517 97.7329 116.984 96.1994 116.984 94.3252Z" fill="white"/>
<path d="M120.391 98.8574C117.904 98.8574 115.859 96.8128 115.859 94.3252C115.859 91.8376 117.904 89.793 120.391 89.793C122.879 89.793 124.923 91.8376 124.923 94.3252C124.923 96.8128 122.879 98.8574 120.391 98.8574ZM120.391 92.0761C119.13 92.0761 118.142 93.0984 118.142 94.3252C118.142 95.552 119.165 96.5743 120.391 96.5743C121.652 96.5743 122.64 95.552 122.64 94.3252C122.64 93.0984 121.652 92.0761 120.391 92.0761Z" fill="white"/>
<path d="M210.25 463.004C209.875 463.004 209.535 462.697 209.501 462.322C208.41 447.499 205.616 433.084 202.856 419.59C200.607 408.719 196.415 393.623 185.715 388.171C182.717 386.637 175.697 386.739 168.541 393.214C162.339 398.837 158.727 406.811 156.274 413.115C153.99 418.976 152.014 425.076 150.378 431.244C150.276 431.653 149.867 431.891 149.458 431.755C149.049 431.653 148.811 431.244 148.947 430.835C150.583 424.599 152.593 418.465 154.876 412.536C157.398 406.061 161.112 397.882 167.519 392.055C171.744 388.239 180.229 383.672 186.363 386.773C197.642 392.532 202.004 408.037 204.287 419.215C207.081 432.743 209.875 447.226 210.966 462.152C211 462.561 210.693 462.901 210.284 462.935C210.318 463.004 210.284 463.004 210.25 463.004Z" fill="white"/>
<path d="M144.79 369.871C123.663 369.871 106.488 352.697 106.488 331.569V299.162C106.488 294.391 110.373 290.506 115.144 290.506C119.914 290.506 123.799 294.391 123.799 299.162V331.569C123.799 343.155 133.204 352.56 144.79 352.56C156.376 352.56 165.781 343.155 165.781 331.569V299.332C165.781 294.561 169.666 290.676 174.436 290.676C179.207 290.676 183.092 294.561 183.092 299.332V331.569C183.126 352.662 165.917 369.871 144.79 369.871Z" fill="#A6C453"/>
<path d="M152.423 440.547C152.73 441.399 153.104 442.319 153.479 443.307V258.712C153.479 253.941 149.595 250.057 144.824 250.057C140.053 250.057 136.169 253.941 136.169 258.712V412.433C144.006 419.998 148.777 430.426 152.423 440.547Z" fill="#A6C453"/>
<path d="M144.79 361.761C128.127 361.761 114.564 348.198 114.564 331.535V302.433C114.564 302.126 114.837 301.854 115.144 301.854C115.45 301.854 115.723 302.126 115.723 302.433V331.535C115.723 347.551 128.774 360.602 144.79 360.602C160.806 360.602 173.857 347.551 173.857 331.535V303.421C173.857 303.115 174.13 302.842 174.436 302.842C174.743 302.842 175.016 303.115 175.016 303.421V331.535C175.016 348.198 161.453 361.761 144.79 361.761Z" fill="#0D4B76"/>
<path d="M170.109 303.66C170.109 301.274 172.051 299.332 174.436 299.332C176.822 299.332 178.764 301.274 178.764 303.66C178.764 306.045 176.822 307.988 174.436 307.988C172.051 307.988 170.109 306.045 170.109 303.66Z" fill="#0D4B76"/>
<path d="M118.619 302.637C118.619 300.729 117.052 299.162 115.144 299.162C113.235 299.162 111.668 300.729 111.668 302.637C111.668 304.546 113.235 306.113 115.144 306.113C117.086 306.113 118.619 304.546 118.619 302.637Z" fill="#0D4B76"/>
<path d="M144.79 424.258C144.483 424.258 144.211 423.985 144.211 423.679V262.87C144.211 262.563 144.483 262.29 144.79 262.29C145.097 262.29 145.369 262.563 145.369 262.87V423.679C145.369 423.985 145.131 424.258 144.79 424.258Z" fill="#0D4B76"/>
<path d="M140.462 263.074C140.462 260.689 142.405 258.746 144.79 258.746C147.175 258.746 149.118 260.689 149.118 263.074C149.118 265.46 147.175 267.402 144.79 267.402C142.405 267.402 140.462 265.46 140.462 263.074Z" fill="#0D4B76"/>
<path d="M178.014 472C177.605 472 177.265 471.659 177.265 471.25V405.686C177.265 405.277 177.605 404.937 178.014 404.937C178.423 404.937 178.764 405.277 178.764 405.686V471.284C178.764 471.693 178.423 472 178.014 472Z" fill="white"/>
<path d="M182.444 405.925C182.444 403.471 180.468 401.461 177.98 401.461C175.527 401.461 173.516 403.437 173.516 405.925C173.516 408.378 175.493 410.389 177.98 410.389C180.468 410.389 182.444 408.378 182.444 405.925Z" fill="white"/>
<path d="M167.791 472C167.382 472 167.042 471.659 167.042 471.25V425.826C167.042 425.417 167.382 425.076 167.791 425.076C168.2 425.076 168.541 425.417 168.541 425.826V471.284C168.507 471.693 168.2 472 167.791 472Z" fill="white"/>
<path d="M172.221 426.064C172.221 423.611 170.245 421.6 167.757 421.6C165.304 421.6 163.293 423.577 163.293 426.064C163.293 428.518 165.27 430.528 167.757 430.528C170.245 430.528 172.221 428.518 172.221 426.064Z" fill="white"/>
<path d="M189.259 471.659C188.85 471.659 188.51 471.318 188.51 470.909V418.704C188.51 418.295 188.85 417.954 189.259 417.954C189.668 417.954 190.009 418.295 190.009 418.704V470.909C190.009 471.318 189.668 471.659 189.259 471.659Z" fill="white"/>
<path d="M193.723 418.942C193.723 416.489 191.747 414.478 189.259 414.478C186.772 414.478 184.795 416.454 184.795 418.942C184.795 421.396 186.772 423.406 189.259 423.406C191.747 423.406 193.723 421.396 193.723 418.942Z" fill="white"/>
<path d="M44.8102 381.389C41.573 381.389 36.6319 378.527 32.2361 374.097C29.5782 371.405 23.4444 364.317 23.5467 356.411C23.5807 352.901 24.5008 349.459 26.1365 346.392C26.6817 345.404 27.2951 344.45 27.9766 343.564C29.1011 342.099 29.3396 340.156 28.6581 338.487C27.7721 336.306 27.2951 334.022 27.2951 331.671C27.2951 327.684 28.59 323.902 31.0434 320.767C32.3043 319.165 32.5087 317.018 31.5887 315.212C30.4982 313.065 29.953 310.782 29.953 308.363C29.953 303.796 32.7473 297.492 35.4052 293.096C36.7001 290.915 41.2663 283.827 45.0828 283.827C46.4459 283.827 50.1602 284.747 55.0331 293.13C58.1681 298.514 60.2127 304.512 60.2127 308.397C60.2127 310.816 59.6675 313.099 58.577 315.246C57.657 317.052 57.8614 319.165 59.1223 320.801C61.5757 323.936 62.8706 327.718 62.8706 331.705C62.8706 334.057 62.4276 336.374 61.5076 338.521C60.8261 340.19 61.0646 342.133 62.1891 343.598C65.0856 347.381 66.619 351.913 66.619 356.684C66.619 362.238 63.927 368.372 59.1904 373.518C54.6923 378.425 49.3083 381.389 44.8102 381.389ZM45.1169 285.258C43.1405 285.258 39.767 288.7 36.7001 293.812C33.531 299.094 31.4864 304.784 31.4864 308.328C31.4864 310.509 31.9976 312.588 32.9517 314.496C34.1103 316.78 33.8377 319.574 32.2702 321.618C30.0212 324.515 28.8285 327.957 28.8285 331.637C28.8285 333.818 29.2374 335.897 30.0552 337.907C30.9412 340.054 30.6345 342.576 29.1692 344.45C28.5218 345.268 27.9425 346.154 27.4654 347.074C25.932 349.902 25.0801 353.14 25.046 356.411C24.9779 361.523 28.0788 367.759 33.3266 373.041C37.3816 377.13 42.016 379.89 44.8443 379.89C53.2611 379.89 65.2219 367.861 65.2219 356.65C65.2219 352.186 63.7907 347.96 61.0987 344.45C59.6675 342.576 59.3267 340.054 60.2127 337.907C61.0305 335.931 61.4394 333.818 61.4394 331.637C61.4394 327.957 60.2468 324.515 57.9977 321.618C56.3962 319.574 56.1235 316.78 57.3162 314.496C58.3044 312.588 58.7815 310.509 58.7815 308.328C58.7815 304.682 56.8391 298.991 53.8064 293.812C50.7395 288.632 47.3319 285.258 45.1169 285.258Z" fill="#A6C453"/>
<path d="M45.1169 406.266C44.708 406.266 44.3672 405.925 44.3672 405.516V302.876C44.3672 302.467 44.708 302.126 45.1169 302.126C45.5258 302.126 45.8666 302.467 45.8666 302.876V405.55C45.8325 405.959 45.5258 406.266 45.1169 406.266Z" fill="#A6C453"/>
<path d="M78.5798 382.855C78.1709 382.855 77.8301 382.514 77.8301 382.105V304.58C77.8301 304.171 78.1709 303.83 78.5798 303.83C78.9887 303.83 79.3295 304.171 79.3295 304.58V382.105C79.3295 382.514 78.9887 382.855 78.5798 382.855Z" fill="#A6C453"/>
<path d="M83.0438 304.784C83.0438 302.331 81.0674 300.354 78.6139 300.354C76.1604 300.354 74.184 302.331 74.184 304.784C74.184 307.238 76.1604 309.214 78.6139 309.214C81.0333 309.248 83.0438 307.238 83.0438 304.784Z" fill="#A6C453"/>
<path d="M92.551 388.648C92.1421 388.648 91.8013 388.307 91.8013 387.898V317.597C91.8013 317.188 92.1421 316.848 92.551 316.848C92.9599 316.848 93.3007 317.188 93.3007 317.597V387.932C93.2666 388.307 92.9599 388.648 92.551 388.648Z" fill="#A6C453"/>
<path d="M96.9809 317.802C96.9809 315.348 95.0045 313.372 92.551 313.372C90.0975 313.372 88.1211 315.348 88.1211 317.802C88.1211 320.255 90.0975 322.232 92.551 322.232C95.0045 322.232 96.9809 320.255 96.9809 317.802Z" fill="#A6C453"/>
<path d="M25.1483 450.429C25.046 450.429 24.9779 450.429 24.8756 450.395C24.5008 450.259 24.2964 449.816 24.4327 449.441C25.9661 445.318 27.0225 442.08 27.9425 439.252C28.9989 436.049 29.8849 433.323 31.1457 430.358C34.6896 422.009 38.4721 414.648 42.7316 407.901C50.535 395.463 61.4054 381.185 76.433 381.185C91.4265 381.185 102.263 395.395 110.032 407.765C111.157 409.571 112.315 411.479 113.406 413.456C113.61 413.796 113.474 414.274 113.133 414.478C112.792 414.682 112.315 414.546 112.111 414.205C111.02 412.229 109.862 410.355 108.771 408.549C101.206 396.485 90.6768 382.65 76.433 382.65C62.121 382.65 51.5914 396.554 43.9924 408.685C39.801 415.398 36.0527 422.656 32.5428 430.937C31.3161 433.834 30.4301 436.56 29.3737 439.729C28.4537 442.557 27.3973 445.795 25.8298 449.952C25.7276 450.225 25.4209 450.429 25.1483 450.429Z" fill="white"/>
<path d="M160.158 472C159.783 472 159.443 471.693 159.409 471.318C158.761 463.515 156.001 452.678 151.707 440.751C148.368 431.551 143.427 419.999 134.703 412.093C130.239 408.038 124.378 407.083 119.437 409.571C116.336 411.139 113.849 413.694 111.429 416.182C104.239 423.543 99.673 433.289 95.2771 442.66C94.8682 443.546 94.4252 444.432 94.0163 445.318C90.1316 453.496 87.3374 462.39 85.9062 470.978C85.838 471.387 85.4632 471.659 85.0543 471.591C84.6453 471.523 84.3727 471.148 84.4409 470.739C85.9062 462.015 88.7345 453.019 92.6873 444.704C93.0962 443.818 93.5052 442.932 93.9482 442.046C98.4121 432.539 103.047 422.725 110.407 415.16C112.792 412.706 115.484 409.946 118.824 408.242C124.31 405.482 130.785 406.504 135.726 410.968C144.722 419.078 149.765 430.869 153.139 440.24C157.5 452.269 160.26 463.242 160.942 471.182C160.976 471.591 160.669 471.932 160.26 471.966C160.226 472 160.192 472 160.158 472Z" fill="#A6C453"/>
<path d="M106.216 472C105.875 472 105.568 471.761 105.5 471.387C104.273 464.401 102.195 458.267 99.6389 454.144C98.4462 452.201 96.0268 450.123 93.1644 450.6C92.7214 450.668 92.3465 450.804 91.9717 450.974C91.5969 451.145 91.1539 450.974 90.9835 450.634C90.8131 450.259 90.9835 449.816 91.3243 449.645C91.8013 449.441 92.3125 449.271 92.8918 449.168C96.5038 448.555 99.4685 451.043 100.9 453.394C103.558 457.688 105.704 464.026 106.931 471.182C106.999 471.591 106.727 471.966 106.318 472.034C106.284 472 106.25 472 106.216 472Z" fill="#A6C453"/>
<path d="M118.619 471.659C118.279 471.659 117.972 471.421 117.904 471.08C115.689 460.618 111.259 450.906 104.75 442.217C103.864 441.024 102.774 439.695 101.343 439.15C100.15 438.707 98.8551 438.741 97.3558 439.354C96.9809 439.491 96.5379 439.32 96.4016 438.945C96.2653 438.57 96.4357 438.127 96.8106 437.991C98.6507 437.276 100.32 437.207 101.854 437.787C103.592 438.468 104.818 439.899 105.909 441.365C112.554 450.191 117.052 460.107 119.301 470.807C119.369 471.216 119.13 471.591 118.722 471.693C118.722 471.659 118.653 471.659 118.619 471.659Z" fill="#A6C453"/>
<path d="M130.75 470.841C130.41 470.841 130.103 470.603 130.035 470.262C127.104 456.802 121.175 443.989 112.895 433.186C110.407 429.949 106.284 426.95 102.638 427.598C102.229 427.666 101.854 427.393 101.786 426.984C101.718 426.575 101.99 426.201 102.399 426.132C105.227 425.655 109.998 426.95 114.087 432.3C122.47 443.239 128.501 456.291 131.5 469.955C131.602 470.364 131.33 470.739 130.921 470.841C130.853 470.807 130.785 470.841 130.75 470.841Z" fill="#A6C453"/>
<path d="M85.3269 471.659H44.265C43.8561 471.659 43.5154 471.319 43.5154 470.91C43.5154 470.501 43.8561 470.16 44.265 470.16H85.3269C85.7358 470.16 86.0766 470.501 86.0766 470.91C86.0766 471.319 85.7358 471.659 85.3269 471.659Z" fill="#A6C453"/>
<path d="M50.944 470.296C50.535 470.296 50.1943 469.955 50.1943 469.546V440.99C50.1943 440.581 50.535 440.24 50.944 440.24C51.3529 440.24 51.6936 440.581 51.6936 440.99V469.546C51.6936 469.989 51.3529 470.296 50.944 470.296Z" fill="#A6C453"/>
<path d="M61.5417 428.586C61.712 428.416 61.8824 428.245 62.0528 428.041C62.8025 427.121 62.7684 425.723 61.8824 424.872L60.1105 423.1C55.1013 418.09 46.923 418.09 41.9478 423.1L40.1759 424.872C39.324 425.723 39.2558 427.121 40.0055 428.041C40.1759 428.245 40.3122 428.45 40.4826 428.654C41.6752 430.358 43.6176 431.108 45.1169 432.539C47.1274 434.447 47.9793 437.48 50.501 438.843C53.6019 440.513 55.3398 438.196 56.771 435.572C57.691 433.868 58.4066 432.062 59.5312 430.46C60.0764 429.676 60.8601 429.199 61.5417 428.586Z" fill="white"/>
<path d="M51.5232 442.387C49.3764 441.774 47.1274 441.501 44.8784 441.569C42.7657 441.603 40.7552 442.217 38.6765 442.183C38.4721 442.183 38.2676 442.183 38.0972 442.183C37.1772 442.251 36.3253 441.569 36.1889 440.649L35.8823 438.741C35.0304 433.323 38.7787 428.177 44.1969 427.325L46.1051 427.018C47.0593 426.882 47.9452 427.461 48.1838 428.381C48.2179 428.586 48.286 428.756 48.3542 428.961C49.1038 431.108 49.9217 433.254 50.5691 435.435C51.2166 437.684 51.421 439.899 51.6255 442.183" fill="#C1CCD6"/>
<path d="M51.421 442.387C52.2388 442.421 53.2611 441.774 54.079 441.569C55.1012 441.331 56.1917 441.16 57.2481 441.126C59.02 441.058 60.8261 441.331 62.5299 441.876C63.7907 442.285 65.699 442.353 65.9716 440.615L66.2783 438.707C67.1302 433.289 63.3818 428.143 57.9637 427.291L56.0554 426.984C55.1012 426.848 54.2153 427.427 53.9767 428.347C53.9427 428.552 53.8745 428.722 53.8064 428.927L51.0462 436.935C50.7736 437.753 50.501 438.605 50.3647 439.457C50.2624 440.343 50.3306 441.263 50.7395 442.046C50.8076 442.183 50.9099 442.353 51.0462 442.455C51.1825 442.524 51.2847 442.455 51.421 442.387Z" fill="#C1CCD6"/>
<path d="M53.8745 442.115C53.8745 440.649 52.6819 440.786 51.1825 440.786C49.6831 440.786 48.4905 440.649 48.4905 442.115C48.4905 443.58 49.6831 446.136 51.1825 446.136C52.6819 446.136 53.8745 443.614 53.8745 442.115Z" fill="#AECC53"/>
</g>
<defs>
<clipPath id="clip0_1711_301">
<rect width="211" height="472" fill="white"/>
</clipPath>
</defs>
</svg>
