<svg width="233" height="305" viewBox="0 0 233 305" fill="none" xmlns="http://www.w3.org/2000/svg">
<g clip-path="url(#clip0_1609_589)">
<path d="M200.845 160.574L190.804 257.102L162.684 257.29L177.072 247.687L166.125 178.059L133.782 172.085L125.117 212.373L99.0305 212.56L113.075 202.645L113.982 158.103C114.076 153.255 117.673 149.157 122.49 148.469L146.732 144.872" stroke="#A8C653" stroke-width="1.57263" stroke-miterlimit="10" stroke-linecap="round" stroke-linejoin="round"/>
<path d="M166.125 178.09L164.029 163.264" stroke="#A8C653" stroke-width="1.57263" stroke-miterlimit="10" stroke-linecap="round" stroke-linejoin="round"/>
<path d="M163.81 70.552C165.343 68.2998 167.219 66.2354 169.628 64.4838C179.356 57.4146 191.711 58.0089 199.406 67.7368C203.973 73.5235 206.1 80.8741 207.132 88.1935C208.633 98.9849 205.068 143.433 201.345 160.042C201.158 160.855 167.313 158.103 146.7 144.903C146.387 144.715 147.889 134.737 149.922 123.07" stroke="white" stroke-width="1.04842" stroke-miterlimit="10"/>
<path d="M165.624 107.055H108.977C106.756 107.055 104.911 108.869 104.911 111.121V116.97V121.569C104.911 123.789 106.725 125.635 108.977 125.635H165.624C167.845 125.635 169.691 123.821 169.691 121.569V111.121C169.691 108.9 167.876 107.055 165.624 107.055Z" stroke="#1A3C5B" stroke-width="1.04842" stroke-miterlimit="10"/>
<path d="M123.522 121.506L116.985 111.184L110.416 121.506H123.522Z" stroke="#0D4B76" stroke-width="1.04842" stroke-miterlimit="10" stroke-linecap="round" stroke-linejoin="round"/>
<path d="M165.624 88.5061H108.977C106.756 88.5061 104.911 90.3203 104.911 92.5724V95.9193V102.988C104.911 105.209 106.725 107.055 108.977 107.055H165.624C167.845 107.055 169.691 105.241 169.691 102.988V92.5411C169.691 90.3203 167.876 88.5061 165.624 88.5061Z" stroke="#1A3C5B" stroke-width="1.04842" stroke-miterlimit="10"/>
<path d="M116.297 103.677C119.544 103.677 122.177 101.044 122.177 97.7961C122.177 94.5483 119.544 91.9155 116.297 91.9155C113.049 91.9155 110.416 94.5483 110.416 97.7961C110.416 101.044 113.049 103.677 116.297 103.677Z" fill="white" stroke="white" stroke-width="0.522428" stroke-miterlimit="10"/>
<path d="M137.066 100.424L134.439 97.7961L137.066 95.1373L134.063 92.1345L131.405 94.762L128.777 92.1345L125.743 95.1373L128.402 97.7961L125.743 100.424L128.777 103.458L131.405 100.799L134.063 103.458L137.066 100.424Z" fill="#A9C753" stroke="#A9C753" stroke-width="0.506788" stroke-miterlimit="10"/>
<path d="M140.851 97.7961H151.517" stroke="#0D4B76" stroke-width="1.04842" stroke-miterlimit="10" stroke-linecap="round" stroke-linejoin="round"/>
<path d="M165.624 69.9575H108.977C106.756 69.9575 104.911 71.7717 104.911 74.0238V77.4646V84.4399C104.911 86.6607 106.725 88.5062 108.977 88.5062H165.624C167.845 88.5062 169.691 86.692 169.691 84.4399V73.9926C169.691 71.7717 167.876 69.9575 165.624 69.9575Z" stroke="#1A3C5B" stroke-width="1.04842" stroke-miterlimit="10"/>
<path d="M123.522 84.3773L116.985 74.0864L110.416 84.3773H123.522Z" stroke="#0D4B76" stroke-width="1.04842" stroke-miterlimit="10" stroke-linecap="round" stroke-linejoin="round"/>
<path d="M136.409 77.4646H125.743V80.9992H136.409V77.4646Z" stroke="white" stroke-width="0.522428" stroke-miterlimit="10" stroke-linecap="round" stroke-linejoin="round"/>
<path d="M149.985 84.3773H141.727C140.882 84.3773 140.194 83.6892 140.194 82.8446V75.6191C140.194 74.7746 140.882 74.0864 141.727 74.0864H149.985C150.829 74.0864 151.517 74.7746 151.517 75.6191V82.8446C151.517 83.6892 150.829 84.3773 149.985 84.3773Z" fill="#A9C753" stroke="#A9C753" stroke-width="0.506788" stroke-miterlimit="10"/>
<path d="M173.069 61.6685C183.71 61.6685 192.337 53.0419 192.337 42.4004C192.337 31.7589 183.71 23.1323 173.069 23.1323C162.427 23.1323 153.801 31.7589 153.801 42.4004C153.801 53.0419 162.427 61.6685 173.069 61.6685Z" fill="white" stroke="#1A3C5B" stroke-width="0.786301" stroke-miterlimit="10" stroke-linecap="round" stroke-linejoin="round"/>
<path d="M162.747 27.4176C156.053 26.3541 171.129 17.4708 172.881 16.376C177.198 13.7172 182.077 12.0594 187.019 11.1211C191.398 10.3078 191.868 9.30685 195.809 6.49171C201.783 2.20644 205.474 6.77322 211.386 5.77228C211.918 5.67845 212.387 5.55333 212.856 5.39693C216.985 3.98936 219.081 0.204558 224.523 1.79981C229.153 3.14482 232.781 7.74289 232.281 12.6537C232.124 14.1239 231.53 15.594 230.435 16.5324C226.744 19.6916 225.274 17.7836 225.118 22.4755C225.024 25.8849 227.432 28.0432 225.9 32.0157C224.523 35.5815 221.333 38.3654 217.642 39.2725C215.796 39.7104 213.794 39.773 212.262 40.8365C210.448 42.0876 209.791 44.4023 208.821 46.4042C206.319 51.5653 201.721 55.7567 196.528 58.0714C193.244 59.5415 183.954 62.3254 181.796 57.6022C181.358 56.6325 181.42 55.5065 181.639 54.443C182.234 51.7217 184.173 52.3785 185.987 51.0648C186.988 50.3454 187.27 48.844 187.645 47.7805C188.646 44.9966 188.959 41.9 186.894 39.4914C185.361 37.7085 184.642 38.1777 182.984 38.6469C182.077 38.8971 180.482 40.9928 180.169 38.3967C180.075 37.7085 180.263 36.9891 180.232 36.3009C180.169 35.4251 179.762 34.5806 179.293 33.8299C176.572 29.3256 174.445 28.4498 169.221 27.4176C166.969 26.9797 165.218 27.6053 163.059 27.355C162.965 27.4489 162.872 27.4176 162.747 27.4176Z" fill="#1A3C5B" stroke="#1A3C5B" stroke-width="1.33591" stroke-miterlimit="10" stroke-linecap="round" stroke-linejoin="round"/>
<path d="M138.474 118.034C136.566 118.253 134.845 119.41 132.969 118.879C131.311 118.441 129.278 116.564 127.776 115.688C126.994 115.25 125.993 114.781 125.243 115.281C124.554 115.751 124.554 116.814 124.961 117.565C126.15 119.754 129.966 123.57 125.837 125.572C123.491 126.698 120.707 123.789 118.173 124.54C116.954 124.884 113.263 126.354 113.356 128.231C113.419 129.357 119.268 129.701 120.519 130.233C122.646 131.109 124.805 132.016 126.9 132.923C127.964 133.392 129.09 133.861 130.279 133.799C131.342 133.736 132.343 133.267 133.313 132.767C137.911 130.483 142.696 126.167 147.951 125.76" fill="white"/>
<path d="M138.474 118.034C136.566 118.253 134.845 119.41 132.969 118.879C131.311 118.441 129.278 116.564 127.776 115.688C126.994 115.25 125.993 114.781 125.243 115.281C124.554 115.751 124.554 116.814 124.961 117.565C126.15 119.754 129.966 123.57 125.837 125.572C123.491 126.698 120.707 123.789 118.173 124.54C116.954 124.884 113.263 126.354 113.356 128.231C113.419 129.357 119.268 129.701 120.519 130.233C122.646 131.109 124.805 132.016 126.9 132.923C127.964 133.392 129.09 133.861 130.279 133.799C131.342 133.736 132.343 133.267 133.313 132.767C137.911 130.483 142.696 126.167 147.951 125.76" stroke="#1A3C5B" stroke-width="0.786301" stroke-miterlimit="10" stroke-linecap="round" stroke-linejoin="round"/>
<path d="M146.575 133.799C146.606 133.799 146.669 133.799 146.7 133.799L164.279 135.55C174.257 136.551 183.86 132.892 190.648 125.541C197.435 118.19 200.282 108.306 198.499 98.4529L195.277 80.7801C194.151 74.6493 188.27 70.583 182.14 71.7091C176.009 72.8351 171.943 78.7157 173.069 84.8464L176.29 102.519C176.791 105.334 175.978 108.15 174.038 110.245C172.099 112.341 169.346 113.373 166.531 113.092L148.952 111.34C142.759 110.714 137.223 115.25 136.597 121.443C135.971 127.605 140.444 133.11 146.575 133.799Z" fill="#A9C753"/>
<path d="M162.903 256.508C165.186 253.599 166.907 251.034 170.066 248.938C175.946 245.028 191.117 246.78 191.117 246.78L190.835 257.133C190.804 257.102 166.281 257.102 162.903 256.508Z" fill="#1A3C5B" stroke="#1A3C5B" stroke-width="1.30479" stroke-miterlimit="10" stroke-linecap="round" stroke-linejoin="round"/>
<path d="M98.7177 211.622C101.001 208.713 102.721 206.148 105.881 204.052C111.761 200.142 126.932 201.894 126.932 201.894L126.65 212.247C126.65 212.216 102.096 212.216 98.7177 211.622Z" fill="#1A3C5B" stroke="#1A3C5B" stroke-width="1.30479" stroke-miterlimit="10" stroke-linecap="round" stroke-linejoin="round"/>
<path d="M147.513 258.572V213.686H90.1471V168.237H32.7495V304.021H90.1471H147.513H204.911V258.572H147.513Z" stroke="#A8C653" stroke-width="1.57263" stroke-miterlimit="10" stroke-linecap="round" stroke-linejoin="round"/>
<path d="M97.1224 304.021C96.3404 296.17 95.7461 288.225 91.6485 281.625C87.5509 274.994 78.5112 263.827 69.2838 267.518C65.4051 269.082 62.8402 274.149 57.9294 272.773C52.8934 271.334 52.7996 264.421 49.1711 261.512C44.6356 257.884 38.3485 256.946 32.7495 257.071" stroke="#A8C653" stroke-width="1.57263" stroke-miterlimit="10" stroke-linecap="round" stroke-linejoin="round"/>
<path d="M32.7495 278.81C43.8537 275.15 56.4905 280.405 61.9644 290.758C64.1227 294.856 65.0923 299.36 65.5303 303.99" stroke="#A8C653" stroke-width="1.57263" stroke-miterlimit="10" stroke-linecap="round" stroke-linejoin="round"/>
<path d="M61.9019 168.487C63.0592 173.117 64.4042 177.12 64.1227 181.906C63.8412 186.504 63.6848 190.883 65.28 195.325C65.9682 197.202 66.9378 199.047 68.5018 200.298C70.9416 202.3 74.6951 202.551 77.3851 200.924C82.4211 197.859 83.5472 195.544 89.7092 196.67" stroke="#A8C653" stroke-width="1.57263" stroke-miterlimit="10" stroke-linecap="round" stroke-linejoin="round"/>
<path d="M42.5712 169.488C48.7333 174.18 51.0479 182.344 51.9238 190.039C52.7996 197.734 52.5806 205.678 55.2706 212.935C57.4602 218.878 61.5578 224.133 66.844 227.668C68.6895 228.919 70.7539 229.983 72.9748 230.108C75.6648 230.264 78.2297 229.075 80.4818 227.605C85.2988 224.384 88.9898 219.504 90.804 214.03" stroke="#A8C653" stroke-width="1.57263" stroke-miterlimit="10" stroke-linecap="round" stroke-linejoin="round"/>
<path d="M54.7702 253.129C58.8052 256.539 64.0602 258.76 69.3151 258.228C71.3795 258.04 73.6004 257.258 74.57 255.413C75.0705 254.474 75.1643 253.348 75.0705 252.285C74.6639 247.687 71.1606 243.964 67.407 241.274C62.1208 237.552 57.21 234.706 52.956 229.701C50.61 226.948 47.5446 222.225 44.5105 226.354C38.6613 234.268 49.3276 248.5 54.7702 253.129Z" stroke="#A8C653" stroke-width="1.57263" stroke-miterlimit="10" stroke-linecap="round" stroke-linejoin="round"/>
<path d="M147.232 258.635C144.573 262.201 140.288 264.14 136.91 267.049C131.874 271.428 128.996 277.965 128.245 284.597C127.495 291.228 128.433 296.952 130.591 303.27" stroke="#A8C653" stroke-width="1.57263" stroke-miterlimit="10" stroke-linecap="round" stroke-linejoin="round"/>
<path d="M115.609 213.78C115.859 218.879 114.17 223.852 113.044 228.857C111.918 233.861 111.386 239.304 113.7 243.871C116.609 249.595 123.616 252.441 130.028 251.816C136.409 251.19 142.227 247.656 146.982 243.339" stroke="#A8C653" stroke-width="1.57263" stroke-miterlimit="10" stroke-linecap="round" stroke-linejoin="round"/>
<path d="M100.219 214.406C103.441 224.509 97.9982 235.144 97.0286 245.685C96.4968 251.534 97.3727 257.477 99.5935 262.92C100.845 266.017 102.596 269.02 105.255 271.084C107.257 272.617 109.665 273.555 111.573 275.182C115.077 278.122 116.484 282.814 117.298 287.318C118.486 293.949 118.987 297.327 118.267 304.021" stroke="#A8C653" stroke-width="1.57263" stroke-miterlimit="10" stroke-linecap="round" stroke-linejoin="round"/>
<path d="M158.586 303.99C159.462 294.606 160.369 290.258 164.78 285.222C167.626 281.969 171.317 280.655 175.383 282.876C179.481 285.128 182.359 289.163 184.142 293.48C185.549 296.921 186.05 300.361 186.707 304.021" stroke="#A8C653" stroke-width="1.57263" stroke-miterlimit="10" stroke-linecap="round" stroke-linejoin="round"/>
<path d="M145.011 304.021C143.635 292.51 147.858 280.812 157.273 274.024C166.656 267.236 181.326 267.893 188.74 276.777C195.246 284.565 197.967 294.043 198.561 303.958" stroke="#A8C653" stroke-width="1.57263" stroke-miterlimit="10" stroke-linecap="round" stroke-linejoin="round"/>
<path d="M44.8233 120.693H32.0613C18.7363 120.693 7.25681 113.154 2.7213 102.551C0.719425 97.8588 0.563028 92.6977 2.06444 87.8494L22.0207 23.3513C26.6187 8.46234 50.1721 8.43106 54.7702 23.3513C62.809 49.2506 71.4421 77.0893 74.789 87.8494C76.2904 92.6977 76.1652 97.89 74.1321 102.582C69.5966 113.154 58.1483 120.693 44.8233 120.693Z" stroke="#A9C753" stroke-width="2.09684" stroke-miterlimit="10" stroke-linecap="round" stroke-linejoin="round"/>
<path d="M53.0185 53.2854C52.174 60.5735 45.9494 66.2663 38.4423 66.2663C30.9353 66.2663 24.7107 60.5735 23.8661 53.2854" stroke="white" stroke-width="1.57263" stroke-linecap="round" stroke-linejoin="round"/>
<path d="M51.2043 53.2542C51.2669 52.2846 52.1114 51.5339 53.0811 51.5964C54.0507 51.659 54.8015 52.5035 54.7389 53.4732C54.6763 54.4428 53.8318 55.1935 52.8621 55.131C51.8925 55.0684 51.1418 54.2239 51.2043 53.2542Z" fill="white"/>
<path d="M25.6491 53.2542C25.5865 52.2846 24.742 51.5339 23.7723 51.5964C22.8027 51.659 22.052 52.5035 22.1145 53.4732C22.1771 54.4428 23.0216 55.1935 23.9913 55.131C24.9609 55.0684 25.7116 54.2239 25.6491 53.2542Z" fill="white"/>
<path d="M60.1815 73.3042C59.3057 84.5335 49.8593 93.4169 38.4423 93.4169C26.9941 93.4169 17.5477 84.5022 16.7032 73.2729" stroke="white" stroke-width="1.57263" stroke-linecap="round" stroke-linejoin="round"/>
<path d="M58.3986 73.3357C58.4299 72.366 59.2744 71.584 60.2441 71.6466C61.2137 71.7091 61.9957 72.5224 61.9332 73.4921C61.9019 74.4617 61.0573 75.2437 60.0877 75.1811C59.118 75.1186 58.3673 74.3053 58.3986 73.3357Z" fill="white"/>
<path d="M18.4861 73.3357C18.4548 72.366 17.6103 71.584 16.6406 71.6466C15.671 71.7091 14.889 72.5224 14.9515 73.4921C14.9828 74.4617 15.8274 75.2437 16.797 75.1811C17.7667 75.1186 18.5174 74.3053 18.4861 73.3357Z" fill="white"/>
<path d="M38.4424 36.989L38.5362 167.424" stroke="white" stroke-width="1.57263" stroke-linecap="round" stroke-linejoin="round"/>
<path d="M36.6594 37.083C36.6594 36.1133 37.4414 35.3 38.4423 35.3C39.412 35.3 40.2253 36.082 40.2253 37.083C40.2253 38.0526 39.4433 38.8659 38.4423 38.8659C37.4727 38.8659 36.6594 38.0526 36.6594 37.083Z" fill="white"/>
</g>
<defs>
<clipPath id="clip0_1609_589">
<rect width="233" height="304.035" fill="white" transform="translate(0 0.767578)"/>
</clipPath>
</defs>
</svg>
