<svg width="97" height="80" viewBox="0 0 97 80" fill="none" xmlns="http://www.w3.org/2000/svg">
<g clip-path="url(#clip0_1777_3896)">
<path d="M48.1928 79.9689C70.2756 79.9689 88.1773 62.0673 88.1773 39.9845C88.1773 17.9017 70.2756 0 48.1928 0C26.11 0 8.20837 17.9017 8.20837 39.9845C8.20837 62.0673 26.11 79.9689 48.1928 79.9689Z" fill="#11283C"/>
<path d="M89.421 61.3136C88.6748 60.9405 88.3638 60.0077 88.768 59.2615C89.1411 58.5153 90.0739 58.2044 90.8201 58.6086C91.5663 58.9817 91.8773 59.9144 91.4731 60.6607C91.1932 61.1892 90.6647 61.5001 90.105 61.5001C89.8874 61.469 89.6697 61.4069 89.421 61.3136ZM92.9033 53.354C92.0949 53.1053 91.6285 52.2658 91.8462 51.4574C92.0949 50.649 92.9344 50.1826 93.7428 50.4003C94.5512 50.649 95.0176 51.4885 94.7999 52.2969C94.6134 52.9498 93.9915 53.3851 93.3386 53.3851C93.1831 53.3851 93.0587 53.3851 92.9033 53.354ZM94.7688 44.8348C93.9293 44.7726 93.3075 44.0264 93.3697 43.1869C93.4319 42.3474 94.1781 41.7256 95.0176 41.7877C95.857 41.8499 96.4789 42.5961 96.4167 43.4356C96.3545 44.244 95.6705 44.8348 94.8932 44.8348C94.8621 44.8659 94.7999 44.8659 94.7688 44.8348ZM93.2453 34.8231C93.152 33.9836 93.7428 33.2374 94.5823 33.1441C95.4218 33.0509 96.168 33.6416 96.2612 34.4811C96.3545 35.3206 95.7638 36.0668 94.9243 36.1601C94.8621 36.1601 94.7999 36.1601 94.7688 36.1601C93.9915 36.1601 93.3386 35.6004 93.2453 34.8231ZM91.5041 26.5837C91.2554 25.7753 91.6907 24.9358 92.4991 24.6871C93.3075 24.4383 94.147 24.8736 94.3957 25.682C94.6445 26.4904 94.2092 27.3299 93.4008 27.5786C93.2453 27.6408 93.0898 27.6408 92.9344 27.6408C92.3125 27.6719 91.7218 27.2366 91.5041 26.5837ZM88.2395 18.8729C87.8353 18.1266 88.1151 17.1939 88.8302 16.8208C89.5764 16.4166 90.5092 16.6964 90.8823 17.4115C91.2865 18.1577 91.0067 19.0905 90.2916 19.4636C90.0739 19.588 89.8252 19.6502 89.5453 19.6502C89.0168 19.6812 88.5193 19.3703 88.2395 18.8729Z" fill="#9DBB53"/>
<path d="M5.47222 61.6556C5.06803 60.9094 5.34786 60.0077 6.09407 59.6035C6.84028 59.1993 7.77304 59.4792 8.14615 60.1943C8.55034 60.9405 8.27051 61.8732 7.5243 62.2463C7.30666 62.3707 7.05792 62.4329 6.80918 62.4329C6.24953 62.4329 5.72096 62.1531 5.47222 61.6556ZM1.95882 53.3851C1.71008 52.5767 2.14537 51.7372 2.95376 51.4885C3.76216 51.2397 4.60165 51.675 4.85038 52.4834C5.09912 53.2918 4.66383 54.1313 3.85543 54.38C3.69997 54.4111 3.54451 54.4422 3.42014 54.4422C2.76721 54.4422 2.17646 54.038 1.95882 53.3851ZM0.124381 44.586C0.0311043 43.7465 0.621854 43.0003 1.46134 42.9071C2.30083 42.8138 3.04704 43.4045 3.14032 44.244C3.23359 45.0835 2.64284 45.8297 1.80335 45.923C1.74117 45.923 1.67899 45.923 1.64789 45.923C0.870591 45.923 0.217657 45.3633 0.124381 44.586ZM1.39916 37.2483C0.55967 37.1861 -0.062172 36.4399 1.22236e-05 35.6004C0.0621965 34.7609 0.808407 34.1391 1.64789 34.2013C2.48738 34.2634 3.10922 35.0097 3.04704 35.8491C2.98486 36.6575 2.30083 37.2483 1.52353 37.2483C1.49243 37.2483 1.43025 37.2483 1.39916 37.2483ZM2.67393 28.6358C1.86554 28.387 1.39916 27.5475 1.64789 26.7392C1.89663 25.9308 2.73612 25.4644 3.54451 25.7131C4.35291 25.9619 4.81929 26.8013 4.57055 27.6097C4.384 28.2938 3.76216 28.698 3.10922 28.698C2.95376 28.698 2.82939 28.698 2.67393 28.6358ZM5.62768 20.4585C4.88147 20.0854 4.60164 19.1527 4.97475 18.4065C5.34786 17.6603 6.28062 17.3804 7.02683 17.7535C7.77304 18.1266 8.05287 19.0594 7.67976 19.8056C7.39994 20.3342 6.87137 20.6451 6.31171 20.6451C6.09407 20.6451 5.84533 20.5829 5.62768 20.4585Z" fill="#9DBB53"/>
<path d="M35.8492 68.5582H16.6343C16.4167 68.5582 16.2301 68.3716 16.2301 68.154C16.2301 67.9363 16.4167 67.7498 16.6343 67.7498H35.8181C36.0358 67.7498 36.2223 67.9363 36.2223 68.154C36.2223 68.3716 36.0669 68.5582 35.8492 68.5582Z" fill="#9DBB53"/>
<path d="M16.7276 69.6153C15.9192 69.6153 15.2662 68.9624 15.2662 68.154C15.2662 67.3456 15.9192 66.6926 16.7276 66.6926C17.536 66.6926 18.1889 67.3456 18.1889 68.154C18.1889 68.9624 17.536 69.6153 16.7276 69.6153Z" fill="#9DBB53"/>
<path d="M37.6837 73.0354H20.7385C20.5209 73.0354 20.3344 72.8489 20.3344 72.6312C20.3344 72.4136 20.5209 72.2271 20.7385 72.2271H37.6837C37.9014 72.2271 38.0879 72.4136 38.0879 72.6312C38.0879 72.8489 37.9014 73.0354 37.6837 73.0354Z" fill="#9DBB53"/>
<path d="M20.8007 74.0926C21.6078 74.0926 22.262 73.4383 22.262 72.6313C22.262 71.8242 21.6078 71.1699 20.8007 71.1699C19.9936 71.1699 19.3394 71.8242 19.3394 72.6313C19.3394 73.4383 19.9936 74.0926 20.8007 74.0926Z" fill="#9DBB53"/>
<path d="M44.4307 77.637H24.7183C24.5006 77.637 24.3141 77.4505 24.3141 77.2328C24.3141 77.0152 24.5006 76.8286 24.7183 76.8286H44.4307C44.6483 76.8286 44.8349 77.0152 44.8349 77.2328C44.8349 77.4505 44.6483 77.637 44.4307 77.637Z" fill="#9DBB53"/>
<path d="M24.7804 78.6941C25.5875 78.6941 26.2418 78.0399 26.2418 77.2328C26.2418 76.4257 25.5875 75.7715 24.7804 75.7715C23.9734 75.7715 23.3191 76.4257 23.3191 77.2328C23.3191 78.0399 23.9734 78.6941 24.7804 78.6941Z" fill="#9DBB53"/>
<path d="M79.2849 68.5582H60.1632C59.9456 68.5582 59.759 68.3716 59.759 68.154C59.759 67.9363 59.9456 67.7498 60.1632 67.7498H79.2849C79.5025 67.7498 79.6891 67.9363 79.6891 68.154C79.6891 68.3716 79.5025 68.5582 79.2849 68.5582Z" fill="#9DBB53"/>
<path d="M79.1916 66.6926C79.9999 66.6926 80.6529 67.3456 80.6529 68.154C80.6529 68.9624 79.9999 69.6153 79.1916 69.6153C78.3832 69.6153 77.7302 68.9624 77.7302 68.154C77.7302 67.3456 78.3832 66.6926 79.1916 66.6926Z" fill="#9DBB53"/>
<path d="M75.1806 73.0354H58.08C57.8623 73.0354 57.6758 72.8489 57.6758 72.6312C57.6758 72.4136 57.8623 72.2271 58.08 72.2271H75.1806C75.3983 72.2271 75.5848 72.4136 75.5848 72.6312C75.5848 72.8489 75.3983 73.0354 75.1806 73.0354Z" fill="#9DBB53"/>
<path d="M75.1184 74.0926C75.9255 74.0926 76.5798 73.4383 76.5798 72.6313C76.5798 71.8242 75.9255 71.1699 75.1184 71.1699C74.3114 71.1699 73.6571 71.8242 73.6571 72.6313C73.6571 73.4383 74.3114 74.0926 75.1184 74.0926Z" fill="#9DBB53"/>
<path d="M71.2009 77.637H51.5507C51.333 77.637 51.1465 77.4505 51.1465 77.2328C51.1465 77.0152 51.333 76.8286 51.5507 76.8286H71.2009C71.4185 76.8286 71.6051 77.0152 71.6051 77.2328C71.6051 77.4505 71.4185 77.637 71.2009 77.637Z" fill="#9DBB53"/>
<path d="M71.1387 78.6941C71.9458 78.6941 72.6 78.0399 72.6 77.2328C72.6 76.4257 71.9458 75.7715 71.1387 75.7715C70.3316 75.7715 69.6774 76.4257 69.6774 77.2328C69.6774 78.0399 70.3316 78.6941 71.1387 78.6941Z" fill="#9DBB53"/>
<path d="M47.9752 78.1345C41.9744 78.1345 36.8131 74.0614 35.4451 68.2472C35.3829 68.0295 35.5384 67.843 35.7249 67.7808C35.9426 67.7186 36.1291 67.8741 36.1913 68.0606C37.4661 73.5328 42.3164 77.3571 47.9752 77.3571C53.6029 77.3571 58.4532 73.5328 59.728 68.0606C59.7902 67.843 59.9768 67.7186 60.1944 67.7808C60.412 67.843 60.5364 68.0295 60.4742 68.2472C59.1373 74.0925 53.976 78.1345 47.9752 78.1345Z" fill="#9DBB53"/>
<path d="M60.6607 62.8372C59.6347 60.2254 60.6296 57.023 62.9304 55.4373C63.9565 58.049 62.9615 61.2204 60.6607 62.8372Z" fill="white"/>
<path d="M69.0556 54.9397C67.1279 52.8876 66.8481 49.5608 68.4027 47.2289C70.3304 49.2499 70.6102 52.5767 69.0556 54.9397Z" fill="white"/>
<path d="M73.7505 42.534C71.885 41.6323 70.6724 39.5491 70.8278 37.4659C72.6934 38.3676 73.8749 40.4508 73.7505 42.534Z" fill="white"/>
<path d="M48.8147 66.5371C48.3483 66.5371 47.9752 66.164 47.9752 65.6976C47.9752 65.2312 48.3483 64.8581 48.8147 64.8581C62.6196 64.8581 73.8439 53.6339 73.8439 39.829C73.8439 28.3249 66.0708 18.3754 54.9399 15.546C54.5046 15.4217 54.2247 14.9864 54.3491 14.5511C54.4735 14.1158 54.9088 13.836 55.344 13.9603C67.2212 16.9452 75.4917 27.5787 75.4917 39.829C75.4917 54.5666 63.5213 66.5371 48.8147 66.5371Z" fill="#7A9CB4"/>
<path d="M54.8155 16.6343C53.8205 16.4166 53.1676 15.4217 53.4163 14.3957C53.634 13.4007 54.6289 12.7478 55.6549 12.9965C56.6499 13.2142 57.3028 14.2091 57.0541 15.2351C56.8054 16.2301 55.8104 16.8519 54.8155 16.6343Z" fill="#7A9CB4"/>
<path d="M59.2616 64.0498C58.9196 64.0498 58.6398 63.801 58.6087 63.4279C58.5776 63.0859 58.8574 62.775 59.1994 62.7439C60.0078 62.6817 60.9095 62.6817 61.9045 62.6817C66.2884 62.6506 72.3203 62.6195 76.1757 58.3599C76.4245 58.0801 76.8287 58.0801 77.0774 58.3288C77.3572 58.5776 77.3572 58.9818 77.1085 59.2305C72.88 63.8943 66.5372 63.9254 61.9045 63.9565C60.9406 63.9565 60.0389 63.9565 59.2927 64.0187C59.2927 64.0498 59.2927 64.0498 59.2616 64.0498Z" fill="#7A9CB4"/>
<path d="M75.4606 57.9557C75.9581 57.3339 76.8908 57.2406 77.5127 57.7381C78.1345 58.2355 78.2278 59.1683 77.7303 59.7901C77.2329 60.412 76.3001 60.5053 75.6782 60.0078C75.0564 59.5103 74.9631 58.5776 75.4606 57.9557Z" fill="#7A9CB4"/>
<path d="M69.9573 55.5927C69.8951 55.5927 69.864 55.5927 69.8018 55.5927C69.4287 55.5927 69.1489 55.2817 69.18 54.9086C69.18 54.5355 69.4909 54.2557 69.864 54.2868C71.543 54.349 75.1808 53.012 77.7614 50.4003C79.0673 49.0633 80.5597 46.8869 80.4042 43.9642C80.3731 43.5911 80.653 43.3113 81.0261 43.2802C81.3992 43.2491 81.679 43.5289 81.7101 43.902C81.8656 46.576 80.8084 49.1566 78.6942 51.3331C76.0202 54.007 72.227 55.5927 69.9573 55.5927Z" fill="#7A9CB4"/>
<path d="M79.5958 44.1818C79.5026 43.3734 80.0622 42.6583 80.8706 42.534C81.679 42.4407 82.3941 43.0003 82.5185 43.8087C82.6118 44.6171 82.0521 45.3322 81.2437 45.4566C80.4353 45.5188 79.6891 44.9591 79.5958 44.1818Z" fill="#7A9CB4"/>
<path d="M74.6522 43.871C74.4035 43.871 74.1548 43.7156 74.0615 43.4979C73.906 43.187 74.0615 42.7828 74.3724 42.6273C75.7405 42.0055 78.1967 39.4559 79.2539 36.2845C79.7824 34.6678 80.1555 32.2737 78.8808 29.9418C78.6942 29.6308 78.8186 29.2266 79.1295 29.0712C79.4404 28.8846 79.8446 29.009 80.0001 29.3199C81.1816 31.4964 81.3681 34.0459 80.4664 36.7198C79.3471 40.1089 76.7354 43.0004 74.901 43.8399C74.8388 43.871 74.7455 43.871 74.6522 43.871Z" fill="#7A9CB4"/>
<path d="M78.2589 30.5014C77.8237 29.8173 78.0102 28.9157 78.6942 28.4804C79.3783 28.0451 80.2799 28.2316 80.7152 28.9157C81.1505 29.5997 80.964 30.5014 80.2799 30.9367C79.627 31.3719 78.6942 31.1854 78.2589 30.5014Z" fill="#7A9CB4"/>
<path d="M73.3154 32.3047C73.1599 32.3047 73.0044 32.2425 72.8801 32.1492C72.6002 31.9005 72.5691 31.4963 72.8179 31.2476C73.8439 30.035 74.7145 27.1434 74.3725 24.3762C74.1548 22.7283 73.4397 20.4586 71.17 18.8418C70.8902 18.6242 70.7969 18.22 71.0145 17.9401C71.2322 17.6603 71.6364 17.567 71.9162 17.7847C74.0305 19.2771 75.3363 21.4846 75.6473 24.2207C76.0515 27.4543 74.9943 30.6879 73.7817 32.087C73.6885 32.2114 73.5019 32.3047 73.3154 32.3047Z" fill="#7A9CB4"/>
<path d="M70.859 19.6191C70.175 19.2149 69.9574 18.3133 70.3616 17.5982C70.7657 16.9141 71.6674 16.6965 72.3825 17.1007C73.0977 17.5049 73.2842 18.4066 72.88 19.1217C72.4758 19.8057 71.5741 20.0233 70.859 19.6191Z" fill="#7A9CB4"/>
<path d="M67.0036 21.7955C66.6615 21.7955 66.3817 21.5468 66.3506 21.2048C66.3506 21.0804 66.3506 20.956 66.3195 20.7695C66.0086 14.3956 63.0238 13.9603 61.9044 13.8048C61.5624 13.7426 61.3137 13.4317 61.3448 13.0586C61.407 12.7166 61.7179 12.4679 62.091 12.499C67.2523 13.2452 67.501 18.8418 67.5943 20.7073C67.5943 20.8627 67.5943 20.9871 67.6254 21.0804C67.6565 21.4224 67.3767 21.7644 67.0346 21.7644C67.0657 21.7955 67.0346 21.7955 67.0036 21.7955Z" fill="#7A9CB4"/>
<path d="M62.0288 14.6444C61.2204 14.5822 60.5986 13.8981 60.6608 13.0897C60.723 12.2814 61.407 11.6595 62.2154 11.7217C63.0238 11.7839 63.6456 12.4679 63.5834 13.2763C63.5213 14.0847 62.8372 14.7065 62.0288 14.6444Z" fill="#7A9CB4"/>
<path d="M40.7307 71.2009C40.6374 71.2009 40.5442 71.2009 40.4509 71.1388C40.0156 70.9833 39.7979 70.5169 39.9534 70.0816C40.9484 67.2833 45.0836 64.8582 48.7836 64.8582C49.2499 64.8582 49.6231 65.2313 49.6231 65.6976C49.6231 66.164 49.2499 66.5371 48.7836 66.5371C45.7987 66.5371 42.2542 68.5581 41.508 70.6724C41.4147 71.0144 41.0727 71.2009 40.7307 71.2009Z" fill="#7A9CB4"/>
<path d="M35.3206 62.8372C32.9887 61.2515 32.0249 58.049 33.0198 55.4373C35.3828 57.023 36.3467 60.1944 35.3206 62.8372Z" fill="white"/>
<path d="M26.9257 54.9397C25.3711 52.5767 25.651 49.281 27.5787 47.2289C29.1333 49.5608 28.8535 52.8876 26.9257 54.9397Z" fill="white"/>
<path d="M22.2309 42.534C22.0755 40.4508 23.288 38.3676 25.1536 37.4659C25.3401 39.5491 24.0964 41.6323 22.2309 42.534Z" fill="white"/>
<path d="M47.1668 66.5371C32.4602 66.5371 20.4897 54.5667 20.4897 39.8601C20.4897 27.6098 28.7602 16.9763 40.6374 13.9915C41.0727 13.8671 41.5391 14.1469 41.6324 14.5822C41.7567 15.0175 41.4769 15.4839 41.0416 15.5772C29.9107 18.3755 22.1376 28.356 22.1376 39.8601C22.1376 53.665 33.3619 64.8893 47.1668 64.8893C47.6332 64.8893 48.0063 65.2624 48.0063 65.7287C48.0063 66.1951 47.6332 66.5371 47.1668 66.5371Z" fill="#7A9CB4"/>
<path d="M40.3576 12.9965C41.3525 12.7789 42.3475 13.4007 42.5962 14.3957C42.8139 15.3906 42.192 16.3856 41.1971 16.6343C40.2021 16.8519 39.2072 16.2301 38.9584 15.2352C38.7097 14.2402 39.3315 13.2142 40.3576 12.9965Z" fill="#7A9CB4"/>
<path d="M36.7199 64.0498H36.6888C35.9115 63.9876 35.0098 63.9876 34.0771 63.9876C29.4443 63.9565 23.1016 63.8944 18.873 59.2616C18.6243 58.9818 18.6554 58.5776 18.9041 58.36C19.1839 58.1112 19.5881 58.1423 19.8058 58.3911C23.6612 62.6196 29.662 62.6818 34.0771 62.7129C35.0409 62.7129 35.9737 62.7129 36.7821 62.775C37.1241 62.8061 37.4039 63.1171 37.3728 63.4591C37.3417 63.8011 37.0619 64.0498 36.7199 64.0498Z" fill="#7A9CB4"/>
<path d="M18.2511 59.7901C17.7537 59.1683 17.8469 58.2355 18.4688 57.7381C19.0906 57.2406 20.0234 57.3339 20.5209 57.9557C21.0183 58.5776 20.925 59.5103 20.3032 60.0078C19.6814 60.5053 18.7486 60.4431 18.2511 59.7901Z" fill="#7A9CB4"/>
<path d="M25.9931 55.5926C23.7544 55.5926 19.9301 54.0069 17.2873 51.3019C15.173 49.1254 14.1159 46.5759 14.2713 43.8709C14.3024 43.4978 14.6133 43.249 14.9554 43.249C15.3285 43.2801 15.5772 43.591 15.5772 43.933C15.4217 46.8557 16.9142 49.0322 18.22 50.3691C20.8007 53.0119 24.4385 54.3178 26.1174 54.2556C26.4905 54.2556 26.7704 54.5355 26.8015 54.8775C26.8015 55.2506 26.5216 55.5304 26.1796 55.5615C26.1174 55.5926 26.0552 55.5926 25.9931 55.5926Z" fill="#7A9CB4"/>
<path d="M13.494 43.7776C13.5873 42.9692 14.3335 42.4095 15.1419 42.5028C15.9503 42.5961 16.5099 43.3423 16.4166 44.1507C16.3234 44.9591 15.5772 45.5188 14.7688 45.4255C13.9604 45.3322 13.3696 44.586 13.494 43.7776Z" fill="#7A9CB4"/>
<path d="M21.3293 43.871C21.236 43.871 21.1427 43.8399 21.0494 43.8088C19.1839 42.9693 16.6033 40.0777 15.4839 36.6887C14.6134 34.0148 14.7688 31.4652 15.9503 29.2888C16.1369 28.9779 16.51 28.8535 16.8209 29.04C17.1318 29.2266 17.2562 29.5997 17.0696 29.9106C15.7949 32.2425 16.168 34.6366 16.6965 36.2534C17.7537 39.4248 20.2099 41.9744 21.578 42.5962C21.8889 42.7517 22.0444 43.1248 21.8889 43.4668C21.7956 43.7466 21.578 43.871 21.3293 43.871Z" fill="#7A9CB4"/>
<path d="M15.2663 28.8845C15.7016 28.2005 16.6032 28.014 17.2873 28.4492C17.9713 28.8845 18.1578 29.7862 17.7225 30.4702C17.2873 31.1543 16.3856 31.3408 15.7016 30.9055C15.0175 30.4702 14.831 29.5686 15.2663 28.8845Z" fill="#7A9CB4"/>
<path d="M22.6661 32.3047C22.4796 32.3047 22.293 32.2425 22.1687 32.087C20.9561 30.6879 19.8989 27.4543 20.3031 24.2207C20.6451 21.5157 21.951 19.2771 24.0342 17.7847C24.314 17.567 24.7182 17.6603 24.9358 17.9401C25.1535 18.22 25.0602 18.6242 24.7804 18.8418C22.5107 20.4586 21.7645 22.7283 21.5779 24.3762C21.2359 27.1123 22.1065 30.035 23.1325 31.2476C23.3812 31.5274 23.3501 31.9316 23.0703 32.1492C22.946 32.2425 22.7905 32.3047 22.6661 32.3047Z" fill="#7A9CB4"/>
<path d="M23.5989 17.1007C24.2829 16.6965 25.1846 16.9141 25.6199 17.5982C26.0241 18.2822 25.8064 19.1839 25.1224 19.6191C24.4384 20.0544 23.5367 19.8057 23.1014 19.1217C22.6972 18.4376 22.9149 17.536 23.5989 17.1007Z" fill="#7A9CB4"/>
<path d="M28.9778 21.7955C28.9467 21.7955 28.9467 21.7955 28.9156 21.7955C28.5736 21.7644 28.2938 21.4535 28.3249 21.1115C28.3249 21.0182 28.3249 20.8938 28.356 20.7383C28.4492 18.9039 28.698 13.3073 33.8593 12.53C34.2013 12.4678 34.5433 12.7166 34.6055 13.0897C34.6677 13.4317 34.4189 13.7737 34.0458 13.8359C29.9417 14.4266 29.724 19.0594 29.6307 20.8005C29.6307 20.956 29.6307 21.1115 29.5996 21.2358C29.5686 21.5467 29.2887 21.7955 28.9778 21.7955Z" fill="#7A9CB4"/>
<path d="M33.7971 11.7217C34.6055 11.6595 35.2896 12.2814 35.3517 13.0897C35.4139 13.8981 34.7921 14.5822 33.9837 14.6444C33.1753 14.7065 32.4913 14.0847 32.4291 13.2763C32.3669 12.4679 32.9887 11.7839 33.7971 11.7217Z" fill="#7A9CB4"/>
<path d="M55.2507 71.2009C54.9087 71.2009 54.5978 70.9833 54.4734 70.6413C53.7272 68.527 50.1827 66.506 47.1979 66.506C46.7315 66.506 46.3584 66.1329 46.3584 65.6665C46.3584 65.2001 46.7315 64.827 47.1979 64.827C50.9289 64.827 55.0642 67.2833 56.028 70.0505C56.1835 70.4858 55.9659 70.9522 55.5306 71.1076C55.4373 71.2009 55.344 71.2009 55.2507 71.2009Z" fill="#7A9CB4"/>
<path d="M47.9751 72.4136C49.0912 72.4136 49.9961 71.5087 49.9961 70.3926C49.9961 69.2764 49.0912 68.3716 47.9751 68.3716C46.8589 68.3716 45.9541 69.2764 45.9541 70.3926C45.9541 71.5087 46.8589 72.4136 47.9751 72.4136Z" fill="white"/>
<path d="M48.1927 10.3226C46.265 10.3226 44.6793 8.76799 44.6793 6.80918C44.6793 4.85038 46.2339 3.29578 48.1927 3.29578C50.1515 3.29578 51.7061 4.85038 51.7061 6.80918C51.7061 8.76799 50.1204 10.3226 48.1927 10.3226ZM48.1927 4.10417C46.7003 4.10417 45.4877 5.31676 45.4877 6.80918C45.4877 8.30161 46.7003 9.5142 48.1927 9.5142C49.6852 9.5142 50.8977 8.30161 50.8977 6.80918C50.8977 5.31676 49.7162 4.10417 48.1927 4.10417Z" fill="#9DBB53"/>
<path d="M48.1928 50.8667C45.5189 50.8667 43.0004 49.8406 41.1038 48.0062C39.145 46.1096 38.0257 43.56 37.9946 40.8239C37.9013 35.2895 47.26 26.2417 47.6331 25.8375C47.8197 25.682 48.0995 25.651 48.255 25.8375C48.6592 26.2106 58.2977 34.9475 58.391 40.4819C58.4221 43.218 57.4272 45.7986 55.5305 47.7574C53.6339 49.7162 51.0844 50.8356 48.3483 50.8667C48.3172 50.8667 48.255 50.8667 48.1928 50.8667ZM47.9752 26.8014C46.3273 28.4492 38.8341 36.1912 38.9274 40.7928C38.9584 43.2802 39.9845 45.581 41.7567 47.3222C43.529 49.0633 45.892 49.965 48.3794 49.9339C50.8667 49.9028 53.1675 48.8768 54.9087 47.1045C56.6188 45.3323 57.5515 42.9693 57.5204 40.4819C57.4272 35.9113 49.6541 28.3871 47.9752 26.8014Z" fill="white"/>
<path d="M48.2239 46.0473C46.3895 46.0473 44.8038 45.4566 43.8088 44.3683C42.7828 43.2801 42.3475 41.7566 42.503 39.9533C42.5341 39.7045 42.7206 39.5491 42.9694 39.5491C43.2181 39.5802 43.3736 39.7667 43.3736 40.0155C43.2492 41.5701 43.6223 42.8759 44.4618 43.7776C45.3324 44.7104 46.7315 45.2078 48.3794 45.2078C48.6281 45.2078 48.8147 45.3944 48.8147 45.6431C48.8147 45.8919 48.6281 46.0784 48.3794 46.0784C48.3172 46.0473 48.255 46.0473 48.2239 46.0473Z" fill="white"/>
<path d="M44.213 40.2331C44.3063 39.5179 43.8399 38.865 43.1248 38.7717C42.4097 38.6785 41.7567 39.1448 41.6635 39.86C41.5702 40.5751 42.0366 41.228 42.7517 41.3213C43.4357 41.4146 44.0886 40.9482 44.213 40.2331Z" fill="white"/>
<path d="M48.3793 46.0474C48.3171 46.0474 48.2861 46.0474 48.2239 46.0474C47.9751 46.0474 47.7886 45.8608 47.7886 45.6121C47.7886 45.3634 47.9751 45.1768 48.2239 45.1768C49.8717 45.2079 51.2709 44.7104 52.1415 43.7466C52.981 42.8449 53.3541 41.539 53.2297 39.9844C53.1986 39.7357 53.3852 39.5491 53.6339 39.518C53.8826 39.4869 54.0692 39.6735 54.1003 39.9222C54.2557 41.7256 53.8204 43.2491 52.7944 44.3373C51.7995 45.4566 50.2138 46.0474 48.3793 46.0474Z" fill="white"/>
<path d="M54.9709 39.86C54.8776 39.1449 54.1936 38.6474 53.5095 38.7718C52.7944 38.865 52.2969 39.5491 52.4213 40.2331C52.5146 40.9482 53.1986 41.4457 53.8826 41.3213C54.5667 41.228 55.0641 40.544 54.9709 39.86Z" fill="white"/>
<path d="M48.4416 54.2868C48.1928 54.2868 47.9752 54.0692 47.9752 53.8205L47.7264 34.9165C47.7264 34.6677 47.9441 34.4501 48.1928 34.4501C48.4416 34.4501 48.6592 34.6677 48.6592 34.9165L48.9079 53.8205C48.9079 54.0692 48.6903 54.2868 48.4416 54.2868Z" fill="white"/>
<path d="M46.4205 35.0097C46.4205 34.0458 47.1667 33.2374 48.1617 33.2374C49.1566 33.2374 49.9339 33.9836 49.9339 34.9786C49.9339 35.9424 49.1877 36.7508 48.1928 36.7508C47.2289 36.7508 46.4516 36.0046 46.4205 35.0097Z" fill="white"/>
</g>
<defs>
<clipPath id="clip0_1777_3896">
<rect width="96.4166" height="80" fill="white"/>
</clipPath>
</defs>
</svg>
