<svg width="401" height="290" viewBox="0 0 401 290" fill="none" xmlns="http://www.w3.org/2000/svg">
<g clip-path="url(#clip0_1573_1975)">
<path d="M357.365 153.511V81.1488" stroke="#A9C753" stroke-width="1.66747" stroke-linecap="round" stroke-linejoin="round"/>
<path d="M362.378 81.3667C362.378 78.5769 360.111 76.3537 357.365 76.3537C354.575 76.3537 352.352 78.6205 352.352 81.3667C352.352 84.1566 354.618 86.3798 357.365 86.3798C360.155 86.3798 362.378 84.1566 362.378 81.3667Z" fill="#A9C753"/>
<path d="M368.306 157.827V101.375" stroke="#A9C753" stroke-width="1.66747" stroke-linecap="round" stroke-linejoin="round"/>
<path d="M373.319 101.593C373.319 98.8034 371.052 96.5803 368.306 96.5803C365.516 96.5803 363.293 98.847 363.293 101.593C363.293 104.383 365.56 106.606 368.306 106.606C371.096 106.606 373.319 104.383 373.319 101.593Z" fill="#A9C753"/>
<path d="M346.031 159.483V109.876" stroke="#A9C753" stroke-width="1.66747" stroke-linecap="round" stroke-linejoin="round"/>
<path d="M351.044 110.094C351.044 107.304 348.777 105.081 346.031 105.081C343.285 105.081 341.018 107.347 341.018 110.094C341.018 112.884 343.285 115.107 346.031 115.107C348.777 115.107 351.044 112.884 351.044 110.094Z" fill="#A9C753"/>
<path d="M332.735 175.699C335.133 171.645 338.01 167.809 341.933 163.799C344.81 160.834 347.775 157.826 351.436 155.952C357.801 152.726 364.252 155.385 370.093 159.003C385.917 168.724 401.087 208.654 400.215 226.004C400.041 229.448 398.995 233.545 390.276 234.591C382.081 235.594 362.378 236.03 355.708 236.466" stroke="#A9C753" stroke-width="1.45814" stroke-miterlimit="10" stroke-linecap="round" stroke-linejoin="round"/>
<path d="M319.571 204.862C321.663 200.198 325.891 191.784 327.068 189.082" stroke="#A9C753" stroke-width="1.45814" stroke-miterlimit="10" stroke-linecap="round" stroke-linejoin="round"/>
<path d="M281.341 229.448C282.431 221.296 287.444 211.226 293.895 205.995C302.352 199.151 309.719 204.906 315.386 211.706C318.612 205.472 323.014 199.718 328.071 195.882C342.02 185.289 354.444 196.231 361.07 208.001C364.383 213.885 371.881 232.194 363.598 234.722C350.346 238.733 335.394 237.163 321.707 235.158C319.876 234.897 318.045 234.548 316.432 234.112C307.67 236.64 298.429 236.858 289.449 235.463C285.874 234.897 282.561 233.938 281.646 232.281C281.123 231.453 281.21 230.407 281.341 229.448Z" stroke="#A9C753" stroke-width="1.45814" stroke-miterlimit="10" stroke-linecap="round" stroke-linejoin="round"/>
<path d="M288.926 211.488C296.554 206.998 301.611 213.624 304.052 218.898C306.493 224.173 307.06 230.058 307.365 235.856" stroke="#A9C753" stroke-width="1.45814" stroke-miterlimit="10" stroke-linecap="round" stroke-linejoin="round"/>
<path d="M322.361 201.418C326.851 197.713 331.035 199.151 335.961 202.246C339.797 204.644 342.761 208.306 345.115 212.185C349.693 219.639 352.482 228.183 353.18 236.945" stroke="#A9C753" stroke-width="1.45814" stroke-miterlimit="10" stroke-linecap="round" stroke-linejoin="round"/>
<path d="M315.429 211.793C318.219 206.954 324.279 207.129 327.81 209.308C329.292 210.18 330.425 211.488 331.471 212.883C336.615 219.727 338.838 228.445 338.751 236.989" stroke="#A9C753" stroke-width="1.45814" stroke-miterlimit="10" stroke-linecap="round" stroke-linejoin="round"/>
<path d="M57.759 50.1985C53.3562 54.9064 47.0354 57.9142 40.1043 57.9142C28.2038 57.9142 18.2649 49.1959 16.2597 37.8621" stroke="#A9C753" stroke-width="2.91624" stroke-linecap="round" stroke-linejoin="round"/>
<path d="M20.6625 37.6441C20.4445 35.2465 18.3085 33.4593 15.8674 33.6772C13.4698 33.8952 11.6826 36.0312 11.9005 38.4723C12.1185 40.8699 14.2545 42.6571 16.6956 42.4392C19.1367 42.2212 20.8804 40.0416 20.6625 37.6441Z" fill="#A9C753"/>
<path d="M57.759 98.0622C52.528 101.026 46.5123 102.726 40.1044 102.726C21.7087 102.726 6.45157 88.7771 4.35917 70.9045" stroke="#A9C753" stroke-width="2.91624" stroke-linecap="round" stroke-linejoin="round"/>
<path d="M8.76192 70.8174C8.58756 68.4198 6.53875 66.5454 4.09761 66.7197C1.65648 66.8941 -0.130781 68.9865 -6.07222e-06 71.3841C0.174361 73.7816 2.22317 75.656 4.66431 75.4817C7.06185 75.3073 8.93629 73.2585 8.76192 70.8174Z" fill="#A9C753"/>
<path d="M40.1044 10.966V171.253" stroke="#A9C753" stroke-width="2.91624" stroke-linecap="round" stroke-linejoin="round"/>
<path d="M40.1044 15.5867C42.5359 15.5867 44.5071 13.6155 44.5071 11.1839C44.5071 8.75237 42.5359 6.78119 40.1044 6.78119C37.6728 6.78119 35.7016 8.75237 35.7016 11.1839C35.7016 13.6155 37.6728 15.5867 40.1044 15.5867Z" fill="#A9C753"/>
<path d="M48.6047 238.34C38.5786 238.994 17.2623 241.087 11.8133 230.842C11.0723 229.491 10.5492 228.053 10.5492 226.527C10.462 220.075 16.8264 207.303 19.747 200.459C23.6267 191.436 26.5909 184.984 33.522 177.879C35.9195 175.437 38.3607 172.909 41.4557 171.383C46.7739 168.681 52.7459 170.076 56.9743 173.912C57.4102 174.304 57.8898 174.74 58.3257 175.176" stroke="#A9C753" stroke-width="1.45814" stroke-miterlimit="10" stroke-linecap="round" stroke-linejoin="round"/>
<path d="M68.1338 189.082C68.8313 190.477 69.4852 191.872 70.139 193.266" stroke="#A9C753" stroke-width="1.45814" stroke-miterlimit="10" stroke-linecap="round" stroke-linejoin="round"/>
<path d="M15.8238 209.439C17.0008 208.088 18.788 207.041 20.8368 206.736C29.0757 205.559 34.5246 216.108 36.5734 221.252C39.1453 227.747 40.3659 232.063 40.2351 238.427" stroke="#A9C753" stroke-width="1.45814" stroke-miterlimit="10" stroke-linecap="round" stroke-linejoin="round"/>
<path d="M48.5175 228.271C44.6815 213.493 38.7094 206.17 35.1785 202.421C31.1245 198.062 23.9318 195.62 19.747 200.633" stroke="#A9C753" stroke-width="1.45814" stroke-miterlimit="10" stroke-linecap="round" stroke-linejoin="round"/>
<path d="M52.8767 214.408C50.5664 209.047 47.3842 203.249 42.6327 195.969C35.44 184.984 25.9371 190.477 23.4959 192.525" stroke="#A9C753" stroke-width="1.45814" stroke-miterlimit="10" stroke-linecap="round" stroke-linejoin="round"/>
<path d="M85.6141 244.094C79.2061 244.487 70.139 244.182 63.6875 243.789C59.8514 243.615 56.3205 243.528 52.7895 242.002C52.0921 241.697 51.4382 241.392 50.8279 240.956C50.2612 240.563 49.8253 240.04 49.3894 239.517C47.9509 237.817 47.6893 237.076 47.7765 234.853C47.8637 233.022 48.038 231.235 48.3432 229.404C50.174 217.809 55.6666 206.867 63.3823 198.105C76.7214 182.892 92.7631 196.972 102.964 212.011C106.015 216.501 112.161 230.363 113.949 235.812" stroke="#A9C753" stroke-width="1.45814" stroke-miterlimit="10" stroke-linecap="round" stroke-linejoin="round"/>
<path d="M311.332 282.629C239.013 282.629 151.394 282.629 79.0753 282.629V287.076H311.027L311.332 282.629Z" fill="white"/>
<path d="M311.332 282.629C239.013 282.629 151.394 282.629 79.0753 282.629V287.076H311.027L311.332 282.629Z" stroke="white" stroke-width="0.729071" stroke-miterlimit="10"/>
<path d="M304.008 235.899C231.69 235.899 159.328 235.899 87.009 235.899C84.3935 251.461 81.5165 266.98 79.3369 282.629C156.669 282.629 233.957 282.629 311.288 282.629C308.76 267.067 306.842 251.374 304.008 235.899Z" stroke="white" stroke-width="1.45814" stroke-miterlimit="10"/>
<path d="M162.641 247.887C158.892 247.887 155.186 247.887 151.438 247.887C151.699 245.184 151.873 243.833 152.091 241.261C155.797 241.261 159.458 241.261 163.164 241.261C162.989 243.877 162.859 245.184 162.641 247.887Z" fill="#A9C753"/>
<path d="M176.328 247.887C172.58 247.887 168.874 247.887 165.125 247.887C165.343 245.184 165.43 243.833 165.605 241.261C169.267 241.261 172.972 241.261 176.634 241.261C176.503 243.877 176.459 245.184 176.328 247.887Z" fill="#A9C753"/>
<path d="M189.973 247.887C186.267 247.887 182.518 247.887 178.813 247.887C178.944 245.184 178.987 243.833 179.118 241.217C182.78 241.217 186.442 241.217 190.103 241.217C190.06 243.877 190.06 245.184 189.973 247.887Z" fill="#A9C753"/>
<path d="M203.617 247.887C199.912 247.887 196.163 247.887 192.457 247.887C192.501 245.184 192.501 243.833 192.545 241.217C196.206 241.217 199.868 241.217 203.53 241.217C203.573 243.877 203.573 245.184 203.617 247.887Z" fill="#A9C753"/>
<path d="M217.392 247.887C213.686 247.887 209.938 247.887 206.232 247.887C206.189 245.184 206.189 243.833 206.102 241.217C209.763 241.217 213.425 241.217 217.13 241.217C217.217 243.877 217.305 245.184 217.392 247.887Z" fill="#A9C753"/>
<path d="M231.08 247.887C227.331 247.887 223.625 247.887 219.876 247.887C219.746 245.184 219.702 243.833 219.528 241.217C223.189 241.217 226.895 241.217 230.556 241.217C230.818 243.877 230.905 245.184 231.08 247.887Z" fill="#A9C753"/>
<path d="M244.767 247.887C241.018 247.887 237.27 247.887 233.564 247.887C233.346 245.184 233.259 243.833 233.041 241.217C236.746 241.217 240.408 241.217 244.113 241.217C244.375 243.877 244.506 245.184 244.767 247.887Z" fill="#A9C753"/>
<path d="M267.348 247.931C263.599 247.931 259.85 247.931 256.058 247.931C255.752 245.228 255.578 243.877 255.273 241.261C258.978 241.261 262.727 241.261 266.432 241.261C266.825 243.877 266.999 245.184 267.348 247.931Z" fill="#A9C753"/>
<path d="M281.21 247.931C277.418 247.931 273.669 247.931 269.876 247.931C269.527 245.228 269.353 243.877 268.961 241.261C272.71 241.261 276.459 241.261 280.207 241.261C280.643 243.877 280.818 245.184 281.21 247.931Z" fill="#A9C753"/>
<path d="M295.116 247.931C291.323 247.931 287.531 247.931 283.738 247.931C283.346 245.228 283.128 243.877 282.736 241.261C286.528 241.261 290.277 241.261 294.07 241.261C294.505 243.877 294.723 245.184 295.116 247.931Z" fill="#A9C753"/>
<path d="M268.525 257.216C264.732 257.216 260.896 257.216 257.104 257.216C256.799 254.426 256.668 253.031 256.363 250.285C260.155 250.285 263.904 250.285 267.697 250.285C268.002 253.031 268.176 254.426 268.525 257.216Z" fill="#A9C753"/>
<path d="M282.518 257.216C278.725 257.216 274.889 257.216 271.097 257.216C270.748 254.426 270.574 253.031 270.225 250.285C274.017 250.285 277.81 250.285 281.559 250.285C281.951 253.031 282.125 254.426 282.518 257.216Z" fill="#A9C753"/>
<path d="M296.511 257.216C292.675 257.216 288.882 257.216 285.046 257.216C284.654 254.426 284.479 253.031 284.087 250.285C287.88 250.285 291.672 250.285 295.508 250.285C295.9 253.031 296.075 254.426 296.511 257.216Z" fill="#A9C753"/>
<path d="M269.658 266.806C265.822 266.806 261.942 266.806 258.106 266.806C257.801 263.929 257.671 262.49 257.365 259.7C261.201 259.7 264.994 259.7 268.83 259.7C269.179 262.49 269.309 263.929 269.658 266.806Z" fill="#A9C753"/>
<path d="M283.826 266.806C279.989 266.806 276.11 266.806 272.274 266.806C271.925 263.929 271.751 262.49 271.402 259.7C275.238 259.7 279.03 259.7 282.867 259.7C283.215 262.49 283.433 263.929 283.826 266.806Z" fill="#A9C753"/>
<path d="M297.862 266.806C294.026 266.806 290.19 266.806 286.354 266.806C285.962 263.929 285.787 262.49 285.395 259.7C289.231 259.7 293.023 259.7 296.859 259.7C297.252 262.534 297.47 263.929 297.862 266.806Z" fill="#A9C753"/>
<path d="M270.922 276.527C266.999 276.527 263.119 276.527 259.196 276.527C258.847 273.606 258.673 272.168 258.368 269.291C262.248 269.291 266.127 269.291 269.963 269.291C270.356 272.211 270.53 273.65 270.922 276.527Z" fill="#A9C753"/>
<path d="M285.177 276.57C281.297 276.57 277.418 276.57 273.538 276.57C273.146 273.65 272.971 272.211 272.579 269.334C276.415 269.334 280.295 269.334 284.131 269.334C284.567 272.211 284.741 273.65 285.177 276.57Z" fill="#A9C753"/>
<path d="M299.301 276.57C295.421 276.57 291.585 276.57 287.705 276.57C287.269 273.65 287.051 272.211 286.659 269.334C290.495 269.334 294.331 269.334 298.167 269.334C298.647 272.211 298.865 273.65 299.301 276.57Z" fill="#A9C753"/>
<path d="M107.279 247.887C103.487 247.887 99.6942 247.887 95.9017 247.887C96.3813 245.184 96.5992 243.877 97.0351 241.261C100.828 241.261 104.576 241.261 108.369 241.261C107.977 243.833 107.759 245.184 107.279 247.887Z" fill="#A9C753"/>
<path d="M121.141 247.887C117.349 247.887 113.6 247.887 109.808 247.887C110.243 245.184 110.461 243.877 110.897 241.261C114.646 241.261 118.395 241.261 122.144 241.261C121.752 243.833 121.534 245.184 121.141 247.887Z" fill="#A9C753"/>
<path d="M134.96 247.887C131.211 247.887 127.462 247.887 123.67 247.887C124.062 245.184 124.28 243.877 124.629 241.261C128.334 241.261 132.083 241.261 135.788 241.261C135.483 243.833 135.309 245.184 134.96 247.887Z" fill="#A9C753"/>
<path d="M148.648 247.887C144.899 247.887 141.15 247.887 137.401 247.887C137.75 245.184 137.924 243.877 138.229 241.261C141.935 241.261 145.64 241.261 149.345 241.261C149.084 243.833 148.953 245.184 148.648 247.887Z" fill="#A9C753"/>
<path d="M191.891 257.172C187.008 257.172 182.126 257.172 177.244 257.172C177.375 254.382 177.462 252.987 177.593 250.241C182.388 250.241 187.226 250.241 192.021 250.241C191.978 252.987 191.934 254.382 191.891 257.172Z" fill="#A9C753"/>
<path d="M209.763 257.172C204.881 257.172 199.999 257.172 195.116 257.172C195.16 254.382 195.16 252.987 195.204 250.241C199.999 250.241 204.837 250.241 209.632 250.241C209.72 252.987 209.72 254.382 209.763 257.172Z" fill="#A9C753"/>
<path d="M227.723 257.215C222.841 257.215 217.958 257.215 213.076 257.215C212.989 254.426 212.989 253.031 212.902 250.284C217.697 250.284 222.536 250.284 227.331 250.284C227.505 252.987 227.549 254.382 227.723 257.215Z" fill="#A9C753"/>
<path d="M245.639 257.215C240.757 257.215 235.875 257.215 230.992 257.215C230.818 254.426 230.731 253.031 230.556 250.284C235.395 250.284 240.19 250.284 245.029 250.284C245.247 253.031 245.378 254.382 245.639 257.215Z" fill="#A9C753"/>
<path d="M119.834 257.128C111.333 257.128 102.833 257.128 94.3324 257.128C94.8119 254.338 95.0299 252.944 95.5094 250.241C103.966 250.241 112.423 250.241 120.88 250.241C120.444 252.987 120.226 254.338 119.834 257.128Z" fill="#A9C753"/>
<path d="M137.75 257.172C132.867 257.172 127.942 257.172 123.059 257.172C123.452 254.382 123.67 252.987 124.062 250.284C128.901 250.284 133.739 250.284 138.622 250.284C138.273 252.987 138.098 254.338 137.75 257.172Z" fill="#A9C753"/>
<path d="M155.71 257.172C150.827 257.172 145.945 257.172 141.019 257.172C141.368 254.382 141.542 252.987 141.847 250.241C146.686 250.241 151.525 250.241 156.32 250.241C156.102 252.987 155.971 254.382 155.71 257.172Z" fill="#A9C753"/>
<path d="M173.582 257.172C168.7 257.172 163.818 257.172 158.935 257.172C159.197 254.382 159.284 252.987 159.546 250.241C164.384 250.241 169.179 250.241 174.018 250.241C173.844 252.987 173.757 254.382 173.582 257.172Z" fill="#A9C753"/>
<path d="M180.775 266.762C175.805 266.762 170.836 266.762 165.823 266.762C165.997 263.885 166.128 262.447 166.302 259.657C171.228 259.657 176.11 259.657 181.036 259.657C180.906 262.447 180.862 263.885 180.775 266.762Z" fill="#A9C753"/>
<path d="M198.996 266.762C194.027 266.762 189.014 266.762 184.044 266.762C184.131 263.885 184.175 262.447 184.262 259.657C189.188 259.657 194.07 259.657 198.996 259.657C198.996 262.447 198.996 263.885 198.996 266.762Z" fill="#A9C753"/>
<path d="M217.305 266.762C212.335 266.762 207.322 266.762 202.353 266.762C202.353 263.885 202.353 262.447 202.309 259.657C207.235 259.657 212.117 259.657 217.043 259.657C217.13 262.49 217.174 263.885 217.305 266.762Z" fill="#A9C753"/>
<path d="M246.467 266.806C237.836 266.806 229.249 266.806 220.618 266.806C220.487 263.929 220.443 262.49 220.312 259.7C228.813 259.7 237.313 259.7 245.857 259.7C246.075 262.49 246.206 263.929 246.467 266.806Z" fill="#A9C753"/>
<path d="M107.541 266.719C102.615 266.719 97.689 266.719 92.7195 266.719C93.199 263.842 93.417 262.403 93.8965 259.613C98.8224 259.613 103.705 259.613 108.63 259.613C108.195 262.403 107.977 263.842 107.541 266.719Z" fill="#A9C753"/>
<path d="M125.675 266.719C120.705 266.719 115.78 266.719 110.81 266.719C111.246 263.842 111.464 262.403 111.9 259.613C116.826 259.613 121.708 259.613 126.634 259.613C126.242 262.447 126.067 263.842 125.675 266.719Z" fill="#A9C753"/>
<path d="M143.896 266.719C138.927 266.719 133.957 266.719 128.988 266.719C129.337 263.842 129.555 262.403 129.903 259.613C134.829 259.613 139.711 259.613 144.637 259.613C144.376 262.447 144.201 263.842 143.896 266.719Z" fill="#A9C753"/>
<path d="M162.118 266.762C157.148 266.762 152.179 266.762 147.209 266.762C147.514 263.885 147.645 262.447 147.95 259.657C152.876 259.657 157.758 259.657 162.684 259.657C162.423 262.447 162.335 263.885 162.118 266.762Z" fill="#A9C753"/>
<path d="M191.629 276.527C186.529 276.527 181.472 276.527 176.372 276.527C176.459 273.606 176.546 272.167 176.634 269.29C181.647 269.29 186.66 269.29 191.673 269.29C191.629 272.167 191.629 273.606 191.629 276.527Z" fill="#A9C753"/>
<path d="M210.199 276.527C205.099 276.527 200.042 276.527 194.942 276.527C194.942 273.606 194.942 272.167 194.942 269.29C199.955 269.29 204.968 269.29 209.981 269.29C210.068 272.167 210.112 273.606 210.199 276.527Z" fill="#A9C753"/>
<path d="M228.856 276.527C223.8 276.527 218.7 276.527 213.643 276.527C213.512 273.606 213.469 272.167 213.381 269.29C218.394 269.29 223.407 269.29 228.377 269.29C228.551 272.167 228.638 273.606 228.856 276.527Z" fill="#A9C753"/>
<path d="M247.383 276.527C242.326 276.527 237.27 276.527 232.213 276.527C231.995 273.606 231.908 272.167 231.69 269.29C236.703 269.29 241.672 269.29 246.685 269.29C246.947 272.167 247.078 273.65 247.383 276.527Z" fill="#A9C753"/>
<path d="M117.087 276.483C108.456 276.483 99.825 276.483 91.2374 276.483C91.6733 273.562 91.8913 272.08 92.3272 269.203C100.915 269.203 109.459 269.203 118.046 269.203C117.654 272.124 117.48 273.562 117.087 276.483Z" fill="#A9C753"/>
<path d="M135.483 276.483C130.47 276.483 125.413 276.483 120.4 276.483C120.749 273.562 120.967 272.124 121.316 269.203C126.285 269.203 131.255 269.203 136.224 269.203C135.962 272.124 135.788 273.562 135.483 276.483Z" fill="#A9C753"/>
<path d="M154.053 276.527C148.996 276.527 143.94 276.527 138.883 276.527C139.188 273.606 139.319 272.167 139.624 269.247C144.594 269.247 149.607 269.247 154.576 269.247C154.358 272.124 154.271 273.606 154.053 276.527Z" fill="#A9C753"/>
<path d="M172.58 276.527C167.523 276.527 162.423 276.527 157.366 276.527C157.584 273.606 157.671 272.167 157.889 269.247C162.902 269.247 167.872 269.247 172.885 269.247C172.797 272.124 172.71 273.606 172.58 276.527Z" fill="#A9C753"/>
<path d="M332.735 9.44031H58.2821V189.082H332.735V9.44031Z" stroke="white" stroke-width="1.45814" stroke-miterlimit="10" stroke-linecap="round" stroke-linejoin="round"/>
<path d="M332.735 1.28864H58.2821V9.44028H332.735V1.28864Z" fill="white" stroke="white" stroke-width="1.45814" stroke-miterlimit="10" stroke-linecap="round" stroke-linejoin="round"/>
<path d="M224.584 189.082H166.477V211.401H224.584V189.082Z" stroke="white" stroke-width="1.45814" stroke-miterlimit="10" stroke-linecap="round" stroke-linejoin="round"/>
<path d="M242.631 211.401H148.386V223.999H242.631V211.401Z" stroke="white" stroke-width="1.42078" stroke-miterlimit="10" stroke-linecap="round" stroke-linejoin="round"/>
<path d="M279.51 156.737H111.769V48.76L279.51 48.5856V156.737Z" fill="white"/>
<path opacity="0.2" d="M279.51 156.737H111.769V48.76L279.51 48.5856V156.737Z" fill="#A9C753"/>
<path d="M279.51 41.7853H111.769V49.719H279.51V41.7853Z" fill="#11283C"/>
<path d="M276.862 44.412L276.03 43.5797L272.485 47.1244L273.317 47.9567L276.862 44.412Z" fill="#A8C653"/>
<path d="M276.027 47.9241L276.859 47.0919L273.314 43.5471L272.482 44.3794L276.027 47.9241Z" fill="#A8C653"/>
<path d="M267.13 44.5752V47.0599H264.253V44.5752H267.13ZM268.045 43.7034H263.425V47.9318H268.045V43.7034Z" fill="#A8C653"/>
<path d="M258.891 47.0164H254.27V47.9318H258.891V47.0164Z" fill="#A8C653"/>
<path d="M267.784 101.768C267.784 101.768 235.439 147.931 195.509 147.931C155.579 147.931 123.234 101.768 123.234 101.768C123.234 101.768 155.622 55.6039 195.509 55.6039C235.395 55.6039 267.784 101.768 267.784 101.768Z" fill="#0D4B76"/>
<path d="M267.784 101.768C267.784 101.768 235.439 147.931 195.509 147.931C155.579 147.931 123.234 101.768 123.234 101.768C123.234 101.768 155.622 55.6039 195.509 55.6039C235.395 55.6039 267.784 101.768 267.784 101.768Z" fill="#0D4B76"/>
<path d="M267.784 101.768C267.784 101.768 235.439 147.931 195.509 147.931C155.579 147.931 123.234 101.768 123.234 101.768" stroke="#A9C753" stroke-width="0.360896" stroke-miterlimit="10" stroke-linecap="round" stroke-linejoin="round"/>
<path d="M123.234 101.768C123.234 101.768 155.579 55.6039 195.509 55.6039C235.439 55.6039 267.784 101.768 267.784 101.768" stroke="#A9C753" stroke-width="0.360896" stroke-miterlimit="10" stroke-linecap="round" stroke-linejoin="round"/>
<path d="M195.509 109.091C199.794 109.091 203.268 105.617 203.268 101.332C203.268 97.0462 199.794 93.5723 195.509 93.5723C191.223 93.5723 187.749 97.0462 187.749 101.332C187.749 105.617 191.223 109.091 195.509 109.091Z" fill="#11283C"/>
<path d="M195.509 110.573C200.613 110.573 204.75 106.435 204.75 101.332C204.75 96.2277 200.613 92.0901 195.509 92.0901C190.405 92.0901 186.267 96.2277 186.267 101.332C186.267 106.435 190.405 110.573 195.509 110.573Z" stroke="white" stroke-width="0.252614" stroke-miterlimit="10"/>
<path d="M195.509 112.404C201.624 112.404 206.581 107.447 206.581 101.332C206.581 95.2166 201.624 90.2593 195.509 90.2593C189.394 90.2593 184.436 95.2166 184.436 101.332C184.436 107.447 189.394 112.404 195.509 112.404Z" stroke="#A9C753" stroke-width="0.421009" stroke-miterlimit="10"/>
<path d="M195.509 137.077C215.25 137.077 231.254 121.073 231.254 101.332C231.254 81.5901 215.25 65.5864 195.509 65.5864C175.767 65.5864 159.764 81.5901 159.764 101.332C159.764 121.073 175.767 137.077 195.509 137.077Z" stroke="#11283C" stroke-width="0.589447" stroke-miterlimit="10"/>
<path d="M202.265 66.5891C202.091 68.943 201.699 71.2534 201.524 73.6073C201.481 74.2612 201.437 74.9587 201.699 75.5689C202.701 77.7485 206.799 78.4896 208.848 79.2306C214.21 81.1487 218.089 84.6796 220.356 89.9106C221.228 91.9158 221.707 94.0518 221.882 96.2314C222.012 97.4956 222.012 98.8033 221.751 100.067C221.577 101.026 220.661 102.639 221.489 103.468C222.187 104.209 223.451 103.947 224.366 103.947C225.02 103.947 225.718 103.904 226.284 103.598C227.723 102.814 227.156 99.6316 227.113 98.2802C226.982 95.8391 226.546 93.3979 225.849 91.044C224.846 87.5131 223.059 84.3309 220.574 81.6282C217.566 78.3152 213.338 75.5253 209.109 73.9125" stroke="#11283C" stroke-width="0.589447" stroke-miterlimit="10"/>
<path d="M209.502 72.9098C208.935 72.6918 208.281 72.997 208.063 73.5637C207.845 74.1304 208.15 74.7842 208.717 75.0022C209.284 75.2202 209.938 74.915 210.156 74.3483C210.374 73.738 210.112 73.1278 209.502 72.9098Z" fill="#11283C"/>
<path d="M188.36 136.467C189.624 134.897 189.144 132.5 187.88 130.93C185.788 128.315 182.039 126.833 179.467 124.653C177.2 122.735 175.064 120.599 173.277 118.202C171.664 116.022 168.046 112.23 170.836 109.57C171.228 109.178 171.708 108.917 172.187 108.699C173.015 108.306 173.974 108.045 174.89 108.132C177.331 108.35 178.116 111.619 179.336 113.407C180.557 115.237 181.995 116.894 183.652 118.332C188.36 122.517 195.988 121.689 197.427 129.1C197.906 131.628 197.601 134.2 197.209 136.772" stroke="#11283C" stroke-width="0.589447" stroke-miterlimit="10"/>
<path d="M209.458 134.461C208.673 131.846 207.54 130.059 205.971 127.923C204.663 126.135 203.66 123.825 205.36 121.907C207.453 119.553 209.589 117.243 211.812 115.063C213.556 113.319 214.907 111.663 217.523 112.709C220.836 114.06 223.233 117.199 225.5 119.858" stroke="#11283C" stroke-width="0.589447" stroke-miterlimit="10"/>
<path d="M162.553 88.2541C163.687 89.1259 164.559 90.3465 165.692 91.1311C168.264 92.8748 171.577 93.2671 173.146 90.3029C179.685 78.0972 187.662 77.7049 192.675 75.5689C195.291 74.4355 194.593 72.9534 193.678 70.5995C193.591 70.3379 193.46 70.0328 193.242 69.8584C193.024 69.6404 192.675 69.5968 192.37 69.5533C187.444 68.8994 181.167 72.4739 177.244 75.133C173.974 77.3562 171.403 80.1896 169.92 83.8513" stroke="#11283C" stroke-width="0.589447" stroke-miterlimit="10"/>
<path d="M168.961 83.4154C168.743 83.9821 169.049 84.636 169.615 84.8539C170.182 85.0719 170.836 84.7668 171.054 84.2001C171.272 83.6334 170.967 82.9795 170.4 82.7615C169.833 82.5436 169.179 82.8487 168.961 83.4154Z" fill="#11283C"/>
<path d="M180.077 129.666C176.023 127.661 172.71 124.304 170.138 120.643C168.7 118.594 167.436 116.414 166.346 114.148C165.038 111.532 163.207 108.132 166.215 105.909C168.438 104.296 170.749 102.596 173.321 101.593C174.585 101.114 176.416 101.201 177.505 102.073C178.29 102.727 178.813 103.598 179.38 104.427C181.211 107.086 183.608 109.745 185.788 112.099C187.88 114.322 190.278 116.284 192.98 117.722" stroke="#11283C" stroke-width="0.589447" stroke-miterlimit="10"/>
<path d="M180.513 128.664C181.08 128.925 181.298 129.579 181.036 130.146C180.775 130.712 180.121 130.93 179.554 130.669C178.987 130.407 178.77 129.753 179.031 129.187C179.293 128.62 179.99 128.359 180.513 128.664Z" fill="#11283C"/>
<path d="M192.414 118.681C192.937 118.943 193.634 118.725 193.896 118.202C194.157 117.679 193.939 116.981 193.416 116.72C192.893 116.458 192.196 116.676 191.934 117.199C191.673 117.722 191.891 118.376 192.414 118.681Z" fill="#11283C"/>
<path d="M211.202 109.527C209.502 111.096 208.063 112.883 206.276 114.278C203.53 116.458 199.781 117.679 199.519 121.733C199.388 124.043 200.522 125.699 201.35 127.792C202.309 130.233 203.922 133.372 204.227 135.987" stroke="#11283C" stroke-width="0.589447" stroke-linejoin="round"/>
<path d="M210.417 108.786C210.853 108.35 211.55 108.393 211.986 108.829C212.422 109.265 212.379 109.963 211.943 110.399C211.507 110.835 210.809 110.791 210.374 110.355C209.981 109.876 209.981 109.178 210.417 108.786Z" fill="#11283C"/>
<path d="M214.645 131.018C213.512 129.405 212.379 127.748 211.245 126.135C210.897 125.656 210.548 125.133 210.461 124.566C210.243 123.171 211.289 121.863 212.161 120.904C212.858 120.12 214.21 118.332 215.125 117.896C217.087 116.937 218.874 119.597 220.051 121.34" stroke="#11283C" stroke-width="0.589447" stroke-miterlimit="10"/>
<path d="M219.092 121.907C219.441 122.43 220.138 122.517 220.618 122.168C221.097 121.82 221.228 121.122 220.879 120.643C220.53 120.163 219.833 120.032 219.353 120.381C218.874 120.73 218.743 121.427 219.092 121.907Z" fill="#11283C"/>
<path d="M197.688 65.6736C197.47 67.766 199.301 77.7485 196.293 77.8793C191.76 78.0973 187.357 80.364 183.87 83.1103C181.08 85.2899 178.072 87.9054 176.459 91.1312C175.675 92.7005 175.239 94.3134 176.328 95.7083C177.287 96.8853 179.38 99.1085 181.08 98.8469C182.3 98.6726 182.911 96.6673 183.521 95.7083C184.567 94.0082 185.613 92.2646 187.052 90.8261C188.534 89.3003 190.234 88.3849 192.283 87.7746C196.599 86.4233 201.786 87.1208 204.794 90.4337C207.496 93.4416 208.281 98.2802 208.368 102.203C208.368 102.465 208.368 102.77 208.455 102.988C208.543 103.206 208.717 103.424 208.935 103.598C211.071 105.429 216.084 104.819 216.912 101.811C217.435 99.9367 216.258 97.0161 215.561 95.2724C214.689 92.962 213.469 90.8261 211.856 88.9952C209.545 86.4233 206.581 83.4591 203.224 82.1513" stroke="#11283C" stroke-width="0.589447" stroke-miterlimit="10"/>
<path d="M203.66 81.1051C203.094 80.8871 202.44 81.1923 202.265 81.759C202.091 82.3257 202.353 82.9795 202.919 83.1539C203.486 83.3283 204.14 83.0667 204.314 82.5C204.489 81.9333 204.227 81.3231 203.66 81.1051Z" fill="#11283C"/>
<path d="M176.416 115.455C179.162 119.161 182.562 121.645 186.485 124.043C188.403 125.22 190.234 126.615 191.585 128.402C193.634 131.105 193.329 133.72 193.329 136.902" stroke="#11283C" stroke-width="0.589447" stroke-miterlimit="10"/>
<path d="M175.587 116.153C175.239 115.673 175.326 114.976 175.849 114.584C176.328 114.235 177.026 114.322 177.418 114.845C177.767 115.325 177.68 116.022 177.157 116.414C176.634 116.763 175.936 116.632 175.587 116.153Z" fill="#11283C"/>
<path d="M161.551 91.3491C163.512 92.6133 172.056 96.4493 172.056 98.193C172.056 100.939 162.597 104.165 160.112 105.909" stroke="#11283C" stroke-width="0.589447" stroke-miterlimit="10"/>
<path d="M160.025 97.0596C161.376 97.234 164.559 97.7571 166.477 98.193" stroke="#11283C" stroke-width="0.589447" stroke-miterlimit="10"/>
<path d="M166.215 99.2828C166.825 99.4136 167.392 99.0648 167.566 98.4545C167.697 97.8443 167.348 97.2776 166.738 97.1032C166.128 96.9288 165.561 97.3211 165.387 97.9314C165.212 98.5417 165.605 99.152 166.215 99.2828Z" fill="#11283C"/>
<path d="M229.467 111.227C228.115 111.053 224.933 110.529 223.015 110.094" stroke="#11283C" stroke-width="0.589447" stroke-miterlimit="10"/>
<path d="M223.277 109.004C222.666 108.873 222.1 109.222 221.925 109.832C221.795 110.442 222.143 111.009 222.754 111.183C223.364 111.358 223.931 110.965 224.105 110.355C224.236 109.745 223.887 109.135 223.277 109.004Z" fill="#11283C"/>
<path d="M227.592 117.243C226.284 116.284 214.558 108.437 220.618 107.347C223.931 106.737 227.287 106.388 230.644 106.345C230.426 106.345 230.251 106.388 230.033 106.388" stroke="#11283C" stroke-width="0.589447" stroke-miterlimit="10"/>
<path d="M180.077 93.3979C182.693 87.2079 190.016 83.6334 196.25 81.9769" stroke="#11283C" stroke-width="0.589447" stroke-miterlimit="10"/>
<path d="M196.511 83.0667C197.122 82.8923 197.47 82.2821 197.296 81.7154C197.122 81.1487 196.511 80.7563 195.945 80.9307C195.334 81.1051 194.986 81.7154 195.16 82.2821C195.334 82.8487 195.901 83.2411 196.511 83.0667Z" fill="#11283C"/>
<path d="M171.315 93.0492C171.965 93.0492 172.492 92.5223 172.492 91.8722C172.492 91.2222 171.965 90.6953 171.315 90.6953C170.665 90.6953 170.138 91.2222 170.138 91.8722C170.138 92.5223 170.665 93.0492 171.315 93.0492Z" fill="#A9C753"/>
<path d="M194.419 73.1714C195.069 73.1714 195.596 72.6444 195.596 71.9944C195.596 71.3444 195.069 70.8174 194.419 70.8174C193.769 70.8174 193.242 71.3444 193.242 71.9944C193.242 72.6444 193.769 73.1714 194.419 73.1714Z" fill="#A9C753"/>
<path d="M180.426 94.2261C181.076 94.2261 181.603 93.6992 181.603 93.0492C181.603 92.3991 181.076 91.8722 180.426 91.8722C179.776 91.8722 179.249 92.3991 179.249 93.0492C179.249 93.6992 179.776 94.2261 180.426 94.2261Z" fill="#A9C753"/>
<path d="M179.729 105.909C180.379 105.909 180.906 105.382 180.906 104.732C180.906 104.082 180.379 103.555 179.729 103.555C179.079 103.555 178.552 104.082 178.552 104.732C178.552 105.382 179.079 105.909 179.729 105.909Z" fill="#A9C753"/>
<path d="M204.445 116.894C205.095 116.894 205.622 116.367 205.622 115.717C205.622 115.067 205.095 114.54 204.445 114.54C203.795 114.54 203.268 115.067 203.268 115.717C203.268 116.367 203.795 116.894 204.445 116.894Z" fill="#A9C753"/>
<path d="M220.661 92.5261C221.311 92.5261 221.838 91.9991 221.838 91.3491C221.838 90.6991 221.311 90.1721 220.661 90.1721C220.011 90.1721 219.484 90.6991 219.484 91.3491C219.484 91.9991 220.011 92.5261 220.661 92.5261Z" fill="#A9C753"/>
<path d="M186.529 125.22C187.179 125.22 187.706 124.693 187.706 124.043C187.706 123.393 187.179 122.866 186.529 122.866C185.879 122.866 185.352 123.393 185.352 124.043C185.352 124.693 185.879 125.22 186.529 125.22Z" fill="#A9C753"/>
<path d="M195.509 140.303C217.032 140.303 234.48 122.855 234.48 101.332C234.48 79.8086 217.032 62.3607 195.509 62.3607C173.986 62.3607 156.538 79.8086 156.538 101.332C156.538 122.855 173.986 140.303 195.509 140.303Z" stroke="#A9C753" stroke-width="1.37833" stroke-miterlimit="10"/>
<path d="M173.321 105.037C171.446 106.301 166.52 108.611 167.61 111.358C168.961 114.714 170.836 117.94 172.972 120.861" stroke="#A9C753" stroke-width="0.421009" stroke-miterlimit="10" stroke-linecap="round" stroke-linejoin="round"/>
<path d="M175.369 123.084C176.939 124.871 178.726 126.484 180.688 127.835" stroke="#A9C753" stroke-width="0.421009" stroke-miterlimit="10" stroke-linecap="round" stroke-linejoin="round"/>
<path d="M206.189 118.158C204.925 119.509 202.396 121.166 202.004 122.997C201.655 124.653 202.919 126.135 203.573 127.53C204.707 129.884 205.971 132.195 206.45 134.766" stroke="#A9C753" stroke-width="0.421009" stroke-miterlimit="10" stroke-linecap="round" stroke-linejoin="round"/>
<path d="M207.453 117.068C209.022 115.325 210.591 113.624 212.248 111.968C213.512 110.704 216.346 109.483 217.828 111.096" stroke="#A9C753" stroke-width="0.421009" stroke-miterlimit="10" stroke-linecap="round" stroke-linejoin="round"/>
<path d="M204.271 85.595C206.537 87.6438 208.673 89.6926 210.068 92.4389C211.376 95.098 212.161 98.0186 212.292 100.983" stroke="#A9C753" stroke-width="0.421009" stroke-miterlimit="10" stroke-linecap="round" stroke-linejoin="round"/>
<path d="M174.541 81.9769C178.203 77.7921 183.434 74.3919 188.97 73.4329" stroke="#A9C753" stroke-width="0.421009" stroke-miterlimit="10" stroke-linecap="round" stroke-linejoin="round"/>
<path d="M205.709 67.7224C205.535 68.943 205.448 70.2507 205.23 71.4713C205.055 72.4739 204.794 73.5201 205.23 74.4791C205.578 75.2638 206.363 75.7869 207.148 76.1792C209.24 77.1382 211.376 77.0946 213.338 78.4024" stroke="#A9C753" stroke-width="0.421009" stroke-miterlimit="10" stroke-linecap="round" stroke-linejoin="round"/>
<path d="M214.776 79.3178C217.479 81.323 220.051 83.5026 221.402 86.6412" stroke="#A9C753" stroke-width="0.421009" stroke-miterlimit="10" stroke-linecap="round" stroke-linejoin="round"/>
<path d="M224.323 101.419C224.541 99.5007 224.541 97.5827 224.41 95.6647" stroke="#A9C753" stroke-width="0.421009" stroke-miterlimit="10" stroke-linecap="round" stroke-linejoin="round"/>
</g>
<defs>
<clipPath id="clip0_1573_1975">
<rect width="401" height="288.882" fill="white" transform="translate(0 0.547607)"/>
</clipPath>
</defs>
</svg>
