<svg width="164" height="43" viewBox="0 0 164 43" fill="none" xmlns="http://www.w3.org/2000/svg">
<g clip-path="url(#clip0_102_2)">
<path d="M95.1001 12L104.5 8.5L95.1001 4.9V0L111.2 6.5V10.5L95.1001 17V12Z" fill="white"/>
<path d="M6.2 43.0001C2.8 43.0001 0 41.3001 0 37.5001V37.3001C0 32.7001 4 31.1001 8.9 31.1001H11.2V30.2001C11.2 28.3001 10.4 27.2001 8.4 27.2001C6.6 27.2001 5.7 28.2001 5.6 29.6001H0.6C1 25.4001 4.3 23.4001 8.7 23.4001C13.2 23.4001 16.5 25.3001 16.5 30.0001V42.6001H11.4V40.4001C10.4 41.8001 8.7 43.0001 6.2 43.0001ZM11.2 36.4001V34.6001H9.1C6.5 34.6001 5.2 35.3001 5.2 37.0001V37.2001C5.2 38.5001 6 39.4001 7.8 39.4001C9.6 39.3001 11.2 38.3001 11.2 36.4001ZM28.4 43.0001C23.2 43.0001 19.4 39.8001 19.4 33.4001V33.1001C19.4 26.7001 23.4 23.3001 28.4 23.3001C32.7 23.3001 36.2 25.5001 36.6 30.4001H31.6C31.3 28.6001 30.3 27.4001 28.5 27.4001C26.3 27.4001 24.7 29.2001 24.7 32.9001V33.5001C24.7 37.3001 26.1 39.0001 28.5 39.0001C30.3 39.0001 31.6 37.7001 31.9 35.6001H36.7C36.4 40.0001 33.5 43.0001 28.4 43.0001ZM48 43.0001C42.8 43.0001 39 39.8001 39 33.4001V33.1001C39 26.7001 43 23.3001 48 23.3001C52.3 23.3001 55.8 25.5001 56.2 30.4001H51.2C50.9 28.6001 49.9 27.4001 48.1 27.4001C45.9 27.4001 44.3 29.2001 44.3 32.9001V33.5001C44.3 37.3001 45.7 39.0001 48.1 39.0001C49.9 39.0001 51.2 37.7001 51.5 35.6001H56.3C56 40.0001 53.1 43.0001 48 43.0001ZM67.7 43.0001C62.3 43.0001 58.6 39.8001 58.6 33.5001V33.1001C58.6 26.8001 62.5 23.3001 67.6 23.3001C72.3 23.3001 76.2 25.9001 76.2 32.2001V34.5001H63.9C64.1 37.9001 65.6 39.2001 67.8 39.2001C69.8 39.2001 70.9 38.1001 71.3 36.8001H76.2C75.6 40.3001 72.6 43.0001 67.7 43.0001ZM64 31.0001H71C70.9 28.2001 69.6 27.0001 67.5 27.0001C65.9 27.1001 64.4 28.0001 64 31.0001ZM79.4 23.8001H84.7V26.6001C85.6 24.8001 87.5 23.4001 90.4 23.4001C93.8 23.4001 96.1 25.5001 96.1 30.0001V42.6001H90.8V30.8001C90.8 28.6001 89.9 27.6001 88 27.6001C86.2 27.6001 84.7 28.7001 84.7 31.1001V42.6001H79.4V23.8001ZM105.8 18.1001V23.8001H109.4V27.7001H105.8V36.6001C105.8 38.0001 106.4 38.7001 107.7 38.7001C108.5 38.7001 109 38.6001 109.5 38.4001V42.5001C108.9 42.7001 107.8 42.9001 106.5 42.9001C102.4 42.9001 100.5 41.0001 100.5 37.2001V27.7001H98.3V23.8001H100.5V20.3001L105.8 18.1001ZM129.2 42.6001H124V39.8001C123.1 41.6001 121.3 43.0001 118.5 43.0001C115.1 43.0001 112.6 40.9001 112.6 36.5001V23.8001H117.9V35.8001C117.9 38.0001 118.8 39.0001 120.6 39.0001C122.4 39.0001 123.9 37.8001 123.9 35.5001V23.8001H129.2V42.6001ZM133.1 23.8001H138.4V27.3001C139.5 24.8001 141.3 23.6001 144.1 23.6001V28.8001C140.5 28.8001 138.4 29.9001 138.4 33.0001V42.7001H133.1V23.8001ZM154.8 43.0001C149.4 43.0001 145.7 39.8001 145.7 33.5001V33.1001C145.7 26.8001 149.6 23.3001 154.7 23.3001C159.4 23.3001 163.3 25.9001 163.3 32.2001V34.5001H151.1C151.3 37.9001 152.8 39.2001 155 39.2001C157 39.2001 158.1 38.1001 158.5 36.8001H163.4C162.6 40.3001 159.7 43.0001 154.8 43.0001ZM151 31.0001H158.1C158 28.2001 156.7 27.0001 154.6 27.0001C153 27.1001 151.5 28.0001 151 31.0001Z" fill="white"/>
</g>
<defs>
<clipPath id="clip0_102_2">
<rect width="163.2" height="43" fill="white"/>
</clipPath>
</defs>
</svg>
