<svg width="638" height="85" viewBox="0 0 638 85" fill="none" xmlns="http://www.w3.org/2000/svg">
<mask id="mask0_3_29" style="mask-type:luminance" maskUnits="userSpaceOnUse" x="0" y="0" width="638" height="85">
<path d="M0 84.8184H637.75V0H0V84.8184Z" fill="white"/>
</mask>
<g mask="url(#mask0_3_29)">
<path d="M401 80.9302C401 80.9302 415.019 84.8184 432.924 84.8184C452.006 84.8184 460.839 82.6978 460.839 82.6978V68.561C460.839 68.561 451.299 70.4467 437.987 70.4467C426.327 70.4467 419.14 68.9141 419.14 68.9141V48.8891H455.307V34.7525H419.14V15.6695C419.14 15.6695 426.207 14.3726 436.811 14.3726C448.71 14.3726 459.427 16.2579 459.427 16.2579V2.00337C459.427 2.00337 450.004 0 434.689 0C414.311 0 401 3.65475 401 3.65475V80.9302ZM142.541 48.7695C142.069 49.9493 141.483 52.1875 141.129 53.4839C140.776 52.1875 140.186 49.9493 139.716 48.7695L123.693 7.65875C120.984 0.826627 116.745 0 108.97 0C106.259 0 100.721 0.353996 100.721 0.353996L92.4761 83.6402H110.737L114.741 27.8032L132.057 70.0927C133.355 73.3911 135.945 74.6875 141.129 74.6875C146.31 74.6875 148.904 73.3911 150.199 70.0927L167.515 27.8032L171.521 83.6402H189.779L181.534 0.353996C181.534 0.353996 175.996 0 173.289 0C165.514 0 161.274 0.826627 158.562 7.65875L142.541 48.7695ZM51.1284 65.8521C47.2408 67.3843 37.815 70.4467 30.8662 70.4467C23.3261 70.4467 17.6724 67.8555 17.6724 59.6084C17.6724 52.4234 21.5576 48.3008 31.9277 47.9468L51.1284 47.2402V65.8521ZM40.29 0C24.0333 0 11.3105 4.00638 6.3623 6.481L10.2505 20.1455C10.2505 20.1455 22.7393 15.6695 34.9883 15.6695C45.4731 15.6695 50.8911 18.6132 50.8911 28.9795V34.8711H34.9883C8.01221 34.8711 0 47.2403 0 60.9058C0 79.0454 14.1378 84.8184 26.978 84.8184C41.9385 84.8184 50.6573 78.5757 51.7163 78.5757C52.542 78.5757 55.6045 81.8726 69.2676 81.8726V24.1504C69.2676 6.835 58.5494 0 40.29 0ZM258.931 65.8521C255.042 67.3843 245.619 70.4467 238.67 70.4467C231.129 70.4467 225.474 67.8555 225.474 59.6084C225.474 52.4234 229.362 48.3008 239.729 47.9468L258.931 47.2402V65.8521ZM248.091 0C231.834 0 219.112 4.00638 214.165 6.481L218.053 20.1455C218.053 20.1455 230.541 15.6695 242.79 15.6695C253.275 15.6695 258.694 18.6132 258.694 28.9795V34.8711H242.79C215.815 34.8711 207.803 47.2403 207.803 60.9058C207.803 79.0454 221.94 84.8184 234.781 84.8184C249.741 84.8184 258.459 78.5757 259.519 78.5757C260.344 78.5757 263.406 81.8726 277.071 81.8726V24.1504C277.071 6.835 266.351 0 248.091 0ZM537.06 62.9067C532.702 65.0259 523.279 68.561 514.68 68.561C502.189 68.561 500.07 62.9067 500.07 49.9492V0.707001C500.07 0.707001 498.891 0.707001 497.36 0.707001C493.239 0.707001 484.05 1.41363 481.811 1.88625V52.3052C481.811 74.335 487.231 84.8184 509.611 84.8184C526.694 84.8184 536.706 78.2227 537.411 78.2227C537.649 78.2227 543.54 81.8726 555.324 81.8726V1.88625C554.027 1.65038 545.188 0.707001 540.71 0.707001C539.063 0.707001 537.06 0.707001 537.06 0.707001V62.9067ZM576.891 81.8726C576.891 81.8726 588.2 84.8184 603.986 84.8184C618.948 84.8184 637.795 79.7534 637.795 59.4928C637.795 46.2964 628.018 40.6426 612.114 34.8711C603.515 31.69 596.21 28.8624 596.21 22.9717C596.21 20.1455 598.333 14.6094 609.286 14.6094C619.535 14.6094 630.021 19.3204 630.021 19.3204L634.616 5.774C631.55 4.24225 621.537 0 607.639 0C592.56 0 577.834 8.01175 577.834 24.1504C577.834 40.7623 592.912 45.8266 604.691 49.7149C612.705 52.4234 619.419 55.252 619.419 60.5518C619.419 65.7324 616.591 70.2115 603.044 70.2115C591.97 70.2115 580.19 67.7382 580.19 67.7382L576.891 81.8726ZM321.835 15.7861C324.78 15.1978 330.554 14.3726 336.325 14.3726C349.519 14.3726 359.888 21.7945 359.888 41.8228C359.888 61.2598 354.819 70.4467 334.677 70.4467C328.197 70.4467 321.835 69.5044 321.835 69.5044V15.7861ZM337.15 0C326.784 0 312.411 1.76762 303.576 4.94775V82.3438C310.881 83.8775 324.547 84.8184 334.089 84.8184C366.601 84.8184 379.206 72.0952 379.206 41.8228C379.206 15.6695 363.182 0 337.15 0Z" fill="white"/>
</g>
</svg>
