<svg width="1508" height="216" viewBox="0 0 1508 216" fill="none" xmlns="http://www.w3.org/2000/svg">
<path d="M1443.3 89.211C1416.2 79.831 1404.23 73.585 1404.23 59.523C1404.23 50.666 1409.96 37.12 1437.04 37.12C1462.57 37.12 1489.65 48.58 1489.65 48.58V9.50996C1478.19 4.81996 1457.88 0.136963 1434.96 0.136963C1395.89 0.136963 1358.38 20.97 1358.38 62.126C1358.38 103.282 1395.89 114.734 1421.42 123.074C1445.38 130.884 1461.53 138.7 1461.53 154.327C1461.53 167.873 1452.15 178.286 1421.42 178.286C1395.37 178.286 1364.11 167.873 1364.11 167.873V206.935C1364.11 206.935 1394.32 215.275 1423.5 215.275C1462.05 215.275 1507.36 201.728 1507.36 151.2C1507.36 116.82 1479.24 101.711 1443.3 89.211ZM461.383 212.664V0.136963H402.519L344.7 158.493L286.878 0.136963H228.015V212.664H268.125V52.23L326.467 212.665H360.327L421.273 52.23V212.665H461.383V212.664ZM602.016 0.136963H524.403V41.287C561.388 39.723 571.806 39.207 587.953 39.207C613.476 39.207 628.586 48.579 628.586 73.585V89.735H587.954C519.714 89.735 498.879 117.345 498.879 153.287C498.879 199.642 533.259 215.275 567.639 215.275C602.019 215.275 622.856 199.125 629.626 194.435V212.665H674.424V67.332C674.424 18.367 647.862 0.13797 602.016 0.13797V0.136963ZM628.586 167.349C617.126 171.516 596.286 178.809 576.494 178.809C557.741 178.809 542.636 170.476 542.636 150.16C542.636 131.924 554.096 122.55 579.097 121.51L628.586 119.424V167.349ZM993.23 36.596H1100.53V0.136963H947.383V212.664H1100.53V176.206H993.23V124.63H1084.38V88.688H993.229L993.23 36.596ZM1321.41 212.664V0.136963H1274.53V162.136C1263.07 167.349 1246.92 175.682 1223.48 175.682C1194.3 175.682 1185.45 159.532 1185.45 125.154V0.136963H1138.57V130.883C1138.57 185.579 1156.28 215.275 1212.02 215.275C1243.28 215.275 1258.9 203.815 1275.57 194.435V212.665H1321.41L1321.41 212.664ZM805.178 0.136963H720.794V212.664H805.178C876.546 212.664 912.488 179.849 912.488 104.321C912.488 38.159 873.42 0.136963 805.178 0.136963ZM803.091 175.682H767.672V37.12H803.092C838.517 37.12 864.563 54.309 864.563 104.321C864.563 152.24 847.373 175.682 803.091 175.682ZM104.03 0.136963H26.412V41.287C63.396 39.723 73.815 39.207 89.964 39.207C115.487 39.207 130.594 48.579 130.594 73.585V89.735H89.964C21.724 89.735 0.886963 117.345 0.886963 153.287C0.886963 199.642 35.267 215.275 69.647 215.275C104.027 215.275 124.865 199.125 131.637 194.435V212.665H176.435V67.332C176.435 18.367 149.869 0.13797 104.029 0.13797L104.03 0.136963ZM130.595 167.349C119.135 171.516 98.298 178.809 78.503 178.809C59.75 178.809 44.643 170.476 44.643 150.16C44.643 131.924 56.103 122.55 81.107 121.51L130.594 119.424V167.349H130.595Z" fill="white"/>
</svg>
