<svg width="154" height="36" viewBox="0 0 154 36" fill="none" xmlns="http://www.w3.org/2000/svg">
<g clip-path="url(#clip0_12_21)">
<path d="M90.92 30.11H68.44C68.2191 30.11 68.04 30.2891 68.04 30.51V34.68C68.04 34.9009 68.2191 35.08 68.44 35.08H90.92C91.141 35.08 91.32 34.9009 91.32 34.68V30.51C91.32 30.2891 91.141 30.11 90.92 30.11Z" fill="white"/>
<path d="M90.92 15.0601H68.44C68.2191 15.0601 68.04 15.2391 68.04 15.4601V19.6301C68.04 19.851 68.2191 20.0301 68.44 20.0301H90.92C91.141 20.0301 91.32 19.851 91.32 19.6301V15.4601C91.32 15.2391 91.141 15.0601 90.92 15.0601Z" fill="white"/>
<path d="M90.92 0H68.44C68.2191 0 68.04 0.179086 68.04 0.4V4.57C68.04 4.79091 68.2191 4.97 68.44 4.97H90.92C91.141 4.97 91.32 4.79091 91.32 4.57V0.4C91.32 0.179086 91.141 0 90.92 0Z" fill="white"/>
<path d="M37.61 0.24L47.1699 22.11C47.3099 22.42 47.75 22.42 47.89 22.11L57.3499 0.24C57.4099 0.1 57.5499 0.01 57.7099 0.01H62.31C62.6 0.01 62.7899 0.31 62.6699 0.57L47.9 34.85C47.76 35.16 47.32 35.16 47.18 34.85L32.29 0.56C32.17 0.3 32.36 0 32.65 0H37.25C37.41 0 37.55 0.09 37.61 0.24Z" fill="white"/>
<path d="M35.51 34.5199L20.62 0.239946C20.48 -0.0700537 20.04 -0.0700537 19.9 0.239946L10.27 22.5799H0.349975C0.099975 22.5799 -0.070025 22.8399 0.029975 23.0699L1.87997 27.3599C1.92997 27.4799 2.03998 27.5499 2.16998 27.5499H8.12998L5.12998 34.5199C5.00998 34.7799 5.19997 35.0799 5.48997 35.0799H10.09C10.25 35.0799 10.39 34.9899 10.45 34.8499L13.6 27.5599H26.99L30.18 34.8499C30.24 34.9899 30.38 35.0899 30.54 35.0899H35.14C35.43 35.0899 35.62 34.7999 35.5 34.5299L35.51 34.5199ZM15.75 22.5799L19.9 12.9699C20.04 12.6599 20.48 12.6599 20.62 12.9699L24.82 22.5799H15.74H15.75Z" fill="white"/>
<path d="M101.59 0.24L111.15 22.11C111.29 22.42 111.73 22.42 111.87 22.11L121.32 0.24C121.38 0.1 121.53 0 121.68 0H126.3C126.59 0 126.78 0.29 126.66 0.55L111.87 34.84C111.73 35.15 111.29 35.15 111.15 34.84L96.2699 0.56C96.1499 0.3 96.3399 0 96.6299 0H101.23C101.39 0 101.53 0.09 101.59 0.24Z" fill="white"/>
<path d="M153.93 34.5101L139.05 0.230059C138.91 -0.0799414 138.47 -0.0799414 138.33 0.230059L123.54 34.5201C123.42 34.7801 123.61 35.0701 123.9 35.0701H128.52C128.68 35.0701 128.82 34.9701 128.88 34.8301L132.03 27.5401H145.43L148.62 34.8301C148.68 34.9701 148.82 35.0701 148.98 35.0701H153.58C153.87 35.0701 154.06 34.7801 153.94 34.5101H153.93ZM134.17 22.5801L138.33 12.9601C138.47 12.6501 138.91 12.6501 139.05 12.9601L143.25 22.5801H134.17Z" fill="white"/>
</g>
<defs>
<clipPath id="clip0_12_21">
<rect width="153.97" height="35.08" fill="white"/>
</clipPath>
</defs>
</svg>
