<svg width="285" height="76" viewBox="0 0 285 76" fill="none" xmlns="http://www.w3.org/2000/svg">
<path d="M185.05 31.2702H155.94L147.1 45.1502H169.52C168.18 49.6802 165.64 53.5902 162.16 56.3602C158.69 59.1402 154.29 60.7802 149.25 60.7802C142.92 60.7802 137.24 58.1302 133.14 53.8902C129.04 49.6502 126.52 43.8102 126.52 37.4302C126.52 31.0502 129.07 25.3902 133.2 21.2002C137.34 17.0102 143.07 14.3802 149.45 14.3802C152.23 14.3802 154.8 14.8202 157.16 15.6202C159.53 16.4202 161.69 17.5702 163.64 19.0102L171.46 6.57023C168.48 4.46023 165.11 2.82023 161.43 1.70023C157.75 0.580234 153.77 -0.00976562 149.55 -0.00976562C143.94 -0.00976562 138.85 1.02023 134.32 2.88023C129.79 4.74023 125.83 7.44023 122.49 10.7902C114.52 18.7602 112.28 26.8102 110.69 34.2202C109.1 41.6302 108.14 48.3902 102.74 53.7902C100.48 56.0502 97.98 57.7802 95.26 58.9302C92.53 60.0902 89.58 60.6802 86.39 60.6802C79.86 60.6802 73.97 58.0102 69.71 53.7602C65.45 49.5202 62.83 43.7102 62.83 37.4302C62.83 31.1502 65.45 25.5002 69.71 21.2702C73.97 17.0402 79.85 14.3402 86.39 14.2902C89.12 14.3402 91.66 14.7502 94 15.5102C96.34 16.2702 98.47 17.3702 100.38 18.8102L108.3 6.37023C105.32 4.26023 101.95 2.67023 98.27 1.60023C94.59 0.530234 90.61 -0.00976562 86.39 -0.00976562C79.91 -0.00976562 73.87 1.56023 68.59 4.30023C63.32 7.04023 58.82 10.9502 55.42 15.6302C54.08 11.5102 51.33 7.99023 47.56 5.50023C43.79 3.00023 39.01 1.54023 33.61 1.54023H0V73.5502H37.13C41.81 73.5502 45.98 72.4502 49.45 70.5302C52.92 68.6102 55.7 65.8902 57.6 62.6502C61.05 66.4602 65.26 69.5702 70.05 71.7302C74.83 73.8902 80.18 75.1002 85.89 75.1002C92.63 75.1002 98.77 73.5302 104.1 70.7302C109.42 67.9302 113.92 63.8902 117.37 58.9502C120.66 63.8402 125.16 67.8702 130.52 70.6902C135.88 73.5102 142.1 75.1002 148.84 75.1002C159.18 75.1002 168.36 70.8802 174.95 64.0802C181.55 57.2802 185.56 47.8902 185.56 37.5502C185.56 36.4702 185.51 35.4202 185.42 34.3702C185.33 33.3302 185.2 32.3002 185.05 31.2702ZM15.64 14.9102H33.44C35.7 14.9102 37.71 15.7302 39.15 17.1202C40.59 18.5102 41.46 20.4602 41.46 22.7302C41.46 25.0002 40.59 26.9702 39.15 28.3902C37.71 29.8102 35.7 30.6502 33.44 30.6502H15.64V14.9102ZM42.98 57.7902C41.44 59.2702 39.3 60.1702 36.94 60.1702H15.64V43.8202H36.93C39.3 43.8202 41.43 44.6902 42.97 46.1502C44.51 47.6002 45.46 49.6402 45.46 51.9502C45.46 54.2602 44.51 56.3202 42.97 57.8002L42.98 57.7902Z" fill="white"/>
<path d="M213.51 1.05023H198.3L219.45 34.2802C220.72 36.2802 220.72 38.8202 219.45 40.8202L198.3 74.0502H213.51C216.37 74.0502 219.04 72.5902 220.58 70.1702L241.34 37.5502L220.58 4.92023C219.04 2.50023 216.38 1.04023 213.51 1.04023V1.05023Z" fill="white"/>
<path d="M263.23 34.2802L284.38 1.05023H269.17C266.31 1.05023 263.64 2.51023 262.11 4.93023L241.35 37.5502L262.11 70.1702C263.65 72.5902 266.31 74.0502 269.17 74.0502H284.38L263.23 40.8202C261.96 38.8202 261.96 36.2802 263.23 34.2802Z" fill="white"/>
</svg>
