<svg width="890" height="106" viewBox="0 0 890 106" fill="none" xmlns="http://www.w3.org/2000/svg">
<path d="M100.58 105.9C103.518 105.9 105.9 103.518 105.9 100.58C105.9 97.642 103.518 95.26 100.58 95.26C97.642 95.26 95.26 97.642 95.26 100.58C95.26 103.518 97.642 105.9 100.58 105.9Z" fill="white"/>
<path d="M53.26 105.9C56.198 105.9 58.58 103.518 58.58 100.58C58.58 97.642 56.198 95.26 53.26 95.26C50.322 95.26 47.94 97.642 47.94 100.58C47.94 103.518 50.322 105.9 53.26 105.9Z" fill="white"/>
<path d="M5.94011 105.9C8.87831 105.9 11.2601 103.518 11.2601 100.58C11.2601 97.642 8.87831 95.26 5.94011 95.26C3.00201 95.26 0.620102 97.642 0.620102 100.58C0.620102 103.518 3.00201 105.9 5.94011 105.9Z" fill="white"/>
<path d="M100.58 58.5799C103.518 58.5799 105.9 56.1979 105.9 53.2599C105.9 50.3219 103.518 47.9399 100.58 47.9399C97.642 47.9399 95.26 50.3219 95.26 53.2599C95.26 56.1979 97.642 58.5799 100.58 58.5799Z" fill="white"/>
<path d="M5.94011 58.5799C8.87831 58.5799 11.2601 56.1979 11.2601 53.2599C11.2601 50.3219 8.87831 47.9399 5.94011 47.9399C3.00201 47.9399 0.620102 50.3219 0.620102 53.2599C0.620102 56.1979 3.00201 58.5799 5.94011 58.5799Z" fill="white"/>
<path d="M100.58 11.2601C103.518 11.2601 105.9 8.87832 105.9 5.94012C105.9 3.00202 103.518 0.620117 100.58 0.620117C97.642 0.620117 95.26 3.00202 95.26 5.94012C95.26 8.87832 97.642 11.2601 100.58 11.2601Z" fill="white"/>
<path d="M53.26 11.2601C56.198 11.2601 58.58 8.87832 58.58 5.94012C58.58 3.00202 56.198 0.620117 53.26 0.620117C50.322 0.620117 47.94 3.00202 47.94 5.94012C47.94 8.87832 50.322 11.2601 53.26 11.2601Z" fill="white"/>
<path d="M5.94011 11.2601C8.87831 11.2601 11.2601 8.87832 11.2601 5.94012C11.2601 3.00202 8.87831 0.620117 5.94011 0.620117C3.00201 0.620117 0.620102 3.00202 0.620102 5.94012C0.620102 8.87832 3.00201 11.2601 5.94011 11.2601Z" fill="white"/>
<path d="M78.88 45.29H56.45V26.4599C56.45 26.0057 56.309 25.5628 56.045 25.193C55.781 24.8233 55.408 24.5452 54.979 24.3976C54.549 24.25 54.084 24.2403 53.649 24.3698C53.213 24.4993 52.829 24.7615 52.55 25.1199L25.9102 57.71C25.6587 58.033 25.5031 58.42 25.4612 58.827C25.4193 59.234 25.4928 59.644 25.6732 60.011C25.8537 60.379 26.1339 60.688 26.4817 60.903C26.8296 61.119 27.231 61.232 27.6402 61.23H50.07V80.06C50.07 80.514 50.212 80.957 50.476 81.327C50.74 81.697 51.112 81.975 51.542 82.122C51.971 82.27 52.436 82.28 52.872 82.15C53.307 82.021 53.691 81.758 53.97 81.4L80.61 48.81C80.862 48.487 81.017 48.1 81.059 47.693C81.101 47.286 81.028 46.876 80.847 46.508C80.667 46.141 80.387 45.832 80.039 45.617C79.691 45.401 79.289 45.288 78.88 45.29Z" fill="white"/>
<path d="M191.68 73.21V82.33H156.43V24.27H191.27V33.4H166V48.49H189.2V57.49H166V73.17L191.68 73.21Z" fill="white"/>
<path d="M235.54 73.21V82.33H202.36V24.27H211.9V73.21H235.54Z" fill="white"/>
<path d="M278.2 73.21V82.33H242.94V24.27H277.78V33.4H252.48V48.49H275.71V57.49H252.48V73.17L278.2 73.21Z" fill="white"/>
<path d="M284.48 53.3C284.48 36.47 297.17 23.19 314.84 23.19C319.856 23.1064 324.806 24.3428 329.194 26.7754C333.582 29.208 337.253 32.7513 339.84 37.05L331.54 41.86C328.47 36.13 322.17 32.48 314.87 32.48C302.35 32.48 294.05 41.36 294.05 53.3C294.05 65.24 302.35 74.12 314.87 74.12C322.17 74.12 328.56 70.47 331.54 64.75L339.84 69.48C335.03 77.94 325.57 83.41 314.84 83.41C297.17 83.41 284.48 70.14 284.48 53.3Z" fill="white"/>
<path d="M387.2 33.4H370.86V82.33H361.32V33.4H344.9V24.27H387.2V33.4Z" fill="white"/>
<path d="M415.43 61.18H404.15V82.33H394.61V24.2699H417.83C420.284 24.2607 422.716 24.7373 424.986 25.6722C427.255 26.6072 429.317 27.9821 431.052 29.7176C432.788 31.4531 434.163 33.5149 435.098 35.7843C436.033 38.0536 436.509 40.4855 436.5 42.9399C436.468 46.569 435.358 50.107 433.31 53.104C431.262 56.101 428.37 58.421 425 59.77L438.18 82.33H427.7L415.43 61.18ZM404.15 52.64H417.83C419.067 52.605 420.285 52.326 421.414 51.819C422.543 51.312 423.561 50.588 424.41 49.686C425.258 48.785 425.92 47.725 426.358 46.567C426.795 45.41 427 44.1769 426.96 42.9399C426.96 37.4599 422.89 33.2299 417.83 33.2299H404.15V52.64Z" fill="white"/>
<path d="M456.63 24.27V82.33H447.09V24.27H456.63Z" fill="white"/>
<path d="M466.66 53.3C466.66 36.47 479.35 23.19 497.02 23.19C502.037 23.1064 506.987 24.3428 511.374 26.7754C515.762 29.208 519.434 32.7513 522.02 37.05L513.72 41.86C510.65 36.13 504.35 32.48 497.05 32.48C484.52 32.48 476.23 41.36 476.23 53.3C476.23 65.24 484.52 74.12 497.05 74.12C504.35 74.12 510.74 70.47 513.72 64.75L522.02 69.48C517.21 77.94 507.75 83.41 497.02 83.41C479.35 83.41 466.66 70.14 466.66 53.3Z" fill="white"/>
<path d="M540.7 24.27V82.33H531.16V24.27H540.7Z" fill="white"/>
<path d="M590.31 33.4H574V82.33H564.47V33.4H548V24.27H590.31V33.4Z" fill="white"/>
<path d="M625.06 59.28V82.33H615.52V59.28L595.28 24.28H606.15L620.33 50L634.43 24.28H645.3L625.06 59.28Z" fill="white"/>
<path d="M732.8 82.33H723.26V40.94L705.6 70.14H704.44L686.77 40.86V82.33H677.23V24.27H687.51L705.02 53.27L722.6 24.27H732.8V82.33Z" fill="white"/>
<path d="M779.08 70.64H754.36L750.3 82.33H739.93L761 24.27H772.44L793.44 82.33H783.14L779.08 70.64ZM775.93 61.64L766.72 35.43L757.51 61.64H775.93Z" fill="white"/>
<path d="M841.15 43.3501C841.179 45.878 840.699 48.386 839.74 50.725C838.78 53.064 837.361 55.186 835.565 56.966C833.769 58.746 831.635 60.147 829.287 61.085C826.94 62.024 824.428 62.481 821.9 62.43H810V82.33H800.5V24.2701H821.9C824.429 24.212 826.945 24.6646 829.295 25.6008C831.646 26.5369 833.783 27.9374 835.58 29.7185C837.377 31.4996 838.797 33.6248 839.754 35.967C840.711 38.3091 841.186 40.8202 841.15 43.3501ZM831.61 43.3501C831.61 37.4601 827.54 33.2301 821.9 33.2301H810V53.47H821.9C827.54 53.47 831.61 49.16 831.61 43.3501Z" fill="white"/>
<path d="M846.41 69.15L854.62 64.34C856.7 70.22 861.18 74.12 869.06 74.12C876.61 74.12 879.84 70.72 879.84 66.49C879.84 61.35 875.28 59.61 866.65 56.95C857.65 54.22 848.82 50.95 848.82 39.9501C848.82 29.2501 857.69 23.1901 867.48 23.1901C871.743 23.0835 875.941 24.2437 879.544 26.524C883.147 28.8043 885.992 32.1021 887.72 36.0001L879.67 40.6401C877.6 36.0001 874 32.4801 867.48 32.4801C861.92 32.4801 858.36 35.3001 858.36 39.7001C858.36 44.1001 861.59 46.09 870.05 48.7C879.67 51.77 889.38 54.76 889.38 66.29C889.38 76.9 880.92 83.37 868.81 83.37C857.36 83.41 849.48 77.77 846.41 69.15Z" fill="white"/>
</svg>
