<svg width="486" height="448" viewBox="0 0 486 448" fill="none" xmlns="http://www.w3.org/2000/svg">
<path fill-rule="evenodd" clip-rule="evenodd" d="M160.275 0L243.133 54.6736L326.41 0.0212126L425.161 64.891V297.943L326.41 362.834L243.133 308.162L160.291 362.848L61.4843 297.945V65.0713L160.275 0ZM327.041 17.7436L244.408 72.4384L161.776 17.7436L77.0792 72.4384V289.187L161.776 343.88L244.408 289.187L327.041 343.88L409.674 289.187V72.4384L327.041 17.7436Z" fill="white"/>
<path fill-rule="evenodd" clip-rule="evenodd" d="M161.776 234.494L227.882 279.058L161.776 323.624V234.494ZM327.04 147.388V38.0015L391.08 80.5398V277.032L93.6044 82.5656L161.776 38.0015L327.04 147.388Z" fill="white"/>
<path d="M369.177 383.697L394.78 422.601V383.697H411.661V447.979H391.405L365.795 409.351V447.979H348.922V383.697H369.177ZM319.228 383.697L343.523 447.979H325.728L320.922 435.287H293.532L288.726 447.979H271.784L295.786 383.697H319.228ZM441.096 383.697V409.633L462.7 383.697H484.036L458.774 413.58L485.714 447.979H464.108L441.096 418.657V447.979H424.261V383.697H441.096ZM20.2575 383.697L45.8561 422.601V383.697H62.7392V447.979H42.4781L16.8795 409.351V447.979H0V383.697H20.2575ZM245.665 383.697C260.38 383.697 267.739 388.768 267.739 400.89C267.739 408.223 262.645 413.299 255.85 414.143C263.502 415.276 269.727 419.5 269.727 430.496C269.727 443.464 262.364 447.979 247.076 447.979H210.845V383.697H245.665ZM170.716 383.697C191.888 383.697 202.617 392.717 202.617 415.834C202.617 438.388 192.174 447.979 170.716 447.979H139.106V383.697H170.716ZM126.764 383.697V397.226H92.2932V408.788H121.113V422.323H92.2932V434.44H126.764V447.979H75.3384V383.697H126.764ZM243.967 422.323H227.829V434.44H243.967C249.908 434.44 251.04 431.906 251.04 428.52C251.04 425.138 249.338 422.323 243.967 422.323ZM169.305 397.226H156.039V434.44H169.305C177.492 434.44 183.985 430.496 183.985 415.834C183.985 401.174 177.492 397.226 169.305 397.226ZM307.65 400.05H306.808L298.328 422.323H316.126L307.65 400.05ZM241.983 397.226H227.829V408.788H241.983C247.931 408.788 249.061 406.528 249.061 403.147C249.061 399.765 247.931 397.226 241.983 397.226Z" fill="white"/>
<path d="M369.177 383.697L394.78 422.601V383.697H411.661V447.979H391.405L365.795 409.351V447.979H348.922V383.697H369.177ZM319.228 383.697L343.523 447.979H325.728L320.922 435.287H293.532L288.726 447.979H271.784L295.786 383.697H319.228ZM441.096 383.697V409.633L462.7 383.697H484.036L458.774 413.58L485.714 447.979H464.108L441.096 418.657V447.979H424.261V383.697H441.096ZM20.2575 383.697L45.8561 422.601V383.697H62.7392V447.979H42.4781L16.8795 409.351V447.979H0V383.697H20.2575ZM245.665 383.697C260.38 383.697 267.739 388.768 267.739 400.89C267.739 408.223 262.645 413.299 255.85 414.143C263.502 415.276 269.727 419.5 269.727 430.496C269.727 443.464 262.364 447.979 247.076 447.979H210.845V383.697H245.665ZM170.716 383.697C191.888 383.697 202.617 392.717 202.617 415.834C202.617 438.388 192.174 447.979 170.716 447.979H139.106V383.697H170.716ZM126.764 383.697V397.226H92.2932V408.788H121.113V422.323H92.2932V434.44H126.764V447.979H75.3384V383.697H126.764ZM243.967 422.323H227.829V434.44H243.967C249.908 434.44 251.04 431.906 251.04 428.52C251.04 425.138 249.338 422.323 243.967 422.323ZM169.305 397.226H156.039V434.44H169.305C177.492 434.44 183.985 430.496 183.985 415.834C183.985 401.174 177.492 397.226 169.305 397.226ZM307.65 400.05H306.808L298.328 422.323H316.126L307.65 400.05ZM241.983 397.226H227.829V408.788H241.983C247.931 408.788 249.061 406.528 249.061 403.147C249.061 399.765 247.931 397.226 241.983 397.226Z" fill="white"/>
</svg>
