<svg width="597" height="170" viewBox="0 0 597 170" fill="none" xmlns="http://www.w3.org/2000/svg">
<g clip-path="url(#clip0_2_2)">
<path d="M256.48 38.04L256.93 39.43L246.95 44.09L246.48 42.12C245.93 39.87 244.71 38.14 242.59 36.69C240.42 35.24 238.15 34.52 235.6 34.52C233.69 34.52 232.09 34.89 230.75 35.59C229.48 36.25 228.4 37.33 227.54 38.87C226.94 40.24 226.66 41.57 226.64 42.95C226.7 46.22 227.98 48.36 231.11 50.13L247.48 56.17L247.61 56.24C250.85 58.03 253.37 60.53 255.11 63.63C256.81 66.69 257.7 70.02 257.69 73.51C257.7 76.49 257.08 79.37 255.87 82.08C254.64 84.84 252.8 87.28 250.26 89.48C245.97 92.48 241.09 94 235.78 93.99H235.74C230.99 93.99 226.57 92.78 222.46 90.3C220.29 88.69 218.58 86.84 217.39 84.75C216.23 82.71 215.25 80.18 214.35 77.1L213.97 75.78L224.58 70.4V73.1C224.6 76.33 225.67 78.81 227.95 80.94C230.26 83.09 232.82 84.1 235.95 84.11C237.15 84.11 238.35 83.93 239.54 83.54C240.69 83.18 241.84 82.57 243.02 81.69C244.07 80.9 244.92 79.83 245.61 78.36C246.29 76.92 246.62 75.43 246.62 73.83C246.62 71.3 246.04 69.73 245.21 68.86C244.03 67.59 243.09 66.76 242.6 66.46C242.05 66.1 240.62 65.38 238.59 64.48L227.4 60.54C223.91 58.89 221.04 56.61 218.85 53.7C216.64 50.77 215.49 47.33 215.5 43.61C215.5 42.5 215.73 40.93 216.18 38.6C216.7 35.91 218.25 33.28 220.67 30.6C223.14 27.88 225.98 26.1 229.11 25.48C231.93 24.92 234.45 24.63 236.73 24.63C237.69 24.63 238.45 24.66 239.07 24.73C239.74 24.81 241.04 25.05 243.22 25.48C245.76 25.99 248.28 27.41 250.86 29.59C253.53 31.84 255.43 34.7 256.5 38.02" fill="white"/>
<path d="M277.85 92.87V25.76H315.83V35.97H288.85V51.52H315.83V61.4H288.83V82.65H315.83V92.86H277.85V92.87Z" fill="white"/>
<path d="M393.29 94.25H391L346.84 45.67V92.87H336.37V24.2L338.05 24.22H340.58L384.31 72.81V25.76H394.95V94.25H393.29Z" fill="white"/>
<path d="M433.78 92.87V35.8H415.41V25.76H463.38V35.8H445.03V92.87H433.78Z" fill="white"/>
<path d="M529.16 90.17L531.29 92.85L516.65 92.87L495.18 63.67V92.87H483.85V25.74L509.13 26.02C514.08 26 518.4 28 521.55 31.79C524.69 35.51 526.31 39.95 526.3 44.84C526.3 47.43 525.85 49.9 524.93 52.18C523.99 54.51 522.47 56.61 520.35 58.54C518.07 60.39 515.54 61.74 512.8 62.55L512.59 62.62L507.33 62.6L529.17 90.18M495.18 53.78H507.75C510.13 53.76 511.64 53.04 512.87 51.52C514.14 49.89 514.79 47.97 514.8 45.52C514.8 43.47 514.35 41.68 513.45 40.02C512.59 38.45 511.4 37.37 509.73 36.64C509.06 36.38 508.35 36.15 507.57 35.98C506.85 35.8 506.21 35.72 505.68 35.72H495.18V53.78Z" fill="white"/>
<path d="M562.86 92.87V63.05L539.92 25.77L553.34 25.75L568.73 52.46L583.39 25.79L593.21 25.77L596.14 25.75L573.93 63.04V92.87H562.85H562.86Z" fill="white"/>
<path d="M236.77 115.91L233.11 117.63C232.77 116.21 231.95 115.05 230.65 114.17C229.35 113.29 227.92 112.85 226.38 112.85C225.23 112.85 224.23 113.07 223.36 113.52C222.49 113.97 221.78 114.71 221.22 115.73C220.85 116.57 220.67 117.41 220.67 118.28C220.67 120.36 221.64 121.92 223.59 122.97L232.41 126.22C234.02 127.12 235.25 128.33 236.1 129.86C236.95 131.39 237.37 133.02 237.37 134.75C237.37 136.23 237.07 137.65 236.47 139.01C235.86 140.37 234.96 141.58 233.75 142.62C231.58 144.14 229.16 144.9 226.46 144.9C224.05 144.9 221.83 144.29 219.82 143.08C218.73 142.27 217.91 141.37 217.34 140.36C216.76 139.35 216.25 138.05 215.79 136.43L219.55 134.53C219.55 136.48 220.25 138.11 221.64 139.41C223.04 140.71 224.68 141.36 226.57 141.36C227.31 141.36 228.04 141.24 228.77 141.01C229.49 140.78 230.21 140.4 230.9 139.88C231.6 139.36 232.16 138.65 232.57 137.76C232.99 136.86 233.2 135.93 233.2 134.94C233.2 133.46 232.87 132.36 232.2 131.66C231.53 130.95 231.01 130.47 230.62 130.22C230.24 129.98 229.46 129.59 228.27 129.07L222.33 126.98C220.57 126.14 219.14 125.01 218.06 123.56C216.97 122.12 216.44 120.49 216.44 118.67C216.44 118.2 216.56 117.36 216.78 116.14C217.01 114.92 217.75 113.63 218.99 112.26C220.22 110.91 221.58 110.07 223.05 109.77C224.52 109.48 225.83 109.33 226.97 109.33C227.47 109.33 227.85 109.35 228.13 109.38C228.41 109.41 229.13 109.54 230.29 109.77C231.45 110 232.69 110.69 234.01 111.79C235.33 112.91 236.24 114.28 236.77 115.92V115.91Z" fill="white"/>
<path d="M299.53 126.84C299.53 131.93 297.74 136.26 294.17 139.83C290.6 143.41 286.27 145.21 281.19 145.21C276.11 145.21 271.64 143.48 267.94 140.02C264.24 136.57 262.39 132.33 262.39 127.31C262.39 122.29 264.18 117.9 267.76 114.32C271.33 110.74 275.65 108.95 280.73 108.95C285.81 108.95 290.28 110.68 293.98 114.14C297.68 117.59 299.52 121.83 299.52 126.85L299.53 126.84ZM295.26 126.75C295.26 122.82 293.84 119.48 290.99 116.75C288.14 114.03 284.72 112.66 280.73 112.66C276.74 112.66 273.47 114.09 270.75 116.94C268.03 119.78 266.67 123.21 266.67 127.22C266.67 131.23 268.08 134.48 270.92 137.19C273.75 139.9 277.18 141.26 281.2 141.26C285.22 141.26 288.46 139.83 291.18 136.98C293.9 134.13 295.26 130.72 295.26 126.75Z" fill="white"/>
<path d="M343.13 127.48H328.69V144.28H324.65V109.92H343.13V113.54H328.69V123.94H343.13V127.47V127.48Z" fill="white"/>
<path d="M392.22 113.54H382.33V144.28H378.06V113.54H368.18V109.92H392.22V113.54Z" fill="white"/>
<path d="M459.66 109.93L447.08 145.36H445.82L437.21 118.23L428.73 145.37H427.52L414.31 109.93H418.95L427.95 137.32L436.72 109.55H437.75L446.61 137.32L455.24 109.93H459.66Z" fill="white"/>
<path d="M506.55 144.28H501.73L497.33 133.6H483.64L479.24 144.28H474.79L489.88 108.95H491L506.55 144.28ZM496.02 130.49L490.25 115.66L484.67 130.49H496.02Z" fill="white"/>
<path d="M554.02 144.28H548.43L535.53 126.73V144.28H531.21V109.92L543.93 110.06C546.37 110.06 548.38 110.98 549.94 112.84C551.5 114.7 552.28 116.85 552.28 119.29C552.28 120.59 552.05 121.8 551.6 122.91C551.15 124.03 550.42 125.04 549.4 125.97C548.26 126.9 547.01 127.57 545.64 127.97H541.1L554.01 144.26V144.28H554.02ZM544.58 114.06C544.17 113.9 543.75 113.77 543.31 113.66C542.86 113.55 542.45 113.5 542.08 113.5H535.54V125.01H543.2C544.68 125.01 545.84 124.49 546.65 123.46C547.47 122.43 547.88 121.16 547.88 119.68C547.88 118.44 547.6 117.32 547.05 116.29C546.49 115.27 545.67 114.52 544.59 114.06H544.58Z" fill="white"/>
<path d="M596.06 144.28H577.41V109.92H596.06V113.63H581.53V123.8H596.06V127.33H581.53V140.55H596.06V144.27V144.28Z" fill="white"/>
<path d="M125.05 10.14C107.64 20.91 101.23 32.25 101.38 40.89C101.38 44.04 102.14 47.05 103.65 50.01C108.11 58.7 114.04 66.45 119.15 74.07C124.17 81.68 128.75 89.33 128.83 98.55C128.83 101.86 128.16 105.29 126.74 108.61C122.61 118.21 114.08 122.9 106.87 125.15C102.76 126.44 98.92 127.04 95.91 127.34L90.67 115.66H90.71C92.27 115.66 97.84 115.47 103.27 113.75C108.8 111.99 113.6 108.98 115.73 103.92C116.54 102.01 116.86 100.31 116.87 98.56C116.95 93.85 114.05 87.9 109.2 80.74C104.44 73.59 98.12 65.4 93.01 55.5C90.68 50.98 89.4 46.01 89.41 40.9C89.53 28.04 97.05 15.53 112.07 4.51C103.5 1.6 94.34 0 84.79 0C37.95 0 0 37.97 0 84.79C0 131.61 37.95 169.62 84.79 169.62C131.63 169.62 169.58 131.63 169.58 84.79C169.58 52.54 151.57 24.49 125.05 10.15V10.14ZM129.04 50.84C123.04 52.22 117.06 48.49 115.67 42.51C114.28 36.52 118.01 30.53 124.01 29.14C130 27.76 135.98 31.49 137.37 37.48C138.76 43.47 135.02 49.44 129.04 50.84Z" fill="white"/>
</g>
<defs>
<clipPath id="clip0_2_2">
<rect width="596.14" height="169.62" fill="white"/>
</clipPath>
</defs>
</svg>
